M48
; DRILL file {KiCad 6.0.2+dfsg-1} date Tue 23 May 2023 11:44:52 PM CDT
; FORMAT={-:-/ absolute / inch / decimal}
; #@! TF.CreationDate,2023-05-23T23:44:52-05:00
; #@! TF.GenerationSoftware,Kicad,Pcbnew,6.0.2+dfsg-1
; #@! TF.FileFunction,Plated,1,2,PTH
FMAT,2
INCH
; #@! TA.AperFunction,Plated,PTH,ViaDrill
T1C0.0118
; #@! TA.AperFunction,Plated,PTH,ViaDrill
T2C0.0157
; #@! TA.AperFunction,Plated,PTH,ComponentDrill
T3C0.0181
; #@! TA.AperFunction,Plated,PTH,ComponentDrill
T4C0.0354
; #@! TA.AperFunction,Plated,PTH,ComponentDrill
T5C0.0394
; #@! TA.AperFunction,Plated,PTH,ComponentDrill
T6C0.0669
%
G90
G05
T1
X2.0374Y-2.6181
X2.0374Y-2.7165
X2.0374Y-2.815
X2.0374Y-2.9134
X2.0374Y-3.0217
X2.1063Y-3.2677
X2.4409Y-3.4646
X2.5886Y-2.2244
X2.628Y-2.2244
X2.6969Y-2.0472
X2.8642Y-2.6083
X2.9035Y-2.6083
X3.0217Y-2.874
X3.0217Y-2.9035
X3.0217Y-2.9331
X3.0512Y-2.874
X3.0512Y-2.9035
X3.0512Y-2.9331
X3.0807Y-2.874
X3.0807Y-2.9035
X3.0807Y-2.9331
X3.2677Y-2.2441
X3.2776Y-3.75
X3.3071Y-2.2441
X3.3071Y-2.2835
X3.3071Y-2.3228
X3.3661Y-2.2441
X3.3661Y-2.2835
X3.3661Y-2.3228
X3.4055Y-2.2441
X3.4646Y-2.185
X3.4941Y-2.185
X3.5236Y-2.185
X3.9665Y-3.1496
X4.0453Y-3.2283
X4.0551Y-2.9921
X4.1535Y-3.0906
X4.1535Y-3.4055
X4.1535Y-3.563
X4.1929Y-3.4055
X4.1929Y-3.5236
X4.2323Y-3.4055
X4.2323Y-3.5236
X4.5669Y-3.0315
X4.7244Y-2.8839
X4.7244Y-3.0315
X4.7638Y-3.4154
X4.7638Y-3.5531
T2
X2.0315Y-2.2894
X2.0315Y-2.3287
X2.1063Y-3.5925
X2.2244Y-3.2087
X2.2539Y-3.3957
X2.2638Y-3.2087
X2.2933Y-3.3957
X2.3031Y-3.2087
X2.3425Y-3.2087
X2.4016Y-3.248
X2.4114Y-4.0945
X2.4409Y-3.248
X2.4508Y-4.0945
X2.4902Y-3.248
X2.5Y-3.563
X2.5295Y-3.248
X2.5984Y-3.4646
X2.5984Y-3.5039
X2.6181Y-3.248
X2.6575Y-3.4154
X2.6772Y-3.878
X2.7165Y-3.6713
X2.7756Y-3.6713
X2.815Y-3.6713
X3.1102Y-3.937
X3.1102Y-3.9764
X3.1496Y-3.5728
X3.2185Y-2.4803
X3.2283Y-3.6516
X3.2579Y-2.4803
X3.2776Y-3.0118
X3.3169Y-3.0118
X3.3465Y-3.8681
X3.3563Y-2.4803
X3.3563Y-3.7795
X3.3957Y-2.4803
X3.4154Y-3.0118
X3.4252Y-3.8484
X3.4449Y-4.0256
X3.4547Y-3.0118
X3.4843Y-4.0256
X3.5207Y-3.061
X3.5236Y-3.563
X3.563Y-3.563
X3.6024Y-3.563
X3.7697Y-2.815
X3.7992Y-3.248
X3.8091Y-2.815
X3.8386Y-3.248
X3.8701Y-2.6181
X3.8701Y-2.6575
X3.8701Y-2.7165
X3.8701Y-2.7559
X3.8976Y-4.0157
X3.9567Y-3.2972
X3.9567Y-3.3366
X3.9567Y-4.0157
X3.9961Y-3.8878
X3.9961Y-3.9764
X4.0157Y-2.7264
X4.0453Y-3.3858
X4.0453Y-3.5827
X4.2126Y-4.0748
X4.252Y-4.0748
X4.3799Y-3.5531
X4.4193Y-3.5531
X4.439Y-2.1063
X4.4488Y-3.1496
X4.4587Y-2.3819
X4.4685Y-2.8051
X4.4882Y-2.4114
X4.5276Y-3.0709
X4.5669Y-3.4055
X4.6063Y-3.4055
X4.6654Y-2.5689
X4.7244Y-2.5394
X4.7244Y-2.5984
X4.7638Y-2.1063
X4.7736Y-2.6378
X4.8031Y-2.6673
X4.8228Y-3.563
X4.8425Y-3.1299
X4.872Y-3.5138
X5.3937Y-4.311
X5.4331Y-4.311
X5.4921Y-4.311
X5.5315Y-4.311
T3
X2.3822Y-4.1935
X2.6572Y-4.1935
X3.1696Y-4.1935
X3.4446Y-4.1935
X3.957Y-4.1935
X4.232Y-4.1935
T4
X2.0866Y-4.0748
X2.0866Y-4.1929
X2.1866Y-4.0748
X2.1866Y-4.1929
X2.4213Y-3.0512
X2.6673Y-2.6575
X2.874Y-4.0748
X2.874Y-4.1929
X2.974Y-4.0748
X2.974Y-4.1929
X3.6417Y-4.0748
X3.6417Y-4.1929
X3.7417Y-4.0748
X3.7417Y-4.1929
X4.7752Y-3.8388
X4.8252Y-3.9388
X4.8752Y-3.8388
X4.9252Y-3.9388
X4.9752Y-3.8388
X5.0252Y-3.9388
X5.0752Y-3.8388
X5.1752Y-3.8388
X5.2252Y-3.9388
T5
X3.4941Y-2.7067
X3.5941Y-2.7067
X3.8553Y-2.1352
X3.8553Y-2.2352
X3.9553Y-2.1352
X3.9553Y-2.2352
X4.0553Y-2.1352
X4.0553Y-2.2352
X4.1553Y-2.1352
X4.1553Y-2.2352
X4.2553Y-2.1352
X4.2553Y-2.2352
X4.739Y-4.3486
X4.839Y-4.3486
X5.161Y-4.3486
X5.261Y-4.3486
X5.3823Y-3.622
X5.4823Y-3.622
T6
X4.6949Y-4.0687
X5.3051Y-4.0687
T0
M30
