%TF.GenerationSoftware,KiCad,Pcbnew,6.0.2+dfsg-1*%
%TF.CreationDate,2023-05-24T12:36:40-05:00*%
%TF.ProjectId,ethernet,65746865-726e-4657-942e-6b696361645f,rev?*%
%TF.SameCoordinates,Original*%
%TF.FileFunction,Copper,L2,Bot*%
%TF.FilePolarity,Positive*%
%FSLAX46Y46*%
G04 Gerber Fmt 4.6, Leading zero omitted, Abs format (unit mm)*
G04 Created by KiCad (PCBNEW 6.0.2+dfsg-1) date 2023-05-24 12:36:40*
%MOMM*%
%LPD*%
G01*
G04 APERTURE LIST*
%TA.AperFunction,SMDPad,CuDef*%
%ADD10R,2.665000X4.190000*%
%TD*%
%TA.AperFunction,SMDPad,CuDef*%
%ADD11R,0.460000X0.890000*%
%TD*%
%TA.AperFunction,ComponentPad*%
%ADD12C,0.970000*%
%TD*%
%TA.AperFunction,ComponentPad*%
%ADD13R,1.700000X1.700000*%
%TD*%
%TA.AperFunction,ComponentPad*%
%ADD14O,1.700000X1.700000*%
%TD*%
%TA.AperFunction,ComponentPad*%
%ADD15R,1.800000X1.800000*%
%TD*%
%TA.AperFunction,ComponentPad*%
%ADD16C,1.800000*%
%TD*%
%TA.AperFunction,ComponentPad*%
%ADD17C,2.000000*%
%TD*%
%TA.AperFunction,ComponentPad*%
%ADD18C,3.000000*%
%TD*%
%TA.AperFunction,ViaPad*%
%ADD19C,0.800000*%
%TD*%
%TA.AperFunction,ViaPad*%
%ADD20C,0.600000*%
%TD*%
%TA.AperFunction,Conductor*%
%ADD21C,1.016000*%
%TD*%
%TA.AperFunction,Conductor*%
%ADD22C,0.152400*%
%TD*%
%TA.AperFunction,Conductor*%
%ADD23C,0.254000*%
%TD*%
G04 APERTURE END LIST*
D10*
%TO.P,J2,2,Ext*%
%TO.N,GND*%
X107492500Y-109500000D03*
D11*
X107492500Y-106960000D03*
D10*
X100507500Y-109500000D03*
D11*
X100507500Y-106960000D03*
D12*
X100507500Y-106515000D03*
X107492500Y-106515000D03*
%TD*%
D13*
%TO.P,J4,1,Pin_1*%
%TO.N,+BATT*%
X88750000Y-68750000D03*
D14*
%TO.P,J4,2,Pin_2*%
%TO.N,GND*%
X91290000Y-68750000D03*
%TD*%
D10*
%TO.P,J6,2,Ext*%
%TO.N,GND*%
X67492500Y-109500000D03*
D11*
X67492500Y-106960000D03*
D12*
X60507500Y-106515000D03*
D11*
X60507500Y-106960000D03*
D12*
X67492500Y-106515000D03*
D10*
X60507500Y-109500000D03*
%TD*%
D15*
%TO.P,D2,1,K*%
%TO.N,GND*%
X92500000Y-106500000D03*
D16*
%TO.P,D2,2,A*%
%TO.N,Net-(D2-Pad2)*%
X95040000Y-106500000D03*
%TD*%
D12*
%TO.P,J5,2,Ext*%
%TO.N,GND*%
X87492500Y-106515000D03*
D10*
X87492500Y-109500000D03*
X80507500Y-109500000D03*
D12*
X80507500Y-106515000D03*
D11*
X87492500Y-106960000D03*
X80507500Y-106960000D03*
%TD*%
D15*
%TO.P,J1,1,TD+*%
%TO.N,Net-(J1-Pad1)*%
X121290000Y-97505000D03*
D16*
%TO.P,J1,2,TD-*%
%TO.N,Net-(J1-Pad2)*%
X122560000Y-100045000D03*
%TO.P,J1,3,RD+*%
%TO.N,Net-(J1-Pad3)*%
X123830000Y-97505000D03*
%TO.P,J1,4,CT*%
%TO.N,+3V3*%
X125100000Y-100045000D03*
%TO.P,J1,5,CT*%
X126370000Y-97505000D03*
%TO.P,J1,6,RD-*%
%TO.N,Net-(J1-Pad6)*%
X127640000Y-100045000D03*
%TO.P,J1,7,7*%
%TO.N,GND*%
X128910000Y-97505000D03*
%TO.P,J1,9,V+*%
%TO.N,Net-(C24-Pad2)*%
X131450000Y-97505000D03*
%TO.P,J1,10,V-*%
%TO.N,Net-(C24-Pad1)*%
X132720000Y-100045000D03*
D17*
%TO.P,J1,11,LLED+*%
%TO.N,Net-(J1-Pad11)*%
X120370000Y-110455000D03*
%TO.P,J1,12,LLED-*%
%TO.N,GND*%
X122910000Y-110455000D03*
%TO.P,J1,13,RLED+*%
%TO.N,Net-(J1-Pad13)*%
X131090000Y-110455000D03*
%TO.P,J1,14,RLED-*%
%TO.N,GND*%
X133630000Y-110455000D03*
D18*
%TO.P,J1,15,SHIELD*%
%TO.N,Net-(C13-Pad1)*%
X134750000Y-103345000D03*
X119250000Y-103345000D03*
%TD*%
D15*
%TO.P,D3,1,K*%
%TO.N,GND*%
X73000000Y-103500000D03*
D16*
%TO.P,D3,2,A*%
%TO.N,Net-(D3-Pad2)*%
X75540000Y-103500000D03*
%TD*%
%TO.P,J9,1,Pin_1*%
%TO.N,-POE*%
X67750000Y-67500000D03*
%TD*%
D13*
%TO.P,J7,1,Pin_1*%
%TO.N,Net-(C24-Pad1)*%
X139250000Y-92000000D03*
D14*
%TO.P,J7,2,Pin_2*%
%TO.N,Net-(C24-Pad2)*%
X136710000Y-92000000D03*
%TD*%
D15*
%TO.P,D6,1,K*%
%TO.N,GND*%
X53000000Y-106500000D03*
D16*
%TO.P,D6,2,A*%
%TO.N,Net-(D6-Pad2)*%
X55540000Y-106500000D03*
%TD*%
D15*
%TO.P,D5,1,K*%
%TO.N,GND*%
X53000000Y-103500000D03*
D16*
%TO.P,D5,2,A*%
%TO.N,Net-(D5-Pad2)*%
X55540000Y-103500000D03*
%TD*%
D13*
%TO.P,J3,1,VTref*%
%TO.N,+3V3*%
X97925000Y-56775000D03*
D14*
%TO.P,J3,2,SWDIO/TMS*%
%TO.N,Net-(J3-Pad2)*%
X97925000Y-54235000D03*
%TO.P,J3,3,GND*%
%TO.N,GND*%
X100465000Y-56775000D03*
%TO.P,J3,4,SWDCLK/TCK*%
%TO.N,Net-(J3-Pad4)*%
X100465000Y-54235000D03*
%TO.P,J3,5,GND*%
%TO.N,GND*%
X103005000Y-56775000D03*
%TO.P,J3,6,SWO/TDO*%
%TO.N,Net-(J3-Pad6)*%
X103005000Y-54235000D03*
%TO.P,J3,7,KEY*%
%TO.N,unconnected-(J3-Pad7)*%
X105545000Y-56775000D03*
%TO.P,J3,8,NC/TDI*%
%TO.N,Net-(J3-Pad8)*%
X105545000Y-54235000D03*
%TO.P,J3,9,GNDDetect*%
%TO.N,GND*%
X108085000Y-56775000D03*
%TO.P,J3,10,~{RESET}*%
%TO.N,~{RST}*%
X108085000Y-54235000D03*
%TD*%
D16*
%TO.P,J8,1,Pin_1*%
%TO.N,+POE*%
X61500000Y-77500000D03*
%TD*%
D15*
%TO.P,D1,1,K*%
%TO.N,GND*%
X92500000Y-103500000D03*
D16*
%TO.P,D1,2,A*%
%TO.N,Net-(D1-Pad2)*%
X95040000Y-103500000D03*
%TD*%
D15*
%TO.P,D4,1,K*%
%TO.N,GND*%
X73000000Y-106500000D03*
D16*
%TO.P,D4,2,A*%
%TO.N,Net-(D4-Pad2)*%
X75540000Y-106500000D03*
%TD*%
D19*
%TO.N,GND*%
X126250000Y-75500000D03*
X126250000Y-74500000D03*
X118250000Y-65250000D03*
X120000000Y-63750000D03*
X119750000Y-67000000D03*
X131250000Y-90250000D03*
D20*
X65750000Y-56500000D03*
D19*
X87500000Y-102250000D03*
X140500000Y-109500000D03*
D20*
X76750000Y-73000000D03*
D19*
X112750000Y-53500000D03*
X114000000Y-61250000D03*
X139500000Y-109500000D03*
D20*
X100750000Y-80000000D03*
X77500000Y-73000000D03*
X86500000Y-57000000D03*
D19*
X117000000Y-86500000D03*
X123000000Y-79500000D03*
X90500000Y-90500000D03*
X85250000Y-63000000D03*
D20*
X77500000Y-73750000D03*
D19*
X137000000Y-109500000D03*
X99000000Y-102000000D03*
D20*
X85500000Y-59000000D03*
D19*
X115000000Y-78000000D03*
X131250000Y-91250000D03*
X98300000Y-66500000D03*
D20*
X120000000Y-77000000D03*
D19*
X107000000Y-103500000D03*
X86750000Y-76500000D03*
X119000000Y-66250000D03*
X113500000Y-71250000D03*
D20*
X78250000Y-74500000D03*
D19*
X89500000Y-78000000D03*
X113250000Y-60500000D03*
D20*
X85500000Y-57000000D03*
D19*
X102000000Y-69250000D03*
X82750000Y-63000000D03*
X79000000Y-100000000D03*
X108000000Y-103500000D03*
X114250000Y-65750000D03*
D20*
X120000000Y-73250000D03*
D19*
X84250000Y-76500000D03*
X101500000Y-98750000D03*
D20*
X78250000Y-73750000D03*
D19*
X101500000Y-101000000D03*
X87750000Y-76500000D03*
X62250000Y-104000000D03*
D20*
X83000000Y-57000000D03*
D19*
X89500000Y-90500000D03*
X113000000Y-80000000D03*
X97500000Y-82500000D03*
D20*
X89500000Y-55500000D03*
X84000000Y-58000000D03*
D19*
X100500000Y-102000000D03*
D20*
X85500000Y-58000000D03*
X88750000Y-55500000D03*
D19*
X81750000Y-63000000D03*
D20*
X88000000Y-55500000D03*
X77500000Y-74500000D03*
X78250000Y-73000000D03*
D19*
X112250000Y-90250000D03*
X91500000Y-90500000D03*
X121000000Y-53500000D03*
X88500000Y-102250000D03*
X98300000Y-67500000D03*
D20*
X76750000Y-74500000D03*
D19*
X96750000Y-71500000D03*
X100500000Y-83750000D03*
D20*
X102750000Y-82000000D03*
D19*
X111250000Y-90250000D03*
X126500000Y-86750000D03*
X86250000Y-63000000D03*
X120500000Y-88500000D03*
X100500000Y-84750000D03*
X85000000Y-98250000D03*
D20*
X72750000Y-66250000D03*
D19*
X120500000Y-67750000D03*
X83250000Y-76500000D03*
X79000000Y-101000000D03*
X120500000Y-89500000D03*
X119250000Y-64500000D03*
D20*
X84000000Y-59000000D03*
D19*
X116000000Y-86500000D03*
X125500000Y-86750000D03*
D20*
X73750000Y-66250000D03*
X116000000Y-77000000D03*
X66750000Y-56500000D03*
X68500000Y-52000000D03*
D19*
X138000000Y-109500000D03*
D20*
X76750000Y-73750000D03*
D19*
X68000000Y-98500000D03*
X98300000Y-69000000D03*
D20*
X84000000Y-57000000D03*
D19*
X96500000Y-82500000D03*
X95750000Y-71500000D03*
X121250000Y-68500000D03*
X98300000Y-70000000D03*
X61250000Y-104000000D03*
D20*
%TO.N,+3V3*%
X83250000Y-95250000D03*
D19*
X87000000Y-97750000D03*
X82000000Y-92750000D03*
X102750000Y-91000000D03*
X80000000Y-90750000D03*
X85250000Y-96000000D03*
X102750000Y-86000000D03*
D20*
%TO.N,uPPS*%
X103000000Y-76000000D03*
X105500000Y-78500000D03*
%TO.N,Net-(U1-Pad31)*%
X106500000Y-86500000D03*
X106500000Y-89500000D03*
%TO.N,Net-(U1-Pad32)*%
X107500000Y-89500000D03*
X107500000Y-86500000D03*
%TO.N,GPS_LED*%
X105500000Y-90500000D03*
X105500000Y-86500000D03*
D19*
%TO.N,-POE*%
X74500000Y-93250000D03*
X72000000Y-93250000D03*
X66750000Y-83250000D03*
X56000000Y-89000000D03*
X56000000Y-88000000D03*
X51750000Y-90250000D03*
X62250000Y-83250000D03*
X59500000Y-81500000D03*
D20*
X51750000Y-74000000D03*
D19*
X73500000Y-93250000D03*
X51600000Y-58150000D03*
X65750000Y-83250000D03*
X61250000Y-83250000D03*
D20*
X51750000Y-71500000D03*
D19*
X57500000Y-81500000D03*
X66500000Y-90750000D03*
X69000000Y-88000000D03*
X70750000Y-86750000D03*
X51600000Y-59150000D03*
X64750000Y-83250000D03*
X63250000Y-83250000D03*
X58500000Y-81500000D03*
D20*
X51750000Y-76750000D03*
X51750000Y-66500000D03*
D19*
X69750000Y-82500000D03*
X56500000Y-81500000D03*
X69000000Y-89000000D03*
D20*
X51750000Y-69000000D03*
%TO.N,Net-(Q4-Pad3)*%
X52250000Y-81750000D03*
X65000000Y-88000000D03*
%TD*%
D21*
%TO.N,+3V3*%
X82000000Y-92750000D02*
X83875000Y-94625000D01*
X83250000Y-95250000D02*
X83875000Y-94625000D01*
X85250000Y-96000000D02*
X87000000Y-97750000D01*
X102750000Y-86000000D02*
X102750000Y-91000000D01*
X80000000Y-90750000D02*
X82000000Y-92750000D01*
X83875000Y-94625000D02*
X85250000Y-96000000D01*
D22*
%TO.N,uPPS*%
X103000000Y-76000000D02*
X105500000Y-78500000D01*
%TO.N,Net-(U1-Pad31)*%
X106500000Y-86500000D02*
X106500000Y-89500000D01*
%TO.N,Net-(U1-Pad32)*%
X107500000Y-86500000D02*
X107500000Y-89500000D01*
%TO.N,GPS_LED*%
X105500000Y-90500000D02*
X105500000Y-86500000D01*
D23*
%TO.N,Net-(Q4-Pad3)*%
X65000000Y-88000000D02*
X58500000Y-88000000D01*
X58500000Y-88000000D02*
X52250000Y-81750000D01*
%TD*%
%TA.AperFunction,Conductor*%
%TO.N,-POE*%
G36*
X55942121Y-57270002D02*
G01*
X55988614Y-57323658D01*
X56000000Y-57376000D01*
X56000000Y-66250000D01*
X68447810Y-66250000D01*
X68515931Y-66270002D01*
X68536905Y-66286905D01*
X71713095Y-69463095D01*
X71747121Y-69525407D01*
X71750000Y-69552190D01*
X71750000Y-78750000D01*
X74874000Y-78750000D01*
X74942121Y-78770002D01*
X74988614Y-78823658D01*
X75000000Y-78876000D01*
X75000000Y-93624000D01*
X74979998Y-93692121D01*
X74926342Y-93738614D01*
X74874000Y-93750000D01*
X51126000Y-93750000D01*
X51057879Y-93729998D01*
X51011386Y-93676342D01*
X51000000Y-93624000D01*
X51000000Y-81750000D01*
X51690715Y-81750000D01*
X51709772Y-81894754D01*
X51765645Y-82029642D01*
X51854526Y-82145474D01*
X51861076Y-82150500D01*
X51861079Y-82150503D01*
X51963804Y-82229327D01*
X51970357Y-82234355D01*
X52105246Y-82290228D01*
X52141559Y-82295009D01*
X52230355Y-82306699D01*
X52295283Y-82335421D01*
X52303004Y-82342526D01*
X58191954Y-88231476D01*
X58207318Y-88250499D01*
X58208282Y-88251558D01*
X58213929Y-88260304D01*
X58222108Y-88266752D01*
X58222110Y-88266754D01*
X58240477Y-88281234D01*
X58244950Y-88285209D01*
X58245011Y-88285137D01*
X58248968Y-88288490D01*
X58252649Y-88292171D01*
X58256881Y-88295195D01*
X58268439Y-88303455D01*
X58273185Y-88307018D01*
X58313670Y-88338934D01*
X58322355Y-88341984D01*
X58329843Y-88347335D01*
X58379266Y-88362115D01*
X58384840Y-88363927D01*
X58433502Y-88381016D01*
X58439091Y-88381500D01*
X58441802Y-88381500D01*
X58444469Y-88381615D01*
X58444532Y-88381634D01*
X58444525Y-88381808D01*
X58445271Y-88381855D01*
X58451524Y-88383725D01*
X58505688Y-88381597D01*
X58510634Y-88381500D01*
X64543544Y-88381500D01*
X64611665Y-88401502D01*
X64620248Y-88407538D01*
X64720357Y-88484355D01*
X64855246Y-88540228D01*
X65000000Y-88559285D01*
X65008188Y-88558207D01*
X65136566Y-88541306D01*
X65144754Y-88540228D01*
X65279643Y-88484355D01*
X65286196Y-88479327D01*
X65388921Y-88400503D01*
X65388924Y-88400500D01*
X65395474Y-88395474D01*
X65404490Y-88383725D01*
X65464757Y-88305183D01*
X65484355Y-88279642D01*
X65489694Y-88266754D01*
X65537069Y-88152380D01*
X65540228Y-88144754D01*
X65559285Y-88000000D01*
X65540228Y-87855246D01*
X65484355Y-87720358D01*
X65406197Y-87618500D01*
X65400501Y-87611077D01*
X65400500Y-87611076D01*
X65395474Y-87604526D01*
X65388924Y-87599500D01*
X65388921Y-87599497D01*
X65286196Y-87520673D01*
X65286194Y-87520672D01*
X65279643Y-87515645D01*
X65144754Y-87459772D01*
X65000000Y-87440715D01*
X64991812Y-87441793D01*
X64863432Y-87458694D01*
X64863430Y-87458695D01*
X64855246Y-87459772D01*
X64807430Y-87479578D01*
X64727986Y-87512485D01*
X64727984Y-87512486D01*
X64720358Y-87515645D01*
X64713805Y-87520673D01*
X64713802Y-87520675D01*
X64620247Y-87592462D01*
X64554027Y-87618063D01*
X64543543Y-87618500D01*
X58710213Y-87618500D01*
X58642092Y-87598498D01*
X58621118Y-87581595D01*
X52842526Y-81803003D01*
X52808500Y-81740691D01*
X52806699Y-81730355D01*
X52801553Y-81691267D01*
X52790228Y-81605246D01*
X52734355Y-81470358D01*
X52645474Y-81354526D01*
X52638924Y-81349500D01*
X52638921Y-81349497D01*
X52536196Y-81270673D01*
X52536194Y-81270672D01*
X52529643Y-81265645D01*
X52394754Y-81209772D01*
X52250000Y-81190715D01*
X52241812Y-81191793D01*
X52113432Y-81208694D01*
X52113430Y-81208695D01*
X52105246Y-81209772D01*
X52057430Y-81229578D01*
X51977986Y-81262485D01*
X51977984Y-81262486D01*
X51970358Y-81265645D01*
X51854526Y-81354526D01*
X51765645Y-81470358D01*
X51709772Y-81605246D01*
X51690715Y-81750000D01*
X51000000Y-81750000D01*
X51000000Y-77469649D01*
X60340951Y-77469649D01*
X60354829Y-77681377D01*
X60407058Y-77887031D01*
X60495890Y-78079723D01*
X60618350Y-78253000D01*
X60770337Y-78401059D01*
X60775133Y-78404264D01*
X60775136Y-78404266D01*
X60917186Y-78499180D01*
X60946760Y-78518941D01*
X60952063Y-78521219D01*
X60952066Y-78521221D01*
X61033908Y-78556383D01*
X61141711Y-78602699D01*
X61217750Y-78619905D01*
X61343025Y-78648252D01*
X61343030Y-78648253D01*
X61348662Y-78649527D01*
X61354433Y-78649754D01*
X61354435Y-78649754D01*
X61419911Y-78652326D01*
X61560681Y-78657857D01*
X61665674Y-78642634D01*
X61764953Y-78628239D01*
X61764958Y-78628238D01*
X61770667Y-78627410D01*
X61776131Y-78625555D01*
X61776136Y-78625554D01*
X61869240Y-78593949D01*
X61971589Y-78559207D01*
X62049221Y-78515731D01*
X62151670Y-78458357D01*
X62151674Y-78458354D01*
X62156717Y-78455530D01*
X62319852Y-78319852D01*
X62455530Y-78156717D01*
X62458354Y-78151674D01*
X62458357Y-78151670D01*
X62556383Y-77976632D01*
X62556384Y-77976630D01*
X62559207Y-77971589D01*
X62627410Y-77770667D01*
X62639545Y-77686979D01*
X62657324Y-77564355D01*
X62657857Y-77560681D01*
X62659446Y-77500000D01*
X62640031Y-77288708D01*
X62582436Y-77084492D01*
X62488590Y-76894191D01*
X62361636Y-76724179D01*
X62337524Y-76701890D01*
X62210066Y-76584069D01*
X62210063Y-76584067D01*
X62205826Y-76580150D01*
X62026377Y-76466926D01*
X61829300Y-76388300D01*
X61823643Y-76387175D01*
X61823637Y-76387173D01*
X61626863Y-76348033D01*
X61626859Y-76348033D01*
X61621195Y-76346906D01*
X61615420Y-76346830D01*
X61615416Y-76346830D01*
X61508804Y-76345434D01*
X61409031Y-76344128D01*
X61403334Y-76345107D01*
X61403333Y-76345107D01*
X61386305Y-76348033D01*
X61199913Y-76380061D01*
X61000846Y-76453501D01*
X60995885Y-76456453D01*
X60995884Y-76456453D01*
X60823463Y-76559032D01*
X60823460Y-76559034D01*
X60818495Y-76561988D01*
X60814155Y-76565794D01*
X60814151Y-76565797D01*
X60663309Y-76698083D01*
X60658968Y-76701890D01*
X60527607Y-76868520D01*
X60428812Y-77056299D01*
X60365891Y-77258938D01*
X60340951Y-77469649D01*
X51000000Y-77469649D01*
X51000000Y-57376000D01*
X51020002Y-57307879D01*
X51073658Y-57261386D01*
X51126000Y-57250000D01*
X55874000Y-57250000D01*
X55942121Y-57270002D01*
G37*
%TD.AperFunction*%
%TD*%
%TA.AperFunction,Conductor*%
%TO.N,GND*%
G36*
X140973138Y-51017593D02*
G01*
X140998858Y-51062142D01*
X141000000Y-51075200D01*
X141000000Y-89674800D01*
X140982407Y-89723138D01*
X140937858Y-89748858D01*
X140924800Y-89750000D01*
X134500000Y-89750000D01*
X134500000Y-90968852D01*
X134482407Y-91017190D01*
X134477974Y-91022026D01*
X129750000Y-95750000D01*
X129750000Y-101750000D01*
X133068452Y-101750000D01*
X133116790Y-101767593D01*
X133142510Y-101812142D01*
X133133577Y-101862800D01*
X133121626Y-101878374D01*
X132750000Y-102250000D01*
X132750000Y-104250000D01*
X132977089Y-104477089D01*
X132998829Y-104523709D01*
X132985515Y-104573396D01*
X132943378Y-104602901D01*
X132916381Y-104605085D01*
X132813140Y-104594689D01*
X132813132Y-104594689D01*
X132811259Y-104594500D01*
X132652056Y-104594500D01*
X132650674Y-104594603D01*
X132650666Y-104594603D01*
X132558932Y-104601420D01*
X132453123Y-104609283D01*
X132192109Y-104668345D01*
X132189510Y-104669356D01*
X132189509Y-104669356D01*
X132152289Y-104683830D01*
X131942691Y-104765338D01*
X131710350Y-104898132D01*
X131500189Y-105063810D01*
X131316825Y-105258731D01*
X131164286Y-105478615D01*
X131045924Y-105718629D01*
X131045075Y-105721283D01*
X131045072Y-105721289D01*
X130965188Y-105970847D01*
X130964338Y-105973503D01*
X130921322Y-106237636D01*
X130921286Y-106240423D01*
X130921285Y-106240429D01*
X130920741Y-106282003D01*
X130917819Y-106505226D01*
X130918196Y-106507995D01*
X130918196Y-106507997D01*
X130940170Y-106669455D01*
X130953907Y-106770395D01*
X131028792Y-107027317D01*
X131029958Y-107029846D01*
X131029959Y-107029849D01*
X131065001Y-107105861D01*
X131140831Y-107270348D01*
X131142357Y-107272676D01*
X131142359Y-107272679D01*
X131185097Y-107337864D01*
X131287562Y-107494149D01*
X131465760Y-107693803D01*
X131671512Y-107864925D01*
X131673900Y-107866374D01*
X131897914Y-108002310D01*
X131897921Y-108002313D01*
X131900298Y-108003756D01*
X132147091Y-108107245D01*
X132406470Y-108173119D01*
X132459015Y-108178410D01*
X132626860Y-108195311D01*
X132626868Y-108195311D01*
X132628741Y-108195500D01*
X132787944Y-108195500D01*
X132789326Y-108195397D01*
X132789334Y-108195397D01*
X132881068Y-108188580D01*
X132986877Y-108180717D01*
X133247891Y-108121655D01*
X133284947Y-108107245D01*
X133494704Y-108025675D01*
X133497309Y-108024662D01*
X133729650Y-107891868D01*
X133939811Y-107726190D01*
X134123175Y-107531269D01*
X134275714Y-107311385D01*
X134394076Y-107071371D01*
X134394925Y-107068717D01*
X134394928Y-107068711D01*
X134474812Y-106819153D01*
X134474813Y-106819151D01*
X134475662Y-106816497D01*
X134518678Y-106552364D01*
X134519335Y-106502216D01*
X134522000Y-106298591D01*
X134522181Y-106284774D01*
X134486093Y-106019605D01*
X134411208Y-105762683D01*
X134400392Y-105739220D01*
X134346893Y-105623174D01*
X134299169Y-105519652D01*
X134297486Y-105517084D01*
X134198713Y-105366432D01*
X134186923Y-105316361D01*
X134210076Y-105270427D01*
X134261602Y-105250000D01*
X135750000Y-105250000D01*
X136750000Y-104250000D01*
X136750000Y-102250000D01*
X136378374Y-101878374D01*
X136356634Y-101831754D01*
X136369948Y-101782067D01*
X136412085Y-101752562D01*
X136431548Y-101750000D01*
X140924800Y-101750000D01*
X140973138Y-101767593D01*
X140998858Y-101812142D01*
X141000000Y-101825200D01*
X141000000Y-111424800D01*
X140982407Y-111473138D01*
X140937858Y-111498858D01*
X140924800Y-111500000D01*
X131919106Y-111500000D01*
X131870768Y-111482407D01*
X131845048Y-111437858D01*
X131853981Y-111387200D01*
X131871020Y-111366983D01*
X131939874Y-111309717D01*
X131942518Y-111307518D01*
X132083602Y-111137884D01*
X132191410Y-110945379D01*
X132220194Y-110860586D01*
X132261221Y-110739722D01*
X132262331Y-110736452D01*
X132293991Y-110518098D01*
X132295643Y-110455000D01*
X132275454Y-110235289D01*
X132215565Y-110022936D01*
X132199606Y-109990573D01*
X132119505Y-109828146D01*
X132117980Y-109825053D01*
X131985967Y-109648267D01*
X131823949Y-109498499D01*
X131821038Y-109496662D01*
X131640261Y-109382600D01*
X131640255Y-109382597D01*
X131637350Y-109380764D01*
X131432421Y-109299006D01*
X131216024Y-109255962D01*
X131082457Y-109254214D01*
X130998849Y-109253119D01*
X130998848Y-109253119D01*
X130995406Y-109253074D01*
X130992015Y-109253657D01*
X130992011Y-109253657D01*
X130781349Y-109289855D01*
X130781347Y-109289855D01*
X130777957Y-109290438D01*
X130570957Y-109366804D01*
X130381341Y-109479614D01*
X130215457Y-109625090D01*
X130213323Y-109627796D01*
X130213321Y-109627799D01*
X130197186Y-109648267D01*
X130078863Y-109798360D01*
X130077260Y-109801408D01*
X130077258Y-109801410D01*
X129977734Y-109990573D01*
X129976131Y-109993620D01*
X129975111Y-109996905D01*
X129965999Y-110026252D01*
X129910703Y-110204333D01*
X129884770Y-110423440D01*
X129884995Y-110426874D01*
X129884995Y-110426877D01*
X129886984Y-110457217D01*
X129899200Y-110643604D01*
X129953511Y-110857452D01*
X130045883Y-111057821D01*
X130047879Y-111060645D01*
X130171232Y-111235187D01*
X130171235Y-111235191D01*
X130173222Y-111238002D01*
X130175689Y-111240405D01*
X130309679Y-111370934D01*
X130332027Y-111417266D01*
X130319364Y-111467123D01*
X130277617Y-111497177D01*
X130257205Y-111500000D01*
X121199106Y-111500000D01*
X121150768Y-111482407D01*
X121125048Y-111437858D01*
X121133981Y-111387200D01*
X121151020Y-111366983D01*
X121219874Y-111309717D01*
X121222518Y-111307518D01*
X121363602Y-111137884D01*
X121471410Y-110945379D01*
X121500194Y-110860586D01*
X121541221Y-110739722D01*
X121542331Y-110736452D01*
X121573991Y-110518098D01*
X121575643Y-110455000D01*
X121555454Y-110235289D01*
X121495565Y-110022936D01*
X121479606Y-109990573D01*
X121399505Y-109828146D01*
X121397980Y-109825053D01*
X121265967Y-109648267D01*
X121103949Y-109498499D01*
X121101038Y-109496662D01*
X120920261Y-109382600D01*
X120920255Y-109382597D01*
X120917350Y-109380764D01*
X120712421Y-109299006D01*
X120496024Y-109255962D01*
X120362457Y-109254214D01*
X120278849Y-109253119D01*
X120278848Y-109253119D01*
X120275406Y-109253074D01*
X120272015Y-109253657D01*
X120272011Y-109253657D01*
X120061349Y-109289855D01*
X120061347Y-109289855D01*
X120057957Y-109290438D01*
X119850957Y-109366804D01*
X119661341Y-109479614D01*
X119495457Y-109625090D01*
X119493323Y-109627796D01*
X119493321Y-109627799D01*
X119477186Y-109648267D01*
X119358863Y-109798360D01*
X119357260Y-109801408D01*
X119357258Y-109801410D01*
X119257734Y-109990573D01*
X119256131Y-109993620D01*
X119255111Y-109996905D01*
X119245999Y-110026252D01*
X119190703Y-110204333D01*
X119164770Y-110423440D01*
X119164995Y-110426874D01*
X119164995Y-110426877D01*
X119166984Y-110457217D01*
X119179200Y-110643604D01*
X119233511Y-110857452D01*
X119325883Y-111057821D01*
X119327879Y-111060645D01*
X119451232Y-111235187D01*
X119451235Y-111235191D01*
X119453222Y-111238002D01*
X119455689Y-111240405D01*
X119589679Y-111370934D01*
X119612027Y-111417266D01*
X119599364Y-111467123D01*
X119557617Y-111497177D01*
X119537205Y-111500000D01*
X51075200Y-111500000D01*
X51026862Y-111482407D01*
X51001142Y-111437858D01*
X51000000Y-111424800D01*
X51000000Y-106471069D01*
X54435164Y-106471069D01*
X54435389Y-106474503D01*
X54435389Y-106474506D01*
X54437403Y-106505226D01*
X54448392Y-106672894D01*
X54498178Y-106868928D01*
X54582856Y-107052607D01*
X54699588Y-107217780D01*
X54702051Y-107220179D01*
X54702055Y-107220184D01*
X54841996Y-107356507D01*
X54844466Y-107358913D01*
X54847335Y-107360830D01*
X55009769Y-107469366D01*
X55009772Y-107469368D01*
X55012637Y-107471282D01*
X55015801Y-107472641D01*
X55015804Y-107472643D01*
X55156995Y-107533303D01*
X55198470Y-107551122D01*
X55201826Y-107551881D01*
X55201831Y-107551883D01*
X55392380Y-107595000D01*
X55392383Y-107595000D01*
X55395740Y-107595760D01*
X55496791Y-107599730D01*
X55594397Y-107603565D01*
X55594401Y-107603565D01*
X55597842Y-107603700D01*
X55717108Y-107586408D01*
X55794595Y-107575173D01*
X55794598Y-107575172D01*
X55798007Y-107574678D01*
X55925885Y-107531269D01*
X55986268Y-107510772D01*
X55986271Y-107510771D01*
X55989531Y-107509664D01*
X56166001Y-107410837D01*
X56321505Y-107281505D01*
X56450837Y-107126001D01*
X56549664Y-106949531D01*
X56614678Y-106758007D01*
X56643700Y-106557842D01*
X56643771Y-106555125D01*
X56645157Y-106502216D01*
X56645157Y-106502215D01*
X56645215Y-106500000D01*
X56642873Y-106474506D01*
X56642557Y-106471069D01*
X74435164Y-106471069D01*
X74435389Y-106474503D01*
X74435389Y-106474506D01*
X74437403Y-106505226D01*
X74448392Y-106672894D01*
X74498178Y-106868928D01*
X74582856Y-107052607D01*
X74699588Y-107217780D01*
X74702051Y-107220179D01*
X74702055Y-107220184D01*
X74841996Y-107356507D01*
X74844466Y-107358913D01*
X74847335Y-107360830D01*
X75009769Y-107469366D01*
X75009772Y-107469368D01*
X75012637Y-107471282D01*
X75015801Y-107472641D01*
X75015804Y-107472643D01*
X75156995Y-107533303D01*
X75198470Y-107551122D01*
X75201826Y-107551881D01*
X75201831Y-107551883D01*
X75392380Y-107595000D01*
X75392383Y-107595000D01*
X75395740Y-107595760D01*
X75496791Y-107599730D01*
X75594397Y-107603565D01*
X75594401Y-107603565D01*
X75597842Y-107603700D01*
X75717108Y-107586408D01*
X75794595Y-107575173D01*
X75794598Y-107575172D01*
X75798007Y-107574678D01*
X75925885Y-107531269D01*
X75986268Y-107510772D01*
X75986271Y-107510771D01*
X75989531Y-107509664D01*
X76166001Y-107410837D01*
X76321505Y-107281505D01*
X76450837Y-107126001D01*
X76549664Y-106949531D01*
X76614678Y-106758007D01*
X76643700Y-106557842D01*
X76643771Y-106555125D01*
X76645157Y-106502216D01*
X76645157Y-106502215D01*
X76645215Y-106500000D01*
X76642873Y-106474506D01*
X76642557Y-106471069D01*
X93935164Y-106471069D01*
X93935389Y-106474503D01*
X93935389Y-106474506D01*
X93937403Y-106505226D01*
X93948392Y-106672894D01*
X93998178Y-106868928D01*
X94082856Y-107052607D01*
X94199588Y-107217780D01*
X94202051Y-107220179D01*
X94202055Y-107220184D01*
X94341996Y-107356507D01*
X94344466Y-107358913D01*
X94347335Y-107360830D01*
X94509769Y-107469366D01*
X94509772Y-107469368D01*
X94512637Y-107471282D01*
X94515801Y-107472641D01*
X94515804Y-107472643D01*
X94656995Y-107533303D01*
X94698470Y-107551122D01*
X94701826Y-107551881D01*
X94701831Y-107551883D01*
X94892380Y-107595000D01*
X94892383Y-107595000D01*
X94895740Y-107595760D01*
X94996791Y-107599730D01*
X95094397Y-107603565D01*
X95094401Y-107603565D01*
X95097842Y-107603700D01*
X95217108Y-107586408D01*
X95294595Y-107575173D01*
X95294598Y-107575172D01*
X95298007Y-107574678D01*
X95425885Y-107531269D01*
X95486268Y-107510772D01*
X95486271Y-107510771D01*
X95489531Y-107509664D01*
X95666001Y-107410837D01*
X95821505Y-107281505D01*
X95950837Y-107126001D01*
X96049664Y-106949531D01*
X96114678Y-106758007D01*
X96143700Y-106557842D01*
X96143771Y-106555125D01*
X96145157Y-106502216D01*
X96145157Y-106502215D01*
X96145215Y-106500000D01*
X96142873Y-106474506D01*
X96127023Y-106302024D01*
X96126708Y-106298591D01*
X96071807Y-106103926D01*
X95982351Y-105922527D01*
X95861335Y-105760467D01*
X95712812Y-105623174D01*
X95688979Y-105608136D01*
X95659403Y-105589475D01*
X95541757Y-105515246D01*
X95421885Y-105467422D01*
X95357107Y-105441578D01*
X95357104Y-105441577D01*
X95353898Y-105440298D01*
X95350517Y-105439625D01*
X95350512Y-105439624D01*
X95158909Y-105401512D01*
X95158910Y-105401512D01*
X95155526Y-105400839D01*
X95031308Y-105399213D01*
X94956729Y-105398237D01*
X94956728Y-105398237D01*
X94953286Y-105398192D01*
X94949895Y-105398775D01*
X94949891Y-105398775D01*
X94757341Y-105431861D01*
X94757339Y-105431861D01*
X94753949Y-105432444D01*
X94564193Y-105502449D01*
X94390371Y-105605862D01*
X94387778Y-105608136D01*
X94261785Y-105718629D01*
X94238305Y-105739220D01*
X94113089Y-105898057D01*
X94111486Y-105901105D01*
X94111484Y-105901107D01*
X94071947Y-105976255D01*
X94018914Y-106077053D01*
X94017894Y-106080338D01*
X93969910Y-106234875D01*
X93958937Y-106270213D01*
X93958532Y-106273633D01*
X93958532Y-106273634D01*
X93957214Y-106284774D01*
X93935164Y-106471069D01*
X76642557Y-106471069D01*
X76627023Y-106302024D01*
X76626708Y-106298591D01*
X76571807Y-106103926D01*
X76482351Y-105922527D01*
X76361335Y-105760467D01*
X76212812Y-105623174D01*
X76188979Y-105608136D01*
X76159403Y-105589475D01*
X76041757Y-105515246D01*
X75921885Y-105467422D01*
X75857107Y-105441578D01*
X75857104Y-105441577D01*
X75853898Y-105440298D01*
X75850517Y-105439625D01*
X75850512Y-105439624D01*
X75658909Y-105401512D01*
X75658910Y-105401512D01*
X75655526Y-105400839D01*
X75531308Y-105399213D01*
X75456729Y-105398237D01*
X75456728Y-105398237D01*
X75453286Y-105398192D01*
X75449895Y-105398775D01*
X75449891Y-105398775D01*
X75257341Y-105431861D01*
X75257339Y-105431861D01*
X75253949Y-105432444D01*
X75064193Y-105502449D01*
X74890371Y-105605862D01*
X74887778Y-105608136D01*
X74761785Y-105718629D01*
X74738305Y-105739220D01*
X74613089Y-105898057D01*
X74611486Y-105901105D01*
X74611484Y-105901107D01*
X74571947Y-105976255D01*
X74518914Y-106077053D01*
X74517894Y-106080338D01*
X74469910Y-106234875D01*
X74458937Y-106270213D01*
X74458532Y-106273633D01*
X74458532Y-106273634D01*
X74457214Y-106284774D01*
X74435164Y-106471069D01*
X56642557Y-106471069D01*
X56627023Y-106302024D01*
X56626708Y-106298591D01*
X56571807Y-106103926D01*
X56482351Y-105922527D01*
X56361335Y-105760467D01*
X56212812Y-105623174D01*
X56188979Y-105608136D01*
X56159403Y-105589475D01*
X56041757Y-105515246D01*
X55921885Y-105467422D01*
X55857107Y-105441578D01*
X55857104Y-105441577D01*
X55853898Y-105440298D01*
X55850517Y-105439625D01*
X55850512Y-105439624D01*
X55658909Y-105401512D01*
X55658910Y-105401512D01*
X55655526Y-105400839D01*
X55531308Y-105399213D01*
X55456729Y-105398237D01*
X55456728Y-105398237D01*
X55453286Y-105398192D01*
X55449895Y-105398775D01*
X55449891Y-105398775D01*
X55257341Y-105431861D01*
X55257339Y-105431861D01*
X55253949Y-105432444D01*
X55064193Y-105502449D01*
X54890371Y-105605862D01*
X54887778Y-105608136D01*
X54761785Y-105718629D01*
X54738305Y-105739220D01*
X54613089Y-105898057D01*
X54611486Y-105901105D01*
X54611484Y-105901107D01*
X54571947Y-105976255D01*
X54518914Y-106077053D01*
X54517894Y-106080338D01*
X54469910Y-106234875D01*
X54458937Y-106270213D01*
X54458532Y-106273633D01*
X54458532Y-106273634D01*
X54457214Y-106284774D01*
X54435164Y-106471069D01*
X51000000Y-106471069D01*
X51000000Y-103471069D01*
X54435164Y-103471069D01*
X54448392Y-103672894D01*
X54498178Y-103868928D01*
X54582856Y-104052607D01*
X54699588Y-104217780D01*
X54702051Y-104220179D01*
X54702055Y-104220184D01*
X54767261Y-104283704D01*
X54844466Y-104358913D01*
X54847335Y-104360830D01*
X55009769Y-104469366D01*
X55009772Y-104469368D01*
X55012637Y-104471282D01*
X55015801Y-104472641D01*
X55015804Y-104472643D01*
X55195302Y-104549761D01*
X55198470Y-104551122D01*
X55201826Y-104551881D01*
X55201831Y-104551883D01*
X55392380Y-104595000D01*
X55392383Y-104595000D01*
X55395740Y-104595760D01*
X55496791Y-104599730D01*
X55594397Y-104603565D01*
X55594401Y-104603565D01*
X55597842Y-104603700D01*
X55717108Y-104586408D01*
X55794595Y-104575173D01*
X55794598Y-104575172D01*
X55798007Y-104574678D01*
X55891311Y-104543005D01*
X55986268Y-104510772D01*
X55986271Y-104510771D01*
X55989531Y-104509664D01*
X56166001Y-104410837D01*
X56321505Y-104281505D01*
X56450837Y-104126001D01*
X56549664Y-103949531D01*
X56614678Y-103758007D01*
X56643700Y-103557842D01*
X56645215Y-103500000D01*
X56642873Y-103474506D01*
X56642557Y-103471069D01*
X74435164Y-103471069D01*
X74448392Y-103672894D01*
X74498178Y-103868928D01*
X74582856Y-104052607D01*
X74699588Y-104217780D01*
X74702051Y-104220179D01*
X74702055Y-104220184D01*
X74767261Y-104283704D01*
X74844466Y-104358913D01*
X74847335Y-104360830D01*
X75009769Y-104469366D01*
X75009772Y-104469368D01*
X75012637Y-104471282D01*
X75015801Y-104472641D01*
X75015804Y-104472643D01*
X75195302Y-104549761D01*
X75198470Y-104551122D01*
X75201826Y-104551881D01*
X75201831Y-104551883D01*
X75392380Y-104595000D01*
X75392383Y-104595000D01*
X75395740Y-104595760D01*
X75496791Y-104599730D01*
X75594397Y-104603565D01*
X75594401Y-104603565D01*
X75597842Y-104603700D01*
X75717108Y-104586408D01*
X75794595Y-104575173D01*
X75794598Y-104575172D01*
X75798007Y-104574678D01*
X75891311Y-104543005D01*
X75986268Y-104510772D01*
X75986271Y-104510771D01*
X75989531Y-104509664D01*
X76166001Y-104410837D01*
X76321505Y-104281505D01*
X76450837Y-104126001D01*
X76549664Y-103949531D01*
X76614678Y-103758007D01*
X76643700Y-103557842D01*
X76645215Y-103500000D01*
X76642873Y-103474506D01*
X76642557Y-103471069D01*
X93935164Y-103471069D01*
X93948392Y-103672894D01*
X93998178Y-103868928D01*
X94082856Y-104052607D01*
X94199588Y-104217780D01*
X94202051Y-104220179D01*
X94202055Y-104220184D01*
X94267261Y-104283704D01*
X94344466Y-104358913D01*
X94347335Y-104360830D01*
X94509769Y-104469366D01*
X94509772Y-104469368D01*
X94512637Y-104471282D01*
X94515801Y-104472641D01*
X94515804Y-104472643D01*
X94695302Y-104549761D01*
X94698470Y-104551122D01*
X94701826Y-104551881D01*
X94701831Y-104551883D01*
X94892380Y-104595000D01*
X94892383Y-104595000D01*
X94895740Y-104595760D01*
X94996791Y-104599730D01*
X95094397Y-104603565D01*
X95094401Y-104603565D01*
X95097842Y-104603700D01*
X95217108Y-104586408D01*
X95294595Y-104575173D01*
X95294598Y-104575172D01*
X95298007Y-104574678D01*
X95391311Y-104543005D01*
X95486268Y-104510772D01*
X95486271Y-104510771D01*
X95489531Y-104509664D01*
X95666001Y-104410837D01*
X95821505Y-104281505D01*
X95847708Y-104250000D01*
X117250000Y-104250000D01*
X118250000Y-105250000D01*
X119749190Y-105250000D01*
X119797528Y-105267593D01*
X119823248Y-105312142D01*
X119814315Y-105362800D01*
X119810978Y-105368064D01*
X119734286Y-105478615D01*
X119615924Y-105718629D01*
X119615075Y-105721283D01*
X119615072Y-105721289D01*
X119535188Y-105970847D01*
X119534338Y-105973503D01*
X119491322Y-106237636D01*
X119491286Y-106240423D01*
X119491285Y-106240429D01*
X119490741Y-106282003D01*
X119487819Y-106505226D01*
X119488196Y-106507995D01*
X119488196Y-106507997D01*
X119510170Y-106669455D01*
X119523907Y-106770395D01*
X119598792Y-107027317D01*
X119599958Y-107029846D01*
X119599959Y-107029849D01*
X119635001Y-107105861D01*
X119710831Y-107270348D01*
X119712357Y-107272676D01*
X119712359Y-107272679D01*
X119755097Y-107337864D01*
X119857562Y-107494149D01*
X120035760Y-107693803D01*
X120241512Y-107864925D01*
X120243900Y-107866374D01*
X120467914Y-108002310D01*
X120467921Y-108002313D01*
X120470298Y-108003756D01*
X120717091Y-108107245D01*
X120976470Y-108173119D01*
X121029015Y-108178410D01*
X121196860Y-108195311D01*
X121196868Y-108195311D01*
X121198741Y-108195500D01*
X121357944Y-108195500D01*
X121359326Y-108195397D01*
X121359334Y-108195397D01*
X121451068Y-108188580D01*
X121556877Y-108180717D01*
X121817891Y-108121655D01*
X121854947Y-108107245D01*
X122064704Y-108025675D01*
X122067309Y-108024662D01*
X122299650Y-107891868D01*
X122509811Y-107726190D01*
X122693175Y-107531269D01*
X122845714Y-107311385D01*
X122964076Y-107071371D01*
X122964925Y-107068717D01*
X122964928Y-107068711D01*
X123044812Y-106819153D01*
X123044813Y-106819151D01*
X123045662Y-106816497D01*
X123088678Y-106552364D01*
X123089335Y-106502216D01*
X123092000Y-106298591D01*
X123092181Y-106284774D01*
X123056093Y-106019605D01*
X122981208Y-105762683D01*
X122970392Y-105739220D01*
X122916893Y-105623174D01*
X122869169Y-105519652D01*
X122867486Y-105517084D01*
X122811610Y-105431861D01*
X122722438Y-105295851D01*
X122544240Y-105096197D01*
X122338488Y-104925075D01*
X122291810Y-104896750D01*
X122112086Y-104787690D01*
X122112079Y-104787687D01*
X122109702Y-104786244D01*
X121862909Y-104682755D01*
X121603530Y-104616881D01*
X121534200Y-104609900D01*
X121383140Y-104594689D01*
X121383132Y-104594689D01*
X121381259Y-104594500D01*
X121222056Y-104594500D01*
X121220674Y-104594603D01*
X121220666Y-104594603D01*
X121082007Y-104604907D01*
X121032498Y-104590944D01*
X121003548Y-104548425D01*
X121008702Y-104497244D01*
X121023260Y-104476740D01*
X121250000Y-104250000D01*
X121250000Y-102250000D01*
X120250000Y-101250000D01*
X118250000Y-101250000D01*
X117250000Y-102250000D01*
X117250000Y-104250000D01*
X95847708Y-104250000D01*
X95950837Y-104126001D01*
X96049664Y-103949531D01*
X96114678Y-103758007D01*
X96143700Y-103557842D01*
X96145215Y-103500000D01*
X96142873Y-103474506D01*
X96127023Y-103302024D01*
X96126708Y-103298591D01*
X96071807Y-103103926D01*
X95982351Y-102922527D01*
X95861335Y-102760467D01*
X95712812Y-102623174D01*
X95688979Y-102608136D01*
X95659403Y-102589475D01*
X95541757Y-102515246D01*
X95421885Y-102467422D01*
X95357107Y-102441578D01*
X95357104Y-102441577D01*
X95353898Y-102440298D01*
X95350517Y-102439625D01*
X95350512Y-102439624D01*
X95158909Y-102401512D01*
X95158910Y-102401512D01*
X95155526Y-102400839D01*
X95031308Y-102399213D01*
X94956729Y-102398237D01*
X94956728Y-102398237D01*
X94953286Y-102398192D01*
X94949895Y-102398775D01*
X94949891Y-102398775D01*
X94757341Y-102431861D01*
X94757339Y-102431861D01*
X94753949Y-102432444D01*
X94564193Y-102502449D01*
X94390371Y-102605862D01*
X94238305Y-102739220D01*
X94113089Y-102898057D01*
X94111486Y-102901105D01*
X94111484Y-102901107D01*
X94098587Y-102925620D01*
X94018914Y-103077053D01*
X93958937Y-103270213D01*
X93935164Y-103471069D01*
X76642557Y-103471069D01*
X76627023Y-103302024D01*
X76626708Y-103298591D01*
X76571807Y-103103926D01*
X76482351Y-102922527D01*
X76361335Y-102760467D01*
X76212812Y-102623174D01*
X76188979Y-102608136D01*
X76159403Y-102589475D01*
X76041757Y-102515246D01*
X75921885Y-102467422D01*
X75857107Y-102441578D01*
X75857104Y-102441577D01*
X75853898Y-102440298D01*
X75850517Y-102439625D01*
X75850512Y-102439624D01*
X75658909Y-102401512D01*
X75658910Y-102401512D01*
X75655526Y-102400839D01*
X75531308Y-102399213D01*
X75456729Y-102398237D01*
X75456728Y-102398237D01*
X75453286Y-102398192D01*
X75449895Y-102398775D01*
X75449891Y-102398775D01*
X75257341Y-102431861D01*
X75257339Y-102431861D01*
X75253949Y-102432444D01*
X75064193Y-102502449D01*
X74890371Y-102605862D01*
X74738305Y-102739220D01*
X74613089Y-102898057D01*
X74611486Y-102901105D01*
X74611484Y-102901107D01*
X74598587Y-102925620D01*
X74518914Y-103077053D01*
X74458937Y-103270213D01*
X74435164Y-103471069D01*
X56642557Y-103471069D01*
X56627023Y-103302024D01*
X56626708Y-103298591D01*
X56571807Y-103103926D01*
X56482351Y-102922527D01*
X56361335Y-102760467D01*
X56212812Y-102623174D01*
X56188979Y-102608136D01*
X56159403Y-102589475D01*
X56041757Y-102515246D01*
X55921885Y-102467422D01*
X55857107Y-102441578D01*
X55857104Y-102441577D01*
X55853898Y-102440298D01*
X55850517Y-102439625D01*
X55850512Y-102439624D01*
X55658909Y-102401512D01*
X55658910Y-102401512D01*
X55655526Y-102400839D01*
X55531308Y-102399213D01*
X55456729Y-102398237D01*
X55456728Y-102398237D01*
X55453286Y-102398192D01*
X55449895Y-102398775D01*
X55449891Y-102398775D01*
X55257341Y-102431861D01*
X55257339Y-102431861D01*
X55253949Y-102432444D01*
X55064193Y-102502449D01*
X54890371Y-102605862D01*
X54738305Y-102739220D01*
X54613089Y-102898057D01*
X54611486Y-102901105D01*
X54611484Y-102901107D01*
X54598587Y-102925620D01*
X54518914Y-103077053D01*
X54458937Y-103270213D01*
X54435164Y-103471069D01*
X51000000Y-103471069D01*
X51000000Y-100016069D01*
X121455164Y-100016069D01*
X121468392Y-100217894D01*
X121518178Y-100413928D01*
X121602856Y-100597607D01*
X121719588Y-100762780D01*
X121722051Y-100765179D01*
X121722055Y-100765184D01*
X121787261Y-100828704D01*
X121864466Y-100903913D01*
X121867335Y-100905830D01*
X122029769Y-101014366D01*
X122029772Y-101014368D01*
X122032637Y-101016282D01*
X122035801Y-101017641D01*
X122035804Y-101017643D01*
X122215302Y-101094761D01*
X122218470Y-101096122D01*
X122221826Y-101096881D01*
X122221831Y-101096883D01*
X122412380Y-101140000D01*
X122412383Y-101140000D01*
X122415740Y-101140760D01*
X122516791Y-101144730D01*
X122614397Y-101148565D01*
X122614401Y-101148565D01*
X122617842Y-101148700D01*
X122737108Y-101131408D01*
X122814595Y-101120173D01*
X122814598Y-101120172D01*
X122818007Y-101119678D01*
X122911311Y-101088005D01*
X123006268Y-101055772D01*
X123006271Y-101055771D01*
X123009531Y-101054664D01*
X123186001Y-100955837D01*
X123341505Y-100826505D01*
X123470837Y-100671001D01*
X123569664Y-100494531D01*
X123634678Y-100303007D01*
X123663700Y-100102842D01*
X123665215Y-100045000D01*
X123662873Y-100019506D01*
X123662557Y-100016069D01*
X123995164Y-100016069D01*
X124008392Y-100217894D01*
X124058178Y-100413928D01*
X124142856Y-100597607D01*
X124259588Y-100762780D01*
X124262051Y-100765179D01*
X124262055Y-100765184D01*
X124327261Y-100828704D01*
X124404466Y-100903913D01*
X124407335Y-100905830D01*
X124569769Y-101014366D01*
X124569772Y-101014368D01*
X124572637Y-101016282D01*
X124575801Y-101017641D01*
X124575804Y-101017643D01*
X124755302Y-101094761D01*
X124758470Y-101096122D01*
X124761826Y-101096881D01*
X124761831Y-101096883D01*
X124952380Y-101140000D01*
X124952383Y-101140000D01*
X124955740Y-101140760D01*
X125056791Y-101144730D01*
X125154397Y-101148565D01*
X125154401Y-101148565D01*
X125157842Y-101148700D01*
X125277108Y-101131408D01*
X125354595Y-101120173D01*
X125354598Y-101120172D01*
X125358007Y-101119678D01*
X125451311Y-101088005D01*
X125546268Y-101055772D01*
X125546271Y-101055771D01*
X125549531Y-101054664D01*
X125726001Y-100955837D01*
X125881505Y-100826505D01*
X126010837Y-100671001D01*
X126109664Y-100494531D01*
X126174678Y-100303007D01*
X126203700Y-100102842D01*
X126205215Y-100045000D01*
X126202873Y-100019506D01*
X126202557Y-100016069D01*
X126535164Y-100016069D01*
X126548392Y-100217894D01*
X126598178Y-100413928D01*
X126682856Y-100597607D01*
X126799588Y-100762780D01*
X126802051Y-100765179D01*
X126802055Y-100765184D01*
X126867261Y-100828704D01*
X126944466Y-100903913D01*
X126947335Y-100905830D01*
X127109769Y-101014366D01*
X127109772Y-101014368D01*
X127112637Y-101016282D01*
X127115801Y-101017641D01*
X127115804Y-101017643D01*
X127295302Y-101094761D01*
X127298470Y-101096122D01*
X127301826Y-101096881D01*
X127301831Y-101096883D01*
X127492380Y-101140000D01*
X127492383Y-101140000D01*
X127495740Y-101140760D01*
X127596791Y-101144730D01*
X127694397Y-101148565D01*
X127694401Y-101148565D01*
X127697842Y-101148700D01*
X127817108Y-101131408D01*
X127894595Y-101120173D01*
X127894598Y-101120172D01*
X127898007Y-101119678D01*
X127991311Y-101088005D01*
X128086268Y-101055772D01*
X128086271Y-101055771D01*
X128089531Y-101054664D01*
X128266001Y-100955837D01*
X128421505Y-100826505D01*
X128550837Y-100671001D01*
X128649664Y-100494531D01*
X128714678Y-100303007D01*
X128743700Y-100102842D01*
X128745215Y-100045000D01*
X128742873Y-100019506D01*
X128727023Y-99847024D01*
X128726708Y-99843591D01*
X128671807Y-99648926D01*
X128582351Y-99467527D01*
X128461335Y-99305467D01*
X128312812Y-99168174D01*
X128288979Y-99153136D01*
X128259403Y-99134475D01*
X128141757Y-99060246D01*
X128021885Y-99012422D01*
X127957107Y-98986578D01*
X127957104Y-98986577D01*
X127953898Y-98985298D01*
X127950517Y-98984625D01*
X127950512Y-98984624D01*
X127758909Y-98946512D01*
X127758910Y-98946512D01*
X127755526Y-98945839D01*
X127631308Y-98944213D01*
X127556729Y-98943237D01*
X127556728Y-98943237D01*
X127553286Y-98943192D01*
X127549895Y-98943775D01*
X127549891Y-98943775D01*
X127357341Y-98976861D01*
X127357339Y-98976861D01*
X127353949Y-98977444D01*
X127164193Y-99047449D01*
X126990371Y-99150862D01*
X126838305Y-99284220D01*
X126713089Y-99443057D01*
X126711486Y-99446105D01*
X126711484Y-99446107D01*
X126698587Y-99470620D01*
X126618914Y-99622053D01*
X126558937Y-99815213D01*
X126535164Y-100016069D01*
X126202557Y-100016069D01*
X126187023Y-99847024D01*
X126186708Y-99843591D01*
X126131807Y-99648926D01*
X126042351Y-99467527D01*
X125921335Y-99305467D01*
X125772812Y-99168174D01*
X125748979Y-99153136D01*
X125719403Y-99134475D01*
X125601757Y-99060246D01*
X125481885Y-99012422D01*
X125417107Y-98986578D01*
X125417104Y-98986577D01*
X125413898Y-98985298D01*
X125410517Y-98984625D01*
X125410512Y-98984624D01*
X125218909Y-98946512D01*
X125218910Y-98946512D01*
X125215526Y-98945839D01*
X125091308Y-98944213D01*
X125016729Y-98943237D01*
X125016728Y-98943237D01*
X125013286Y-98943192D01*
X125009895Y-98943775D01*
X125009891Y-98943775D01*
X124817341Y-98976861D01*
X124817339Y-98976861D01*
X124813949Y-98977444D01*
X124624193Y-99047449D01*
X124450371Y-99150862D01*
X124298305Y-99284220D01*
X124173089Y-99443057D01*
X124171486Y-99446105D01*
X124171484Y-99446107D01*
X124158587Y-99470620D01*
X124078914Y-99622053D01*
X124018937Y-99815213D01*
X123995164Y-100016069D01*
X123662557Y-100016069D01*
X123647023Y-99847024D01*
X123646708Y-99843591D01*
X123591807Y-99648926D01*
X123502351Y-99467527D01*
X123381335Y-99305467D01*
X123232812Y-99168174D01*
X123208979Y-99153136D01*
X123179403Y-99134475D01*
X123061757Y-99060246D01*
X122941885Y-99012422D01*
X122877107Y-98986578D01*
X122877104Y-98986577D01*
X122873898Y-98985298D01*
X122870517Y-98984625D01*
X122870512Y-98984624D01*
X122678909Y-98946512D01*
X122678910Y-98946512D01*
X122675526Y-98945839D01*
X122551308Y-98944213D01*
X122476729Y-98943237D01*
X122476728Y-98943237D01*
X122473286Y-98943192D01*
X122469895Y-98943775D01*
X122469891Y-98943775D01*
X122277341Y-98976861D01*
X122277339Y-98976861D01*
X122273949Y-98977444D01*
X122084193Y-99047449D01*
X121910371Y-99150862D01*
X121758305Y-99284220D01*
X121633089Y-99443057D01*
X121631486Y-99446105D01*
X121631484Y-99446107D01*
X121618587Y-99470620D01*
X121538914Y-99622053D01*
X121478937Y-99815213D01*
X121455164Y-100016069D01*
X51000000Y-100016069D01*
X51000000Y-94825200D01*
X51017593Y-94776862D01*
X51062142Y-94751142D01*
X51075200Y-94750000D01*
X76000000Y-94750000D01*
X76000000Y-90787352D01*
X79287275Y-90787352D01*
X79316757Y-90956284D01*
X79385685Y-91113305D01*
X79388444Y-91116901D01*
X79388446Y-91116904D01*
X79425919Y-91165739D01*
X79465989Y-91217959D01*
X81529422Y-93281393D01*
X81529426Y-93281397D01*
X82178605Y-93930575D01*
X82819856Y-94571826D01*
X82841596Y-94618446D01*
X82828282Y-94668133D01*
X82819856Y-94678174D01*
X82718607Y-94779423D01*
X82639524Y-94880282D01*
X82568955Y-95036573D01*
X82537704Y-95205186D01*
X82547576Y-95376385D01*
X82597999Y-95540289D01*
X82686063Y-95687434D01*
X82806684Y-95809325D01*
X82952898Y-95898925D01*
X83116265Y-95951062D01*
X83208155Y-95957326D01*
X83282828Y-95962417D01*
X83282831Y-95962417D01*
X83287352Y-95962725D01*
X83456284Y-95933243D01*
X83549855Y-95892168D01*
X83609153Y-95866138D01*
X83609156Y-95866137D01*
X83613305Y-95864315D01*
X83616901Y-95861556D01*
X83616904Y-95861554D01*
X83716009Y-95785507D01*
X83717959Y-95784011D01*
X83821826Y-95680144D01*
X83868446Y-95658404D01*
X83918133Y-95671718D01*
X83928174Y-95680144D01*
X86529423Y-98281393D01*
X86630282Y-98360477D01*
X86634409Y-98362340D01*
X86634410Y-98362341D01*
X86708428Y-98395761D01*
X86786573Y-98431045D01*
X86791023Y-98431870D01*
X86791027Y-98431871D01*
X86950728Y-98461470D01*
X86950732Y-98461470D01*
X86955187Y-98462296D01*
X86959715Y-98462035D01*
X86959717Y-98462035D01*
X87121859Y-98452686D01*
X87126386Y-98452425D01*
X87130714Y-98451094D01*
X87130717Y-98451093D01*
X87216350Y-98424748D01*
X120189500Y-98424748D01*
X120190221Y-98428372D01*
X120190221Y-98428373D01*
X120190753Y-98431045D01*
X120201133Y-98483231D01*
X120245448Y-98549552D01*
X120311769Y-98593867D01*
X120319033Y-98595312D01*
X120346422Y-98600760D01*
X120370252Y-98605500D01*
X122209748Y-98605500D01*
X122233578Y-98600760D01*
X122260967Y-98595312D01*
X122268231Y-98593867D01*
X122334552Y-98549552D01*
X122378867Y-98483231D01*
X122389248Y-98431045D01*
X122389779Y-98428373D01*
X122389779Y-98428372D01*
X122390500Y-98424748D01*
X122390500Y-97476069D01*
X122725164Y-97476069D01*
X122738392Y-97677894D01*
X122788178Y-97873928D01*
X122789623Y-97877062D01*
X122866022Y-98042782D01*
X122872856Y-98057607D01*
X122989588Y-98222780D01*
X122992051Y-98225179D01*
X122992055Y-98225184D01*
X123130939Y-98360477D01*
X123134466Y-98363913D01*
X123137335Y-98365830D01*
X123299769Y-98474366D01*
X123299772Y-98474368D01*
X123302637Y-98476282D01*
X123305801Y-98477641D01*
X123305804Y-98477643D01*
X123458847Y-98543395D01*
X123488470Y-98556122D01*
X123491826Y-98556881D01*
X123491831Y-98556883D01*
X123682380Y-98600000D01*
X123682383Y-98600000D01*
X123685740Y-98600760D01*
X123786791Y-98604730D01*
X123884397Y-98608565D01*
X123884401Y-98608565D01*
X123887842Y-98608700D01*
X124018527Y-98589752D01*
X124084595Y-98580173D01*
X124084598Y-98580172D01*
X124088007Y-98579678D01*
X124194893Y-98543395D01*
X124276268Y-98515772D01*
X124276271Y-98515771D01*
X124279531Y-98514664D01*
X124456001Y-98415837D01*
X124611505Y-98286505D01*
X124740837Y-98131001D01*
X124839664Y-97954531D01*
X124904678Y-97763007D01*
X124912628Y-97708180D01*
X124933383Y-97565030D01*
X124933383Y-97565026D01*
X124933700Y-97562842D01*
X124935215Y-97505000D01*
X124932873Y-97479506D01*
X124932557Y-97476069D01*
X125265164Y-97476069D01*
X125278392Y-97677894D01*
X125328178Y-97873928D01*
X125329623Y-97877062D01*
X125406022Y-98042782D01*
X125412856Y-98057607D01*
X125529588Y-98222780D01*
X125532051Y-98225179D01*
X125532055Y-98225184D01*
X125670939Y-98360477D01*
X125674466Y-98363913D01*
X125677335Y-98365830D01*
X125839769Y-98474366D01*
X125839772Y-98474368D01*
X125842637Y-98476282D01*
X125845801Y-98477641D01*
X125845804Y-98477643D01*
X125998847Y-98543395D01*
X126028470Y-98556122D01*
X126031826Y-98556881D01*
X126031831Y-98556883D01*
X126222380Y-98600000D01*
X126222383Y-98600000D01*
X126225740Y-98600760D01*
X126326791Y-98604730D01*
X126424397Y-98608565D01*
X126424401Y-98608565D01*
X126427842Y-98608700D01*
X126558527Y-98589752D01*
X126624595Y-98580173D01*
X126624598Y-98580172D01*
X126628007Y-98579678D01*
X126734893Y-98543395D01*
X126816268Y-98515772D01*
X126816271Y-98515771D01*
X126819531Y-98514664D01*
X126996001Y-98415837D01*
X127151505Y-98286505D01*
X127280837Y-98131001D01*
X127379664Y-97954531D01*
X127444678Y-97763007D01*
X127452628Y-97708180D01*
X127473383Y-97565030D01*
X127473383Y-97565026D01*
X127473700Y-97562842D01*
X127475215Y-97505000D01*
X127472873Y-97479506D01*
X127464344Y-97386695D01*
X127456708Y-97303591D01*
X127401807Y-97108926D01*
X127312351Y-96927527D01*
X127191335Y-96765467D01*
X127042812Y-96628174D01*
X127018979Y-96613136D01*
X126969040Y-96581627D01*
X126871757Y-96520246D01*
X126711560Y-96456334D01*
X126687107Y-96446578D01*
X126687104Y-96446577D01*
X126683898Y-96445298D01*
X126680517Y-96444625D01*
X126680512Y-96444624D01*
X126488909Y-96406512D01*
X126488910Y-96406512D01*
X126485526Y-96405839D01*
X126361308Y-96404213D01*
X126286729Y-96403237D01*
X126286728Y-96403237D01*
X126283286Y-96403192D01*
X126279895Y-96403775D01*
X126279891Y-96403775D01*
X126087341Y-96436861D01*
X126087339Y-96436861D01*
X126083949Y-96437444D01*
X125894193Y-96507449D01*
X125720371Y-96610862D01*
X125568305Y-96744220D01*
X125443089Y-96903057D01*
X125441486Y-96906105D01*
X125441484Y-96906107D01*
X125428587Y-96930620D01*
X125348914Y-97082053D01*
X125288937Y-97275213D01*
X125265164Y-97476069D01*
X124932557Y-97476069D01*
X124924344Y-97386695D01*
X124916708Y-97303591D01*
X124861807Y-97108926D01*
X124772351Y-96927527D01*
X124651335Y-96765467D01*
X124502812Y-96628174D01*
X124478979Y-96613136D01*
X124429040Y-96581627D01*
X124331757Y-96520246D01*
X124171560Y-96456334D01*
X124147107Y-96446578D01*
X124147104Y-96446577D01*
X124143898Y-96445298D01*
X124140517Y-96444625D01*
X124140512Y-96444624D01*
X123948909Y-96406512D01*
X123948910Y-96406512D01*
X123945526Y-96405839D01*
X123821308Y-96404213D01*
X123746729Y-96403237D01*
X123746728Y-96403237D01*
X123743286Y-96403192D01*
X123739895Y-96403775D01*
X123739891Y-96403775D01*
X123547341Y-96436861D01*
X123547339Y-96436861D01*
X123543949Y-96437444D01*
X123354193Y-96507449D01*
X123180371Y-96610862D01*
X123028305Y-96744220D01*
X122903089Y-96903057D01*
X122901486Y-96906105D01*
X122901484Y-96906107D01*
X122888587Y-96930620D01*
X122808914Y-97082053D01*
X122748937Y-97275213D01*
X122725164Y-97476069D01*
X122390500Y-97476069D01*
X122390500Y-96585252D01*
X122378867Y-96526769D01*
X122334552Y-96460448D01*
X122268231Y-96416133D01*
X122260967Y-96414688D01*
X122213373Y-96405221D01*
X122213372Y-96405221D01*
X122209748Y-96404500D01*
X120370252Y-96404500D01*
X120366628Y-96405221D01*
X120366627Y-96405221D01*
X120319033Y-96414688D01*
X120311769Y-96416133D01*
X120245448Y-96460448D01*
X120201133Y-96526769D01*
X120189500Y-96585252D01*
X120189500Y-98424748D01*
X87216350Y-98424748D01*
X87252482Y-98413632D01*
X87290289Y-98402001D01*
X87437434Y-98313937D01*
X87471944Y-98279787D01*
X87556101Y-98196507D01*
X87556103Y-98196504D01*
X87559325Y-98193316D01*
X87599356Y-98127992D01*
X87646557Y-98050969D01*
X87646559Y-98050964D01*
X87648926Y-98047102D01*
X87701063Y-97883735D01*
X87707327Y-97791845D01*
X87712418Y-97717172D01*
X87712418Y-97717169D01*
X87712726Y-97712648D01*
X87683243Y-97543717D01*
X87667220Y-97507216D01*
X87616138Y-97390847D01*
X87616136Y-97390844D01*
X87614315Y-97386695D01*
X87611556Y-97383099D01*
X87611554Y-97383096D01*
X87535507Y-97283991D01*
X87534011Y-97282041D01*
X85784015Y-95532045D01*
X85784012Y-95532041D01*
X84382130Y-94130160D01*
X84381852Y-94129881D01*
X84321238Y-94068629D01*
X84318315Y-94065675D01*
X84317061Y-94064907D01*
X84315368Y-94063398D01*
X81294973Y-91043003D01*
X102041500Y-91043003D01*
X102041773Y-91045256D01*
X102041773Y-91045262D01*
X102056353Y-91165739D01*
X102056898Y-91170242D01*
X102117513Y-91330656D01*
X102120082Y-91334394D01*
X102176065Y-91415849D01*
X102214643Y-91471981D01*
X102342679Y-91586057D01*
X102494231Y-91666300D01*
X102576972Y-91687083D01*
X102656148Y-91706971D01*
X102656152Y-91706971D01*
X102660549Y-91708076D01*
X102665083Y-91708100D01*
X102665085Y-91708100D01*
X102748053Y-91708534D01*
X102832031Y-91708974D01*
X102998777Y-91668942D01*
X103151161Y-91590291D01*
X103154575Y-91587313D01*
X103154579Y-91587310D01*
X103276972Y-91480539D01*
X103276975Y-91480536D01*
X103280385Y-91477561D01*
X103284307Y-91471981D01*
X103376383Y-91340971D01*
X103376384Y-91340968D01*
X103378990Y-91337261D01*
X103381566Y-91330656D01*
X103439636Y-91181712D01*
X103441282Y-91177491D01*
X103458500Y-91046706D01*
X103458500Y-90493823D01*
X104994391Y-90493823D01*
X104995085Y-90499130D01*
X104995085Y-90499133D01*
X104996433Y-90509442D01*
X105012980Y-90635979D01*
X105070720Y-90767203D01*
X105162970Y-90876948D01*
X105282313Y-90956390D01*
X105287425Y-90957987D01*
X105287427Y-90957988D01*
X105322202Y-90968852D01*
X105419157Y-90999142D01*
X105479130Y-91000242D01*
X105557137Y-91001672D01*
X105557139Y-91001672D01*
X105562499Y-91001770D01*
X105567670Y-91000360D01*
X105567672Y-91000360D01*
X105683240Y-90968852D01*
X105700817Y-90964060D01*
X105822991Y-90889045D01*
X105919200Y-90782754D01*
X105926735Y-90767203D01*
X105979374Y-90658554D01*
X105981710Y-90653733D01*
X105991167Y-90597522D01*
X106005014Y-90515222D01*
X106005015Y-90515215D01*
X106005496Y-90512354D01*
X106005647Y-90500000D01*
X106005235Y-90497121D01*
X105986082Y-90363379D01*
X105986081Y-90363376D01*
X105985323Y-90358082D01*
X105983108Y-90353210D01*
X105983107Y-90353207D01*
X105928203Y-90232453D01*
X105925984Y-90227572D01*
X105848509Y-90137658D01*
X105835894Y-90123017D01*
X105835891Y-90123014D01*
X105832400Y-90118963D01*
X105810998Y-90105091D01*
X105780005Y-90064036D01*
X105776700Y-90041987D01*
X105776700Y-86959539D01*
X105794293Y-86911201D01*
X105812550Y-86895456D01*
X105818426Y-86891848D01*
X105822991Y-86889045D01*
X105919200Y-86782754D01*
X105926735Y-86767203D01*
X105931231Y-86757922D01*
X105968140Y-86722092D01*
X106019445Y-86718369D01*
X106061139Y-86748496D01*
X106067738Y-86760426D01*
X106068562Y-86762300D01*
X106068563Y-86762301D01*
X106070720Y-86767203D01*
X106162970Y-86876948D01*
X106167429Y-86879916D01*
X106167430Y-86879917D01*
X106189770Y-86894788D01*
X106220259Y-86936219D01*
X106223300Y-86957387D01*
X106223300Y-89041269D01*
X106205707Y-89089607D01*
X106188230Y-89104866D01*
X106172280Y-89114930D01*
X106168735Y-89118943D01*
X106168736Y-89118943D01*
X106080923Y-89218372D01*
X106080921Y-89218375D01*
X106077377Y-89222388D01*
X106016447Y-89352163D01*
X105994391Y-89493823D01*
X105995085Y-89499130D01*
X105995085Y-89499133D01*
X105996433Y-89509442D01*
X106012980Y-89635979D01*
X106070720Y-89767203D01*
X106162970Y-89876948D01*
X106282313Y-89956390D01*
X106287425Y-89957987D01*
X106287427Y-89957988D01*
X106357763Y-89979962D01*
X106419157Y-89999142D01*
X106479130Y-90000242D01*
X106557137Y-90001672D01*
X106557139Y-90001672D01*
X106562499Y-90001770D01*
X106567670Y-90000360D01*
X106567672Y-90000360D01*
X106641883Y-89980127D01*
X106700817Y-89964060D01*
X106822991Y-89889045D01*
X106919200Y-89782754D01*
X106926735Y-89767203D01*
X106931231Y-89757922D01*
X106968140Y-89722092D01*
X107019445Y-89718369D01*
X107061139Y-89748496D01*
X107067738Y-89760426D01*
X107068562Y-89762300D01*
X107068563Y-89762301D01*
X107070720Y-89767203D01*
X107162970Y-89876948D01*
X107282313Y-89956390D01*
X107287425Y-89957987D01*
X107287427Y-89957988D01*
X107357763Y-89979962D01*
X107419157Y-89999142D01*
X107479130Y-90000242D01*
X107557137Y-90001672D01*
X107557139Y-90001672D01*
X107562499Y-90001770D01*
X107567670Y-90000360D01*
X107567672Y-90000360D01*
X107641883Y-89980127D01*
X107700817Y-89964060D01*
X107822991Y-89889045D01*
X107919200Y-89782754D01*
X107926735Y-89767203D01*
X107979374Y-89658554D01*
X107981710Y-89653733D01*
X108000611Y-89541389D01*
X108005014Y-89515222D01*
X108005015Y-89515215D01*
X108005496Y-89512354D01*
X108005647Y-89500000D01*
X108005235Y-89497121D01*
X107986082Y-89363379D01*
X107986081Y-89363376D01*
X107985323Y-89358082D01*
X107983108Y-89353210D01*
X107983107Y-89353207D01*
X107937293Y-89252445D01*
X107925984Y-89227572D01*
X107884118Y-89178984D01*
X107835894Y-89123017D01*
X107835891Y-89123014D01*
X107832400Y-89118963D01*
X107810998Y-89105091D01*
X107780005Y-89064036D01*
X107776700Y-89041987D01*
X107776700Y-86959539D01*
X107794293Y-86911201D01*
X107812550Y-86895456D01*
X107818426Y-86891848D01*
X107822991Y-86889045D01*
X107919200Y-86782754D01*
X107926735Y-86767203D01*
X107979374Y-86658554D01*
X107981710Y-86653733D01*
X108000611Y-86541389D01*
X108005014Y-86515222D01*
X108005015Y-86515215D01*
X108005496Y-86512354D01*
X108005647Y-86500000D01*
X108005235Y-86497121D01*
X107986082Y-86363379D01*
X107986081Y-86363376D01*
X107985323Y-86358082D01*
X107983108Y-86353210D01*
X107983107Y-86353207D01*
X107937293Y-86252445D01*
X107925984Y-86227572D01*
X107884118Y-86178984D01*
X107835894Y-86123017D01*
X107835891Y-86123014D01*
X107832400Y-86118963D01*
X107712095Y-86040985D01*
X107665094Y-86026929D01*
X107579873Y-86001442D01*
X107579870Y-86001442D01*
X107574739Y-85999907D01*
X107569384Y-85999874D01*
X107569382Y-85999874D01*
X107505259Y-85999482D01*
X107431376Y-85999031D01*
X107293529Y-86038428D01*
X107172280Y-86114930D01*
X107168735Y-86118943D01*
X107168736Y-86118943D01*
X107080923Y-86218372D01*
X107080921Y-86218375D01*
X107077377Y-86222388D01*
X107075101Y-86227235D01*
X107075098Y-86227240D01*
X107068433Y-86241436D01*
X107031964Y-86277713D01*
X106980708Y-86282061D01*
X106938649Y-86252445D01*
X106931909Y-86240603D01*
X106925984Y-86227572D01*
X106884118Y-86178984D01*
X106835894Y-86123017D01*
X106835891Y-86123014D01*
X106832400Y-86118963D01*
X106712095Y-86040985D01*
X106665094Y-86026929D01*
X106579873Y-86001442D01*
X106579870Y-86001442D01*
X106574739Y-85999907D01*
X106569384Y-85999874D01*
X106569382Y-85999874D01*
X106505259Y-85999482D01*
X106431376Y-85999031D01*
X106293529Y-86038428D01*
X106172280Y-86114930D01*
X106168735Y-86118943D01*
X106168736Y-86118943D01*
X106080923Y-86218372D01*
X106080921Y-86218375D01*
X106077377Y-86222388D01*
X106075101Y-86227235D01*
X106075098Y-86227240D01*
X106068433Y-86241436D01*
X106031964Y-86277713D01*
X105980708Y-86282061D01*
X105938649Y-86252445D01*
X105931909Y-86240603D01*
X105925984Y-86227572D01*
X105884118Y-86178984D01*
X105835894Y-86123017D01*
X105835891Y-86123014D01*
X105832400Y-86118963D01*
X105712095Y-86040985D01*
X105665094Y-86026929D01*
X105579873Y-86001442D01*
X105579870Y-86001442D01*
X105574739Y-85999907D01*
X105569384Y-85999874D01*
X105569382Y-85999874D01*
X105505259Y-85999482D01*
X105431376Y-85999031D01*
X105293529Y-86038428D01*
X105172280Y-86114930D01*
X105168735Y-86118943D01*
X105168736Y-86118943D01*
X105080923Y-86218372D01*
X105080921Y-86218375D01*
X105077377Y-86222388D01*
X105016447Y-86352163D01*
X104994391Y-86493823D01*
X104995085Y-86499130D01*
X104995085Y-86499133D01*
X104996433Y-86509442D01*
X105012980Y-86635979D01*
X105070720Y-86767203D01*
X105162970Y-86876948D01*
X105167429Y-86879916D01*
X105167430Y-86879917D01*
X105189770Y-86894788D01*
X105220259Y-86936219D01*
X105223300Y-86957387D01*
X105223300Y-90041269D01*
X105205707Y-90089607D01*
X105188230Y-90104866D01*
X105172280Y-90114930D01*
X105168735Y-90118943D01*
X105168736Y-90118943D01*
X105080923Y-90218372D01*
X105080921Y-90218375D01*
X105077377Y-90222388D01*
X105051429Y-90277656D01*
X105035985Y-90310550D01*
X105016447Y-90352163D01*
X104994391Y-90493823D01*
X103458500Y-90493823D01*
X103458500Y-85956997D01*
X103457758Y-85950859D01*
X103443647Y-85834261D01*
X103443647Y-85834260D01*
X103443102Y-85829758D01*
X103382487Y-85669344D01*
X103285357Y-85528019D01*
X103157321Y-85413943D01*
X103005769Y-85333700D01*
X102923028Y-85312917D01*
X102843852Y-85293029D01*
X102843848Y-85293029D01*
X102839451Y-85291924D01*
X102834917Y-85291900D01*
X102834915Y-85291900D01*
X102751947Y-85291466D01*
X102667969Y-85291026D01*
X102501223Y-85331058D01*
X102348839Y-85409709D01*
X102345425Y-85412687D01*
X102345421Y-85412690D01*
X102223028Y-85519461D01*
X102223025Y-85519464D01*
X102219615Y-85522439D01*
X102217011Y-85526144D01*
X102213068Y-85531755D01*
X102121010Y-85662739D01*
X102119363Y-85666963D01*
X102119362Y-85666965D01*
X102116780Y-85673588D01*
X102058718Y-85822509D01*
X102041500Y-85953294D01*
X102041500Y-91043003D01*
X81294973Y-91043003D01*
X80470577Y-90218607D01*
X80369718Y-90139524D01*
X80213427Y-90068955D01*
X80208972Y-90068129D01*
X80208971Y-90068129D01*
X80049273Y-90038530D01*
X80049269Y-90038530D01*
X80044814Y-90037704D01*
X80040286Y-90037965D01*
X80040284Y-90037965D01*
X79905650Y-90045729D01*
X79873615Y-90047576D01*
X79869287Y-90048907D01*
X79869284Y-90048908D01*
X79804121Y-90068955D01*
X79709711Y-90097999D01*
X79562566Y-90186063D01*
X79559347Y-90189248D01*
X79559345Y-90189250D01*
X79498752Y-90249212D01*
X79440675Y-90306684D01*
X79351075Y-90452898D01*
X79298938Y-90616265D01*
X79297594Y-90635979D01*
X79287918Y-90777927D01*
X79287275Y-90787352D01*
X76000000Y-90787352D01*
X76000000Y-77750000D01*
X72825200Y-77750000D01*
X72776862Y-77732407D01*
X72751142Y-77687858D01*
X72750000Y-77674800D01*
X72750000Y-75993823D01*
X102494391Y-75993823D01*
X102495085Y-75999130D01*
X102495085Y-75999133D01*
X102496433Y-76009442D01*
X102512980Y-76135979D01*
X102570720Y-76267203D01*
X102662970Y-76376948D01*
X102782313Y-76456390D01*
X102787425Y-76457987D01*
X102787427Y-76457988D01*
X102857763Y-76479962D01*
X102919157Y-76499142D01*
X102997042Y-76500570D01*
X103057144Y-76501672D01*
X103057145Y-76501672D01*
X103062499Y-76501770D01*
X103067666Y-76500361D01*
X103067989Y-76500321D01*
X103118130Y-76511805D01*
X103130457Y-76521770D01*
X104981951Y-78373264D01*
X105003691Y-78419884D01*
X105003082Y-78438002D01*
X104994391Y-78493823D01*
X104995085Y-78499130D01*
X104995085Y-78499133D01*
X105004643Y-78572227D01*
X105012980Y-78635979D01*
X105070720Y-78767203D01*
X105162970Y-78876948D01*
X105282313Y-78956390D01*
X105287425Y-78957987D01*
X105287427Y-78957988D01*
X105357763Y-78979962D01*
X105419157Y-78999142D01*
X105479130Y-79000242D01*
X105557137Y-79001672D01*
X105557139Y-79001672D01*
X105562499Y-79001770D01*
X105567670Y-79000360D01*
X105567672Y-79000360D01*
X105641883Y-78980127D01*
X105700817Y-78964060D01*
X105822991Y-78889045D01*
X105919200Y-78782754D01*
X105926735Y-78767203D01*
X105979374Y-78658554D01*
X105981710Y-78653733D01*
X105995423Y-78572227D01*
X106005014Y-78515222D01*
X106005015Y-78515215D01*
X106005496Y-78512354D01*
X106005647Y-78500000D01*
X106005074Y-78496000D01*
X105986082Y-78363379D01*
X105986081Y-78363376D01*
X105985323Y-78358082D01*
X105983108Y-78353210D01*
X105983107Y-78353207D01*
X105928203Y-78232453D01*
X105925984Y-78227572D01*
X105884118Y-78178984D01*
X105835894Y-78123017D01*
X105835891Y-78123014D01*
X105832400Y-78118963D01*
X105712095Y-78040985D01*
X105665094Y-78026929D01*
X105579873Y-78001442D01*
X105579870Y-78001442D01*
X105574739Y-77999907D01*
X105569384Y-77999874D01*
X105569382Y-77999874D01*
X105505961Y-77999487D01*
X105431376Y-77999031D01*
X105430954Y-77999152D01*
X105382667Y-77988712D01*
X105369565Y-77978252D01*
X103518248Y-76126935D01*
X103496508Y-76080315D01*
X103497264Y-76061285D01*
X103505013Y-76015224D01*
X103505496Y-76012354D01*
X103505647Y-76000000D01*
X103505235Y-75997121D01*
X103486082Y-75863379D01*
X103486081Y-75863376D01*
X103485323Y-75858082D01*
X103483108Y-75853210D01*
X103483107Y-75853207D01*
X103428203Y-75732453D01*
X103425984Y-75727572D01*
X103384118Y-75678984D01*
X103335894Y-75623017D01*
X103335891Y-75623014D01*
X103332400Y-75618963D01*
X103212095Y-75540985D01*
X103165094Y-75526929D01*
X103079873Y-75501442D01*
X103079870Y-75501442D01*
X103074739Y-75499907D01*
X103069384Y-75499874D01*
X103069382Y-75499874D01*
X103005259Y-75499482D01*
X102931376Y-75499031D01*
X102793529Y-75538428D01*
X102672280Y-75614930D01*
X102668735Y-75618943D01*
X102668736Y-75618943D01*
X102580923Y-75718372D01*
X102580921Y-75718375D01*
X102577377Y-75722388D01*
X102516447Y-75852163D01*
X102494391Y-75993823D01*
X72750000Y-75993823D01*
X72750000Y-69619748D01*
X87699500Y-69619748D01*
X87711133Y-69678231D01*
X87755448Y-69744552D01*
X87821769Y-69788867D01*
X87829033Y-69790312D01*
X87876627Y-69799779D01*
X87880252Y-69800500D01*
X89619748Y-69800500D01*
X89623373Y-69799779D01*
X89670967Y-69790312D01*
X89678231Y-69788867D01*
X89744552Y-69744552D01*
X89788867Y-69678231D01*
X89800500Y-69619748D01*
X89800500Y-67880252D01*
X89788867Y-67821769D01*
X89744552Y-67755448D01*
X89678231Y-67711133D01*
X89670967Y-67709688D01*
X89623373Y-67700221D01*
X89623372Y-67700221D01*
X89619748Y-67699500D01*
X87880252Y-67699500D01*
X87876628Y-67700221D01*
X87876627Y-67700221D01*
X87829033Y-67709688D01*
X87821769Y-67711133D01*
X87755448Y-67755448D01*
X87711133Y-67821769D01*
X87699500Y-67880252D01*
X87699500Y-69619748D01*
X72750000Y-69619748D01*
X72750000Y-69000000D01*
X69000000Y-65250000D01*
X57075200Y-65250000D01*
X57026862Y-65232407D01*
X57001142Y-65187858D01*
X57000000Y-65174800D01*
X57000000Y-57644748D01*
X96874500Y-57644748D01*
X96886133Y-57703231D01*
X96930448Y-57769552D01*
X96996769Y-57813867D01*
X97004033Y-57815312D01*
X97051627Y-57824779D01*
X97055252Y-57825500D01*
X98794748Y-57825500D01*
X98798373Y-57824779D01*
X98845967Y-57815312D01*
X98853231Y-57813867D01*
X98919552Y-57769552D01*
X98963867Y-57703231D01*
X98975500Y-57644748D01*
X98975500Y-56760262D01*
X104489520Y-56760262D01*
X104489828Y-56763930D01*
X104489828Y-56763933D01*
X104493408Y-56806565D01*
X104506759Y-56965553D01*
X104563544Y-57163586D01*
X104657712Y-57346818D01*
X104785677Y-57508270D01*
X104942564Y-57641791D01*
X104945765Y-57643580D01*
X104945768Y-57643582D01*
X105119187Y-57740503D01*
X105119192Y-57740505D01*
X105122398Y-57742297D01*
X105318329Y-57805959D01*
X105396769Y-57815312D01*
X105519236Y-57829915D01*
X105519238Y-57829915D01*
X105522894Y-57830351D01*
X105728300Y-57814546D01*
X105847383Y-57781298D01*
X105923180Y-57760135D01*
X105923182Y-57760134D01*
X105926725Y-57759145D01*
X106110610Y-57666258D01*
X106141927Y-57641791D01*
X106270058Y-57541685D01*
X106270062Y-57541681D01*
X106272951Y-57539424D01*
X106407564Y-57383472D01*
X106442479Y-57322010D01*
X106507505Y-57207545D01*
X106507507Y-57207542D01*
X106509323Y-57204344D01*
X106554205Y-57069425D01*
X106573189Y-57012357D01*
X106573190Y-57012354D01*
X106574351Y-57008863D01*
X106600171Y-56804474D01*
X106600583Y-56775000D01*
X106580480Y-56569970D01*
X106520935Y-56372749D01*
X106515577Y-56362671D01*
X106455669Y-56250000D01*
X106424218Y-56190849D01*
X106294011Y-56031200D01*
X106135275Y-55899882D01*
X105954055Y-55801897D01*
X105757254Y-55740977D01*
X105600484Y-55724500D01*
X105556024Y-55719827D01*
X105556022Y-55719827D01*
X105552369Y-55719443D01*
X105488878Y-55725221D01*
X105350861Y-55737781D01*
X105350860Y-55737781D01*
X105347203Y-55738114D01*
X105343678Y-55739151D01*
X105343675Y-55739152D01*
X105153101Y-55795241D01*
X105153098Y-55795242D01*
X105149572Y-55796280D01*
X105146315Y-55797983D01*
X105146312Y-55797984D01*
X104970261Y-55890022D01*
X104967002Y-55891726D01*
X104964136Y-55894030D01*
X104964135Y-55894031D01*
X104809317Y-56018507D01*
X104809314Y-56018510D01*
X104806447Y-56020815D01*
X104804084Y-56023631D01*
X104804081Y-56023634D01*
X104676388Y-56175812D01*
X104676385Y-56175816D01*
X104674024Y-56178630D01*
X104672253Y-56181852D01*
X104672252Y-56181853D01*
X104665524Y-56194092D01*
X104574776Y-56359162D01*
X104512484Y-56555532D01*
X104489520Y-56760262D01*
X98975500Y-56760262D01*
X98975500Y-55905252D01*
X98963867Y-55846769D01*
X98919552Y-55780448D01*
X98853231Y-55736133D01*
X98845967Y-55734688D01*
X98798373Y-55725221D01*
X98798372Y-55725221D01*
X98794748Y-55724500D01*
X97055252Y-55724500D01*
X97051628Y-55725221D01*
X97051627Y-55725221D01*
X97004033Y-55734688D01*
X96996769Y-55736133D01*
X96930448Y-55780448D01*
X96886133Y-55846769D01*
X96874500Y-55905252D01*
X96874500Y-57644748D01*
X57000000Y-57644748D01*
X57000000Y-56250000D01*
X51075200Y-56250000D01*
X51026862Y-56232407D01*
X51001142Y-56187858D01*
X51000000Y-56174800D01*
X51000000Y-54220262D01*
X96869520Y-54220262D01*
X96869828Y-54223930D01*
X96869828Y-54223933D01*
X96873408Y-54266565D01*
X96886759Y-54425553D01*
X96943544Y-54623586D01*
X97037712Y-54806818D01*
X97165677Y-54968270D01*
X97322564Y-55101791D01*
X97325765Y-55103580D01*
X97325768Y-55103582D01*
X97499187Y-55200503D01*
X97499192Y-55200505D01*
X97502398Y-55202297D01*
X97698329Y-55265959D01*
X97812143Y-55279530D01*
X97899236Y-55289915D01*
X97899238Y-55289915D01*
X97902894Y-55290351D01*
X98108300Y-55274546D01*
X98227383Y-55241298D01*
X98303180Y-55220135D01*
X98303182Y-55220134D01*
X98306725Y-55219145D01*
X98490610Y-55126258D01*
X98524970Y-55099413D01*
X98650058Y-55001685D01*
X98650062Y-55001681D01*
X98652951Y-54999424D01*
X98787564Y-54843472D01*
X98889323Y-54664344D01*
X98954351Y-54468863D01*
X98980171Y-54264474D01*
X98980583Y-54235000D01*
X98979138Y-54220262D01*
X99409520Y-54220262D01*
X99409828Y-54223930D01*
X99409828Y-54223933D01*
X99413408Y-54266565D01*
X99426759Y-54425553D01*
X99483544Y-54623586D01*
X99577712Y-54806818D01*
X99705677Y-54968270D01*
X99862564Y-55101791D01*
X99865765Y-55103580D01*
X99865768Y-55103582D01*
X100039187Y-55200503D01*
X100039192Y-55200505D01*
X100042398Y-55202297D01*
X100238329Y-55265959D01*
X100352143Y-55279530D01*
X100439236Y-55289915D01*
X100439238Y-55289915D01*
X100442894Y-55290351D01*
X100648300Y-55274546D01*
X100767383Y-55241298D01*
X100843180Y-55220135D01*
X100843182Y-55220134D01*
X100846725Y-55219145D01*
X101030610Y-55126258D01*
X101064970Y-55099413D01*
X101190058Y-55001685D01*
X101190062Y-55001681D01*
X101192951Y-54999424D01*
X101327564Y-54843472D01*
X101429323Y-54664344D01*
X101494351Y-54468863D01*
X101520171Y-54264474D01*
X101520583Y-54235000D01*
X101519138Y-54220262D01*
X101949520Y-54220262D01*
X101949828Y-54223930D01*
X101949828Y-54223933D01*
X101953408Y-54266565D01*
X101966759Y-54425553D01*
X102023544Y-54623586D01*
X102117712Y-54806818D01*
X102245677Y-54968270D01*
X102402564Y-55101791D01*
X102405765Y-55103580D01*
X102405768Y-55103582D01*
X102579187Y-55200503D01*
X102579192Y-55200505D01*
X102582398Y-55202297D01*
X102778329Y-55265959D01*
X102892143Y-55279530D01*
X102979236Y-55289915D01*
X102979238Y-55289915D01*
X102982894Y-55290351D01*
X103188300Y-55274546D01*
X103307383Y-55241298D01*
X103383180Y-55220135D01*
X103383182Y-55220134D01*
X103386725Y-55219145D01*
X103570610Y-55126258D01*
X103604970Y-55099413D01*
X103730058Y-55001685D01*
X103730062Y-55001681D01*
X103732951Y-54999424D01*
X103867564Y-54843472D01*
X103969323Y-54664344D01*
X104034351Y-54468863D01*
X104060171Y-54264474D01*
X104060583Y-54235000D01*
X104059138Y-54220262D01*
X104489520Y-54220262D01*
X104489828Y-54223930D01*
X104489828Y-54223933D01*
X104493408Y-54266565D01*
X104506759Y-54425553D01*
X104563544Y-54623586D01*
X104657712Y-54806818D01*
X104785677Y-54968270D01*
X104942564Y-55101791D01*
X104945765Y-55103580D01*
X104945768Y-55103582D01*
X105119187Y-55200503D01*
X105119192Y-55200505D01*
X105122398Y-55202297D01*
X105318329Y-55265959D01*
X105432143Y-55279530D01*
X105519236Y-55289915D01*
X105519238Y-55289915D01*
X105522894Y-55290351D01*
X105728300Y-55274546D01*
X105847383Y-55241298D01*
X105923180Y-55220135D01*
X105923182Y-55220134D01*
X105926725Y-55219145D01*
X106110610Y-55126258D01*
X106144970Y-55099413D01*
X106270058Y-55001685D01*
X106270062Y-55001681D01*
X106272951Y-54999424D01*
X106407564Y-54843472D01*
X106509323Y-54664344D01*
X106574351Y-54468863D01*
X106600171Y-54264474D01*
X106600583Y-54235000D01*
X106599138Y-54220262D01*
X107029520Y-54220262D01*
X107029828Y-54223930D01*
X107029828Y-54223933D01*
X107033408Y-54266565D01*
X107046759Y-54425553D01*
X107103544Y-54623586D01*
X107197712Y-54806818D01*
X107325677Y-54968270D01*
X107482564Y-55101791D01*
X107485765Y-55103580D01*
X107485768Y-55103582D01*
X107659187Y-55200503D01*
X107659192Y-55200505D01*
X107662398Y-55202297D01*
X107858329Y-55265959D01*
X107972143Y-55279530D01*
X108059236Y-55289915D01*
X108059238Y-55289915D01*
X108062894Y-55290351D01*
X108268300Y-55274546D01*
X108387383Y-55241298D01*
X108463180Y-55220135D01*
X108463182Y-55220134D01*
X108466725Y-55219145D01*
X108650610Y-55126258D01*
X108684970Y-55099413D01*
X108810058Y-55001685D01*
X108810062Y-55001681D01*
X108812951Y-54999424D01*
X108947564Y-54843472D01*
X109049323Y-54664344D01*
X109114351Y-54468863D01*
X109140171Y-54264474D01*
X109140583Y-54235000D01*
X109120480Y-54029970D01*
X109060935Y-53832749D01*
X109055577Y-53822671D01*
X108965942Y-53654092D01*
X108964218Y-53650849D01*
X108834011Y-53491200D01*
X108675275Y-53359882D01*
X108494055Y-53261897D01*
X108297254Y-53200977D01*
X108169302Y-53187529D01*
X108096024Y-53179827D01*
X108096022Y-53179827D01*
X108092369Y-53179443D01*
X107989786Y-53188778D01*
X107890861Y-53197781D01*
X107890860Y-53197781D01*
X107887203Y-53198114D01*
X107883678Y-53199151D01*
X107883675Y-53199152D01*
X107693101Y-53255241D01*
X107693098Y-53255242D01*
X107689572Y-53256280D01*
X107686315Y-53257983D01*
X107686312Y-53257984D01*
X107675484Y-53263645D01*
X107507002Y-53351726D01*
X107504136Y-53354030D01*
X107504135Y-53354031D01*
X107349317Y-53478507D01*
X107349314Y-53478510D01*
X107346447Y-53480815D01*
X107344084Y-53483631D01*
X107344081Y-53483634D01*
X107216388Y-53635812D01*
X107216385Y-53635816D01*
X107214024Y-53638630D01*
X107212253Y-53641852D01*
X107212252Y-53641853D01*
X107205524Y-53654092D01*
X107114776Y-53819162D01*
X107052484Y-54015532D01*
X107029520Y-54220262D01*
X106599138Y-54220262D01*
X106580480Y-54029970D01*
X106520935Y-53832749D01*
X106515577Y-53822671D01*
X106425942Y-53654092D01*
X106424218Y-53650849D01*
X106294011Y-53491200D01*
X106135275Y-53359882D01*
X105954055Y-53261897D01*
X105757254Y-53200977D01*
X105629302Y-53187529D01*
X105556024Y-53179827D01*
X105556022Y-53179827D01*
X105552369Y-53179443D01*
X105449786Y-53188778D01*
X105350861Y-53197781D01*
X105350860Y-53197781D01*
X105347203Y-53198114D01*
X105343678Y-53199151D01*
X105343675Y-53199152D01*
X105153101Y-53255241D01*
X105153098Y-53255242D01*
X105149572Y-53256280D01*
X105146315Y-53257983D01*
X105146312Y-53257984D01*
X105135484Y-53263645D01*
X104967002Y-53351726D01*
X104964136Y-53354030D01*
X104964135Y-53354031D01*
X104809317Y-53478507D01*
X104809314Y-53478510D01*
X104806447Y-53480815D01*
X104804084Y-53483631D01*
X104804081Y-53483634D01*
X104676388Y-53635812D01*
X104676385Y-53635816D01*
X104674024Y-53638630D01*
X104672253Y-53641852D01*
X104672252Y-53641853D01*
X104665524Y-53654092D01*
X104574776Y-53819162D01*
X104512484Y-54015532D01*
X104489520Y-54220262D01*
X104059138Y-54220262D01*
X104040480Y-54029970D01*
X103980935Y-53832749D01*
X103975577Y-53822671D01*
X103885942Y-53654092D01*
X103884218Y-53650849D01*
X103754011Y-53491200D01*
X103595275Y-53359882D01*
X103414055Y-53261897D01*
X103217254Y-53200977D01*
X103089302Y-53187529D01*
X103016024Y-53179827D01*
X103016022Y-53179827D01*
X103012369Y-53179443D01*
X102909786Y-53188778D01*
X102810861Y-53197781D01*
X102810860Y-53197781D01*
X102807203Y-53198114D01*
X102803678Y-53199151D01*
X102803675Y-53199152D01*
X102613101Y-53255241D01*
X102613098Y-53255242D01*
X102609572Y-53256280D01*
X102606315Y-53257983D01*
X102606312Y-53257984D01*
X102595484Y-53263645D01*
X102427002Y-53351726D01*
X102424136Y-53354030D01*
X102424135Y-53354031D01*
X102269317Y-53478507D01*
X102269314Y-53478510D01*
X102266447Y-53480815D01*
X102264084Y-53483631D01*
X102264081Y-53483634D01*
X102136388Y-53635812D01*
X102136385Y-53635816D01*
X102134024Y-53638630D01*
X102132253Y-53641852D01*
X102132252Y-53641853D01*
X102125524Y-53654092D01*
X102034776Y-53819162D01*
X101972484Y-54015532D01*
X101949520Y-54220262D01*
X101519138Y-54220262D01*
X101500480Y-54029970D01*
X101440935Y-53832749D01*
X101435577Y-53822671D01*
X101345942Y-53654092D01*
X101344218Y-53650849D01*
X101214011Y-53491200D01*
X101055275Y-53359882D01*
X100874055Y-53261897D01*
X100677254Y-53200977D01*
X100549302Y-53187529D01*
X100476024Y-53179827D01*
X100476022Y-53179827D01*
X100472369Y-53179443D01*
X100369786Y-53188778D01*
X100270861Y-53197781D01*
X100270860Y-53197781D01*
X100267203Y-53198114D01*
X100263678Y-53199151D01*
X100263675Y-53199152D01*
X100073101Y-53255241D01*
X100073098Y-53255242D01*
X100069572Y-53256280D01*
X100066315Y-53257983D01*
X100066312Y-53257984D01*
X100055484Y-53263645D01*
X99887002Y-53351726D01*
X99884136Y-53354030D01*
X99884135Y-53354031D01*
X99729317Y-53478507D01*
X99729314Y-53478510D01*
X99726447Y-53480815D01*
X99724084Y-53483631D01*
X99724081Y-53483634D01*
X99596388Y-53635812D01*
X99596385Y-53635816D01*
X99594024Y-53638630D01*
X99592253Y-53641852D01*
X99592252Y-53641853D01*
X99585524Y-53654092D01*
X99494776Y-53819162D01*
X99432484Y-54015532D01*
X99409520Y-54220262D01*
X98979138Y-54220262D01*
X98960480Y-54029970D01*
X98900935Y-53832749D01*
X98895577Y-53822671D01*
X98805942Y-53654092D01*
X98804218Y-53650849D01*
X98674011Y-53491200D01*
X98515275Y-53359882D01*
X98334055Y-53261897D01*
X98137254Y-53200977D01*
X98009302Y-53187529D01*
X97936024Y-53179827D01*
X97936022Y-53179827D01*
X97932369Y-53179443D01*
X97829786Y-53188778D01*
X97730861Y-53197781D01*
X97730860Y-53197781D01*
X97727203Y-53198114D01*
X97723678Y-53199151D01*
X97723675Y-53199152D01*
X97533101Y-53255241D01*
X97533098Y-53255242D01*
X97529572Y-53256280D01*
X97526315Y-53257983D01*
X97526312Y-53257984D01*
X97515484Y-53263645D01*
X97347002Y-53351726D01*
X97344136Y-53354030D01*
X97344135Y-53354031D01*
X97189317Y-53478507D01*
X97189314Y-53478510D01*
X97186447Y-53480815D01*
X97184084Y-53483631D01*
X97184081Y-53483634D01*
X97056388Y-53635812D01*
X97056385Y-53635816D01*
X97054024Y-53638630D01*
X97052253Y-53641852D01*
X97052252Y-53641853D01*
X97045524Y-53654092D01*
X96954776Y-53819162D01*
X96892484Y-54015532D01*
X96869520Y-54220262D01*
X51000000Y-54220262D01*
X51000000Y-51075200D01*
X51017593Y-51026862D01*
X51062142Y-51001142D01*
X51075200Y-51000000D01*
X140924800Y-51000000D01*
X140973138Y-51017593D01*
G37*
%TD.AperFunction*%
%TD*%
M02*
