%TF.GenerationSoftware,KiCad,Pcbnew,6.0.2+dfsg-1*%
%TF.CreationDate,2023-05-23T16:54:32-05:00*%
%TF.ProjectId,ethernet,65746865-726e-4657-942e-6b696361645f,rev?*%
%TF.SameCoordinates,Original*%
%TF.FileFunction,Soldermask,Top*%
%TF.FilePolarity,Negative*%
%FSLAX46Y46*%
G04 Gerber Fmt 4.6, Leading zero omitted, Abs format (unit mm)*
G04 Created by KiCad (PCBNEW 6.0.2+dfsg-1) date 2023-05-23 16:54:32*
%MOMM*%
%LPD*%
G01*
G04 APERTURE LIST*
G04 Aperture macros list*
%AMRoundRect*
0 Rectangle with rounded corners*
0 $1 Rounding radius*
0 $2 $3 $4 $5 $6 $7 $8 $9 X,Y pos of 4 corners*
0 Add a 4 corners polygon primitive as box body*
4,1,4,$2,$3,$4,$5,$6,$7,$8,$9,$2,$3,0*
0 Add four circle primitives for the rounded corners*
1,1,$1+$1,$2,$3*
1,1,$1+$1,$4,$5*
1,1,$1+$1,$6,$7*
1,1,$1+$1,$8,$9*
0 Add four rect primitives between the rounded corners*
20,1,$1+$1,$2,$3,$4,$5,0*
20,1,$1+$1,$4,$5,$6,$7,0*
20,1,$1+$1,$6,$7,$8,$9,0*
20,1,$1+$1,$8,$9,$2,$3,0*%
%AMRotRect*
0 Rectangle, with rotation*
0 The origin of the aperture is its center*
0 $1 length*
0 $2 width*
0 $3 Rotation angle, in degrees counterclockwise*
0 Add horizontal line*
21,1,$1,$2,0,0,$3*%
G04 Aperture macros list end*
%ADD10RoundRect,0.150000X-0.150000X0.512500X-0.150000X-0.512500X0.150000X-0.512500X0.150000X0.512500X0*%
%ADD11RoundRect,0.250000X0.450000X-0.262500X0.450000X0.262500X-0.450000X0.262500X-0.450000X-0.262500X0*%
%ADD12RoundRect,0.250000X0.250000X0.475000X-0.250000X0.475000X-0.250000X-0.475000X0.250000X-0.475000X0*%
%ADD13R,1.780000X4.190000*%
%ADD14R,2.665000X4.190000*%
%ADD15RoundRect,0.250000X-0.450000X0.262500X-0.450000X-0.262500X0.450000X-0.262500X0.450000X0.262500X0*%
%ADD16RoundRect,0.250000X0.132583X-0.503814X0.503814X-0.132583X-0.132583X0.503814X-0.503814X0.132583X0*%
%ADD17RoundRect,0.243750X-0.243750X-0.456250X0.243750X-0.456250X0.243750X0.456250X-0.243750X0.456250X0*%
%ADD18RoundRect,0.250000X0.159099X-0.512652X0.512652X-0.159099X-0.159099X0.512652X-0.512652X0.159099X0*%
%ADD19RoundRect,0.250000X0.262500X0.450000X-0.262500X0.450000X-0.262500X-0.450000X0.262500X-0.450000X0*%
%ADD20RoundRect,0.218750X-0.381250X0.218750X-0.381250X-0.218750X0.381250X-0.218750X0.381250X0.218750X0*%
%ADD21R,2.000000X2.000000*%
%ADD22C,2.000000*%
%ADD23RoundRect,0.250000X-0.262500X-0.450000X0.262500X-0.450000X0.262500X0.450000X-0.262500X0.450000X0*%
%ADD24RoundRect,0.250000X-0.475000X0.250000X-0.475000X-0.250000X0.475000X-0.250000X0.475000X0.250000X0*%
%ADD25RoundRect,0.250000X0.475000X-0.250000X0.475000X0.250000X-0.475000X0.250000X-0.475000X-0.250000X0*%
%ADD26RoundRect,0.150000X-0.587500X-0.150000X0.587500X-0.150000X0.587500X0.150000X-0.587500X0.150000X0*%
%ADD27RoundRect,0.093750X0.106250X-0.093750X0.106250X0.093750X-0.106250X0.093750X-0.106250X-0.093750X0*%
%ADD28R,1.600000X1.000000*%
%ADD29R,1.800000X1.800000*%
%ADD30C,1.800000*%
%ADD31R,1.830000X1.090000*%
%ADD32RoundRect,0.054500X-0.860500X-0.490500X0.860500X-0.490500X0.860500X0.490500X-0.860500X0.490500X0*%
%ADD33RotRect,1.400000X1.200000X45.000000*%
%ADD34C,3.200000*%
%ADD35C,3.000000*%
%ADD36R,2.800000X1.000000*%
%ADD37R,2.000000X1.780000*%
%ADD38RoundRect,0.050000X-0.450781X-0.521491X0.521491X0.450781X0.450781X0.521491X-0.521491X-0.450781X0*%
%ADD39RoundRect,0.050000X0.450781X-0.521491X0.521491X-0.450781X-0.450781X0.521491X-0.521491X0.450781X0*%
%ADD40RoundRect,0.100000X0.100000X-0.712500X0.100000X0.712500X-0.100000X0.712500X-0.100000X-0.712500X0*%
%ADD41RoundRect,0.150000X0.587500X0.150000X-0.587500X0.150000X-0.587500X-0.150000X0.587500X-0.150000X0*%
%ADD42R,1.700000X1.700000*%
%ADD43O,1.700000X1.700000*%
%ADD44RoundRect,0.175000X-0.725000X-0.175000X0.725000X-0.175000X0.725000X0.175000X-0.725000X0.175000X0*%
%ADD45RoundRect,0.200000X-0.700000X-0.200000X0.700000X-0.200000X0.700000X0.200000X-0.700000X0.200000X0*%
%ADD46R,2.500000X1.800000*%
%ADD47RoundRect,0.250000X0.512652X0.159099X0.159099X0.512652X-0.512652X-0.159099X-0.159099X-0.512652X0*%
%ADD48RoundRect,0.250000X-0.250000X-0.475000X0.250000X-0.475000X0.250000X0.475000X-0.250000X0.475000X0*%
G04 APERTURE END LIST*
D10*
%TO.C,U5*%
X81950000Y-127362500D03*
X81000000Y-127362500D03*
X80050000Y-127362500D03*
X80050000Y-129637500D03*
X81000000Y-129637500D03*
X81950000Y-129637500D03*
%TD*%
D11*
%TO.C,R27*%
X72000000Y-127162500D03*
X72000000Y-125337500D03*
%TD*%
D12*
%TO.C,C16*%
X113750000Y-97000000D03*
X111850000Y-97000000D03*
%TD*%
D13*
%TO.C,J2*%
X117000000Y-137000000D03*
D14*
X113507500Y-137000000D03*
X120492500Y-137000000D03*
%TD*%
D15*
%TO.C,R4*%
X133000000Y-119087500D03*
X133000000Y-120912500D03*
%TD*%
D16*
%TO.C,R5*%
X126354765Y-91645235D03*
X127645235Y-90354765D03*
%TD*%
D17*
%TO.C,D7*%
X113250000Y-71250000D03*
X115125000Y-71250000D03*
%TD*%
D15*
%TO.C,R17*%
X119000000Y-64000000D03*
X119000000Y-65825000D03*
%TD*%
D18*
%TO.C,C1*%
X130828249Y-95671751D03*
X132171751Y-94328249D03*
%TD*%
D19*
%TO.C,R7*%
X115162500Y-73662500D03*
X113337500Y-73662500D03*
%TD*%
D12*
%TO.C,C9*%
X94450000Y-128000000D03*
X92550000Y-128000000D03*
%TD*%
D20*
%TO.C,L1*%
X117000000Y-127937500D03*
X117000000Y-130062500D03*
%TD*%
D12*
%TO.C,C4*%
X115950000Y-111750000D03*
X114050000Y-111750000D03*
%TD*%
D11*
%TO.C,R1*%
X142500000Y-120912500D03*
X142500000Y-119087500D03*
%TD*%
D21*
%TO.C,BT1*%
X89500000Y-74000000D03*
D22*
X89500000Y-118700000D03*
%TD*%
D23*
%TO.C,R11*%
X139000000Y-93500000D03*
X140825000Y-93500000D03*
%TD*%
D24*
%TO.C,C18*%
X100000000Y-103050000D03*
X100000000Y-104950000D03*
%TD*%
D10*
%TO.C,U4*%
X98950000Y-127112500D03*
X98000000Y-127112500D03*
X97050000Y-127112500D03*
X97050000Y-129387500D03*
X98000000Y-129387500D03*
X98950000Y-129387500D03*
%TD*%
D25*
%TO.C,C23*%
X110000000Y-65700000D03*
X110000000Y-63800000D03*
%TD*%
D19*
%TO.C,R12*%
X115662500Y-65750000D03*
X113837500Y-65750000D03*
%TD*%
D23*
%TO.C,R19*%
X111087500Y-131500000D03*
X112912500Y-131500000D03*
%TD*%
D21*
%TO.C,BT2*%
X74500000Y-118750000D03*
D22*
X74500000Y-74050000D03*
%TD*%
D24*
%TO.C,C10*%
X124750000Y-114750000D03*
X124750000Y-116650000D03*
%TD*%
D15*
%TO.C,R2*%
X138000000Y-119087500D03*
X138000000Y-120912500D03*
%TD*%
D19*
%TO.C,R23*%
X102412500Y-131750000D03*
X100587500Y-131750000D03*
%TD*%
D26*
%TO.C,Q2*%
X121812500Y-67550000D03*
X121812500Y-69450000D03*
X123687500Y-68500000D03*
%TD*%
D23*
%TO.C,R14*%
X128087500Y-135500000D03*
X129912500Y-135500000D03*
%TD*%
D13*
%TO.C,J6*%
X77000000Y-137000000D03*
D14*
X80492500Y-137000000D03*
X73507500Y-137000000D03*
%TD*%
D27*
%TO.C,U3*%
X102850000Y-75137500D03*
X103500000Y-75137500D03*
X104150000Y-75137500D03*
X104150000Y-73362500D03*
X103500000Y-73362500D03*
X102850000Y-73362500D03*
D28*
X103500000Y-74250000D03*
%TD*%
D24*
%TO.C,C8*%
X101000000Y-127300000D03*
X101000000Y-129200000D03*
%TD*%
D25*
%TO.C,C22*%
X106500000Y-65700000D03*
X106500000Y-63800000D03*
%TD*%
D29*
%TO.C,D2*%
X105500000Y-134000000D03*
D30*
X108040000Y-134000000D03*
%TD*%
D31*
%TO.C,TR1*%
X116880000Y-53460000D03*
D32*
X116880000Y-56000000D03*
X116880000Y-58540000D03*
X128120000Y-58540000D03*
X128120000Y-56000000D03*
X128120000Y-53460000D03*
%TD*%
D24*
%TO.C,C25*%
X110000000Y-107550000D03*
X110000000Y-109450000D03*
%TD*%
D13*
%TO.C,J5*%
X97000000Y-137000000D03*
D14*
X100492500Y-137000000D03*
X93507500Y-137000000D03*
%TD*%
D33*
%TO.C,Y1*%
X129073223Y-94378858D03*
X130628858Y-92823223D03*
X129426777Y-91621142D03*
X127871142Y-93176777D03*
%TD*%
D24*
%TO.C,C19*%
X108750000Y-73800000D03*
X108750000Y-75700000D03*
%TD*%
D15*
%TO.C,R20*%
X100000000Y-94337500D03*
X100000000Y-96162500D03*
%TD*%
D24*
%TO.C,C3*%
X106250000Y-73800000D03*
X106250000Y-75700000D03*
%TD*%
D11*
%TO.C,R3*%
X135500000Y-120912500D03*
X135500000Y-119087500D03*
%TD*%
%TO.C,R25*%
X93000000Y-131825000D03*
X93000000Y-130000000D03*
%TD*%
D12*
%TO.C,C20*%
X105700000Y-71250000D03*
X103800000Y-71250000D03*
%TD*%
D25*
%TO.C,C7*%
X109250000Y-101450000D03*
X109250000Y-99550000D03*
%TD*%
D34*
%TO.C,J1*%
X134290000Y-133895000D03*
X145720000Y-133895000D03*
D29*
X134290000Y-125005000D03*
D30*
X135560000Y-127545000D03*
X136830000Y-125005000D03*
X138100000Y-127545000D03*
X139370000Y-125005000D03*
X140640000Y-127545000D03*
X141910000Y-125005000D03*
X144450000Y-125005000D03*
X145720000Y-127545000D03*
D22*
X133370000Y-137955000D03*
X135910000Y-137955000D03*
X144090000Y-137955000D03*
X146630000Y-137955000D03*
D35*
X147750000Y-130845000D03*
X132250000Y-130845000D03*
%TD*%
D19*
%TO.C,R9*%
X134912500Y-107000000D03*
X133087500Y-107000000D03*
%TD*%
D29*
%TO.C,D3*%
X86000000Y-131000000D03*
D30*
X88540000Y-131000000D03*
%TD*%
D36*
%TO.C,SW1*%
X132900000Y-82000000D03*
X127100000Y-82000000D03*
X132900000Y-86000000D03*
X127100000Y-86000000D03*
%TD*%
D24*
%TO.C,C5*%
X129500000Y-111000000D03*
X129500000Y-112900000D03*
%TD*%
D25*
%TO.C,C12*%
X124750000Y-120700000D03*
X124750000Y-118800000D03*
%TD*%
D18*
%TO.C,C15*%
X132328249Y-97171751D03*
X133671751Y-95828249D03*
%TD*%
D29*
%TO.C,D6*%
X66000000Y-134000000D03*
D30*
X68540000Y-134000000D03*
%TD*%
D21*
%TO.C,BT4*%
X100000000Y-62000000D03*
D22*
X55300000Y-62000000D03*
%TD*%
D37*
%TO.C,U7*%
X129985000Y-65960000D03*
X129985000Y-68500000D03*
X129985000Y-71040000D03*
X139515000Y-71040000D03*
X139515000Y-68500000D03*
X139515000Y-65960000D03*
%TD*%
D18*
%TO.C,C11*%
X124828249Y-90171751D03*
X126171751Y-88828249D03*
%TD*%
D38*
%TO.C,U1*%
X112197732Y-104034144D03*
X112480575Y-104316986D03*
X112763418Y-104599829D03*
X113046260Y-104882672D03*
X113329103Y-105165515D03*
X113611946Y-105448357D03*
X113894789Y-105731200D03*
X114177631Y-106014043D03*
X114460474Y-106296885D03*
X114743317Y-106579728D03*
X115026159Y-106862571D03*
X115309002Y-107145414D03*
X115591845Y-107428256D03*
X115874688Y-107711099D03*
X116157530Y-107993942D03*
X116440373Y-108276784D03*
X116723216Y-108559627D03*
X117006058Y-108842470D03*
X117288901Y-109125312D03*
X117571744Y-109408155D03*
X117854586Y-109690998D03*
X118137429Y-109973841D03*
X118420272Y-110256683D03*
X118703115Y-110539526D03*
X118985957Y-110822369D03*
X119268800Y-111105211D03*
X119551643Y-111388054D03*
X119834485Y-111670897D03*
X120117328Y-111953740D03*
X120400171Y-112236582D03*
X120683014Y-112519425D03*
X120965856Y-112802268D03*
D39*
X123034144Y-112802268D03*
X123316986Y-112519425D03*
X123599829Y-112236582D03*
X123882672Y-111953740D03*
X124165515Y-111670897D03*
X124448357Y-111388054D03*
X124731200Y-111105211D03*
X125014043Y-110822369D03*
X125296885Y-110539526D03*
X125579728Y-110256683D03*
X125862571Y-109973841D03*
X126145414Y-109690998D03*
X126428256Y-109408155D03*
X126711099Y-109125312D03*
X126993942Y-108842470D03*
X127276784Y-108559627D03*
X127559627Y-108276784D03*
X127842470Y-107993942D03*
X128125312Y-107711099D03*
X128408155Y-107428256D03*
X128690998Y-107145414D03*
X128973841Y-106862571D03*
X129256683Y-106579728D03*
X129539526Y-106296885D03*
X129822369Y-106014043D03*
X130105211Y-105731200D03*
X130388054Y-105448357D03*
X130670897Y-105165515D03*
X130953740Y-104882672D03*
X131236582Y-104599829D03*
X131519425Y-104316986D03*
X131802268Y-104034144D03*
D38*
X131802268Y-101965856D03*
X131519425Y-101683014D03*
X131236582Y-101400171D03*
X130953740Y-101117328D03*
X130670897Y-100834485D03*
X130388054Y-100551643D03*
X130105211Y-100268800D03*
X129822369Y-99985957D03*
X129539526Y-99703115D03*
X129256683Y-99420272D03*
X128973841Y-99137429D03*
X128690998Y-98854586D03*
X128408155Y-98571744D03*
X128125312Y-98288901D03*
X127842470Y-98006058D03*
X127559627Y-97723216D03*
X127276784Y-97440373D03*
X126993942Y-97157530D03*
X126711099Y-96874688D03*
X126428256Y-96591845D03*
X126145414Y-96309002D03*
X125862571Y-96026159D03*
X125579728Y-95743317D03*
X125296885Y-95460474D03*
X125014043Y-95177631D03*
X124731200Y-94894789D03*
X124448357Y-94611946D03*
X124165515Y-94329103D03*
X123882672Y-94046260D03*
X123599829Y-93763418D03*
X123316986Y-93480575D03*
X123034144Y-93197732D03*
D39*
X120965856Y-93197732D03*
X120683014Y-93480575D03*
X120400171Y-93763418D03*
X120117328Y-94046260D03*
X119834485Y-94329103D03*
X119551643Y-94611946D03*
X119268800Y-94894789D03*
X118985957Y-95177631D03*
X118703115Y-95460474D03*
X118420272Y-95743317D03*
X118137429Y-96026159D03*
X117854586Y-96309002D03*
X117571744Y-96591845D03*
X117288901Y-96874688D03*
X117006058Y-97157530D03*
X116723216Y-97440373D03*
X116440373Y-97723216D03*
X116157530Y-98006058D03*
X115874688Y-98288901D03*
X115591845Y-98571744D03*
X115309002Y-98854586D03*
X115026159Y-99137429D03*
X114743317Y-99420272D03*
X114460474Y-99703115D03*
X114177631Y-99985957D03*
X113894789Y-100268800D03*
X113611946Y-100551643D03*
X113329103Y-100834485D03*
X113046260Y-101117328D03*
X112763418Y-101400171D03*
X112480575Y-101683014D03*
X112197732Y-101965856D03*
%TD*%
D11*
%TO.C,R24*%
X88500000Y-127412500D03*
X88500000Y-125587500D03*
%TD*%
D40*
%TO.C,U6*%
X121525000Y-77112500D03*
X122175000Y-77112500D03*
X122825000Y-77112500D03*
X123475000Y-77112500D03*
X123475000Y-72887500D03*
X122825000Y-72887500D03*
X122175000Y-72887500D03*
X121525000Y-72887500D03*
%TD*%
D41*
%TO.C,Q1*%
X119187500Y-72200000D03*
X119187500Y-70300000D03*
X117312500Y-71250000D03*
%TD*%
D11*
%TO.C,R26*%
X68500000Y-127162500D03*
X68500000Y-125337500D03*
%TD*%
D29*
%TO.C,D5*%
X66000000Y-131000000D03*
D30*
X68540000Y-131000000D03*
%TD*%
D42*
%TO.C,J3*%
X121075000Y-84725000D03*
D43*
X121075000Y-87265000D03*
X118535000Y-84725000D03*
X118535000Y-87265000D03*
X115995000Y-84725000D03*
X115995000Y-87265000D03*
X113455000Y-84725000D03*
X113455000Y-87265000D03*
X110915000Y-84725000D03*
X110915000Y-87265000D03*
%TD*%
D15*
%TO.C,R16*%
X100000000Y-98587500D03*
X100000000Y-100412500D03*
%TD*%
D12*
%TO.C,C24*%
X150950000Y-118250000D03*
X149050000Y-118250000D03*
%TD*%
D44*
%TO.C,U2*%
X103250000Y-119600000D03*
D45*
X103250000Y-120700000D03*
X103250000Y-121800000D03*
X103250000Y-122900000D03*
X103250000Y-124000000D03*
X103250000Y-125100000D03*
X103250000Y-126200000D03*
X103250000Y-127300000D03*
D44*
X103250000Y-128400000D03*
X112750000Y-128400000D03*
D45*
X112750000Y-127300000D03*
X112750000Y-126200000D03*
X112750000Y-125100000D03*
X112750000Y-124000000D03*
X112750000Y-122900000D03*
X112750000Y-121800000D03*
X112750000Y-120700000D03*
D44*
X112750000Y-119600000D03*
%TD*%
D46*
%TO.C,D9*%
X109500000Y-53000000D03*
X113500000Y-53000000D03*
%TD*%
D29*
%TO.C,D1*%
X105500000Y-131000000D03*
D30*
X108040000Y-131000000D03*
%TD*%
D12*
%TO.C,C17*%
X113750000Y-94500000D03*
X111850000Y-94500000D03*
%TD*%
D15*
%TO.C,R8*%
X153000000Y-125087500D03*
X153000000Y-126912500D03*
%TD*%
D21*
%TO.C,BT3*%
X59500000Y-74000000D03*
D22*
X59500000Y-118700000D03*
%TD*%
D24*
%TO.C,C14*%
X120500000Y-128050000D03*
X120500000Y-129950000D03*
%TD*%
D11*
%TO.C,R15*%
X126000000Y-72662500D03*
X126000000Y-70837500D03*
%TD*%
D47*
%TO.C,C2*%
X132171751Y-91171751D03*
X130828249Y-89828249D03*
%TD*%
D25*
%TO.C,C13*%
X150500000Y-126950000D03*
X150500000Y-125050000D03*
%TD*%
D15*
%TO.C,R10*%
X117000000Y-124175000D03*
X117000000Y-126000000D03*
%TD*%
D23*
%TO.C,R6*%
X109337500Y-71250000D03*
X111162500Y-71250000D03*
%TD*%
D29*
%TO.C,D4*%
X86000000Y-134000000D03*
D30*
X88540000Y-134000000D03*
%TD*%
D24*
%TO.C,C6*%
X74750000Y-129050000D03*
X74750000Y-130950000D03*
%TD*%
D48*
%TO.C,C21*%
X146800000Y-64750000D03*
X148700000Y-64750000D03*
%TD*%
D23*
%TO.C,R13*%
X128087500Y-138000000D03*
X129912500Y-138000000D03*
%TD*%
M02*
