M48
; DRILL file {KiCad 6.0.2+dfsg-1} date Tue 23 May 2023 04:54:42 PM CDT
; FORMAT={-:-/ absolute / metric / decimal}
; #@! TF.CreationDate,2023-05-23T16:54:42-05:00
; #@! TF.GenerationSoftware,Kicad,Pcbnew,6.0.2+dfsg-1
; #@! TF.FileFunction,Plated,1,2,PTH
FMAT,2
METRIC
; #@! TA.AperFunction,Plated,PTH,ViaDrill
T1C0.300
; #@! TA.AperFunction,Plated,PTH,ViaDrill
T2C0.400
; #@! TA.AperFunction,Plated,PTH,ComponentDrill
T3C0.460
; #@! TA.AperFunction,Plated,PTH,ComponentDrill
T4C0.900
; #@! TA.AperFunction,Plated,PTH,ComponentDrill
T5C1.000
; #@! TA.AperFunction,Plated,PTH,ComponentDrill
T6C1.020
; #@! TA.AperFunction,Plated,PTH,ComponentDrill
T7C1.700
%
G90
G05
T1
X96.25Y-122.75
X100.0Y-74.0
X100.0Y-93.25
X102.75Y-74.25
X103.5Y-74.25
X104.25Y-74.25
X105.75Y-72.75
X106.75Y-70.75
X106.75Y-71.75
X106.75Y-72.75
X108.25Y-70.75
X108.25Y-71.75
X108.25Y-72.75
X109.25Y-72.75
X113.75Y-107.5
X114.0Y-55.25
X114.0Y-56.0
X114.0Y-56.75
X114.75Y-55.25
X114.75Y-56.0
X114.75Y-56.75
X115.5Y-55.25
X115.5Y-56.0
X115.5Y-56.75
X115.75Y-109.5
X116.0Y-103.5
X117.75Y-92.75
X118.25Y-92.0
X118.5Y-63.5
X118.5Y-106.0
X118.5Y-114.0
X118.5Y-118.0
X119.5Y-63.5
X119.5Y-114.0
X119.5Y-117.0
X120.5Y-114.0
X120.5Y-117.0
X123.75Y-77.75
X125.5Y-73.25
X126.5Y-73.25
X129.0Y-104.5
X133.0Y-100.75
X133.0Y-104.5
X134.0Y-114.25
X134.0Y-117.75
T2
X74.25Y-131.5
X75.25Y-131.5
X81.0Y-126.0
X92.0Y-127.5
X92.0Y-128.5
X93.0Y-118.25
X95.0Y-120.25
X98.0Y-125.75
X98.25Y-123.5
X100.0Y-101.75
X100.0Y-125.25
X100.5Y-129.75
X101.5Y-129.75
X102.5Y-118.0
X103.5Y-118.0
X104.5Y-118.0
X106.0Y-66.75
X107.0Y-66.75
X108.75Y-99.0
X109.5Y-66.75
X109.5Y-110.0
X109.75Y-99.0
X110.5Y-66.75
X110.5Y-110.0
X111.3Y-94.0
X111.3Y-95.0
X111.3Y-96.5
X111.3Y-97.5
X112.0Y-129.5
X113.5Y-111.25
X113.5Y-112.25
X113.5Y-129.5
X114.5Y-126.25
X114.5Y-128.5
X115.0Y-96.75
X115.75Y-113.5
X115.75Y-118.5
X120.0Y-131.0
X121.0Y-131.0
X124.25Y-117.75
X125.25Y-117.75
X126.0Y-82.0
X126.0Y-107.5
X126.25Y-88.0
X126.5Y-98.75
X127.0Y-88.75
X128.0Y-105.5
X129.0Y-114.0
X130.0Y-114.0
X131.5Y-92.75
X133.0Y-92.0
X133.0Y-93.5
X134.0Y-82.0
X134.25Y-94.5
X135.0Y-95.25
X135.5Y-118.0
X136.0Y-107.0
X136.75Y-116.75
X150.0Y-124.0
X151.0Y-124.0
X152.5Y-124.0
X153.5Y-124.0
T3
X73.507Y-134.015
X80.492Y-134.015
X93.507Y-134.015
X100.492Y-134.015
X113.507Y-134.015
X120.492Y-134.015
T4
X66.0Y-131.0
X66.0Y-134.0
X68.54Y-131.0
X68.54Y-134.0
X86.0Y-131.0
X86.0Y-134.0
X88.54Y-131.0
X88.54Y-134.0
X105.5Y-131.0
X105.5Y-134.0
X108.04Y-131.0
X108.04Y-134.0
X134.29Y-125.005
X135.56Y-127.545
X136.83Y-125.005
X138.1Y-127.545
X139.37Y-125.005
X140.64Y-127.545
X141.91Y-125.005
X144.45Y-125.005
X145.72Y-127.545
T5
X110.915Y-84.725
X110.915Y-87.265
X113.455Y-84.725
X113.455Y-87.265
X115.995Y-84.725
X115.995Y-87.265
X118.535Y-84.725
X118.535Y-87.265
X121.075Y-84.725
X121.075Y-87.265
X133.37Y-137.955
X135.91Y-137.955
X144.09Y-137.955
X146.63Y-137.955
T6
X55.3Y-62.0
X59.5Y-74.0
X59.5Y-118.7
X74.5Y-74.05
X74.5Y-118.75
X89.5Y-74.0
X89.5Y-118.7
X100.0Y-62.0
T7
X132.25Y-130.845
X147.75Y-130.845
T0
M30
