M48
; DRILL file {KiCad 6.0.2+dfsg-1} date Wed 24 May 2023 12:36:44 PM CDT
; FORMAT={-:-/ absolute / metric / decimal}
; #@! TF.CreationDate,2023-05-24T12:36:44-05:00
; #@! TF.GenerationSoftware,Kicad,Pcbnew,6.0.2+dfsg-1
; #@! TF.FileFunction,Plated,1,2,PTH
FMAT,2
METRIC
; #@! TA.AperFunction,Plated,PTH,ViaDrill
T1C0.300
; #@! TA.AperFunction,Plated,PTH,ViaDrill
T2C0.400
; #@! TA.AperFunction,Plated,PTH,ComponentDrill
T3C0.460
; #@! TA.AperFunction,Plated,PTH,ComponentDrill
T4C0.900
; #@! TA.AperFunction,Plated,PTH,ComponentDrill
T5C1.000
; #@! TA.AperFunction,Plated,PTH,ComponentDrill
T6C1.700
%
G90
G05
T1
X51.75Y-66.5
X51.75Y-69.0
X51.75Y-71.5
X51.75Y-74.0
X51.75Y-76.75
X52.25Y-81.75
X65.0Y-88.0
X65.75Y-56.5
X66.75Y-56.5
X68.5Y-52.0
X72.75Y-66.25
X73.75Y-66.25
X76.75Y-73.0
X76.75Y-73.75
X76.75Y-74.5
X77.5Y-73.0
X77.5Y-73.75
X77.5Y-74.5
X78.25Y-73.0
X78.25Y-73.75
X78.25Y-74.5
X83.0Y-57.0
X83.25Y-95.25
X84.0Y-57.0
X84.0Y-58.0
X84.0Y-59.0
X85.5Y-57.0
X85.5Y-58.0
X85.5Y-59.0
X86.5Y-57.0
X88.0Y-55.5
X88.75Y-55.5
X89.5Y-55.5
X100.75Y-80.0
X102.75Y-82.0
X103.0Y-76.0
X105.5Y-78.5
X105.5Y-86.5
X105.5Y-90.5
X106.5Y-86.5
X106.5Y-89.5
X107.5Y-86.5
X107.5Y-89.5
X116.0Y-77.0
X120.0Y-73.25
X120.0Y-77.0
T2
X51.6Y-58.15
X51.6Y-59.15
X51.75Y-90.25
X56.0Y-88.0
X56.0Y-89.0
X56.5Y-81.5
X57.5Y-81.5
X58.5Y-81.5
X59.5Y-81.5
X61.25Y-83.25
X61.25Y-104.0
X62.25Y-83.25
X62.25Y-104.0
X63.25Y-83.25
X64.75Y-83.25
X65.75Y-83.25
X66.5Y-90.75
X66.75Y-83.25
X68.0Y-98.5
X69.0Y-88.0
X69.0Y-89.0
X69.75Y-82.5
X70.75Y-86.75
X72.0Y-93.25
X73.5Y-93.25
X74.5Y-93.25
X79.0Y-100.0
X79.0Y-101.0
X80.0Y-90.75
X81.75Y-63.0
X82.0Y-92.75
X82.75Y-63.0
X83.25Y-76.5
X84.25Y-76.5
X85.0Y-98.25
X85.25Y-63.0
X85.25Y-96.0
X86.25Y-63.0
X86.75Y-76.5
X87.0Y-97.75
X87.5Y-102.25
X87.75Y-76.5
X88.5Y-102.25
X89.5Y-78.0
X89.5Y-90.5
X90.5Y-90.5
X91.5Y-90.5
X95.75Y-71.5
X96.5Y-82.5
X96.75Y-71.5
X97.5Y-82.5
X98.3Y-66.5
X98.3Y-67.5
X98.3Y-69.0
X98.3Y-70.0
X99.0Y-102.0
X100.5Y-83.75
X100.5Y-84.75
X100.5Y-102.0
X101.5Y-98.75
X101.5Y-101.0
X102.0Y-69.25
X102.75Y-86.0
X102.75Y-91.0
X107.0Y-103.5
X108.0Y-103.5
X111.25Y-90.25
X112.25Y-90.25
X112.75Y-53.5
X113.0Y-80.0
X113.25Y-60.5
X113.5Y-71.25
X114.0Y-61.25
X114.25Y-65.75
X115.0Y-78.0
X116.0Y-86.5
X117.0Y-86.5
X118.25Y-65.25
X119.0Y-66.25
X119.25Y-64.5
X119.75Y-67.0
X120.0Y-63.75
X120.5Y-67.75
X120.5Y-88.5
X120.5Y-89.5
X121.0Y-53.5
X121.25Y-68.5
X123.0Y-79.5
X125.5Y-86.75
X126.25Y-74.5
X126.25Y-75.5
X126.5Y-86.75
X131.25Y-90.25
X131.25Y-91.25
X137.0Y-109.5
X138.0Y-109.5
X139.5Y-109.5
X140.5Y-109.5
T3
X60.508Y-106.515
X67.492Y-106.515
X80.507Y-106.515
X87.492Y-106.515
X100.507Y-106.515
X107.492Y-106.515
T4
X53.0Y-103.5
X53.0Y-106.5
X55.54Y-103.5
X55.54Y-106.5
X61.5Y-77.5
X67.75Y-67.5
X73.0Y-103.5
X73.0Y-106.5
X75.54Y-103.5
X75.54Y-106.5
X92.5Y-103.5
X92.5Y-106.5
X95.04Y-103.5
X95.04Y-106.5
X121.29Y-97.505
X122.56Y-100.045
X123.83Y-97.505
X125.1Y-100.045
X126.37Y-97.505
X127.64Y-100.045
X128.91Y-97.505
X131.45Y-97.505
X132.72Y-100.045
T5
X88.75Y-68.75
X91.29Y-68.75
X97.925Y-54.235
X97.925Y-56.775
X100.465Y-54.235
X100.465Y-56.775
X103.005Y-54.235
X103.005Y-56.775
X105.545Y-54.235
X105.545Y-56.775
X108.085Y-54.235
X108.085Y-56.775
X120.37Y-110.455
X122.91Y-110.455
X131.09Y-110.455
X133.63Y-110.455
X136.71Y-92.0
X139.25Y-92.0
T6
X119.25Y-103.345
X134.75Y-103.345
T0
M30
