%TF.GenerationSoftware,KiCad,Pcbnew,6.0.2+dfsg-1*%
%TF.CreationDate,2023-05-23T23:44:46-05:00*%
%TF.ProjectId,ethernet,65746865-726e-4657-942e-6b696361645f,rev?*%
%TF.SameCoordinates,Original*%
%TF.FileFunction,Soldermask,Bot*%
%TF.FilePolarity,Negative*%
%FSLAX46Y46*%
G04 Gerber Fmt 4.6, Leading zero omitted, Abs format (unit mm)*
G04 Created by KiCad (PCBNEW 6.0.2+dfsg-1) date 2023-05-23 23:44:46*
%MOMM*%
%LPD*%
G01*
G04 APERTURE LIST*
%ADD10C,1.800000*%
%ADD11R,2.665000X4.190000*%
%ADD12R,1.700000X1.700000*%
%ADD13O,1.700000X1.700000*%
%ADD14R,1.800000X1.800000*%
%ADD15C,3.200000*%
%ADD16C,2.000000*%
%ADD17C,3.000000*%
G04 APERTURE END LIST*
D10*
%TO.C,J9*%
X67750000Y-67500000D03*
%TD*%
%TO.C,J8*%
X61500000Y-77500000D03*
%TD*%
D11*
%TO.C,J2*%
X107492500Y-109500000D03*
X100507500Y-109500000D03*
%TD*%
D12*
%TO.C,J4*%
X88750000Y-68750000D03*
D13*
X91290000Y-68750000D03*
%TD*%
D11*
%TO.C,J6*%
X67492500Y-109500000D03*
X60507500Y-109500000D03*
%TD*%
D14*
%TO.C,D2*%
X92500000Y-106500000D03*
D10*
X95040000Y-106500000D03*
%TD*%
D11*
%TO.C,J5*%
X87492500Y-109500000D03*
X80507500Y-109500000D03*
%TD*%
D15*
%TO.C,J1*%
X121290000Y-106395000D03*
X132720000Y-106395000D03*
D14*
X121290000Y-97505000D03*
D10*
X122560000Y-100045000D03*
X123830000Y-97505000D03*
X125100000Y-100045000D03*
X126370000Y-97505000D03*
X127640000Y-100045000D03*
X128910000Y-97505000D03*
X131450000Y-97505000D03*
X132720000Y-100045000D03*
D16*
X120370000Y-110455000D03*
X122910000Y-110455000D03*
X131090000Y-110455000D03*
X133630000Y-110455000D03*
D17*
X134750000Y-103345000D03*
X119250000Y-103345000D03*
%TD*%
D14*
%TO.C,D3*%
X73000000Y-103500000D03*
D10*
X75540000Y-103500000D03*
%TD*%
D12*
%TO.C,J7*%
X139250000Y-92000000D03*
D13*
X136710000Y-92000000D03*
%TD*%
D14*
%TO.C,D6*%
X53000000Y-106500000D03*
D10*
X55540000Y-106500000D03*
%TD*%
D14*
%TO.C,D5*%
X53000000Y-103500000D03*
D10*
X55540000Y-103500000D03*
%TD*%
D12*
%TO.C,J3*%
X97925000Y-56775000D03*
D13*
X97925000Y-54235000D03*
X100465000Y-56775000D03*
X100465000Y-54235000D03*
X103005000Y-56775000D03*
X103005000Y-54235000D03*
X105545000Y-56775000D03*
X105545000Y-54235000D03*
X108085000Y-56775000D03*
X108085000Y-54235000D03*
%TD*%
D14*
%TO.C,D1*%
X92500000Y-103500000D03*
D10*
X95040000Y-103500000D03*
%TD*%
D14*
%TO.C,D4*%
X73000000Y-106500000D03*
D10*
X75540000Y-106500000D03*
%TD*%
M02*
