%TF.GenerationSoftware,KiCad,Pcbnew,6.0.2+dfsg-1*%
%TF.CreationDate,2023-05-23T23:44:45-05:00*%
%TF.ProjectId,ethernet,65746865-726e-4657-942e-6b696361645f,rev?*%
%TF.SameCoordinates,Original*%
%TF.FileFunction,Copper,L2,Bot*%
%TF.FilePolarity,Positive*%
%FSLAX46Y46*%
G04 Gerber Fmt 4.6, Leading zero omitted, Abs format (unit mm)*
G04 Created by KiCad (PCBNEW 6.0.2+dfsg-1) date 2023-05-23 23:44:45*
%MOMM*%
%LPD*%
G01*
G04 APERTURE LIST*
%TA.AperFunction,ComponentPad*%
%ADD10C,1.800000*%
%TD*%
%TA.AperFunction,SMDPad,CuDef*%
%ADD11R,2.665000X4.190000*%
%TD*%
%TA.AperFunction,SMDPad,CuDef*%
%ADD12R,0.460000X0.890000*%
%TD*%
%TA.AperFunction,ComponentPad*%
%ADD13C,0.970000*%
%TD*%
%TA.AperFunction,ComponentPad*%
%ADD14R,1.700000X1.700000*%
%TD*%
%TA.AperFunction,ComponentPad*%
%ADD15O,1.700000X1.700000*%
%TD*%
%TA.AperFunction,ComponentPad*%
%ADD16R,1.800000X1.800000*%
%TD*%
%TA.AperFunction,ComponentPad*%
%ADD17C,2.000000*%
%TD*%
%TA.AperFunction,ComponentPad*%
%ADD18C,3.000000*%
%TD*%
%TA.AperFunction,ViaPad*%
%ADD19C,0.800000*%
%TD*%
%TA.AperFunction,ViaPad*%
%ADD20C,0.600000*%
%TD*%
%TA.AperFunction,Conductor*%
%ADD21C,0.152400*%
%TD*%
%TA.AperFunction,Conductor*%
%ADD22C,0.254000*%
%TD*%
%TA.AperFunction,Conductor*%
%ADD23C,1.016000*%
%TD*%
G04 APERTURE END LIST*
D10*
%TO.P,J9,1,Pin_1*%
%TO.N,-POE*%
X67750000Y-67500000D03*
%TD*%
%TO.P,J8,1,Pin_1*%
%TO.N,+POE*%
X61500000Y-77500000D03*
%TD*%
D11*
%TO.P,J2,2,Ext*%
%TO.N,GND*%
X107492500Y-109500000D03*
D12*
X107492500Y-106960000D03*
D11*
X100507500Y-109500000D03*
D12*
X100507500Y-106960000D03*
D13*
X100507500Y-106515000D03*
X107492500Y-106515000D03*
%TD*%
D14*
%TO.P,J4,1,Pin_1*%
%TO.N,+BATT*%
X88750000Y-68750000D03*
D15*
%TO.P,J4,2,Pin_2*%
%TO.N,GND*%
X91290000Y-68750000D03*
%TD*%
D11*
%TO.P,J6,2,Ext*%
%TO.N,GND*%
X67492500Y-109500000D03*
D12*
X67492500Y-106960000D03*
D13*
X60507500Y-106515000D03*
D12*
X60507500Y-106960000D03*
D13*
X67492500Y-106515000D03*
D11*
X60507500Y-109500000D03*
%TD*%
D16*
%TO.P,D2,1,K*%
%TO.N,GND*%
X92500000Y-106500000D03*
D10*
%TO.P,D2,2,A*%
%TO.N,Net-(D2-Pad2)*%
X95040000Y-106500000D03*
%TD*%
D13*
%TO.P,J5,2,Ext*%
%TO.N,GND*%
X87492500Y-106515000D03*
D11*
X87492500Y-109500000D03*
X80507500Y-109500000D03*
D13*
X80507500Y-106515000D03*
D12*
X87492500Y-106960000D03*
X80507500Y-106960000D03*
%TD*%
D16*
%TO.P,J1,1,TD+*%
%TO.N,Net-(J1-Pad1)*%
X121290000Y-97505000D03*
D10*
%TO.P,J1,2,TD-*%
%TO.N,Net-(J1-Pad2)*%
X122560000Y-100045000D03*
%TO.P,J1,3,RD+*%
%TO.N,Net-(J1-Pad3)*%
X123830000Y-97505000D03*
%TO.P,J1,4,CT*%
%TO.N,+3V3*%
X125100000Y-100045000D03*
%TO.P,J1,5,CT*%
X126370000Y-97505000D03*
%TO.P,J1,6,RD-*%
%TO.N,Net-(J1-Pad6)*%
X127640000Y-100045000D03*
%TO.P,J1,7,7*%
%TO.N,GND*%
X128910000Y-97505000D03*
%TO.P,J1,9,V+*%
%TO.N,Net-(C24-Pad2)*%
X131450000Y-97505000D03*
%TO.P,J1,10,V-*%
%TO.N,Net-(C24-Pad1)*%
X132720000Y-100045000D03*
D17*
%TO.P,J1,11,LLED+*%
%TO.N,Net-(J1-Pad11)*%
X120370000Y-110455000D03*
%TO.P,J1,12,LLED-*%
%TO.N,GND*%
X122910000Y-110455000D03*
%TO.P,J1,13,RLED+*%
%TO.N,Net-(J1-Pad13)*%
X131090000Y-110455000D03*
%TO.P,J1,14,RLED-*%
%TO.N,GND*%
X133630000Y-110455000D03*
D18*
%TO.P,J1,15,SHIELD*%
%TO.N,Net-(C13-Pad1)*%
X134750000Y-103345000D03*
X119250000Y-103345000D03*
%TD*%
D16*
%TO.P,D3,1,K*%
%TO.N,GND*%
X73000000Y-103500000D03*
D10*
%TO.P,D3,2,A*%
%TO.N,Net-(D3-Pad2)*%
X75540000Y-103500000D03*
%TD*%
D14*
%TO.P,J7,1,Pin_1*%
%TO.N,Net-(C24-Pad1)*%
X139250000Y-92000000D03*
D15*
%TO.P,J7,2,Pin_2*%
%TO.N,Net-(C24-Pad2)*%
X136710000Y-92000000D03*
%TD*%
D16*
%TO.P,D6,1,K*%
%TO.N,GND*%
X53000000Y-106500000D03*
D10*
%TO.P,D6,2,A*%
%TO.N,Net-(D6-Pad2)*%
X55540000Y-106500000D03*
%TD*%
D16*
%TO.P,D5,1,K*%
%TO.N,GND*%
X53000000Y-103500000D03*
D10*
%TO.P,D5,2,A*%
%TO.N,Net-(D5-Pad2)*%
X55540000Y-103500000D03*
%TD*%
D14*
%TO.P,J3,1,VTref*%
%TO.N,+3V3*%
X97925000Y-56775000D03*
D15*
%TO.P,J3,2,SWDIO/TMS*%
%TO.N,Net-(J3-Pad2)*%
X97925000Y-54235000D03*
%TO.P,J3,3,GND*%
%TO.N,GND*%
X100465000Y-56775000D03*
%TO.P,J3,4,SWDCLK/TCK*%
%TO.N,Net-(J3-Pad4)*%
X100465000Y-54235000D03*
%TO.P,J3,5,GND*%
%TO.N,GND*%
X103005000Y-56775000D03*
%TO.P,J3,6,SWO/TDO*%
%TO.N,Net-(J3-Pad6)*%
X103005000Y-54235000D03*
%TO.P,J3,7,KEY*%
%TO.N,unconnected-(J3-Pad7)*%
X105545000Y-56775000D03*
%TO.P,J3,8,NC/TDI*%
%TO.N,Net-(J3-Pad8)*%
X105545000Y-54235000D03*
%TO.P,J3,9,GNDDetect*%
%TO.N,GND*%
X108085000Y-56775000D03*
%TO.P,J3,10,~{RESET}*%
%TO.N,~{RST}*%
X108085000Y-54235000D03*
%TD*%
D16*
%TO.P,D1,1,K*%
%TO.N,GND*%
X92500000Y-103500000D03*
D10*
%TO.P,D1,2,A*%
%TO.N,Net-(D1-Pad2)*%
X95040000Y-103500000D03*
%TD*%
D16*
%TO.P,D4,1,K*%
%TO.N,GND*%
X73000000Y-106500000D03*
D10*
%TO.P,D4,2,A*%
%TO.N,Net-(D4-Pad2)*%
X75540000Y-106500000D03*
%TD*%
D19*
%TO.N,-POE*%
X58250000Y-86250000D03*
X57250000Y-86250000D03*
D20*
%TO.N,Net-(Q9-Pad1)*%
X62000000Y-88000000D03*
X53500000Y-83000000D03*
%TO.N,-POE*%
X51750000Y-69000000D03*
X51750000Y-74000000D03*
X51750000Y-71500000D03*
X51750000Y-66500000D03*
X51750000Y-76750000D03*
D19*
X53500000Y-91250000D03*
X51600000Y-58150000D03*
X51600000Y-59150000D03*
X63500000Y-90500000D03*
X62000000Y-82500000D03*
X61000000Y-82500000D03*
X63250000Y-82500000D03*
X64250000Y-82500000D03*
X66000000Y-88000000D03*
X66000000Y-89000000D03*
X71500000Y-93250000D03*
X70500000Y-93250000D03*
X69000000Y-93250000D03*
X67500000Y-86750000D03*
X66500000Y-82500000D03*
D20*
%TO.N,Net-(J1-Pad1)*%
X121000000Y-90250000D03*
X121000000Y-86750000D03*
%TO.N,GND*%
X65750000Y-56500000D03*
D19*
X87500000Y-102250000D03*
X140500000Y-109500000D03*
D20*
X76750000Y-73000000D03*
D19*
X112750000Y-53500000D03*
X114000000Y-61250000D03*
X139500000Y-109500000D03*
D20*
X100750000Y-80000000D03*
X77500000Y-73000000D03*
X86500000Y-57000000D03*
D19*
X117000000Y-86500000D03*
X123000000Y-79500000D03*
X90500000Y-90500000D03*
X85250000Y-63000000D03*
D20*
X77500000Y-73750000D03*
D19*
X137000000Y-109500000D03*
X99000000Y-102000000D03*
D20*
X85500000Y-59000000D03*
D19*
X115000000Y-78000000D03*
X98300000Y-66500000D03*
D20*
X120000000Y-77000000D03*
D19*
X107000000Y-103500000D03*
X86750000Y-76500000D03*
X120000000Y-66000000D03*
X113500000Y-71250000D03*
D20*
X78250000Y-74500000D03*
D19*
X89425000Y-77750000D03*
X113250000Y-60500000D03*
D20*
X85500000Y-57000000D03*
D19*
X102000000Y-69250000D03*
X82750000Y-63000000D03*
X79000000Y-100000000D03*
X108000000Y-103500000D03*
X118500000Y-65250000D03*
D20*
X120000000Y-73250000D03*
D19*
X84250000Y-76500000D03*
X101500000Y-98750000D03*
D20*
X78250000Y-73750000D03*
D19*
X101500000Y-101000000D03*
X87750000Y-76500000D03*
X62250000Y-104000000D03*
D20*
X83000000Y-57000000D03*
D19*
X89500000Y-90500000D03*
X113000000Y-80000000D03*
X97500000Y-82500000D03*
D20*
X89500000Y-55500000D03*
X84000000Y-58000000D03*
D19*
X100500000Y-102000000D03*
D20*
X85500000Y-58000000D03*
X88750000Y-55500000D03*
D19*
X81750000Y-63000000D03*
D20*
X88000000Y-55500000D03*
X77500000Y-74500000D03*
X78250000Y-73000000D03*
D19*
X112250000Y-90250000D03*
X91500000Y-90500000D03*
X121000000Y-53500000D03*
X88500000Y-102250000D03*
X98300000Y-67500000D03*
D20*
X76750000Y-74500000D03*
D19*
X96750000Y-71500000D03*
X100500000Y-83750000D03*
D20*
X102750000Y-82000000D03*
D19*
X111250000Y-90250000D03*
X86250000Y-63000000D03*
X100500000Y-84750000D03*
X85000000Y-98250000D03*
D20*
X72750000Y-66250000D03*
D19*
X121250000Y-67000000D03*
X83250000Y-76500000D03*
X79000000Y-101000000D03*
X120000000Y-64500000D03*
D20*
X84000000Y-59000000D03*
D19*
X116000000Y-86500000D03*
D20*
X73750000Y-66250000D03*
X116000000Y-77000000D03*
X66750000Y-56500000D03*
X68500000Y-52000000D03*
D19*
X138000000Y-109500000D03*
D20*
X76750000Y-73750000D03*
D19*
X68000000Y-98500000D03*
X98300000Y-69000000D03*
D20*
X84000000Y-57000000D03*
D19*
X96500000Y-82500000D03*
X95750000Y-71500000D03*
X122000000Y-67750000D03*
X98300000Y-70000000D03*
X61250000Y-104000000D03*
D20*
%TO.N,+3V3*%
X83250000Y-95250000D03*
D19*
X87000000Y-97750000D03*
X82000000Y-92750000D03*
X122500000Y-90500000D03*
X102750000Y-91000000D03*
X80000000Y-90750000D03*
X85250000Y-96000000D03*
X102750000Y-86000000D03*
X123750000Y-89250000D03*
D20*
%TO.N,uPPS*%
X103000000Y-76000000D03*
X105500000Y-78500000D03*
%TO.N,Net-(U1-Pad31)*%
X106500000Y-86500000D03*
X106500000Y-89500000D03*
%TO.N,Net-(U1-Pad32)*%
X107500000Y-89500000D03*
X107500000Y-86500000D03*
%TO.N,GPS_LED*%
X105500000Y-90500000D03*
X105500000Y-86500000D03*
D19*
%TO.N,-POE*%
X59500000Y-81500000D03*
X57500000Y-81500000D03*
X58500000Y-81500000D03*
X56500000Y-81500000D03*
%TD*%
D21*
%TO.N,Net-(Q9-Pad1)*%
X53500000Y-83000000D02*
X57000000Y-83000000D01*
X57000000Y-83000000D02*
X62000000Y-88000000D01*
D22*
%TO.N,Net-(J1-Pad1)*%
X121000000Y-86750000D02*
X121000000Y-90250000D01*
D23*
%TO.N,+3V3*%
X82000000Y-92750000D02*
X83875000Y-94625000D01*
X83250000Y-95250000D02*
X83875000Y-94625000D01*
X85250000Y-96000000D02*
X87000000Y-97750000D01*
X123750000Y-89250000D02*
X122500000Y-90500000D01*
X102750000Y-86000000D02*
X102750000Y-91000000D01*
X80000000Y-90750000D02*
X82000000Y-92750000D01*
X83875000Y-94625000D02*
X85250000Y-96000000D01*
D21*
%TO.N,uPPS*%
X103000000Y-76000000D02*
X105500000Y-78500000D01*
%TO.N,Net-(U1-Pad31)*%
X106500000Y-86500000D02*
X106500000Y-89500000D01*
%TO.N,Net-(U1-Pad32)*%
X107500000Y-86500000D02*
X107500000Y-89500000D01*
%TO.N,GPS_LED*%
X105500000Y-90500000D02*
X105500000Y-86500000D01*
%TD*%
%TA.AperFunction,Conductor*%
%TO.N,-POE*%
G36*
X55942121Y-57170002D02*
G01*
X55988614Y-57223658D01*
X56000000Y-57276000D01*
X56000000Y-66250000D01*
X68447810Y-66250000D01*
X68515931Y-66270002D01*
X68536905Y-66286905D01*
X71713095Y-69463095D01*
X71747121Y-69525407D01*
X71750000Y-69552190D01*
X71750000Y-93624000D01*
X71729998Y-93692121D01*
X71676342Y-93738614D01*
X71624000Y-93750000D01*
X51126000Y-93750000D01*
X51057879Y-93729998D01*
X51011386Y-93676342D01*
X51000000Y-93624000D01*
X51000000Y-83000000D01*
X52940715Y-83000000D01*
X52959772Y-83144754D01*
X53015645Y-83279642D01*
X53020672Y-83286193D01*
X53092649Y-83379995D01*
X53104526Y-83395474D01*
X53111076Y-83400500D01*
X53111079Y-83400503D01*
X53213804Y-83479327D01*
X53220357Y-83484355D01*
X53355246Y-83540228D01*
X53500000Y-83559285D01*
X53508188Y-83558207D01*
X53636566Y-83541306D01*
X53644754Y-83540228D01*
X53779643Y-83484355D01*
X53895474Y-83395474D01*
X53907352Y-83379994D01*
X53964690Y-83338128D01*
X54007313Y-83330700D01*
X56810830Y-83330700D01*
X56878951Y-83350702D01*
X56899925Y-83367605D01*
X61407435Y-87875115D01*
X61441461Y-87937427D01*
X61443262Y-87980655D01*
X61440715Y-88000000D01*
X61459772Y-88144754D01*
X61515645Y-88279642D01*
X61604526Y-88395474D01*
X61611076Y-88400500D01*
X61611079Y-88400503D01*
X61713804Y-88479327D01*
X61720357Y-88484355D01*
X61855246Y-88540228D01*
X62000000Y-88559285D01*
X62008188Y-88558207D01*
X62136566Y-88541306D01*
X62144754Y-88540228D01*
X62279643Y-88484355D01*
X62286196Y-88479327D01*
X62388921Y-88400503D01*
X62388924Y-88400500D01*
X62395474Y-88395474D01*
X62484355Y-88279642D01*
X62540228Y-88144754D01*
X62559285Y-88000000D01*
X62540228Y-87855246D01*
X62484355Y-87720358D01*
X62395474Y-87604526D01*
X62388924Y-87599500D01*
X62388921Y-87599497D01*
X62286196Y-87520673D01*
X62286194Y-87520672D01*
X62279643Y-87515645D01*
X62144754Y-87459772D01*
X62000000Y-87440715D01*
X61980656Y-87443262D01*
X61910509Y-87432324D01*
X61875115Y-87407435D01*
X57247948Y-82780268D01*
X57240522Y-82772164D01*
X57222936Y-82751206D01*
X57222933Y-82751204D01*
X57215849Y-82742761D01*
X57182625Y-82723578D01*
X57173355Y-82717673D01*
X57150950Y-82701985D01*
X57150947Y-82701984D01*
X57141916Y-82695660D01*
X57131267Y-82692806D01*
X57127889Y-82691231D01*
X57124396Y-82689960D01*
X57114851Y-82684449D01*
X57103998Y-82682535D01*
X57103997Y-82682535D01*
X57092900Y-82680578D01*
X57077053Y-82677784D01*
X57066339Y-82675409D01*
X57029267Y-82665476D01*
X57018292Y-82666436D01*
X57018291Y-82666436D01*
X56991032Y-82668821D01*
X56980051Y-82669300D01*
X54007313Y-82669300D01*
X53939192Y-82649298D01*
X53907351Y-82620005D01*
X53895474Y-82604526D01*
X53779643Y-82515645D01*
X53644754Y-82459772D01*
X53500000Y-82440715D01*
X53491812Y-82441793D01*
X53363432Y-82458694D01*
X53363430Y-82458695D01*
X53355246Y-82459772D01*
X53307430Y-82479578D01*
X53227986Y-82512485D01*
X53227984Y-82512486D01*
X53220358Y-82515645D01*
X53104526Y-82604526D01*
X53099503Y-82611072D01*
X53080168Y-82636270D01*
X53015645Y-82720358D01*
X53012486Y-82727984D01*
X53012485Y-82727986D01*
X52990829Y-82780268D01*
X52959772Y-82855246D01*
X52940715Y-83000000D01*
X51000000Y-83000000D01*
X51000000Y-77469649D01*
X60340951Y-77469649D01*
X60354829Y-77681377D01*
X60407058Y-77887031D01*
X60495890Y-78079723D01*
X60618350Y-78253000D01*
X60770337Y-78401059D01*
X60775133Y-78404264D01*
X60775136Y-78404266D01*
X60917186Y-78499180D01*
X60946760Y-78518941D01*
X60952063Y-78521219D01*
X60952066Y-78521221D01*
X61033908Y-78556383D01*
X61141711Y-78602699D01*
X61217750Y-78619905D01*
X61343025Y-78648252D01*
X61343030Y-78648253D01*
X61348662Y-78649527D01*
X61354433Y-78649754D01*
X61354435Y-78649754D01*
X61419911Y-78652326D01*
X61560681Y-78657857D01*
X61665674Y-78642634D01*
X61764953Y-78628239D01*
X61764958Y-78628238D01*
X61770667Y-78627410D01*
X61776131Y-78625555D01*
X61776136Y-78625554D01*
X61869240Y-78593949D01*
X61971589Y-78559207D01*
X62049221Y-78515731D01*
X62151670Y-78458357D01*
X62151674Y-78458354D01*
X62156717Y-78455530D01*
X62319852Y-78319852D01*
X62455530Y-78156717D01*
X62458354Y-78151674D01*
X62458357Y-78151670D01*
X62556383Y-77976632D01*
X62556384Y-77976630D01*
X62559207Y-77971589D01*
X62627410Y-77770667D01*
X62639545Y-77686979D01*
X62657324Y-77564355D01*
X62657857Y-77560681D01*
X62659446Y-77500000D01*
X62640031Y-77288708D01*
X62582436Y-77084492D01*
X62488590Y-76894191D01*
X62361636Y-76724179D01*
X62337524Y-76701890D01*
X62210066Y-76584069D01*
X62210063Y-76584067D01*
X62205826Y-76580150D01*
X62026377Y-76466926D01*
X61829300Y-76388300D01*
X61823643Y-76387175D01*
X61823637Y-76387173D01*
X61626863Y-76348033D01*
X61626859Y-76348033D01*
X61621195Y-76346906D01*
X61615420Y-76346830D01*
X61615416Y-76346830D01*
X61508804Y-76345434D01*
X61409031Y-76344128D01*
X61403334Y-76345107D01*
X61403333Y-76345107D01*
X61386305Y-76348033D01*
X61199913Y-76380061D01*
X61000846Y-76453501D01*
X60995885Y-76456453D01*
X60995884Y-76456453D01*
X60823463Y-76559032D01*
X60823460Y-76559034D01*
X60818495Y-76561988D01*
X60814155Y-76565794D01*
X60814151Y-76565797D01*
X60663309Y-76698083D01*
X60658968Y-76701890D01*
X60527607Y-76868520D01*
X60428812Y-77056299D01*
X60365891Y-77258938D01*
X60340951Y-77469649D01*
X51000000Y-77469649D01*
X51000000Y-57276000D01*
X51020002Y-57207879D01*
X51073658Y-57161386D01*
X51126000Y-57150000D01*
X55874000Y-57150000D01*
X55942121Y-57170002D01*
G37*
%TD.AperFunction*%
%TD*%
%TA.AperFunction,Conductor*%
%TO.N,GND*%
G36*
X140973138Y-51017593D02*
G01*
X140998858Y-51062142D01*
X141000000Y-51075200D01*
X141000000Y-89674800D01*
X140982407Y-89723138D01*
X140937858Y-89748858D01*
X140924800Y-89750000D01*
X134500000Y-89750000D01*
X134500000Y-90968852D01*
X134482407Y-91017190D01*
X134477974Y-91022026D01*
X129750000Y-95750000D01*
X129750000Y-101750000D01*
X133730847Y-101750000D01*
X133779185Y-101767593D01*
X133804905Y-101812142D01*
X133795972Y-101862800D01*
X133772079Y-101888089D01*
X133678933Y-101949158D01*
X133484379Y-102122804D01*
X133482595Y-102124949D01*
X133482594Y-102124950D01*
X133456477Y-102156353D01*
X133317629Y-102323300D01*
X133316180Y-102325688D01*
X133183791Y-102543856D01*
X133183788Y-102543863D01*
X133182345Y-102546240D01*
X133181269Y-102548806D01*
X133117076Y-102701890D01*
X133081500Y-102786728D01*
X133017310Y-103039480D01*
X132991183Y-103298944D01*
X133003694Y-103559419D01*
X133004239Y-103562157D01*
X133004239Y-103562160D01*
X133045714Y-103770667D01*
X133054569Y-103815185D01*
X133142690Y-104060621D01*
X133144013Y-104063083D01*
X133246059Y-104253000D01*
X133266120Y-104290336D01*
X133422149Y-104499283D01*
X133424131Y-104501248D01*
X133424139Y-104501257D01*
X133458775Y-104535591D01*
X133480718Y-104582115D01*
X133467622Y-104631860D01*
X133425615Y-104661549D01*
X133382409Y-104660455D01*
X133172434Y-104591622D01*
X133172433Y-104591622D01*
X133169844Y-104590773D01*
X132904681Y-104544733D01*
X132819652Y-104540500D01*
X132651626Y-104540500D01*
X132451575Y-104555015D01*
X132188774Y-104613037D01*
X132186232Y-104614000D01*
X132186229Y-104614001D01*
X131939646Y-104707422D01*
X131939641Y-104707424D01*
X131937100Y-104708387D01*
X131934722Y-104709708D01*
X131784284Y-104793269D01*
X131701828Y-104839069D01*
X131699672Y-104840714D01*
X131699668Y-104840717D01*
X131490040Y-105000700D01*
X131490035Y-105000704D01*
X131487884Y-105002346D01*
X131299751Y-105194797D01*
X131141370Y-105412390D01*
X131140103Y-105414798D01*
X131140100Y-105414803D01*
X131053107Y-105580150D01*
X131016059Y-105650567D01*
X130926443Y-105904338D01*
X130874399Y-106168389D01*
X130874264Y-106171104D01*
X130874263Y-106171111D01*
X130868409Y-106288708D01*
X130861018Y-106437186D01*
X130861277Y-106439900D01*
X130861277Y-106439904D01*
X130886320Y-106702388D01*
X130886579Y-106705100D01*
X130950547Y-106966518D01*
X130951566Y-106969033D01*
X130951567Y-106969037D01*
X131050563Y-107213445D01*
X131051583Y-107215963D01*
X131052958Y-107218311D01*
X131147522Y-107379814D01*
X131187569Y-107448210D01*
X131189270Y-107450336D01*
X131189272Y-107450340D01*
X131193423Y-107455530D01*
X131355658Y-107658395D01*
X131357652Y-107660257D01*
X131357655Y-107660261D01*
X131491950Y-107785712D01*
X131552327Y-107842113D01*
X131773457Y-107995516D01*
X131775891Y-107996727D01*
X131775898Y-107996731D01*
X132011969Y-108114174D01*
X132011973Y-108114176D01*
X132014416Y-108115391D01*
X132270156Y-108199227D01*
X132535319Y-108245267D01*
X132620348Y-108249500D01*
X132788374Y-108249500D01*
X132988425Y-108234985D01*
X133251226Y-108176963D01*
X133253768Y-108176000D01*
X133253771Y-108175999D01*
X133500354Y-108082578D01*
X133500359Y-108082576D01*
X133502900Y-108081613D01*
X133587534Y-108034603D01*
X133735796Y-107952251D01*
X133735799Y-107952249D01*
X133738172Y-107950931D01*
X133740328Y-107949286D01*
X133740332Y-107949283D01*
X133949960Y-107789300D01*
X133949965Y-107789296D01*
X133952116Y-107787654D01*
X134140249Y-107595203D01*
X134298630Y-107377610D01*
X134362927Y-107255403D01*
X134422674Y-107141842D01*
X134422676Y-107141837D01*
X134423941Y-107139433D01*
X134513557Y-106885662D01*
X134565601Y-106621611D01*
X134568526Y-106562867D01*
X134578846Y-106355541D01*
X134578982Y-106352814D01*
X134573194Y-106292141D01*
X134553680Y-106087612D01*
X134553679Y-106087609D01*
X134553421Y-106084900D01*
X134546423Y-106056299D01*
X134501220Y-105871570D01*
X134489453Y-105823482D01*
X134420454Y-105653131D01*
X134389437Y-105576555D01*
X134389436Y-105576554D01*
X134388417Y-105574037D01*
X134293769Y-105412390D01*
X134253809Y-105344143D01*
X134253807Y-105344140D01*
X134252431Y-105341790D01*
X134084342Y-105131605D01*
X134082348Y-105129743D01*
X134082345Y-105129739D01*
X134070601Y-105118769D01*
X134047288Y-105072916D01*
X134058903Y-105022804D01*
X134100011Y-104991883D01*
X134146728Y-104992820D01*
X134291996Y-105043550D01*
X134292002Y-105043552D01*
X134294629Y-105044469D01*
X134550828Y-105093110D01*
X134662472Y-105097497D01*
X134808617Y-105103239D01*
X134808623Y-105103239D01*
X134811403Y-105103348D01*
X134986462Y-105084176D01*
X135067855Y-105075262D01*
X135067858Y-105075262D01*
X135070629Y-105074958D01*
X135101657Y-105066789D01*
X135320108Y-105009276D01*
X135320112Y-105009274D01*
X135322811Y-105008564D01*
X135562410Y-104905625D01*
X135784161Y-104768401D01*
X135983194Y-104599907D01*
X135990460Y-104591622D01*
X136153292Y-104405947D01*
X136153294Y-104405944D01*
X136155135Y-104403845D01*
X136158472Y-104398658D01*
X136294695Y-104186875D01*
X136296208Y-104184523D01*
X136403314Y-103946757D01*
X136474099Y-103695772D01*
X136491285Y-103560681D01*
X136506772Y-103438947D01*
X136506773Y-103438939D01*
X136507009Y-103437081D01*
X136509420Y-103345000D01*
X136490094Y-103084941D01*
X136441814Y-102871570D01*
X136433159Y-102833320D01*
X136433157Y-102833315D01*
X136432542Y-102830595D01*
X136431529Y-102827989D01*
X136339039Y-102590151D01*
X136339036Y-102590145D01*
X136338027Y-102587550D01*
X136314417Y-102546240D01*
X136210009Y-102363567D01*
X136208625Y-102361145D01*
X136047180Y-102156353D01*
X135857239Y-101977674D01*
X135726516Y-101886988D01*
X135696828Y-101844980D01*
X135701088Y-101793717D01*
X135737302Y-101757185D01*
X135769380Y-101750000D01*
X140924800Y-101750000D01*
X140973138Y-101767593D01*
X140998858Y-101812142D01*
X141000000Y-101825200D01*
X141000000Y-111424800D01*
X140982407Y-111473138D01*
X140937858Y-111498858D01*
X140924800Y-111500000D01*
X132000679Y-111500000D01*
X131952341Y-111482407D01*
X131926621Y-111437858D01*
X131935554Y-111387200D01*
X131947505Y-111371626D01*
X132054674Y-111264457D01*
X132180579Y-111084646D01*
X132273347Y-110885703D01*
X132330161Y-110673674D01*
X132349292Y-110455000D01*
X132330161Y-110236326D01*
X132273347Y-110024297D01*
X132180579Y-109825354D01*
X132054674Y-109645543D01*
X131899457Y-109490326D01*
X131719646Y-109364421D01*
X131520703Y-109271653D01*
X131517540Y-109270805D01*
X131517536Y-109270804D01*
X131414688Y-109243246D01*
X131308674Y-109214839D01*
X131090000Y-109195708D01*
X130871326Y-109214839D01*
X130765312Y-109243246D01*
X130662464Y-109270804D01*
X130662460Y-109270805D01*
X130659297Y-109271653D01*
X130460354Y-109364421D01*
X130280543Y-109490326D01*
X130125326Y-109645543D01*
X129999421Y-109825354D01*
X129906653Y-110024297D01*
X129849839Y-110236326D01*
X129830708Y-110455000D01*
X129849839Y-110673674D01*
X129906653Y-110885703D01*
X129999421Y-111084646D01*
X130125326Y-111264457D01*
X130232495Y-111371626D01*
X130254235Y-111418246D01*
X130240921Y-111467933D01*
X130198784Y-111497438D01*
X130179321Y-111500000D01*
X121280679Y-111500000D01*
X121232341Y-111482407D01*
X121206621Y-111437858D01*
X121215554Y-111387200D01*
X121227505Y-111371626D01*
X121334674Y-111264457D01*
X121460579Y-111084646D01*
X121553347Y-110885703D01*
X121610161Y-110673674D01*
X121629292Y-110455000D01*
X121610161Y-110236326D01*
X121553347Y-110024297D01*
X121460579Y-109825354D01*
X121334674Y-109645543D01*
X121179457Y-109490326D01*
X120999646Y-109364421D01*
X120800703Y-109271653D01*
X120797540Y-109270805D01*
X120797536Y-109270804D01*
X120694688Y-109243246D01*
X120588674Y-109214839D01*
X120370000Y-109195708D01*
X120151326Y-109214839D01*
X120045312Y-109243246D01*
X119942464Y-109270804D01*
X119942460Y-109270805D01*
X119939297Y-109271653D01*
X119740354Y-109364421D01*
X119560543Y-109490326D01*
X119405326Y-109645543D01*
X119279421Y-109825354D01*
X119186653Y-110024297D01*
X119129839Y-110236326D01*
X119110708Y-110455000D01*
X119129839Y-110673674D01*
X119186653Y-110885703D01*
X119279421Y-111084646D01*
X119405326Y-111264457D01*
X119512495Y-111371626D01*
X119534235Y-111418246D01*
X119520921Y-111467933D01*
X119478784Y-111497438D01*
X119459321Y-111500000D01*
X51075200Y-111500000D01*
X51026862Y-111482407D01*
X51001142Y-111437858D01*
X51000000Y-111424800D01*
X51000000Y-106469649D01*
X54380951Y-106469649D01*
X54394829Y-106681377D01*
X54447058Y-106887031D01*
X54535890Y-107079723D01*
X54537886Y-107082547D01*
X54656360Y-107250185D01*
X54656363Y-107250189D01*
X54658350Y-107253000D01*
X54810337Y-107401059D01*
X54813197Y-107402970D01*
X54983899Y-107517030D01*
X54983904Y-107517033D01*
X54986760Y-107518941D01*
X54989922Y-107520300D01*
X54989923Y-107520300D01*
X55178545Y-107601339D01*
X55178547Y-107601340D01*
X55181711Y-107602699D01*
X55388662Y-107649527D01*
X55511009Y-107654334D01*
X55597237Y-107657722D01*
X55597240Y-107657722D01*
X55600681Y-107657857D01*
X55604086Y-107657363D01*
X55604091Y-107657363D01*
X55752745Y-107635808D01*
X55810667Y-107627410D01*
X55813937Y-107626300D01*
X56008326Y-107560315D01*
X56008330Y-107560313D01*
X56011589Y-107559207D01*
X56196717Y-107455530D01*
X56359852Y-107319852D01*
X56495530Y-107156717D01*
X56599207Y-106971589D01*
X56600929Y-106966518D01*
X56666300Y-106773937D01*
X56667410Y-106770667D01*
X56697857Y-106560681D01*
X56699446Y-106500000D01*
X56696657Y-106469649D01*
X74380951Y-106469649D01*
X74394829Y-106681377D01*
X74447058Y-106887031D01*
X74535890Y-107079723D01*
X74537886Y-107082547D01*
X74656360Y-107250185D01*
X74656363Y-107250189D01*
X74658350Y-107253000D01*
X74810337Y-107401059D01*
X74813197Y-107402970D01*
X74983899Y-107517030D01*
X74983904Y-107517033D01*
X74986760Y-107518941D01*
X74989922Y-107520300D01*
X74989923Y-107520300D01*
X75178545Y-107601339D01*
X75178547Y-107601340D01*
X75181711Y-107602699D01*
X75388662Y-107649527D01*
X75511009Y-107654334D01*
X75597237Y-107657722D01*
X75597240Y-107657722D01*
X75600681Y-107657857D01*
X75604086Y-107657363D01*
X75604091Y-107657363D01*
X75752745Y-107635808D01*
X75810667Y-107627410D01*
X75813937Y-107626300D01*
X76008326Y-107560315D01*
X76008330Y-107560313D01*
X76011589Y-107559207D01*
X76196717Y-107455530D01*
X76359852Y-107319852D01*
X76495530Y-107156717D01*
X76599207Y-106971589D01*
X76600929Y-106966518D01*
X76666300Y-106773937D01*
X76667410Y-106770667D01*
X76697857Y-106560681D01*
X76699446Y-106500000D01*
X76696657Y-106469649D01*
X93880951Y-106469649D01*
X93894829Y-106681377D01*
X93947058Y-106887031D01*
X94035890Y-107079723D01*
X94037886Y-107082547D01*
X94156360Y-107250185D01*
X94156363Y-107250189D01*
X94158350Y-107253000D01*
X94310337Y-107401059D01*
X94313197Y-107402970D01*
X94483899Y-107517030D01*
X94483904Y-107517033D01*
X94486760Y-107518941D01*
X94489922Y-107520300D01*
X94489923Y-107520300D01*
X94678545Y-107601339D01*
X94678547Y-107601340D01*
X94681711Y-107602699D01*
X94888662Y-107649527D01*
X95011009Y-107654334D01*
X95097237Y-107657722D01*
X95097240Y-107657722D01*
X95100681Y-107657857D01*
X95104086Y-107657363D01*
X95104091Y-107657363D01*
X95252745Y-107635808D01*
X95310667Y-107627410D01*
X95313937Y-107626300D01*
X95508326Y-107560315D01*
X95508330Y-107560313D01*
X95511589Y-107559207D01*
X95696717Y-107455530D01*
X95859852Y-107319852D01*
X95995530Y-107156717D01*
X96099207Y-106971589D01*
X96100929Y-106966518D01*
X96166300Y-106773937D01*
X96167410Y-106770667D01*
X96197857Y-106560681D01*
X96199446Y-106500000D01*
X96180031Y-106288708D01*
X96122436Y-106084492D01*
X96028590Y-105894191D01*
X95901636Y-105724179D01*
X95745826Y-105580150D01*
X95740129Y-105576555D01*
X95689581Y-105544662D01*
X95566377Y-105466926D01*
X95424158Y-105410186D01*
X95372509Y-105389580D01*
X95372506Y-105389579D01*
X95369300Y-105388300D01*
X95365919Y-105387628D01*
X95365914Y-105387626D01*
X95164578Y-105347579D01*
X95164579Y-105347579D01*
X95161195Y-105346906D01*
X95026672Y-105345145D01*
X94952473Y-105344173D01*
X94952472Y-105344173D01*
X94949031Y-105344128D01*
X94945639Y-105344711D01*
X94945637Y-105344711D01*
X94743305Y-105379478D01*
X94743303Y-105379478D01*
X94739913Y-105380061D01*
X94540846Y-105453501D01*
X94358495Y-105561988D01*
X94198968Y-105701890D01*
X94067607Y-105868520D01*
X94066004Y-105871567D01*
X94066002Y-105871570D01*
X94050114Y-105901768D01*
X93968812Y-106056299D01*
X93905891Y-106258938D01*
X93880951Y-106469649D01*
X76696657Y-106469649D01*
X76680031Y-106288708D01*
X76622436Y-106084492D01*
X76528590Y-105894191D01*
X76401636Y-105724179D01*
X76245826Y-105580150D01*
X76240129Y-105576555D01*
X76189581Y-105544662D01*
X76066377Y-105466926D01*
X75924158Y-105410186D01*
X75872509Y-105389580D01*
X75872506Y-105389579D01*
X75869300Y-105388300D01*
X75865919Y-105387628D01*
X75865914Y-105387626D01*
X75664578Y-105347579D01*
X75664579Y-105347579D01*
X75661195Y-105346906D01*
X75526672Y-105345145D01*
X75452473Y-105344173D01*
X75452472Y-105344173D01*
X75449031Y-105344128D01*
X75445639Y-105344711D01*
X75445637Y-105344711D01*
X75243305Y-105379478D01*
X75243303Y-105379478D01*
X75239913Y-105380061D01*
X75040846Y-105453501D01*
X74858495Y-105561988D01*
X74698968Y-105701890D01*
X74567607Y-105868520D01*
X74566004Y-105871567D01*
X74566002Y-105871570D01*
X74550114Y-105901768D01*
X74468812Y-106056299D01*
X74405891Y-106258938D01*
X74380951Y-106469649D01*
X56696657Y-106469649D01*
X56680031Y-106288708D01*
X56622436Y-106084492D01*
X56528590Y-105894191D01*
X56401636Y-105724179D01*
X56245826Y-105580150D01*
X56240129Y-105576555D01*
X56189581Y-105544662D01*
X56066377Y-105466926D01*
X55924158Y-105410186D01*
X55872509Y-105389580D01*
X55872506Y-105389579D01*
X55869300Y-105388300D01*
X55865919Y-105387628D01*
X55865914Y-105387626D01*
X55664578Y-105347579D01*
X55664579Y-105347579D01*
X55661195Y-105346906D01*
X55526672Y-105345145D01*
X55452473Y-105344173D01*
X55452472Y-105344173D01*
X55449031Y-105344128D01*
X55445639Y-105344711D01*
X55445637Y-105344711D01*
X55243305Y-105379478D01*
X55243303Y-105379478D01*
X55239913Y-105380061D01*
X55040846Y-105453501D01*
X54858495Y-105561988D01*
X54698968Y-105701890D01*
X54567607Y-105868520D01*
X54566004Y-105871567D01*
X54566002Y-105871570D01*
X54550114Y-105901768D01*
X54468812Y-106056299D01*
X54405891Y-106258938D01*
X54380951Y-106469649D01*
X51000000Y-106469649D01*
X51000000Y-103469649D01*
X54380951Y-103469649D01*
X54394829Y-103681377D01*
X54447058Y-103887031D01*
X54535890Y-104079723D01*
X54537886Y-104082547D01*
X54656360Y-104250185D01*
X54656363Y-104250189D01*
X54658350Y-104253000D01*
X54810337Y-104401059D01*
X54813197Y-104402970D01*
X54983899Y-104517030D01*
X54983904Y-104517033D01*
X54986760Y-104518941D01*
X54989922Y-104520300D01*
X54989923Y-104520300D01*
X55178545Y-104601339D01*
X55178547Y-104601340D01*
X55181711Y-104602699D01*
X55388662Y-104649527D01*
X55511009Y-104654334D01*
X55597237Y-104657722D01*
X55597240Y-104657722D01*
X55600681Y-104657857D01*
X55604086Y-104657363D01*
X55604091Y-104657363D01*
X55779976Y-104631860D01*
X55810667Y-104627410D01*
X55853009Y-104613037D01*
X56008326Y-104560315D01*
X56008330Y-104560313D01*
X56011589Y-104559207D01*
X56196717Y-104455530D01*
X56359852Y-104319852D01*
X56495530Y-104156717D01*
X56599207Y-103971589D01*
X56606772Y-103949305D01*
X56666300Y-103773937D01*
X56667410Y-103770667D01*
X56697857Y-103560681D01*
X56699446Y-103500000D01*
X56696657Y-103469649D01*
X74380951Y-103469649D01*
X74394829Y-103681377D01*
X74447058Y-103887031D01*
X74535890Y-104079723D01*
X74537886Y-104082547D01*
X74656360Y-104250185D01*
X74656363Y-104250189D01*
X74658350Y-104253000D01*
X74810337Y-104401059D01*
X74813197Y-104402970D01*
X74983899Y-104517030D01*
X74983904Y-104517033D01*
X74986760Y-104518941D01*
X74989922Y-104520300D01*
X74989923Y-104520300D01*
X75178545Y-104601339D01*
X75178547Y-104601340D01*
X75181711Y-104602699D01*
X75388662Y-104649527D01*
X75511009Y-104654334D01*
X75597237Y-104657722D01*
X75597240Y-104657722D01*
X75600681Y-104657857D01*
X75604086Y-104657363D01*
X75604091Y-104657363D01*
X75779976Y-104631860D01*
X75810667Y-104627410D01*
X75853009Y-104613037D01*
X76008326Y-104560315D01*
X76008330Y-104560313D01*
X76011589Y-104559207D01*
X76196717Y-104455530D01*
X76359852Y-104319852D01*
X76495530Y-104156717D01*
X76599207Y-103971589D01*
X76606772Y-103949305D01*
X76666300Y-103773937D01*
X76667410Y-103770667D01*
X76697857Y-103560681D01*
X76699446Y-103500000D01*
X76696657Y-103469649D01*
X93880951Y-103469649D01*
X93894829Y-103681377D01*
X93947058Y-103887031D01*
X94035890Y-104079723D01*
X94037886Y-104082547D01*
X94156360Y-104250185D01*
X94156363Y-104250189D01*
X94158350Y-104253000D01*
X94310337Y-104401059D01*
X94313197Y-104402970D01*
X94483899Y-104517030D01*
X94483904Y-104517033D01*
X94486760Y-104518941D01*
X94489922Y-104520300D01*
X94489923Y-104520300D01*
X94678545Y-104601339D01*
X94678547Y-104601340D01*
X94681711Y-104602699D01*
X94888662Y-104649527D01*
X95011009Y-104654334D01*
X95097237Y-104657722D01*
X95097240Y-104657722D01*
X95100681Y-104657857D01*
X95104086Y-104657363D01*
X95104091Y-104657363D01*
X95279976Y-104631860D01*
X95310667Y-104627410D01*
X95353009Y-104613037D01*
X95508326Y-104560315D01*
X95508330Y-104560313D01*
X95511589Y-104559207D01*
X95696717Y-104455530D01*
X95859852Y-104319852D01*
X95995530Y-104156717D01*
X96099207Y-103971589D01*
X96106772Y-103949305D01*
X96166300Y-103773937D01*
X96167410Y-103770667D01*
X96197857Y-103560681D01*
X96199446Y-103500000D01*
X96180972Y-103298944D01*
X117491183Y-103298944D01*
X117503694Y-103559419D01*
X117504239Y-103562157D01*
X117504239Y-103562160D01*
X117545714Y-103770667D01*
X117554569Y-103815185D01*
X117642690Y-104060621D01*
X117644013Y-104063083D01*
X117746059Y-104253000D01*
X117766120Y-104290336D01*
X117922149Y-104499283D01*
X117924132Y-104501248D01*
X117924133Y-104501250D01*
X118105371Y-104680914D01*
X118105377Y-104680919D01*
X118107348Y-104682873D01*
X118109589Y-104684516D01*
X118109590Y-104684517D01*
X118223993Y-104768401D01*
X118317649Y-104837073D01*
X118320117Y-104838371D01*
X118320121Y-104838374D01*
X118445153Y-104904156D01*
X118548433Y-104958494D01*
X118551058Y-104959411D01*
X118551061Y-104959412D01*
X118791996Y-105043550D01*
X118792002Y-105043552D01*
X118794629Y-105044469D01*
X119050828Y-105093110D01*
X119162472Y-105097497D01*
X119308617Y-105103239D01*
X119308623Y-105103239D01*
X119311403Y-105103348D01*
X119486462Y-105084176D01*
X119567855Y-105075262D01*
X119567858Y-105075262D01*
X119570629Y-105074958D01*
X119601657Y-105066789D01*
X119820108Y-105009276D01*
X119820112Y-105009274D01*
X119822811Y-105008564D01*
X119868681Y-104988857D01*
X119920037Y-104985941D01*
X119961254Y-105016718D01*
X119973044Y-105066789D01*
X119952139Y-105110518D01*
X119869751Y-105194797D01*
X119711370Y-105412390D01*
X119710103Y-105414798D01*
X119710100Y-105414803D01*
X119623107Y-105580150D01*
X119586059Y-105650567D01*
X119496443Y-105904338D01*
X119444399Y-106168389D01*
X119444264Y-106171104D01*
X119444263Y-106171111D01*
X119438409Y-106288708D01*
X119431018Y-106437186D01*
X119431277Y-106439900D01*
X119431277Y-106439904D01*
X119456320Y-106702388D01*
X119456579Y-106705100D01*
X119520547Y-106966518D01*
X119521566Y-106969033D01*
X119521567Y-106969037D01*
X119620563Y-107213445D01*
X119621583Y-107215963D01*
X119622958Y-107218311D01*
X119717522Y-107379814D01*
X119757569Y-107448210D01*
X119759270Y-107450336D01*
X119759272Y-107450340D01*
X119763423Y-107455530D01*
X119925658Y-107658395D01*
X119927652Y-107660257D01*
X119927655Y-107660261D01*
X120061950Y-107785712D01*
X120122327Y-107842113D01*
X120343457Y-107995516D01*
X120345891Y-107996727D01*
X120345898Y-107996731D01*
X120581969Y-108114174D01*
X120581973Y-108114176D01*
X120584416Y-108115391D01*
X120840156Y-108199227D01*
X121105319Y-108245267D01*
X121190348Y-108249500D01*
X121358374Y-108249500D01*
X121558425Y-108234985D01*
X121821226Y-108176963D01*
X121823768Y-108176000D01*
X121823771Y-108175999D01*
X122070354Y-108082578D01*
X122070359Y-108082576D01*
X122072900Y-108081613D01*
X122157534Y-108034603D01*
X122305796Y-107952251D01*
X122305799Y-107952249D01*
X122308172Y-107950931D01*
X122310328Y-107949286D01*
X122310332Y-107949283D01*
X122519960Y-107789300D01*
X122519965Y-107789296D01*
X122522116Y-107787654D01*
X122710249Y-107595203D01*
X122868630Y-107377610D01*
X122932927Y-107255403D01*
X122992674Y-107141842D01*
X122992676Y-107141837D01*
X122993941Y-107139433D01*
X123083557Y-106885662D01*
X123135601Y-106621611D01*
X123138526Y-106562867D01*
X123148846Y-106355541D01*
X123148982Y-106352814D01*
X123143194Y-106292141D01*
X123123680Y-106087612D01*
X123123679Y-106087609D01*
X123123421Y-106084900D01*
X123116423Y-106056299D01*
X123071220Y-105871570D01*
X123059453Y-105823482D01*
X122990454Y-105653131D01*
X122959437Y-105576555D01*
X122959436Y-105576554D01*
X122958417Y-105574037D01*
X122863769Y-105412390D01*
X122823809Y-105344143D01*
X122823807Y-105344140D01*
X122822431Y-105341790D01*
X122654342Y-105131605D01*
X122652348Y-105129743D01*
X122652345Y-105129739D01*
X122459664Y-104949747D01*
X122457673Y-104947887D01*
X122236543Y-104794484D01*
X122234109Y-104793273D01*
X122234102Y-104793269D01*
X121998031Y-104675826D01*
X121998027Y-104675824D01*
X121995584Y-104674609D01*
X121739844Y-104590773D01*
X121474681Y-104544733D01*
X121389652Y-104540500D01*
X121221626Y-104540500D01*
X121021575Y-104555015D01*
X120758774Y-104613037D01*
X120756225Y-104614003D01*
X120756224Y-104614003D01*
X120610872Y-104669071D01*
X120559437Y-104669744D01*
X120519602Y-104637198D01*
X120510008Y-104586661D01*
X120527692Y-104549166D01*
X120531235Y-104545127D01*
X120609809Y-104455530D01*
X120653292Y-104405947D01*
X120653294Y-104405944D01*
X120655135Y-104403845D01*
X120658472Y-104398658D01*
X120794695Y-104186875D01*
X120796208Y-104184523D01*
X120903314Y-103946757D01*
X120974099Y-103695772D01*
X120991285Y-103560681D01*
X121006772Y-103438947D01*
X121006773Y-103438939D01*
X121007009Y-103437081D01*
X121009420Y-103345000D01*
X120990094Y-103084941D01*
X120941814Y-102871570D01*
X120933159Y-102833320D01*
X120933157Y-102833315D01*
X120932542Y-102830595D01*
X120931529Y-102827989D01*
X120839039Y-102590151D01*
X120839036Y-102590145D01*
X120838027Y-102587550D01*
X120814417Y-102546240D01*
X120710009Y-102363567D01*
X120708625Y-102361145D01*
X120547180Y-102156353D01*
X120357239Y-101977674D01*
X120142973Y-101829032D01*
X119909090Y-101713694D01*
X119906436Y-101712845D01*
X119906430Y-101712842D01*
X119663384Y-101635043D01*
X119663382Y-101635042D01*
X119660728Y-101634193D01*
X119403344Y-101592275D01*
X119400557Y-101592239D01*
X119400551Y-101592238D01*
X119272967Y-101590569D01*
X119142590Y-101588862D01*
X119139821Y-101589239D01*
X119139819Y-101589239D01*
X119114205Y-101592725D01*
X118884196Y-101624028D01*
X118633838Y-101697000D01*
X118631309Y-101698166D01*
X118631306Y-101698167D01*
X118599474Y-101712842D01*
X118397016Y-101806177D01*
X118394688Y-101807704D01*
X118394685Y-101807705D01*
X118337831Y-101844980D01*
X118178933Y-101949158D01*
X117984379Y-102122804D01*
X117982595Y-102124949D01*
X117982594Y-102124950D01*
X117956477Y-102156353D01*
X117817629Y-102323300D01*
X117816180Y-102325688D01*
X117683791Y-102543856D01*
X117683788Y-102543863D01*
X117682345Y-102546240D01*
X117681269Y-102548806D01*
X117617076Y-102701890D01*
X117581500Y-102786728D01*
X117517310Y-103039480D01*
X117491183Y-103298944D01*
X96180972Y-103298944D01*
X96180031Y-103288708D01*
X96122436Y-103084492D01*
X96028590Y-102894191D01*
X95901636Y-102724179D01*
X95745826Y-102580150D01*
X95566377Y-102466926D01*
X95441058Y-102416929D01*
X95372509Y-102389580D01*
X95372506Y-102389579D01*
X95369300Y-102388300D01*
X95365919Y-102387628D01*
X95365914Y-102387626D01*
X95164578Y-102347579D01*
X95164579Y-102347579D01*
X95161195Y-102346906D01*
X95026672Y-102345145D01*
X94952473Y-102344173D01*
X94952472Y-102344173D01*
X94949031Y-102344128D01*
X94945639Y-102344711D01*
X94945637Y-102344711D01*
X94743305Y-102379478D01*
X94743303Y-102379478D01*
X94739913Y-102380061D01*
X94540846Y-102453501D01*
X94358495Y-102561988D01*
X94198968Y-102701890D01*
X94181397Y-102724179D01*
X94095357Y-102833320D01*
X94067607Y-102868520D01*
X94066004Y-102871567D01*
X94066002Y-102871570D01*
X93977661Y-103039480D01*
X93968812Y-103056299D01*
X93905891Y-103258938D01*
X93880951Y-103469649D01*
X76696657Y-103469649D01*
X76680031Y-103288708D01*
X76622436Y-103084492D01*
X76528590Y-102894191D01*
X76401636Y-102724179D01*
X76245826Y-102580150D01*
X76066377Y-102466926D01*
X75941058Y-102416929D01*
X75872509Y-102389580D01*
X75872506Y-102389579D01*
X75869300Y-102388300D01*
X75865919Y-102387628D01*
X75865914Y-102387626D01*
X75664578Y-102347579D01*
X75664579Y-102347579D01*
X75661195Y-102346906D01*
X75526672Y-102345145D01*
X75452473Y-102344173D01*
X75452472Y-102344173D01*
X75449031Y-102344128D01*
X75445639Y-102344711D01*
X75445637Y-102344711D01*
X75243305Y-102379478D01*
X75243303Y-102379478D01*
X75239913Y-102380061D01*
X75040846Y-102453501D01*
X74858495Y-102561988D01*
X74698968Y-102701890D01*
X74681397Y-102724179D01*
X74595357Y-102833320D01*
X74567607Y-102868520D01*
X74566004Y-102871567D01*
X74566002Y-102871570D01*
X74477661Y-103039480D01*
X74468812Y-103056299D01*
X74405891Y-103258938D01*
X74380951Y-103469649D01*
X56696657Y-103469649D01*
X56680031Y-103288708D01*
X56622436Y-103084492D01*
X56528590Y-102894191D01*
X56401636Y-102724179D01*
X56245826Y-102580150D01*
X56066377Y-102466926D01*
X55941058Y-102416929D01*
X55872509Y-102389580D01*
X55872506Y-102389579D01*
X55869300Y-102388300D01*
X55865919Y-102387628D01*
X55865914Y-102387626D01*
X55664578Y-102347579D01*
X55664579Y-102347579D01*
X55661195Y-102346906D01*
X55526672Y-102345145D01*
X55452473Y-102344173D01*
X55452472Y-102344173D01*
X55449031Y-102344128D01*
X55445639Y-102344711D01*
X55445637Y-102344711D01*
X55243305Y-102379478D01*
X55243303Y-102379478D01*
X55239913Y-102380061D01*
X55040846Y-102453501D01*
X54858495Y-102561988D01*
X54698968Y-102701890D01*
X54681397Y-102724179D01*
X54595357Y-102833320D01*
X54567607Y-102868520D01*
X54566004Y-102871567D01*
X54566002Y-102871570D01*
X54477661Y-103039480D01*
X54468812Y-103056299D01*
X54405891Y-103258938D01*
X54380951Y-103469649D01*
X51000000Y-103469649D01*
X51000000Y-100014649D01*
X121400951Y-100014649D01*
X121414829Y-100226377D01*
X121467058Y-100432031D01*
X121555890Y-100624723D01*
X121557886Y-100627547D01*
X121676360Y-100795185D01*
X121676363Y-100795189D01*
X121678350Y-100798000D01*
X121830337Y-100946059D01*
X121833197Y-100947970D01*
X122003899Y-101062030D01*
X122003904Y-101062033D01*
X122006760Y-101063941D01*
X122009922Y-101065300D01*
X122009923Y-101065300D01*
X122198545Y-101146339D01*
X122198547Y-101146340D01*
X122201711Y-101147699D01*
X122408662Y-101194527D01*
X122531009Y-101199334D01*
X122617237Y-101202722D01*
X122617240Y-101202722D01*
X122620681Y-101202857D01*
X122624086Y-101202363D01*
X122624091Y-101202363D01*
X122772745Y-101180808D01*
X122830667Y-101172410D01*
X122833937Y-101171300D01*
X123028326Y-101105315D01*
X123028330Y-101105313D01*
X123031589Y-101104207D01*
X123216717Y-101000530D01*
X123379852Y-100864852D01*
X123515530Y-100701717D01*
X123619207Y-100516589D01*
X123646847Y-100435165D01*
X123686300Y-100318937D01*
X123687410Y-100315667D01*
X123717857Y-100105681D01*
X123719446Y-100045000D01*
X123716657Y-100014649D01*
X123940951Y-100014649D01*
X123954829Y-100226377D01*
X124007058Y-100432031D01*
X124095890Y-100624723D01*
X124097886Y-100627547D01*
X124216360Y-100795185D01*
X124216363Y-100795189D01*
X124218350Y-100798000D01*
X124370337Y-100946059D01*
X124373197Y-100947970D01*
X124543899Y-101062030D01*
X124543904Y-101062033D01*
X124546760Y-101063941D01*
X124549922Y-101065300D01*
X124549923Y-101065300D01*
X124738545Y-101146339D01*
X124738547Y-101146340D01*
X124741711Y-101147699D01*
X124948662Y-101194527D01*
X125071009Y-101199334D01*
X125157237Y-101202722D01*
X125157240Y-101202722D01*
X125160681Y-101202857D01*
X125164086Y-101202363D01*
X125164091Y-101202363D01*
X125312745Y-101180808D01*
X125370667Y-101172410D01*
X125373937Y-101171300D01*
X125568326Y-101105315D01*
X125568330Y-101105313D01*
X125571589Y-101104207D01*
X125756717Y-101000530D01*
X125919852Y-100864852D01*
X126055530Y-100701717D01*
X126159207Y-100516589D01*
X126186847Y-100435165D01*
X126226300Y-100318937D01*
X126227410Y-100315667D01*
X126257857Y-100105681D01*
X126259446Y-100045000D01*
X126256657Y-100014649D01*
X126480951Y-100014649D01*
X126494829Y-100226377D01*
X126547058Y-100432031D01*
X126635890Y-100624723D01*
X126637886Y-100627547D01*
X126756360Y-100795185D01*
X126756363Y-100795189D01*
X126758350Y-100798000D01*
X126910337Y-100946059D01*
X126913197Y-100947970D01*
X127083899Y-101062030D01*
X127083904Y-101062033D01*
X127086760Y-101063941D01*
X127089922Y-101065300D01*
X127089923Y-101065300D01*
X127278545Y-101146339D01*
X127278547Y-101146340D01*
X127281711Y-101147699D01*
X127488662Y-101194527D01*
X127611009Y-101199334D01*
X127697237Y-101202722D01*
X127697240Y-101202722D01*
X127700681Y-101202857D01*
X127704086Y-101202363D01*
X127704091Y-101202363D01*
X127852745Y-101180808D01*
X127910667Y-101172410D01*
X127913937Y-101171300D01*
X128108326Y-101105315D01*
X128108330Y-101105313D01*
X128111589Y-101104207D01*
X128296717Y-101000530D01*
X128459852Y-100864852D01*
X128595530Y-100701717D01*
X128699207Y-100516589D01*
X128726847Y-100435165D01*
X128766300Y-100318937D01*
X128767410Y-100315667D01*
X128797857Y-100105681D01*
X128799446Y-100045000D01*
X128780031Y-99833708D01*
X128722436Y-99629492D01*
X128628590Y-99439191D01*
X128501636Y-99269179D01*
X128345826Y-99125150D01*
X128166377Y-99011926D01*
X128041058Y-98961929D01*
X127972509Y-98934580D01*
X127972506Y-98934579D01*
X127969300Y-98933300D01*
X127965919Y-98932628D01*
X127965914Y-98932626D01*
X127764578Y-98892579D01*
X127764579Y-98892579D01*
X127761195Y-98891906D01*
X127626672Y-98890145D01*
X127552473Y-98889173D01*
X127552472Y-98889173D01*
X127549031Y-98889128D01*
X127545639Y-98889711D01*
X127545637Y-98889711D01*
X127343305Y-98924478D01*
X127343303Y-98924478D01*
X127339913Y-98925061D01*
X127140846Y-98998501D01*
X126958495Y-99106988D01*
X126798968Y-99246890D01*
X126667607Y-99413520D01*
X126666004Y-99416567D01*
X126666002Y-99416570D01*
X126570415Y-99598252D01*
X126568812Y-99601299D01*
X126505891Y-99803938D01*
X126480951Y-100014649D01*
X126256657Y-100014649D01*
X126240031Y-99833708D01*
X126182436Y-99629492D01*
X126088590Y-99439191D01*
X125961636Y-99269179D01*
X125805826Y-99125150D01*
X125626377Y-99011926D01*
X125501058Y-98961929D01*
X125432509Y-98934580D01*
X125432506Y-98934579D01*
X125429300Y-98933300D01*
X125425919Y-98932628D01*
X125425914Y-98932626D01*
X125224578Y-98892579D01*
X125224579Y-98892579D01*
X125221195Y-98891906D01*
X125086672Y-98890145D01*
X125012473Y-98889173D01*
X125012472Y-98889173D01*
X125009031Y-98889128D01*
X125005639Y-98889711D01*
X125005637Y-98889711D01*
X124803305Y-98924478D01*
X124803303Y-98924478D01*
X124799913Y-98925061D01*
X124600846Y-98998501D01*
X124418495Y-99106988D01*
X124258968Y-99246890D01*
X124127607Y-99413520D01*
X124126004Y-99416567D01*
X124126002Y-99416570D01*
X124030415Y-99598252D01*
X124028812Y-99601299D01*
X123965891Y-99803938D01*
X123940951Y-100014649D01*
X123716657Y-100014649D01*
X123700031Y-99833708D01*
X123642436Y-99629492D01*
X123548590Y-99439191D01*
X123421636Y-99269179D01*
X123265826Y-99125150D01*
X123086377Y-99011926D01*
X122961058Y-98961929D01*
X122892509Y-98934580D01*
X122892506Y-98934579D01*
X122889300Y-98933300D01*
X122885919Y-98932628D01*
X122885914Y-98932626D01*
X122684578Y-98892579D01*
X122684579Y-98892579D01*
X122681195Y-98891906D01*
X122546672Y-98890145D01*
X122472473Y-98889173D01*
X122472472Y-98889173D01*
X122469031Y-98889128D01*
X122465639Y-98889711D01*
X122465637Y-98889711D01*
X122263305Y-98924478D01*
X122263303Y-98924478D01*
X122259913Y-98925061D01*
X122060846Y-98998501D01*
X121878495Y-99106988D01*
X121718968Y-99246890D01*
X121587607Y-99413520D01*
X121586004Y-99416567D01*
X121586002Y-99416570D01*
X121490415Y-99598252D01*
X121488812Y-99601299D01*
X121425891Y-99803938D01*
X121400951Y-100014649D01*
X51000000Y-100014649D01*
X51000000Y-94825200D01*
X51017593Y-94776862D01*
X51062142Y-94751142D01*
X51075200Y-94750000D01*
X72750000Y-94750000D01*
X72750000Y-90723208D01*
X79232776Y-90723208D01*
X79233130Y-90727561D01*
X79233130Y-90727562D01*
X79246684Y-90894187D01*
X79247191Y-90900426D01*
X79248537Y-90904582D01*
X79248538Y-90904585D01*
X79273409Y-90981357D01*
X79301987Y-91069575D01*
X79304252Y-91073307D01*
X79304253Y-91073310D01*
X79325008Y-91107512D01*
X79394227Y-91221581D01*
X79401667Y-91230005D01*
X82743488Y-94571826D01*
X82765228Y-94618446D01*
X82751914Y-94668133D01*
X82743488Y-94678174D01*
X82679347Y-94742315D01*
X82596840Y-94846600D01*
X82594993Y-94850551D01*
X82594991Y-94850555D01*
X82523406Y-95003720D01*
X82521556Y-95007679D01*
X82485348Y-95181756D01*
X82490158Y-95359495D01*
X82535727Y-95531360D01*
X82619611Y-95688132D01*
X82737311Y-95821402D01*
X82882512Y-95924020D01*
X83047427Y-95990482D01*
X83119601Y-96001462D01*
X83218893Y-96016568D01*
X83218897Y-96016568D01*
X83223208Y-96017224D01*
X83227561Y-96016870D01*
X83227562Y-96016870D01*
X83396066Y-96003164D01*
X83396069Y-96003163D01*
X83400426Y-96002809D01*
X83404582Y-96001463D01*
X83404585Y-96001462D01*
X83565420Y-95949359D01*
X83569575Y-95948013D01*
X83573307Y-95945748D01*
X83573310Y-95945747D01*
X83629126Y-95911877D01*
X83721581Y-95855773D01*
X83730005Y-95848333D01*
X83821826Y-95756512D01*
X83868446Y-95734772D01*
X83918133Y-95748086D01*
X83928174Y-95756512D01*
X86492315Y-98320653D01*
X86596600Y-98403160D01*
X86757680Y-98478444D01*
X86761954Y-98479333D01*
X86761957Y-98479334D01*
X86844719Y-98496548D01*
X86931757Y-98514652D01*
X86936123Y-98514534D01*
X86936125Y-98514534D01*
X87015468Y-98512387D01*
X87109495Y-98509842D01*
X87132767Y-98503672D01*
X87277133Y-98465394D01*
X87277135Y-98465393D01*
X87281360Y-98464273D01*
X87288356Y-98460530D01*
X87345290Y-98430066D01*
X87438132Y-98380389D01*
X87571402Y-98262689D01*
X87674020Y-98117488D01*
X87740482Y-97952574D01*
X87767224Y-97776792D01*
X87766855Y-97772252D01*
X87753164Y-97603934D01*
X87753163Y-97603931D01*
X87752809Y-97599574D01*
X87742538Y-97567867D01*
X87699359Y-97434580D01*
X87698013Y-97430425D01*
X87605773Y-97278419D01*
X87598333Y-97269995D01*
X86908271Y-96579933D01*
X120135500Y-96579933D01*
X120135501Y-98430066D01*
X120136222Y-98433689D01*
X120136222Y-98433693D01*
X120141560Y-98460530D01*
X120150266Y-98504301D01*
X120206516Y-98588484D01*
X120212673Y-98592598D01*
X120284540Y-98640619D01*
X120284541Y-98640620D01*
X120290699Y-98644734D01*
X120297963Y-98646179D01*
X120361303Y-98658778D01*
X120364933Y-98659500D01*
X121289874Y-98659500D01*
X122215066Y-98659499D01*
X122218689Y-98658778D01*
X122218693Y-98658778D01*
X122251221Y-98652308D01*
X122289301Y-98644734D01*
X122373484Y-98588484D01*
X122422818Y-98514652D01*
X122425619Y-98510460D01*
X122425620Y-98510459D01*
X122429734Y-98504301D01*
X122431180Y-98497034D01*
X122443779Y-98433692D01*
X122443779Y-98433691D01*
X122444500Y-98430067D01*
X122444499Y-97474649D01*
X122670951Y-97474649D01*
X122684829Y-97686377D01*
X122737058Y-97892031D01*
X122825890Y-98084723D01*
X122827886Y-98087547D01*
X122946360Y-98255185D01*
X122946363Y-98255189D01*
X122948350Y-98258000D01*
X122956132Y-98265581D01*
X123076102Y-98382450D01*
X123100337Y-98406059D01*
X123103197Y-98407970D01*
X123273899Y-98522030D01*
X123273904Y-98522033D01*
X123276760Y-98523941D01*
X123279922Y-98525300D01*
X123279923Y-98525300D01*
X123468545Y-98606339D01*
X123468547Y-98606340D01*
X123471711Y-98607699D01*
X123678662Y-98654527D01*
X123801009Y-98659334D01*
X123887237Y-98662722D01*
X123887240Y-98662722D01*
X123890681Y-98662857D01*
X123894086Y-98662363D01*
X123894091Y-98662363D01*
X124044065Y-98640617D01*
X124100667Y-98632410D01*
X124103937Y-98631300D01*
X124298326Y-98565315D01*
X124298330Y-98565313D01*
X124301589Y-98564207D01*
X124486717Y-98460530D01*
X124649852Y-98324852D01*
X124785530Y-98161717D01*
X124889207Y-97976589D01*
X124895985Y-97956623D01*
X124956300Y-97778937D01*
X124957410Y-97775667D01*
X124987857Y-97565681D01*
X124989446Y-97505000D01*
X124986657Y-97474649D01*
X125210951Y-97474649D01*
X125224829Y-97686377D01*
X125277058Y-97892031D01*
X125365890Y-98084723D01*
X125367886Y-98087547D01*
X125486360Y-98255185D01*
X125486363Y-98255189D01*
X125488350Y-98258000D01*
X125496132Y-98265581D01*
X125616102Y-98382450D01*
X125640337Y-98406059D01*
X125643197Y-98407970D01*
X125813899Y-98522030D01*
X125813904Y-98522033D01*
X125816760Y-98523941D01*
X125819922Y-98525300D01*
X125819923Y-98525300D01*
X126008545Y-98606339D01*
X126008547Y-98606340D01*
X126011711Y-98607699D01*
X126218662Y-98654527D01*
X126341009Y-98659334D01*
X126427237Y-98662722D01*
X126427240Y-98662722D01*
X126430681Y-98662857D01*
X126434086Y-98662363D01*
X126434091Y-98662363D01*
X126584065Y-98640617D01*
X126640667Y-98632410D01*
X126643937Y-98631300D01*
X126838326Y-98565315D01*
X126838330Y-98565313D01*
X126841589Y-98564207D01*
X127026717Y-98460530D01*
X127189852Y-98324852D01*
X127325530Y-98161717D01*
X127429207Y-97976589D01*
X127435985Y-97956623D01*
X127496300Y-97778937D01*
X127497410Y-97775667D01*
X127527857Y-97565681D01*
X127529446Y-97505000D01*
X127510031Y-97293708D01*
X127452436Y-97089492D01*
X127358590Y-96899191D01*
X127231636Y-96729179D01*
X127075826Y-96585150D01*
X127067560Y-96579934D01*
X126961421Y-96512966D01*
X126896377Y-96471926D01*
X126759712Y-96417402D01*
X126702509Y-96394580D01*
X126702506Y-96394579D01*
X126699300Y-96393300D01*
X126695919Y-96392628D01*
X126695914Y-96392626D01*
X126494578Y-96352579D01*
X126494579Y-96352579D01*
X126491195Y-96351906D01*
X126356672Y-96350145D01*
X126282473Y-96349173D01*
X126282472Y-96349173D01*
X126279031Y-96349128D01*
X126275639Y-96349711D01*
X126275637Y-96349711D01*
X126073305Y-96384478D01*
X126073303Y-96384478D01*
X126069913Y-96385061D01*
X125870846Y-96458501D01*
X125688495Y-96566988D01*
X125528968Y-96706890D01*
X125397607Y-96873520D01*
X125396004Y-96876567D01*
X125396002Y-96876570D01*
X125300415Y-97058252D01*
X125298812Y-97061299D01*
X125235891Y-97263938D01*
X125235486Y-97267358D01*
X125235486Y-97267359D01*
X125235174Y-97269995D01*
X125210951Y-97474649D01*
X124986657Y-97474649D01*
X124970031Y-97293708D01*
X124912436Y-97089492D01*
X124818590Y-96899191D01*
X124691636Y-96729179D01*
X124535826Y-96585150D01*
X124527560Y-96579934D01*
X124421421Y-96512966D01*
X124356377Y-96471926D01*
X124219712Y-96417402D01*
X124162509Y-96394580D01*
X124162506Y-96394579D01*
X124159300Y-96393300D01*
X124155919Y-96392628D01*
X124155914Y-96392626D01*
X123954578Y-96352579D01*
X123954579Y-96352579D01*
X123951195Y-96351906D01*
X123816672Y-96350145D01*
X123742473Y-96349173D01*
X123742472Y-96349173D01*
X123739031Y-96349128D01*
X123735639Y-96349711D01*
X123735637Y-96349711D01*
X123533305Y-96384478D01*
X123533303Y-96384478D01*
X123529913Y-96385061D01*
X123330846Y-96458501D01*
X123148495Y-96566988D01*
X122988968Y-96706890D01*
X122857607Y-96873520D01*
X122856004Y-96876567D01*
X122856002Y-96876570D01*
X122760415Y-97058252D01*
X122758812Y-97061299D01*
X122695891Y-97263938D01*
X122695486Y-97267358D01*
X122695486Y-97267359D01*
X122695174Y-97269995D01*
X122670951Y-97474649D01*
X122444499Y-97474649D01*
X122444499Y-96579934D01*
X122442377Y-96569262D01*
X122431179Y-96512966D01*
X122429734Y-96505699D01*
X122373484Y-96421516D01*
X122333172Y-96394580D01*
X122295460Y-96369381D01*
X122295459Y-96369380D01*
X122289301Y-96365266D01*
X122282037Y-96363821D01*
X122218692Y-96351221D01*
X122218691Y-96351221D01*
X122215067Y-96350500D01*
X121290126Y-96350500D01*
X120364934Y-96350501D01*
X120361311Y-96351222D01*
X120361307Y-96351222D01*
X120328779Y-96357692D01*
X120290699Y-96365266D01*
X120206516Y-96421516D01*
X120202402Y-96427673D01*
X120154383Y-96499538D01*
X120150266Y-96505699D01*
X120148821Y-96512963D01*
X120138426Y-96565224D01*
X120135500Y-96579933D01*
X86908271Y-96579933D01*
X84432826Y-94104488D01*
X84429635Y-94101094D01*
X84387689Y-94053599D01*
X84373310Y-94043436D01*
X84363537Y-94035199D01*
X82507685Y-92179347D01*
X82507680Y-92179343D01*
X81372863Y-91044525D01*
X101987500Y-91044525D01*
X102002899Y-91176607D01*
X102004391Y-91180716D01*
X102004391Y-91180718D01*
X102062075Y-91339634D01*
X102063566Y-91343741D01*
X102065960Y-91347392D01*
X102119645Y-91429275D01*
X102161054Y-91492435D01*
X102290135Y-91614714D01*
X102443884Y-91704019D01*
X102550987Y-91736457D01*
X102609870Y-91754291D01*
X102609872Y-91754291D01*
X102614054Y-91755558D01*
X102708358Y-91761409D01*
X102787157Y-91766298D01*
X102787161Y-91766298D01*
X102791516Y-91766568D01*
X102966751Y-91736457D01*
X103130359Y-91666841D01*
X103222395Y-91599110D01*
X103270045Y-91564044D01*
X103270047Y-91564043D01*
X103273564Y-91561454D01*
X103388684Y-91425949D01*
X103469543Y-91267596D01*
X103511804Y-91094888D01*
X103512500Y-91083670D01*
X103512500Y-90500000D01*
X104940715Y-90500000D01*
X104959772Y-90644754D01*
X105015645Y-90779642D01*
X105104526Y-90895474D01*
X105108433Y-90898472D01*
X105116400Y-90904585D01*
X105220357Y-90984355D01*
X105255288Y-90998824D01*
X105350692Y-91038342D01*
X105350694Y-91038343D01*
X105355246Y-91040228D01*
X105500000Y-91059285D01*
X105644754Y-91040228D01*
X105649306Y-91038343D01*
X105649308Y-91038342D01*
X105744712Y-90998824D01*
X105779643Y-90984355D01*
X105883600Y-90904585D01*
X105891567Y-90898472D01*
X105895474Y-90895474D01*
X105984355Y-90779642D01*
X106040228Y-90644754D01*
X106059285Y-90500000D01*
X106040228Y-90355246D01*
X105996633Y-90250000D01*
X120440715Y-90250000D01*
X120459772Y-90394754D01*
X120515645Y-90529642D01*
X120604526Y-90645474D01*
X120608433Y-90648472D01*
X120662441Y-90689914D01*
X120720357Y-90734355D01*
X120780299Y-90759184D01*
X120850692Y-90788342D01*
X120850694Y-90788343D01*
X120855246Y-90790228D01*
X121000000Y-90809285D01*
X121144754Y-90790228D01*
X121149306Y-90788343D01*
X121149308Y-90788342D01*
X121219701Y-90759184D01*
X121279643Y-90734355D01*
X121337558Y-90689915D01*
X121391567Y-90648472D01*
X121395474Y-90645474D01*
X121484355Y-90529642D01*
X121524901Y-90431756D01*
X121735348Y-90431756D01*
X121740158Y-90609495D01*
X121741278Y-90613719D01*
X121750493Y-90648472D01*
X121785727Y-90781360D01*
X121869611Y-90938132D01*
X121987311Y-91071402D01*
X122132512Y-91174020D01*
X122297427Y-91240482D01*
X122369601Y-91251462D01*
X122468893Y-91266568D01*
X122468897Y-91266568D01*
X122473208Y-91267224D01*
X122477561Y-91266870D01*
X122477562Y-91266870D01*
X122646066Y-91253164D01*
X122646069Y-91253163D01*
X122650426Y-91252809D01*
X122654582Y-91251463D01*
X122654585Y-91251462D01*
X122815420Y-91199359D01*
X122819575Y-91198013D01*
X122823307Y-91195748D01*
X122823310Y-91195747D01*
X122879126Y-91161877D01*
X122971581Y-91105773D01*
X122980005Y-91098333D01*
X124320653Y-89757685D01*
X124403160Y-89653400D01*
X124405007Y-89649449D01*
X124405009Y-89649445D01*
X124476594Y-89496280D01*
X124476595Y-89496278D01*
X124478444Y-89492321D01*
X124514652Y-89318244D01*
X124509842Y-89140505D01*
X124500302Y-89104526D01*
X124465394Y-88972867D01*
X124465393Y-88972865D01*
X124464273Y-88968640D01*
X124380389Y-88811868D01*
X124262689Y-88678598D01*
X124117488Y-88575980D01*
X123952573Y-88509518D01*
X123864683Y-88496147D01*
X123781107Y-88483432D01*
X123781103Y-88483432D01*
X123776792Y-88482776D01*
X123772439Y-88483130D01*
X123772438Y-88483130D01*
X123603934Y-88496836D01*
X123603931Y-88496837D01*
X123599574Y-88497191D01*
X123595418Y-88498537D01*
X123595415Y-88498538D01*
X123442742Y-88547997D01*
X123430425Y-88551987D01*
X123426693Y-88554252D01*
X123426690Y-88554253D01*
X123370874Y-88588123D01*
X123278419Y-88644227D01*
X123269995Y-88651667D01*
X121929347Y-89992315D01*
X121846840Y-90096600D01*
X121844993Y-90100551D01*
X121844991Y-90100555D01*
X121775145Y-90250000D01*
X121771556Y-90257679D01*
X121735348Y-90431756D01*
X121524901Y-90431756D01*
X121540228Y-90394754D01*
X121559285Y-90250000D01*
X121540228Y-90105246D01*
X121537869Y-90099549D01*
X121503981Y-90017739D01*
X121484355Y-89970358D01*
X121397040Y-89856567D01*
X121381500Y-89810788D01*
X121381500Y-87189212D01*
X121397040Y-87143433D01*
X121481357Y-87033549D01*
X121484355Y-87029642D01*
X121524004Y-86933923D01*
X121538342Y-86899308D01*
X121538343Y-86899306D01*
X121540228Y-86894754D01*
X121559285Y-86750000D01*
X121540228Y-86605246D01*
X121484355Y-86470358D01*
X121395474Y-86354526D01*
X121390478Y-86350692D01*
X121283550Y-86268643D01*
X121279643Y-86265645D01*
X121170311Y-86220358D01*
X121149308Y-86211658D01*
X121149306Y-86211657D01*
X121144754Y-86209772D01*
X121000000Y-86190715D01*
X120855246Y-86209772D01*
X120850694Y-86211657D01*
X120850692Y-86211658D01*
X120829689Y-86220358D01*
X120720358Y-86265645D01*
X120716451Y-86268643D01*
X120609523Y-86350692D01*
X120604526Y-86354526D01*
X120515645Y-86470358D01*
X120459772Y-86605246D01*
X120440715Y-86750000D01*
X120459772Y-86894754D01*
X120461657Y-86899306D01*
X120461658Y-86899308D01*
X120475996Y-86933923D01*
X120515645Y-87029642D01*
X120518643Y-87033549D01*
X120602960Y-87143433D01*
X120618500Y-87189212D01*
X120618500Y-89810788D01*
X120602960Y-89856567D01*
X120515645Y-89970358D01*
X120496019Y-90017739D01*
X120462132Y-90099549D01*
X120459772Y-90105246D01*
X120440715Y-90250000D01*
X105996633Y-90250000D01*
X105984355Y-90220358D01*
X105895474Y-90104526D01*
X105860121Y-90077398D01*
X105832483Y-90034016D01*
X105830700Y-90017739D01*
X105830700Y-89711203D01*
X105848293Y-89662865D01*
X105892842Y-89637145D01*
X105943500Y-89646078D01*
X105975376Y-89682425D01*
X106015645Y-89779642D01*
X106018643Y-89783549D01*
X106073106Y-89854526D01*
X106104526Y-89895474D01*
X106220357Y-89984355D01*
X106243710Y-89994028D01*
X106350692Y-90038342D01*
X106350694Y-90038343D01*
X106355246Y-90040228D01*
X106500000Y-90059285D01*
X106644754Y-90040228D01*
X106649306Y-90038343D01*
X106649308Y-90038342D01*
X106756290Y-89994028D01*
X106779643Y-89984355D01*
X106895474Y-89895474D01*
X106940341Y-89837003D01*
X106983723Y-89809365D01*
X107034723Y-89816079D01*
X107059659Y-89837002D01*
X107104526Y-89895474D01*
X107220357Y-89984355D01*
X107243710Y-89994028D01*
X107350692Y-90038342D01*
X107350694Y-90038343D01*
X107355246Y-90040228D01*
X107500000Y-90059285D01*
X107644754Y-90040228D01*
X107649306Y-90038343D01*
X107649308Y-90038342D01*
X107756290Y-89994028D01*
X107779643Y-89984355D01*
X107895474Y-89895474D01*
X107926895Y-89854526D01*
X107981357Y-89783549D01*
X107984355Y-89779642D01*
X108024624Y-89682425D01*
X108038342Y-89649308D01*
X108038343Y-89649306D01*
X108040228Y-89644754D01*
X108059285Y-89500000D01*
X108040228Y-89355246D01*
X107984355Y-89220358D01*
X107895474Y-89104526D01*
X107860121Y-89077398D01*
X107832483Y-89034016D01*
X107830700Y-89017739D01*
X107830700Y-86982261D01*
X107848293Y-86933923D01*
X107860119Y-86922603D01*
X107895474Y-86895474D01*
X107984355Y-86779642D01*
X108040228Y-86644754D01*
X108059285Y-86500000D01*
X108040228Y-86355246D01*
X107984355Y-86220358D01*
X107895474Y-86104526D01*
X107779643Y-86015645D01*
X107719701Y-85990816D01*
X107649308Y-85961658D01*
X107649306Y-85961657D01*
X107644754Y-85959772D01*
X107500000Y-85940715D01*
X107355246Y-85959772D01*
X107350694Y-85961657D01*
X107350692Y-85961658D01*
X107280634Y-85990678D01*
X107220358Y-86015645D01*
X107104526Y-86104526D01*
X107101528Y-86108433D01*
X107059660Y-86162997D01*
X107016277Y-86190635D01*
X106965277Y-86183921D01*
X106940340Y-86162997D01*
X106898472Y-86108433D01*
X106895474Y-86104526D01*
X106779643Y-86015645D01*
X106719701Y-85990816D01*
X106649308Y-85961658D01*
X106649306Y-85961657D01*
X106644754Y-85959772D01*
X106500000Y-85940715D01*
X106355246Y-85959772D01*
X106350694Y-85961657D01*
X106350692Y-85961658D01*
X106280634Y-85990678D01*
X106220358Y-86015645D01*
X106104526Y-86104526D01*
X106101528Y-86108433D01*
X106059660Y-86162997D01*
X106016277Y-86190635D01*
X105965277Y-86183921D01*
X105940340Y-86162997D01*
X105898472Y-86108433D01*
X105895474Y-86104526D01*
X105779643Y-86015645D01*
X105719701Y-85990816D01*
X105649308Y-85961658D01*
X105649306Y-85961657D01*
X105644754Y-85959772D01*
X105500000Y-85940715D01*
X105355246Y-85959772D01*
X105350694Y-85961657D01*
X105350692Y-85961658D01*
X105280634Y-85990678D01*
X105220358Y-86015645D01*
X105104526Y-86104526D01*
X105015645Y-86220358D01*
X104959772Y-86355246D01*
X104940715Y-86500000D01*
X104959772Y-86644754D01*
X105015645Y-86779642D01*
X105104526Y-86895474D01*
X105139879Y-86922602D01*
X105167517Y-86965984D01*
X105169300Y-86982261D01*
X105169300Y-90017739D01*
X105151707Y-90066077D01*
X105139881Y-90077397D01*
X105104526Y-90104526D01*
X105015645Y-90220358D01*
X104959772Y-90355246D01*
X104940715Y-90500000D01*
X103512500Y-90500000D01*
X103512500Y-85955475D01*
X103497101Y-85823393D01*
X103464074Y-85732404D01*
X103437925Y-85660366D01*
X103437924Y-85660364D01*
X103436434Y-85656259D01*
X103382536Y-85574051D01*
X103341340Y-85511216D01*
X103341339Y-85511214D01*
X103338946Y-85507565D01*
X103209865Y-85385286D01*
X103056116Y-85295981D01*
X102930725Y-85258004D01*
X102890130Y-85245709D01*
X102890128Y-85245709D01*
X102885946Y-85244442D01*
X102791642Y-85238591D01*
X102712843Y-85233702D01*
X102712839Y-85233702D01*
X102708484Y-85233432D01*
X102533249Y-85263543D01*
X102369641Y-85333159D01*
X102226436Y-85438546D01*
X102111316Y-85574051D01*
X102030457Y-85732404D01*
X101988196Y-85905112D01*
X101987500Y-85916330D01*
X101987500Y-91044525D01*
X81372863Y-91044525D01*
X80507685Y-90179347D01*
X80403400Y-90096840D01*
X80399449Y-90094993D01*
X80399445Y-90094991D01*
X80246280Y-90023406D01*
X80246278Y-90023405D01*
X80242321Y-90021556D01*
X80238042Y-90020666D01*
X80238039Y-90020665D01*
X80159822Y-90004396D01*
X80068244Y-89985348D01*
X80063878Y-89985466D01*
X80063876Y-89985466D01*
X79984548Y-89987613D01*
X79890505Y-89990158D01*
X79886281Y-89991278D01*
X79722867Y-90034606D01*
X79722865Y-90034607D01*
X79718640Y-90035727D01*
X79561868Y-90119611D01*
X79428598Y-90237311D01*
X79325980Y-90382512D01*
X79259518Y-90547427D01*
X79232776Y-90723208D01*
X72750000Y-90723208D01*
X72750000Y-76000000D01*
X102440715Y-76000000D01*
X102459772Y-76144754D01*
X102515645Y-76279642D01*
X102604526Y-76395474D01*
X102720357Y-76484355D01*
X102780299Y-76509184D01*
X102850692Y-76538342D01*
X102850694Y-76538343D01*
X102855246Y-76540228D01*
X103000000Y-76559285D01*
X103044182Y-76553468D01*
X103094401Y-76564602D01*
X103107171Y-76574851D01*
X104925149Y-78392829D01*
X104946889Y-78439449D01*
X104946532Y-78455815D01*
X104940715Y-78500000D01*
X104959772Y-78644754D01*
X105015645Y-78779642D01*
X105104526Y-78895474D01*
X105220357Y-78984355D01*
X105280299Y-79009184D01*
X105350692Y-79038342D01*
X105350694Y-79038343D01*
X105355246Y-79040228D01*
X105500000Y-79059285D01*
X105644754Y-79040228D01*
X105649306Y-79038343D01*
X105649308Y-79038342D01*
X105719701Y-79009184D01*
X105779643Y-78984355D01*
X105895474Y-78895474D01*
X105984355Y-78779642D01*
X106040228Y-78644754D01*
X106059285Y-78500000D01*
X106040228Y-78355246D01*
X105984355Y-78220358D01*
X105895474Y-78104526D01*
X105779643Y-78015645D01*
X105719701Y-77990816D01*
X105649308Y-77961658D01*
X105649306Y-77961657D01*
X105644754Y-77959772D01*
X105500000Y-77940715D01*
X105455818Y-77946532D01*
X105405599Y-77935398D01*
X105392829Y-77925149D01*
X103574851Y-76107171D01*
X103553111Y-76060551D01*
X103553468Y-76044181D01*
X103558642Y-76004884D01*
X103559285Y-76000000D01*
X103540228Y-75855246D01*
X103484355Y-75720358D01*
X103395474Y-75604526D01*
X103279643Y-75515645D01*
X103219701Y-75490816D01*
X103149308Y-75461658D01*
X103149306Y-75461657D01*
X103144754Y-75459772D01*
X103000000Y-75440715D01*
X102855246Y-75459772D01*
X102850694Y-75461657D01*
X102850692Y-75461658D01*
X102780634Y-75490678D01*
X102720358Y-75515645D01*
X102604526Y-75604526D01*
X102515645Y-75720358D01*
X102459772Y-75855246D01*
X102440715Y-76000000D01*
X72750000Y-76000000D01*
X72750000Y-69000000D01*
X71624933Y-67874933D01*
X87645500Y-67874933D01*
X87645501Y-69625066D01*
X87660266Y-69699301D01*
X87716516Y-69783484D01*
X87722673Y-69787598D01*
X87794540Y-69835619D01*
X87794541Y-69835620D01*
X87800699Y-69839734D01*
X87807963Y-69841179D01*
X87871303Y-69853778D01*
X87874933Y-69854500D01*
X88749881Y-69854500D01*
X89625066Y-69854499D01*
X89628689Y-69853778D01*
X89628693Y-69853778D01*
X89661221Y-69847308D01*
X89699301Y-69839734D01*
X89783484Y-69783484D01*
X89791063Y-69772141D01*
X89835619Y-69705460D01*
X89835620Y-69705459D01*
X89839734Y-69699301D01*
X89841180Y-69692034D01*
X89853779Y-69628692D01*
X89853779Y-69628691D01*
X89854500Y-69625067D01*
X89854499Y-67874934D01*
X89839734Y-67800699D01*
X89783484Y-67716516D01*
X89772141Y-67708937D01*
X89705460Y-67664381D01*
X89705459Y-67664380D01*
X89699301Y-67660266D01*
X89692037Y-67658821D01*
X89628692Y-67646221D01*
X89628691Y-67646221D01*
X89625067Y-67645500D01*
X88750119Y-67645500D01*
X87874934Y-67645501D01*
X87871311Y-67646222D01*
X87871307Y-67646222D01*
X87838779Y-67652692D01*
X87800699Y-67660266D01*
X87716516Y-67716516D01*
X87712402Y-67722673D01*
X87664383Y-67794538D01*
X87660266Y-67800699D01*
X87658821Y-67807963D01*
X87646221Y-67871307D01*
X87645500Y-67874933D01*
X71624933Y-67874933D01*
X69000000Y-65250000D01*
X57075200Y-65250000D01*
X57026862Y-65232407D01*
X57001142Y-65187858D01*
X57000000Y-65174800D01*
X57000000Y-56250000D01*
X51075200Y-56250000D01*
X51026862Y-56232407D01*
X51001142Y-56187858D01*
X51000000Y-56174800D01*
X51000000Y-55899933D01*
X96820500Y-55899933D01*
X96820501Y-57650066D01*
X96835266Y-57724301D01*
X96891516Y-57808484D01*
X96897673Y-57812598D01*
X96969540Y-57860619D01*
X96969541Y-57860620D01*
X96975699Y-57864734D01*
X96982963Y-57866179D01*
X97046303Y-57878778D01*
X97049933Y-57879500D01*
X97924881Y-57879500D01*
X98800066Y-57879499D01*
X98803689Y-57878778D01*
X98803693Y-57878778D01*
X98836221Y-57872308D01*
X98874301Y-57864734D01*
X98958484Y-57808484D01*
X98973073Y-57786651D01*
X99010619Y-57730460D01*
X99010620Y-57730459D01*
X99014734Y-57724301D01*
X99016180Y-57717034D01*
X99028779Y-57653692D01*
X99028779Y-57653691D01*
X99029500Y-57650067D01*
X99029499Y-56745964D01*
X104436148Y-56745964D01*
X104436373Y-56749398D01*
X104436373Y-56749401D01*
X104438051Y-56775000D01*
X104449424Y-56948522D01*
X104499392Y-57145269D01*
X104584377Y-57329616D01*
X104701533Y-57495389D01*
X104703996Y-57497788D01*
X104704000Y-57497793D01*
X104844468Y-57634629D01*
X104846938Y-57637035D01*
X104849807Y-57638952D01*
X105012852Y-57747896D01*
X105012855Y-57747897D01*
X105015720Y-57749812D01*
X105018884Y-57751171D01*
X105018887Y-57751173D01*
X105199062Y-57828582D01*
X105199064Y-57828583D01*
X105202228Y-57829942D01*
X105320043Y-57856601D01*
X105396852Y-57873981D01*
X105396854Y-57873981D01*
X105400216Y-57874742D01*
X105516722Y-57879320D01*
X105599609Y-57882577D01*
X105599613Y-57882577D01*
X105603053Y-57882712D01*
X105606458Y-57882218D01*
X105606463Y-57882218D01*
X105749551Y-57861471D01*
X105803945Y-57853584D01*
X105873592Y-57829942D01*
X105992902Y-57789442D01*
X105992905Y-57789440D01*
X105996165Y-57788334D01*
X106173276Y-57689147D01*
X106329345Y-57559345D01*
X106459147Y-57403276D01*
X106558334Y-57226165D01*
X106559745Y-57222010D01*
X106622474Y-57037215D01*
X106623584Y-57033945D01*
X106652712Y-56833053D01*
X106654232Y-56775000D01*
X106635658Y-56572859D01*
X106580557Y-56377487D01*
X106565754Y-56347468D01*
X106492301Y-56198521D01*
X106490776Y-56195428D01*
X106369320Y-56032779D01*
X106220258Y-55894987D01*
X106196325Y-55879886D01*
X106166144Y-55860844D01*
X106048581Y-55786667D01*
X106045384Y-55785391D01*
X106045379Y-55785389D01*
X105863248Y-55712726D01*
X105863245Y-55712725D01*
X105860039Y-55711446D01*
X105856658Y-55710773D01*
X105856653Y-55710772D01*
X105664329Y-55672517D01*
X105664330Y-55672517D01*
X105660946Y-55671844D01*
X105537942Y-55670234D01*
X105461414Y-55669232D01*
X105461413Y-55669232D01*
X105457971Y-55669187D01*
X105454580Y-55669770D01*
X105454576Y-55669770D01*
X105261302Y-55702981D01*
X105261301Y-55702981D01*
X105257910Y-55703564D01*
X105067463Y-55773824D01*
X104893010Y-55877612D01*
X104890417Y-55879886D01*
X104871693Y-55896307D01*
X104740392Y-56011455D01*
X104738258Y-56014162D01*
X104738256Y-56014164D01*
X104721403Y-56035543D01*
X104614720Y-56170869D01*
X104613117Y-56173917D01*
X104613115Y-56173919D01*
X104601799Y-56195428D01*
X104520203Y-56350515D01*
X104460007Y-56544378D01*
X104436148Y-56745964D01*
X99029499Y-56745964D01*
X99029499Y-55899934D01*
X99024709Y-55875848D01*
X99016179Y-55832966D01*
X99014734Y-55825699D01*
X98958484Y-55741516D01*
X98947141Y-55733937D01*
X98880460Y-55689381D01*
X98880459Y-55689380D01*
X98874301Y-55685266D01*
X98867037Y-55683821D01*
X98803692Y-55671221D01*
X98803691Y-55671221D01*
X98800067Y-55670500D01*
X97925119Y-55670500D01*
X97049934Y-55670501D01*
X97046311Y-55671222D01*
X97046307Y-55671222D01*
X97013779Y-55677692D01*
X96975699Y-55685266D01*
X96891516Y-55741516D01*
X96887402Y-55747673D01*
X96839383Y-55819538D01*
X96835266Y-55825699D01*
X96833821Y-55832963D01*
X96825291Y-55875848D01*
X96820500Y-55899933D01*
X51000000Y-55899933D01*
X51000000Y-54205964D01*
X96816148Y-54205964D01*
X96816373Y-54209398D01*
X96816373Y-54209401D01*
X96818051Y-54235000D01*
X96829424Y-54408522D01*
X96879392Y-54605269D01*
X96964377Y-54789616D01*
X97081533Y-54955389D01*
X97083996Y-54957788D01*
X97084000Y-54957793D01*
X97224468Y-55094629D01*
X97226938Y-55097035D01*
X97229807Y-55098952D01*
X97392852Y-55207896D01*
X97392855Y-55207897D01*
X97395720Y-55209812D01*
X97398884Y-55211171D01*
X97398887Y-55211173D01*
X97579062Y-55288582D01*
X97579064Y-55288583D01*
X97582228Y-55289942D01*
X97700043Y-55316601D01*
X97776852Y-55333981D01*
X97776854Y-55333981D01*
X97780216Y-55334742D01*
X97896722Y-55339320D01*
X97979609Y-55342577D01*
X97979613Y-55342577D01*
X97983053Y-55342712D01*
X97986458Y-55342218D01*
X97986463Y-55342218D01*
X98129551Y-55321471D01*
X98183945Y-55313584D01*
X98253592Y-55289942D01*
X98372902Y-55249442D01*
X98372905Y-55249440D01*
X98376165Y-55248334D01*
X98553276Y-55149147D01*
X98709345Y-55019345D01*
X98839147Y-54863276D01*
X98938334Y-54686165D01*
X98966930Y-54601926D01*
X99002474Y-54497215D01*
X99003584Y-54493945D01*
X99032712Y-54293053D01*
X99034232Y-54235000D01*
X99031564Y-54205964D01*
X99356148Y-54205964D01*
X99356373Y-54209398D01*
X99356373Y-54209401D01*
X99358051Y-54235000D01*
X99369424Y-54408522D01*
X99419392Y-54605269D01*
X99504377Y-54789616D01*
X99621533Y-54955389D01*
X99623996Y-54957788D01*
X99624000Y-54957793D01*
X99764468Y-55094629D01*
X99766938Y-55097035D01*
X99769807Y-55098952D01*
X99932852Y-55207896D01*
X99932855Y-55207897D01*
X99935720Y-55209812D01*
X99938884Y-55211171D01*
X99938887Y-55211173D01*
X100119062Y-55288582D01*
X100119064Y-55288583D01*
X100122228Y-55289942D01*
X100240043Y-55316601D01*
X100316852Y-55333981D01*
X100316854Y-55333981D01*
X100320216Y-55334742D01*
X100436722Y-55339320D01*
X100519609Y-55342577D01*
X100519613Y-55342577D01*
X100523053Y-55342712D01*
X100526458Y-55342218D01*
X100526463Y-55342218D01*
X100669551Y-55321471D01*
X100723945Y-55313584D01*
X100793592Y-55289942D01*
X100912902Y-55249442D01*
X100912905Y-55249440D01*
X100916165Y-55248334D01*
X101093276Y-55149147D01*
X101249345Y-55019345D01*
X101379147Y-54863276D01*
X101478334Y-54686165D01*
X101506930Y-54601926D01*
X101542474Y-54497215D01*
X101543584Y-54493945D01*
X101572712Y-54293053D01*
X101574232Y-54235000D01*
X101571564Y-54205964D01*
X101896148Y-54205964D01*
X101896373Y-54209398D01*
X101896373Y-54209401D01*
X101898051Y-54235000D01*
X101909424Y-54408522D01*
X101959392Y-54605269D01*
X102044377Y-54789616D01*
X102161533Y-54955389D01*
X102163996Y-54957788D01*
X102164000Y-54957793D01*
X102304468Y-55094629D01*
X102306938Y-55097035D01*
X102309807Y-55098952D01*
X102472852Y-55207896D01*
X102472855Y-55207897D01*
X102475720Y-55209812D01*
X102478884Y-55211171D01*
X102478887Y-55211173D01*
X102659062Y-55288582D01*
X102659064Y-55288583D01*
X102662228Y-55289942D01*
X102780043Y-55316601D01*
X102856852Y-55333981D01*
X102856854Y-55333981D01*
X102860216Y-55334742D01*
X102976722Y-55339320D01*
X103059609Y-55342577D01*
X103059613Y-55342577D01*
X103063053Y-55342712D01*
X103066458Y-55342218D01*
X103066463Y-55342218D01*
X103209551Y-55321471D01*
X103263945Y-55313584D01*
X103333592Y-55289942D01*
X103452902Y-55249442D01*
X103452905Y-55249440D01*
X103456165Y-55248334D01*
X103633276Y-55149147D01*
X103789345Y-55019345D01*
X103919147Y-54863276D01*
X104018334Y-54686165D01*
X104046930Y-54601926D01*
X104082474Y-54497215D01*
X104083584Y-54493945D01*
X104112712Y-54293053D01*
X104114232Y-54235000D01*
X104111564Y-54205964D01*
X104436148Y-54205964D01*
X104436373Y-54209398D01*
X104436373Y-54209401D01*
X104438051Y-54235000D01*
X104449424Y-54408522D01*
X104499392Y-54605269D01*
X104584377Y-54789616D01*
X104701533Y-54955389D01*
X104703996Y-54957788D01*
X104704000Y-54957793D01*
X104844468Y-55094629D01*
X104846938Y-55097035D01*
X104849807Y-55098952D01*
X105012852Y-55207896D01*
X105012855Y-55207897D01*
X105015720Y-55209812D01*
X105018884Y-55211171D01*
X105018887Y-55211173D01*
X105199062Y-55288582D01*
X105199064Y-55288583D01*
X105202228Y-55289942D01*
X105320043Y-55316601D01*
X105396852Y-55333981D01*
X105396854Y-55333981D01*
X105400216Y-55334742D01*
X105516722Y-55339320D01*
X105599609Y-55342577D01*
X105599613Y-55342577D01*
X105603053Y-55342712D01*
X105606458Y-55342218D01*
X105606463Y-55342218D01*
X105749551Y-55321471D01*
X105803945Y-55313584D01*
X105873592Y-55289942D01*
X105992902Y-55249442D01*
X105992905Y-55249440D01*
X105996165Y-55248334D01*
X106173276Y-55149147D01*
X106329345Y-55019345D01*
X106459147Y-54863276D01*
X106558334Y-54686165D01*
X106586930Y-54601926D01*
X106622474Y-54497215D01*
X106623584Y-54493945D01*
X106652712Y-54293053D01*
X106654232Y-54235000D01*
X106651564Y-54205964D01*
X106976148Y-54205964D01*
X106976373Y-54209398D01*
X106976373Y-54209401D01*
X106978051Y-54235000D01*
X106989424Y-54408522D01*
X107039392Y-54605269D01*
X107124377Y-54789616D01*
X107241533Y-54955389D01*
X107243996Y-54957788D01*
X107244000Y-54957793D01*
X107384468Y-55094629D01*
X107386938Y-55097035D01*
X107389807Y-55098952D01*
X107552852Y-55207896D01*
X107552855Y-55207897D01*
X107555720Y-55209812D01*
X107558884Y-55211171D01*
X107558887Y-55211173D01*
X107739062Y-55288582D01*
X107739064Y-55288583D01*
X107742228Y-55289942D01*
X107860043Y-55316601D01*
X107936852Y-55333981D01*
X107936854Y-55333981D01*
X107940216Y-55334742D01*
X108056722Y-55339320D01*
X108139609Y-55342577D01*
X108139613Y-55342577D01*
X108143053Y-55342712D01*
X108146458Y-55342218D01*
X108146463Y-55342218D01*
X108289551Y-55321471D01*
X108343945Y-55313584D01*
X108413592Y-55289942D01*
X108532902Y-55249442D01*
X108532905Y-55249440D01*
X108536165Y-55248334D01*
X108713276Y-55149147D01*
X108869345Y-55019345D01*
X108999147Y-54863276D01*
X109098334Y-54686165D01*
X109126930Y-54601926D01*
X109162474Y-54497215D01*
X109163584Y-54493945D01*
X109192712Y-54293053D01*
X109194232Y-54235000D01*
X109175658Y-54032859D01*
X109120557Y-53837487D01*
X109105754Y-53807468D01*
X109032301Y-53658521D01*
X109030776Y-53655428D01*
X108909320Y-53492779D01*
X108760258Y-53354987D01*
X108736325Y-53339886D01*
X108706144Y-53320844D01*
X108588581Y-53246667D01*
X108585384Y-53245391D01*
X108585379Y-53245389D01*
X108403248Y-53172726D01*
X108403245Y-53172725D01*
X108400039Y-53171446D01*
X108396658Y-53170773D01*
X108396653Y-53170772D01*
X108204329Y-53132517D01*
X108204330Y-53132517D01*
X108200946Y-53131844D01*
X108077942Y-53130234D01*
X108001414Y-53129232D01*
X108001413Y-53129232D01*
X107997971Y-53129187D01*
X107994580Y-53129770D01*
X107994576Y-53129770D01*
X107801302Y-53162981D01*
X107801301Y-53162981D01*
X107797910Y-53163564D01*
X107607463Y-53233824D01*
X107433010Y-53337612D01*
X107280392Y-53471455D01*
X107278258Y-53474162D01*
X107278256Y-53474164D01*
X107261403Y-53495543D01*
X107154720Y-53630869D01*
X107153117Y-53633917D01*
X107153115Y-53633919D01*
X107141799Y-53655428D01*
X107060203Y-53810515D01*
X107000007Y-54004378D01*
X106976148Y-54205964D01*
X106651564Y-54205964D01*
X106635658Y-54032859D01*
X106580557Y-53837487D01*
X106565754Y-53807468D01*
X106492301Y-53658521D01*
X106490776Y-53655428D01*
X106369320Y-53492779D01*
X106220258Y-53354987D01*
X106196325Y-53339886D01*
X106166144Y-53320844D01*
X106048581Y-53246667D01*
X106045384Y-53245391D01*
X106045379Y-53245389D01*
X105863248Y-53172726D01*
X105863245Y-53172725D01*
X105860039Y-53171446D01*
X105856658Y-53170773D01*
X105856653Y-53170772D01*
X105664329Y-53132517D01*
X105664330Y-53132517D01*
X105660946Y-53131844D01*
X105537942Y-53130234D01*
X105461414Y-53129232D01*
X105461413Y-53129232D01*
X105457971Y-53129187D01*
X105454580Y-53129770D01*
X105454576Y-53129770D01*
X105261302Y-53162981D01*
X105261301Y-53162981D01*
X105257910Y-53163564D01*
X105067463Y-53233824D01*
X104893010Y-53337612D01*
X104740392Y-53471455D01*
X104738258Y-53474162D01*
X104738256Y-53474164D01*
X104721403Y-53495543D01*
X104614720Y-53630869D01*
X104613117Y-53633917D01*
X104613115Y-53633919D01*
X104601799Y-53655428D01*
X104520203Y-53810515D01*
X104460007Y-54004378D01*
X104436148Y-54205964D01*
X104111564Y-54205964D01*
X104095658Y-54032859D01*
X104040557Y-53837487D01*
X104025754Y-53807468D01*
X103952301Y-53658521D01*
X103950776Y-53655428D01*
X103829320Y-53492779D01*
X103680258Y-53354987D01*
X103656325Y-53339886D01*
X103626144Y-53320844D01*
X103508581Y-53246667D01*
X103505384Y-53245391D01*
X103505379Y-53245389D01*
X103323248Y-53172726D01*
X103323245Y-53172725D01*
X103320039Y-53171446D01*
X103316658Y-53170773D01*
X103316653Y-53170772D01*
X103124329Y-53132517D01*
X103124330Y-53132517D01*
X103120946Y-53131844D01*
X102997942Y-53130234D01*
X102921414Y-53129232D01*
X102921413Y-53129232D01*
X102917971Y-53129187D01*
X102914580Y-53129770D01*
X102914576Y-53129770D01*
X102721302Y-53162981D01*
X102721301Y-53162981D01*
X102717910Y-53163564D01*
X102527463Y-53233824D01*
X102353010Y-53337612D01*
X102200392Y-53471455D01*
X102198258Y-53474162D01*
X102198256Y-53474164D01*
X102181403Y-53495543D01*
X102074720Y-53630869D01*
X102073117Y-53633917D01*
X102073115Y-53633919D01*
X102061799Y-53655428D01*
X101980203Y-53810515D01*
X101920007Y-54004378D01*
X101896148Y-54205964D01*
X101571564Y-54205964D01*
X101555658Y-54032859D01*
X101500557Y-53837487D01*
X101485754Y-53807468D01*
X101412301Y-53658521D01*
X101410776Y-53655428D01*
X101289320Y-53492779D01*
X101140258Y-53354987D01*
X101116325Y-53339886D01*
X101086144Y-53320844D01*
X100968581Y-53246667D01*
X100965384Y-53245391D01*
X100965379Y-53245389D01*
X100783248Y-53172726D01*
X100783245Y-53172725D01*
X100780039Y-53171446D01*
X100776658Y-53170773D01*
X100776653Y-53170772D01*
X100584329Y-53132517D01*
X100584330Y-53132517D01*
X100580946Y-53131844D01*
X100457942Y-53130234D01*
X100381414Y-53129232D01*
X100381413Y-53129232D01*
X100377971Y-53129187D01*
X100374580Y-53129770D01*
X100374576Y-53129770D01*
X100181302Y-53162981D01*
X100181301Y-53162981D01*
X100177910Y-53163564D01*
X99987463Y-53233824D01*
X99813010Y-53337612D01*
X99660392Y-53471455D01*
X99658258Y-53474162D01*
X99658256Y-53474164D01*
X99641403Y-53495543D01*
X99534720Y-53630869D01*
X99533117Y-53633917D01*
X99533115Y-53633919D01*
X99521799Y-53655428D01*
X99440203Y-53810515D01*
X99380007Y-54004378D01*
X99356148Y-54205964D01*
X99031564Y-54205964D01*
X99015658Y-54032859D01*
X98960557Y-53837487D01*
X98945754Y-53807468D01*
X98872301Y-53658521D01*
X98870776Y-53655428D01*
X98749320Y-53492779D01*
X98600258Y-53354987D01*
X98576325Y-53339886D01*
X98546144Y-53320844D01*
X98428581Y-53246667D01*
X98425384Y-53245391D01*
X98425379Y-53245389D01*
X98243248Y-53172726D01*
X98243245Y-53172725D01*
X98240039Y-53171446D01*
X98236658Y-53170773D01*
X98236653Y-53170772D01*
X98044329Y-53132517D01*
X98044330Y-53132517D01*
X98040946Y-53131844D01*
X97917942Y-53130234D01*
X97841414Y-53129232D01*
X97841413Y-53129232D01*
X97837971Y-53129187D01*
X97834580Y-53129770D01*
X97834576Y-53129770D01*
X97641302Y-53162981D01*
X97641301Y-53162981D01*
X97637910Y-53163564D01*
X97447463Y-53233824D01*
X97273010Y-53337612D01*
X97120392Y-53471455D01*
X97118258Y-53474162D01*
X97118256Y-53474164D01*
X97101403Y-53495543D01*
X96994720Y-53630869D01*
X96993117Y-53633917D01*
X96993115Y-53633919D01*
X96981799Y-53655428D01*
X96900203Y-53810515D01*
X96840007Y-54004378D01*
X96816148Y-54205964D01*
X51000000Y-54205964D01*
X51000000Y-51075200D01*
X51017593Y-51026862D01*
X51062142Y-51001142D01*
X51075200Y-51000000D01*
X140924800Y-51000000D01*
X140973138Y-51017593D01*
G37*
%TD.AperFunction*%
%TD*%
M02*
