%TF.GenerationSoftware,KiCad,Pcbnew,6.0.2+dfsg-1*%
%TF.CreationDate,2023-05-23T16:54:32-05:00*%
%TF.ProjectId,ethernet,65746865-726e-4657-942e-6b696361645f,rev?*%
%TF.SameCoordinates,Original*%
%TF.FileFunction,Legend,Top*%
%TF.FilePolarity,Positive*%
%FSLAX46Y46*%
G04 Gerber Fmt 4.6, Leading zero omitted, Abs format (unit mm)*
G04 Created by KiCad (PCBNEW 6.0.2+dfsg-1) date 2023-05-23 16:54:32*
%MOMM*%
%LPD*%
G01*
G04 APERTURE LIST*
%ADD10C,0.300000*%
%ADD11C,0.150000*%
%ADD12C,0.120000*%
G04 APERTURE END LIST*
D10*
X127821428Y-79678571D02*
X127321428Y-78964285D01*
X126964285Y-79678571D02*
X126964285Y-78178571D01*
X127535714Y-78178571D01*
X127678571Y-78250000D01*
X127750000Y-78321428D01*
X127821428Y-78464285D01*
X127821428Y-78678571D01*
X127750000Y-78821428D01*
X127678571Y-78892857D01*
X127535714Y-78964285D01*
X126964285Y-78964285D01*
X128464285Y-78892857D02*
X128964285Y-78892857D01*
X129178571Y-79678571D02*
X128464285Y-79678571D01*
X128464285Y-78178571D01*
X129178571Y-78178571D01*
X129750000Y-79607142D02*
X129964285Y-79678571D01*
X130321428Y-79678571D01*
X130464285Y-79607142D01*
X130535714Y-79535714D01*
X130607142Y-79392857D01*
X130607142Y-79250000D01*
X130535714Y-79107142D01*
X130464285Y-79035714D01*
X130321428Y-78964285D01*
X130035714Y-78892857D01*
X129892857Y-78821428D01*
X129821428Y-78750000D01*
X129750000Y-78607142D01*
X129750000Y-78464285D01*
X129821428Y-78321428D01*
X129892857Y-78250000D01*
X130035714Y-78178571D01*
X130392857Y-78178571D01*
X130607142Y-78250000D01*
X131250000Y-78892857D02*
X131750000Y-78892857D01*
X131964285Y-79678571D02*
X131250000Y-79678571D01*
X131250000Y-78178571D01*
X131964285Y-78178571D01*
X132392857Y-78178571D02*
X133250000Y-78178571D01*
X132821428Y-79678571D02*
X132821428Y-78178571D01*
D11*
%TO.C,U5*%
X82852380Y-129261904D02*
X83661904Y-129261904D01*
X83757142Y-129214285D01*
X83804761Y-129166666D01*
X83852380Y-129071428D01*
X83852380Y-128880952D01*
X83804761Y-128785714D01*
X83757142Y-128738095D01*
X83661904Y-128690476D01*
X82852380Y-128690476D01*
X82852380Y-127738095D02*
X82852380Y-128214285D01*
X83328571Y-128261904D01*
X83280952Y-128214285D01*
X83233333Y-128119047D01*
X83233333Y-127880952D01*
X83280952Y-127785714D01*
X83328571Y-127738095D01*
X83423809Y-127690476D01*
X83661904Y-127690476D01*
X83757142Y-127738095D01*
X83804761Y-127785714D01*
X83852380Y-127880952D01*
X83852380Y-128119047D01*
X83804761Y-128214285D01*
X83757142Y-128261904D01*
%TO.C,R27*%
X70802380Y-126892857D02*
X70326190Y-127226190D01*
X70802380Y-127464285D02*
X69802380Y-127464285D01*
X69802380Y-127083333D01*
X69850000Y-126988095D01*
X69897619Y-126940476D01*
X69992857Y-126892857D01*
X70135714Y-126892857D01*
X70230952Y-126940476D01*
X70278571Y-126988095D01*
X70326190Y-127083333D01*
X70326190Y-127464285D01*
X69897619Y-126511904D02*
X69850000Y-126464285D01*
X69802380Y-126369047D01*
X69802380Y-126130952D01*
X69850000Y-126035714D01*
X69897619Y-125988095D01*
X69992857Y-125940476D01*
X70088095Y-125940476D01*
X70230952Y-125988095D01*
X70802380Y-126559523D01*
X70802380Y-125940476D01*
X69802380Y-125607142D02*
X69802380Y-124940476D01*
X70802380Y-125369047D01*
%TO.C,D7*%
X113449404Y-70052380D02*
X113449404Y-69052380D01*
X113687500Y-69052380D01*
X113830357Y-69100000D01*
X113925595Y-69195238D01*
X113973214Y-69290476D01*
X114020833Y-69480952D01*
X114020833Y-69623809D01*
X113973214Y-69814285D01*
X113925595Y-69909523D01*
X113830357Y-70004761D01*
X113687500Y-70052380D01*
X113449404Y-70052380D01*
X114354166Y-69052380D02*
X115020833Y-69052380D01*
X114592261Y-70052380D01*
%TO.C,R17*%
X121102380Y-65555357D02*
X120626190Y-65888690D01*
X121102380Y-66126785D02*
X120102380Y-66126785D01*
X120102380Y-65745833D01*
X120150000Y-65650595D01*
X120197619Y-65602976D01*
X120292857Y-65555357D01*
X120435714Y-65555357D01*
X120530952Y-65602976D01*
X120578571Y-65650595D01*
X120626190Y-65745833D01*
X120626190Y-66126785D01*
X121102380Y-64602976D02*
X121102380Y-65174404D01*
X121102380Y-64888690D02*
X120102380Y-64888690D01*
X120245238Y-64983928D01*
X120340476Y-65079166D01*
X120388095Y-65174404D01*
X120102380Y-64269642D02*
X120102380Y-63602976D01*
X121102380Y-64031547D01*
%TO.C,R7*%
X114083333Y-75764880D02*
X113750000Y-75288690D01*
X113511904Y-75764880D02*
X113511904Y-74764880D01*
X113892857Y-74764880D01*
X113988095Y-74812500D01*
X114035714Y-74860119D01*
X114083333Y-74955357D01*
X114083333Y-75098214D01*
X114035714Y-75193452D01*
X113988095Y-75241071D01*
X113892857Y-75288690D01*
X113511904Y-75288690D01*
X114416666Y-74764880D02*
X115083333Y-74764880D01*
X114654761Y-75764880D01*
%TO.C,L1*%
X119002380Y-129166666D02*
X119002380Y-129642857D01*
X118002380Y-129642857D01*
X119002380Y-128309523D02*
X119002380Y-128880952D01*
X119002380Y-128595238D02*
X118002380Y-128595238D01*
X118145238Y-128690476D01*
X118240476Y-128785714D01*
X118288095Y-128880952D01*
%TO.C,BT1*%
X89571428Y-122640952D02*
X89571428Y-121879047D01*
X89571428Y-70570952D02*
X89571428Y-69809047D01*
X89952380Y-70190000D02*
X89190476Y-70190000D01*
%TO.C,R11*%
X139269642Y-92302380D02*
X138936309Y-91826190D01*
X138698214Y-92302380D02*
X138698214Y-91302380D01*
X139079166Y-91302380D01*
X139174404Y-91350000D01*
X139222023Y-91397619D01*
X139269642Y-91492857D01*
X139269642Y-91635714D01*
X139222023Y-91730952D01*
X139174404Y-91778571D01*
X139079166Y-91826190D01*
X138698214Y-91826190D01*
X140222023Y-92302380D02*
X139650595Y-92302380D01*
X139936309Y-92302380D02*
X139936309Y-91302380D01*
X139841071Y-91445238D01*
X139745833Y-91540476D01*
X139650595Y-91588095D01*
X141174404Y-92302380D02*
X140602976Y-92302380D01*
X140888690Y-92302380D02*
X140888690Y-91302380D01*
X140793452Y-91445238D01*
X140698214Y-91540476D01*
X140602976Y-91588095D01*
%TO.C,C23*%
X108677142Y-65392857D02*
X108724761Y-65440476D01*
X108772380Y-65583333D01*
X108772380Y-65678571D01*
X108724761Y-65821428D01*
X108629523Y-65916666D01*
X108534285Y-65964285D01*
X108343809Y-66011904D01*
X108200952Y-66011904D01*
X108010476Y-65964285D01*
X107915238Y-65916666D01*
X107820000Y-65821428D01*
X107772380Y-65678571D01*
X107772380Y-65583333D01*
X107820000Y-65440476D01*
X107867619Y-65392857D01*
X107867619Y-65011904D02*
X107820000Y-64964285D01*
X107772380Y-64869047D01*
X107772380Y-64630952D01*
X107820000Y-64535714D01*
X107867619Y-64488095D01*
X107962857Y-64440476D01*
X108058095Y-64440476D01*
X108200952Y-64488095D01*
X108772380Y-65059523D01*
X108772380Y-64440476D01*
X107772380Y-64107142D02*
X107772380Y-63488095D01*
X108153333Y-63821428D01*
X108153333Y-63678571D01*
X108200952Y-63583333D01*
X108248571Y-63535714D01*
X108343809Y-63488095D01*
X108581904Y-63488095D01*
X108677142Y-63535714D01*
X108724761Y-63583333D01*
X108772380Y-63678571D01*
X108772380Y-63964285D01*
X108724761Y-64059523D01*
X108677142Y-64107142D01*
%TO.C,R12*%
X114107142Y-67852380D02*
X113773809Y-67376190D01*
X113535714Y-67852380D02*
X113535714Y-66852380D01*
X113916666Y-66852380D01*
X114011904Y-66900000D01*
X114059523Y-66947619D01*
X114107142Y-67042857D01*
X114107142Y-67185714D01*
X114059523Y-67280952D01*
X114011904Y-67328571D01*
X113916666Y-67376190D01*
X113535714Y-67376190D01*
X115059523Y-67852380D02*
X114488095Y-67852380D01*
X114773809Y-67852380D02*
X114773809Y-66852380D01*
X114678571Y-66995238D01*
X114583333Y-67090476D01*
X114488095Y-67138095D01*
X115440476Y-66947619D02*
X115488095Y-66900000D01*
X115583333Y-66852380D01*
X115821428Y-66852380D01*
X115916666Y-66900000D01*
X115964285Y-66947619D01*
X116011904Y-67042857D01*
X116011904Y-67138095D01*
X115964285Y-67280952D01*
X115392857Y-67852380D01*
X116011904Y-67852380D01*
%TO.C,BT2*%
X74571428Y-70870952D02*
X74571428Y-70109047D01*
X74571428Y-122940952D02*
X74571428Y-122179047D01*
X74952380Y-122560000D02*
X74190476Y-122560000D01*
%TO.C,C10*%
X126787142Y-116342857D02*
X126834761Y-116390476D01*
X126882380Y-116533333D01*
X126882380Y-116628571D01*
X126834761Y-116771428D01*
X126739523Y-116866666D01*
X126644285Y-116914285D01*
X126453809Y-116961904D01*
X126310952Y-116961904D01*
X126120476Y-116914285D01*
X126025238Y-116866666D01*
X125930000Y-116771428D01*
X125882380Y-116628571D01*
X125882380Y-116533333D01*
X125930000Y-116390476D01*
X125977619Y-116342857D01*
X126882380Y-115390476D02*
X126882380Y-115961904D01*
X126882380Y-115676190D02*
X125882380Y-115676190D01*
X126025238Y-115771428D01*
X126120476Y-115866666D01*
X126168095Y-115961904D01*
X125882380Y-114771428D02*
X125882380Y-114676190D01*
X125930000Y-114580952D01*
X125977619Y-114533333D01*
X126072857Y-114485714D01*
X126263333Y-114438095D01*
X126501428Y-114438095D01*
X126691904Y-114485714D01*
X126787142Y-114533333D01*
X126834761Y-114580952D01*
X126882380Y-114676190D01*
X126882380Y-114771428D01*
X126834761Y-114866666D01*
X126787142Y-114914285D01*
X126691904Y-114961904D01*
X126501428Y-115009523D01*
X126263333Y-115009523D01*
X126072857Y-114961904D01*
X125977619Y-114914285D01*
X125930000Y-114866666D01*
X125882380Y-114771428D01*
%TO.C,Q2*%
X122654761Y-66647619D02*
X122559523Y-66600000D01*
X122464285Y-66504761D01*
X122321428Y-66361904D01*
X122226190Y-66314285D01*
X122130952Y-66314285D01*
X122178571Y-66552380D02*
X122083333Y-66504761D01*
X121988095Y-66409523D01*
X121940476Y-66219047D01*
X121940476Y-65885714D01*
X121988095Y-65695238D01*
X122083333Y-65600000D01*
X122178571Y-65552380D01*
X122369047Y-65552380D01*
X122464285Y-65600000D01*
X122559523Y-65695238D01*
X122607142Y-65885714D01*
X122607142Y-66219047D01*
X122559523Y-66409523D01*
X122464285Y-66504761D01*
X122369047Y-66552380D01*
X122178571Y-66552380D01*
X122988095Y-65647619D02*
X123035714Y-65600000D01*
X123130952Y-65552380D01*
X123369047Y-65552380D01*
X123464285Y-65600000D01*
X123511904Y-65647619D01*
X123559523Y-65742857D01*
X123559523Y-65838095D01*
X123511904Y-65980952D01*
X122940476Y-66552380D01*
X123559523Y-66552380D01*
%TO.C,R14*%
X128357142Y-134302380D02*
X128023809Y-133826190D01*
X127785714Y-134302380D02*
X127785714Y-133302380D01*
X128166666Y-133302380D01*
X128261904Y-133350000D01*
X128309523Y-133397619D01*
X128357142Y-133492857D01*
X128357142Y-133635714D01*
X128309523Y-133730952D01*
X128261904Y-133778571D01*
X128166666Y-133826190D01*
X127785714Y-133826190D01*
X129309523Y-134302380D02*
X128738095Y-134302380D01*
X129023809Y-134302380D02*
X129023809Y-133302380D01*
X128928571Y-133445238D01*
X128833333Y-133540476D01*
X128738095Y-133588095D01*
X130166666Y-133635714D02*
X130166666Y-134302380D01*
X129928571Y-133254761D02*
X129690476Y-133969047D01*
X130309523Y-133969047D01*
%TO.C,J6*%
X70352380Y-136628333D02*
X71066666Y-136628333D01*
X71209523Y-136675952D01*
X71304761Y-136771190D01*
X71352380Y-136914047D01*
X71352380Y-137009285D01*
X70352380Y-135723571D02*
X70352380Y-135914047D01*
X70400000Y-136009285D01*
X70447619Y-136056904D01*
X70590476Y-136152142D01*
X70780952Y-136199761D01*
X71161904Y-136199761D01*
X71257142Y-136152142D01*
X71304761Y-136104523D01*
X71352380Y-136009285D01*
X71352380Y-135818809D01*
X71304761Y-135723571D01*
X71257142Y-135675952D01*
X71161904Y-135628333D01*
X70923809Y-135628333D01*
X70828571Y-135675952D01*
X70780952Y-135723571D01*
X70733333Y-135818809D01*
X70733333Y-136009285D01*
X70780952Y-136104523D01*
X70828571Y-136152142D01*
X70923809Y-136199761D01*
%TO.C,U3*%
X101002380Y-75011904D02*
X101811904Y-75011904D01*
X101907142Y-74964285D01*
X101954761Y-74916666D01*
X102002380Y-74821428D01*
X102002380Y-74630952D01*
X101954761Y-74535714D01*
X101907142Y-74488095D01*
X101811904Y-74440476D01*
X101002380Y-74440476D01*
X101002380Y-74059523D02*
X101002380Y-73440476D01*
X101383333Y-73773809D01*
X101383333Y-73630952D01*
X101430952Y-73535714D01*
X101478571Y-73488095D01*
X101573809Y-73440476D01*
X101811904Y-73440476D01*
X101907142Y-73488095D01*
X101954761Y-73535714D01*
X102002380Y-73630952D01*
X102002380Y-73916666D01*
X101954761Y-74011904D01*
X101907142Y-74059523D01*
%TO.C,C22*%
X105177142Y-65392857D02*
X105224761Y-65440476D01*
X105272380Y-65583333D01*
X105272380Y-65678571D01*
X105224761Y-65821428D01*
X105129523Y-65916666D01*
X105034285Y-65964285D01*
X104843809Y-66011904D01*
X104700952Y-66011904D01*
X104510476Y-65964285D01*
X104415238Y-65916666D01*
X104320000Y-65821428D01*
X104272380Y-65678571D01*
X104272380Y-65583333D01*
X104320000Y-65440476D01*
X104367619Y-65392857D01*
X104367619Y-65011904D02*
X104320000Y-64964285D01*
X104272380Y-64869047D01*
X104272380Y-64630952D01*
X104320000Y-64535714D01*
X104367619Y-64488095D01*
X104462857Y-64440476D01*
X104558095Y-64440476D01*
X104700952Y-64488095D01*
X105272380Y-65059523D01*
X105272380Y-64440476D01*
X104367619Y-64059523D02*
X104320000Y-64011904D01*
X104272380Y-63916666D01*
X104272380Y-63678571D01*
X104320000Y-63583333D01*
X104367619Y-63535714D01*
X104462857Y-63488095D01*
X104558095Y-63488095D01*
X104700952Y-63535714D01*
X105272380Y-64107142D01*
X105272380Y-63488095D01*
%TO.C,TR1*%
X115738095Y-49952380D02*
X116309523Y-49952380D01*
X116023809Y-50952380D02*
X116023809Y-49952380D01*
X117214285Y-50952380D02*
X116880952Y-50476190D01*
X116642857Y-50952380D02*
X116642857Y-49952380D01*
X117023809Y-49952380D01*
X117119047Y-50000000D01*
X117166666Y-50047619D01*
X117214285Y-50142857D01*
X117214285Y-50285714D01*
X117166666Y-50380952D01*
X117119047Y-50428571D01*
X117023809Y-50476190D01*
X116642857Y-50476190D01*
X118166666Y-50952380D02*
X117595238Y-50952380D01*
X117880952Y-50952380D02*
X117880952Y-49952380D01*
X117785714Y-50095238D01*
X117690476Y-50190476D01*
X117595238Y-50238095D01*
%TO.C,C25*%
X112037142Y-109142857D02*
X112084761Y-109190476D01*
X112132380Y-109333333D01*
X112132380Y-109428571D01*
X112084761Y-109571428D01*
X111989523Y-109666666D01*
X111894285Y-109714285D01*
X111703809Y-109761904D01*
X111560952Y-109761904D01*
X111370476Y-109714285D01*
X111275238Y-109666666D01*
X111180000Y-109571428D01*
X111132380Y-109428571D01*
X111132380Y-109333333D01*
X111180000Y-109190476D01*
X111227619Y-109142857D01*
X111227619Y-108761904D02*
X111180000Y-108714285D01*
X111132380Y-108619047D01*
X111132380Y-108380952D01*
X111180000Y-108285714D01*
X111227619Y-108238095D01*
X111322857Y-108190476D01*
X111418095Y-108190476D01*
X111560952Y-108238095D01*
X112132380Y-108809523D01*
X112132380Y-108190476D01*
X111132380Y-107285714D02*
X111132380Y-107761904D01*
X111608571Y-107809523D01*
X111560952Y-107761904D01*
X111513333Y-107666666D01*
X111513333Y-107428571D01*
X111560952Y-107333333D01*
X111608571Y-107285714D01*
X111703809Y-107238095D01*
X111941904Y-107238095D01*
X112037142Y-107285714D01*
X112084761Y-107333333D01*
X112132380Y-107428571D01*
X112132380Y-107666666D01*
X112084761Y-107761904D01*
X112037142Y-107809523D01*
%TO.C,R25*%
X91802380Y-131555357D02*
X91326190Y-131888690D01*
X91802380Y-132126785D02*
X90802380Y-132126785D01*
X90802380Y-131745833D01*
X90850000Y-131650595D01*
X90897619Y-131602976D01*
X90992857Y-131555357D01*
X91135714Y-131555357D01*
X91230952Y-131602976D01*
X91278571Y-131650595D01*
X91326190Y-131745833D01*
X91326190Y-132126785D01*
X90897619Y-131174404D02*
X90850000Y-131126785D01*
X90802380Y-131031547D01*
X90802380Y-130793452D01*
X90850000Y-130698214D01*
X90897619Y-130650595D01*
X90992857Y-130602976D01*
X91088095Y-130602976D01*
X91230952Y-130650595D01*
X91802380Y-131222023D01*
X91802380Y-130602976D01*
X90802380Y-129698214D02*
X90802380Y-130174404D01*
X91278571Y-130222023D01*
X91230952Y-130174404D01*
X91183333Y-130079166D01*
X91183333Y-129841071D01*
X91230952Y-129745833D01*
X91278571Y-129698214D01*
X91373809Y-129650595D01*
X91611904Y-129650595D01*
X91707142Y-129698214D01*
X91754761Y-129745833D01*
X91802380Y-129841071D01*
X91802380Y-130079166D01*
X91754761Y-130174404D01*
X91707142Y-130222023D01*
%TO.C,C7*%
X107927142Y-100666666D02*
X107974761Y-100714285D01*
X108022380Y-100857142D01*
X108022380Y-100952380D01*
X107974761Y-101095238D01*
X107879523Y-101190476D01*
X107784285Y-101238095D01*
X107593809Y-101285714D01*
X107450952Y-101285714D01*
X107260476Y-101238095D01*
X107165238Y-101190476D01*
X107070000Y-101095238D01*
X107022380Y-100952380D01*
X107022380Y-100857142D01*
X107070000Y-100714285D01*
X107117619Y-100666666D01*
X107022380Y-100333333D02*
X107022380Y-99666666D01*
X108022380Y-100095238D01*
%TO.C,J1*%
X139666666Y-121357380D02*
X139666666Y-122071666D01*
X139619047Y-122214523D01*
X139523809Y-122309761D01*
X139380952Y-122357380D01*
X139285714Y-122357380D01*
X140666666Y-122357380D02*
X140095238Y-122357380D01*
X140380952Y-122357380D02*
X140380952Y-121357380D01*
X140285714Y-121500238D01*
X140190476Y-121595476D01*
X140095238Y-121643095D01*
%TO.C,R9*%
X133833333Y-109102380D02*
X133500000Y-108626190D01*
X133261904Y-109102380D02*
X133261904Y-108102380D01*
X133642857Y-108102380D01*
X133738095Y-108150000D01*
X133785714Y-108197619D01*
X133833333Y-108292857D01*
X133833333Y-108435714D01*
X133785714Y-108530952D01*
X133738095Y-108578571D01*
X133642857Y-108626190D01*
X133261904Y-108626190D01*
X134309523Y-109102380D02*
X134500000Y-109102380D01*
X134595238Y-109054761D01*
X134642857Y-109007142D01*
X134738095Y-108864285D01*
X134785714Y-108673809D01*
X134785714Y-108292857D01*
X134738095Y-108197619D01*
X134690476Y-108150000D01*
X134595238Y-108102380D01*
X134404761Y-108102380D01*
X134309523Y-108150000D01*
X134261904Y-108197619D01*
X134214285Y-108292857D01*
X134214285Y-108530952D01*
X134261904Y-108626190D01*
X134309523Y-108673809D01*
X134404761Y-108721428D01*
X134595238Y-108721428D01*
X134690476Y-108673809D01*
X134738095Y-108626190D01*
X134785714Y-108530952D01*
%TO.C,D3*%
X86531904Y-129492380D02*
X86531904Y-128492380D01*
X86770000Y-128492380D01*
X86912857Y-128540000D01*
X87008095Y-128635238D01*
X87055714Y-128730476D01*
X87103333Y-128920952D01*
X87103333Y-129063809D01*
X87055714Y-129254285D01*
X87008095Y-129349523D01*
X86912857Y-129444761D01*
X86770000Y-129492380D01*
X86531904Y-129492380D01*
X87436666Y-128492380D02*
X88055714Y-128492380D01*
X87722380Y-128873333D01*
X87865238Y-128873333D01*
X87960476Y-128920952D01*
X88008095Y-128968571D01*
X88055714Y-129063809D01*
X88055714Y-129301904D01*
X88008095Y-129397142D01*
X87960476Y-129444761D01*
X87865238Y-129492380D01*
X87579523Y-129492380D01*
X87484285Y-129444761D01*
X87436666Y-129397142D01*
%TO.C,C12*%
X123427142Y-120392857D02*
X123474761Y-120440476D01*
X123522380Y-120583333D01*
X123522380Y-120678571D01*
X123474761Y-120821428D01*
X123379523Y-120916666D01*
X123284285Y-120964285D01*
X123093809Y-121011904D01*
X122950952Y-121011904D01*
X122760476Y-120964285D01*
X122665238Y-120916666D01*
X122570000Y-120821428D01*
X122522380Y-120678571D01*
X122522380Y-120583333D01*
X122570000Y-120440476D01*
X122617619Y-120392857D01*
X123522380Y-119440476D02*
X123522380Y-120011904D01*
X123522380Y-119726190D02*
X122522380Y-119726190D01*
X122665238Y-119821428D01*
X122760476Y-119916666D01*
X122808095Y-120011904D01*
X122617619Y-119059523D02*
X122570000Y-119011904D01*
X122522380Y-118916666D01*
X122522380Y-118678571D01*
X122570000Y-118583333D01*
X122617619Y-118535714D01*
X122712857Y-118488095D01*
X122808095Y-118488095D01*
X122950952Y-118535714D01*
X123522380Y-119107142D01*
X123522380Y-118488095D01*
%TO.C,D6*%
X66531904Y-132492380D02*
X66531904Y-131492380D01*
X66770000Y-131492380D01*
X66912857Y-131540000D01*
X67008095Y-131635238D01*
X67055714Y-131730476D01*
X67103333Y-131920952D01*
X67103333Y-132063809D01*
X67055714Y-132254285D01*
X67008095Y-132349523D01*
X66912857Y-132444761D01*
X66770000Y-132492380D01*
X66531904Y-132492380D01*
X67960476Y-131492380D02*
X67770000Y-131492380D01*
X67674761Y-131540000D01*
X67627142Y-131587619D01*
X67531904Y-131730476D01*
X67484285Y-131920952D01*
X67484285Y-132301904D01*
X67531904Y-132397142D01*
X67579523Y-132444761D01*
X67674761Y-132492380D01*
X67865238Y-132492380D01*
X67960476Y-132444761D01*
X68008095Y-132397142D01*
X68055714Y-132301904D01*
X68055714Y-132063809D01*
X68008095Y-131968571D01*
X67960476Y-131920952D01*
X67865238Y-131873333D01*
X67674761Y-131873333D01*
X67579523Y-131920952D01*
X67531904Y-131968571D01*
X67484285Y-132063809D01*
%TO.C,BT4*%
X103429047Y-62071428D02*
X104190952Y-62071428D01*
X103810000Y-62452380D02*
X103810000Y-61690476D01*
X51359047Y-62071428D02*
X52120952Y-62071428D01*
%TO.C,U7*%
X133988095Y-63082380D02*
X133988095Y-63891904D01*
X134035714Y-63987142D01*
X134083333Y-64034761D01*
X134178571Y-64082380D01*
X134369047Y-64082380D01*
X134464285Y-64034761D01*
X134511904Y-63987142D01*
X134559523Y-63891904D01*
X134559523Y-63082380D01*
X134940476Y-63082380D02*
X135607142Y-63082380D01*
X135178571Y-64082380D01*
%TO.C,C11*%
X124110030Y-89019167D02*
X124110030Y-89086511D01*
X124042686Y-89221198D01*
X123975343Y-89288541D01*
X123840656Y-89355885D01*
X123705969Y-89355885D01*
X123604954Y-89322213D01*
X123436595Y-89221198D01*
X123335580Y-89120183D01*
X123234564Y-88951824D01*
X123200893Y-88850809D01*
X123200893Y-88716122D01*
X123268236Y-88581435D01*
X123335580Y-88514091D01*
X123470267Y-88446748D01*
X123537610Y-88446748D01*
X124850809Y-88413076D02*
X124446748Y-88817137D01*
X124648778Y-88615106D02*
X123941671Y-87907999D01*
X123975343Y-88076358D01*
X123975343Y-88211045D01*
X123941671Y-88312061D01*
X125524244Y-87739641D02*
X125120183Y-88143702D01*
X125322213Y-87941671D02*
X124615106Y-87234564D01*
X124648778Y-87402923D01*
X124648778Y-87537610D01*
X124615106Y-87638625D01*
%TO.C,U1*%
X114462578Y-96540074D02*
X115034998Y-97112494D01*
X115136013Y-97146166D01*
X115203357Y-97146166D01*
X115304372Y-97112494D01*
X115439059Y-96977807D01*
X115472731Y-96876792D01*
X115472731Y-96809448D01*
X115439059Y-96708433D01*
X114866639Y-96136013D01*
X116280853Y-96136013D02*
X115876792Y-96540074D01*
X116078822Y-96338044D02*
X115371716Y-95630937D01*
X115405387Y-95799296D01*
X115405387Y-95933983D01*
X115371716Y-96034998D01*
%TO.C,R24*%
X87302380Y-127142857D02*
X86826190Y-127476190D01*
X87302380Y-127714285D02*
X86302380Y-127714285D01*
X86302380Y-127333333D01*
X86350000Y-127238095D01*
X86397619Y-127190476D01*
X86492857Y-127142857D01*
X86635714Y-127142857D01*
X86730952Y-127190476D01*
X86778571Y-127238095D01*
X86826190Y-127333333D01*
X86826190Y-127714285D01*
X86397619Y-126761904D02*
X86350000Y-126714285D01*
X86302380Y-126619047D01*
X86302380Y-126380952D01*
X86350000Y-126285714D01*
X86397619Y-126238095D01*
X86492857Y-126190476D01*
X86588095Y-126190476D01*
X86730952Y-126238095D01*
X87302380Y-126809523D01*
X87302380Y-126190476D01*
X86635714Y-125333333D02*
X87302380Y-125333333D01*
X86254761Y-125571428D02*
X86969047Y-125809523D01*
X86969047Y-125190476D01*
%TO.C,U6*%
X119502380Y-75761904D02*
X120311904Y-75761904D01*
X120407142Y-75714285D01*
X120454761Y-75666666D01*
X120502380Y-75571428D01*
X120502380Y-75380952D01*
X120454761Y-75285714D01*
X120407142Y-75238095D01*
X120311904Y-75190476D01*
X119502380Y-75190476D01*
X119502380Y-74285714D02*
X119502380Y-74476190D01*
X119550000Y-74571428D01*
X119597619Y-74619047D01*
X119740476Y-74714285D01*
X119930952Y-74761904D01*
X120311904Y-74761904D01*
X120407142Y-74714285D01*
X120454761Y-74666666D01*
X120502380Y-74571428D01*
X120502380Y-74380952D01*
X120454761Y-74285714D01*
X120407142Y-74238095D01*
X120311904Y-74190476D01*
X120073809Y-74190476D01*
X119978571Y-74238095D01*
X119930952Y-74285714D01*
X119883333Y-74380952D01*
X119883333Y-74571428D01*
X119930952Y-74666666D01*
X119978571Y-74714285D01*
X120073809Y-74761904D01*
%TO.C,Q1*%
X118154761Y-74197619D02*
X118059523Y-74150000D01*
X117964285Y-74054761D01*
X117821428Y-73911904D01*
X117726190Y-73864285D01*
X117630952Y-73864285D01*
X117678571Y-74102380D02*
X117583333Y-74054761D01*
X117488095Y-73959523D01*
X117440476Y-73769047D01*
X117440476Y-73435714D01*
X117488095Y-73245238D01*
X117583333Y-73150000D01*
X117678571Y-73102380D01*
X117869047Y-73102380D01*
X117964285Y-73150000D01*
X118059523Y-73245238D01*
X118107142Y-73435714D01*
X118107142Y-73769047D01*
X118059523Y-73959523D01*
X117964285Y-74054761D01*
X117869047Y-74102380D01*
X117678571Y-74102380D01*
X119059523Y-74102380D02*
X118488095Y-74102380D01*
X118773809Y-74102380D02*
X118773809Y-73102380D01*
X118678571Y-73245238D01*
X118583333Y-73340476D01*
X118488095Y-73388095D01*
%TO.C,R26*%
X67302380Y-126892857D02*
X66826190Y-127226190D01*
X67302380Y-127464285D02*
X66302380Y-127464285D01*
X66302380Y-127083333D01*
X66350000Y-126988095D01*
X66397619Y-126940476D01*
X66492857Y-126892857D01*
X66635714Y-126892857D01*
X66730952Y-126940476D01*
X66778571Y-126988095D01*
X66826190Y-127083333D01*
X66826190Y-127464285D01*
X66397619Y-126511904D02*
X66350000Y-126464285D01*
X66302380Y-126369047D01*
X66302380Y-126130952D01*
X66350000Y-126035714D01*
X66397619Y-125988095D01*
X66492857Y-125940476D01*
X66588095Y-125940476D01*
X66730952Y-125988095D01*
X67302380Y-126559523D01*
X67302380Y-125940476D01*
X66302380Y-125083333D02*
X66302380Y-125273809D01*
X66350000Y-125369047D01*
X66397619Y-125416666D01*
X66540476Y-125511904D01*
X66730952Y-125559523D01*
X67111904Y-125559523D01*
X67207142Y-125511904D01*
X67254761Y-125464285D01*
X67302380Y-125369047D01*
X67302380Y-125178571D01*
X67254761Y-125083333D01*
X67207142Y-125035714D01*
X67111904Y-124988095D01*
X66873809Y-124988095D01*
X66778571Y-125035714D01*
X66730952Y-125083333D01*
X66683333Y-125178571D01*
X66683333Y-125369047D01*
X66730952Y-125464285D01*
X66778571Y-125511904D01*
X66873809Y-125559523D01*
%TO.C,D5*%
X66531904Y-129492380D02*
X66531904Y-128492380D01*
X66770000Y-128492380D01*
X66912857Y-128540000D01*
X67008095Y-128635238D01*
X67055714Y-128730476D01*
X67103333Y-128920952D01*
X67103333Y-129063809D01*
X67055714Y-129254285D01*
X67008095Y-129349523D01*
X66912857Y-129444761D01*
X66770000Y-129492380D01*
X66531904Y-129492380D01*
X68008095Y-128492380D02*
X67531904Y-128492380D01*
X67484285Y-128968571D01*
X67531904Y-128920952D01*
X67627142Y-128873333D01*
X67865238Y-128873333D01*
X67960476Y-128920952D01*
X68008095Y-128968571D01*
X68055714Y-129063809D01*
X68055714Y-129301904D01*
X68008095Y-129397142D01*
X67960476Y-129444761D01*
X67865238Y-129492380D01*
X67627142Y-129492380D01*
X67531904Y-129444761D01*
X67484285Y-129397142D01*
%TO.C,J3*%
X122857380Y-86328333D02*
X123571666Y-86328333D01*
X123714523Y-86375952D01*
X123809761Y-86471190D01*
X123857380Y-86614047D01*
X123857380Y-86709285D01*
X122857380Y-85947380D02*
X122857380Y-85328333D01*
X123238333Y-85661666D01*
X123238333Y-85518809D01*
X123285952Y-85423571D01*
X123333571Y-85375952D01*
X123428809Y-85328333D01*
X123666904Y-85328333D01*
X123762142Y-85375952D01*
X123809761Y-85423571D01*
X123857380Y-85518809D01*
X123857380Y-85804523D01*
X123809761Y-85899761D01*
X123762142Y-85947380D01*
%TO.C,C24*%
X149357142Y-120287142D02*
X149309523Y-120334761D01*
X149166666Y-120382380D01*
X149071428Y-120382380D01*
X148928571Y-120334761D01*
X148833333Y-120239523D01*
X148785714Y-120144285D01*
X148738095Y-119953809D01*
X148738095Y-119810952D01*
X148785714Y-119620476D01*
X148833333Y-119525238D01*
X148928571Y-119430000D01*
X149071428Y-119382380D01*
X149166666Y-119382380D01*
X149309523Y-119430000D01*
X149357142Y-119477619D01*
X149738095Y-119477619D02*
X149785714Y-119430000D01*
X149880952Y-119382380D01*
X150119047Y-119382380D01*
X150214285Y-119430000D01*
X150261904Y-119477619D01*
X150309523Y-119572857D01*
X150309523Y-119668095D01*
X150261904Y-119810952D01*
X149690476Y-120382380D01*
X150309523Y-120382380D01*
X151166666Y-119715714D02*
X151166666Y-120382380D01*
X150928571Y-119334761D02*
X150690476Y-120049047D01*
X151309523Y-120049047D01*
%TO.C,U2*%
X107238095Y-117452380D02*
X107238095Y-118261904D01*
X107285714Y-118357142D01*
X107333333Y-118404761D01*
X107428571Y-118452380D01*
X107619047Y-118452380D01*
X107714285Y-118404761D01*
X107761904Y-118357142D01*
X107809523Y-118261904D01*
X107809523Y-117452380D01*
X108238095Y-117547619D02*
X108285714Y-117500000D01*
X108380952Y-117452380D01*
X108619047Y-117452380D01*
X108714285Y-117500000D01*
X108761904Y-117547619D01*
X108809523Y-117642857D01*
X108809523Y-117738095D01*
X108761904Y-117880952D01*
X108190476Y-118452380D01*
X108809523Y-118452380D01*
%TO.C,D9*%
X110761904Y-50952380D02*
X110761904Y-49952380D01*
X111000000Y-49952380D01*
X111142857Y-50000000D01*
X111238095Y-50095238D01*
X111285714Y-50190476D01*
X111333333Y-50380952D01*
X111333333Y-50523809D01*
X111285714Y-50714285D01*
X111238095Y-50809523D01*
X111142857Y-50904761D01*
X111000000Y-50952380D01*
X110761904Y-50952380D01*
X111809523Y-50952380D02*
X112000000Y-50952380D01*
X112095238Y-50904761D01*
X112142857Y-50857142D01*
X112238095Y-50714285D01*
X112285714Y-50523809D01*
X112285714Y-50142857D01*
X112238095Y-50047619D01*
X112190476Y-50000000D01*
X112095238Y-49952380D01*
X111904761Y-49952380D01*
X111809523Y-50000000D01*
X111761904Y-50047619D01*
X111714285Y-50142857D01*
X111714285Y-50380952D01*
X111761904Y-50476190D01*
X111809523Y-50523809D01*
X111904761Y-50571428D01*
X112095238Y-50571428D01*
X112190476Y-50523809D01*
X112238095Y-50476190D01*
X112285714Y-50380952D01*
%TO.C,R8*%
X155102380Y-126166666D02*
X154626190Y-126500000D01*
X155102380Y-126738095D02*
X154102380Y-126738095D01*
X154102380Y-126357142D01*
X154150000Y-126261904D01*
X154197619Y-126214285D01*
X154292857Y-126166666D01*
X154435714Y-126166666D01*
X154530952Y-126214285D01*
X154578571Y-126261904D01*
X154626190Y-126357142D01*
X154626190Y-126738095D01*
X154530952Y-125595238D02*
X154483333Y-125690476D01*
X154435714Y-125738095D01*
X154340476Y-125785714D01*
X154292857Y-125785714D01*
X154197619Y-125738095D01*
X154150000Y-125690476D01*
X154102380Y-125595238D01*
X154102380Y-125404761D01*
X154150000Y-125309523D01*
X154197619Y-125261904D01*
X154292857Y-125214285D01*
X154340476Y-125214285D01*
X154435714Y-125261904D01*
X154483333Y-125309523D01*
X154530952Y-125404761D01*
X154530952Y-125595238D01*
X154578571Y-125690476D01*
X154626190Y-125738095D01*
X154721428Y-125785714D01*
X154911904Y-125785714D01*
X155007142Y-125738095D01*
X155054761Y-125690476D01*
X155102380Y-125595238D01*
X155102380Y-125404761D01*
X155054761Y-125309523D01*
X155007142Y-125261904D01*
X154911904Y-125214285D01*
X154721428Y-125214285D01*
X154626190Y-125261904D01*
X154578571Y-125309523D01*
X154530952Y-125404761D01*
%TO.C,BT3*%
X59571428Y-122640952D02*
X59571428Y-121879047D01*
X59571428Y-70570952D02*
X59571428Y-69809047D01*
X59952380Y-70190000D02*
X59190476Y-70190000D01*
%TO.C,C13*%
X149177142Y-126642857D02*
X149224761Y-126690476D01*
X149272380Y-126833333D01*
X149272380Y-126928571D01*
X149224761Y-127071428D01*
X149129523Y-127166666D01*
X149034285Y-127214285D01*
X148843809Y-127261904D01*
X148700952Y-127261904D01*
X148510476Y-127214285D01*
X148415238Y-127166666D01*
X148320000Y-127071428D01*
X148272380Y-126928571D01*
X148272380Y-126833333D01*
X148320000Y-126690476D01*
X148367619Y-126642857D01*
X149272380Y-125690476D02*
X149272380Y-126261904D01*
X149272380Y-125976190D02*
X148272380Y-125976190D01*
X148415238Y-126071428D01*
X148510476Y-126166666D01*
X148558095Y-126261904D01*
X148272380Y-125357142D02*
X148272380Y-124738095D01*
X148653333Y-125071428D01*
X148653333Y-124928571D01*
X148700952Y-124833333D01*
X148748571Y-124785714D01*
X148843809Y-124738095D01*
X149081904Y-124738095D01*
X149177142Y-124785714D01*
X149224761Y-124833333D01*
X149272380Y-124928571D01*
X149272380Y-125214285D01*
X149224761Y-125309523D01*
X149177142Y-125357142D01*
%TO.C,R10*%
X119102380Y-125730357D02*
X118626190Y-126063690D01*
X119102380Y-126301785D02*
X118102380Y-126301785D01*
X118102380Y-125920833D01*
X118150000Y-125825595D01*
X118197619Y-125777976D01*
X118292857Y-125730357D01*
X118435714Y-125730357D01*
X118530952Y-125777976D01*
X118578571Y-125825595D01*
X118626190Y-125920833D01*
X118626190Y-126301785D01*
X119102380Y-124777976D02*
X119102380Y-125349404D01*
X119102380Y-125063690D02*
X118102380Y-125063690D01*
X118245238Y-125158928D01*
X118340476Y-125254166D01*
X118388095Y-125349404D01*
X118102380Y-124158928D02*
X118102380Y-124063690D01*
X118150000Y-123968452D01*
X118197619Y-123920833D01*
X118292857Y-123873214D01*
X118483333Y-123825595D01*
X118721428Y-123825595D01*
X118911904Y-123873214D01*
X119007142Y-123920833D01*
X119054761Y-123968452D01*
X119102380Y-124063690D01*
X119102380Y-124158928D01*
X119054761Y-124254166D01*
X119007142Y-124301785D01*
X118911904Y-124349404D01*
X118721428Y-124397023D01*
X118483333Y-124397023D01*
X118292857Y-124349404D01*
X118197619Y-124301785D01*
X118150000Y-124254166D01*
X118102380Y-124158928D01*
%TO.C,R6*%
X110083333Y-70052380D02*
X109750000Y-69576190D01*
X109511904Y-70052380D02*
X109511904Y-69052380D01*
X109892857Y-69052380D01*
X109988095Y-69100000D01*
X110035714Y-69147619D01*
X110083333Y-69242857D01*
X110083333Y-69385714D01*
X110035714Y-69480952D01*
X109988095Y-69528571D01*
X109892857Y-69576190D01*
X109511904Y-69576190D01*
X110940476Y-69052380D02*
X110750000Y-69052380D01*
X110654761Y-69100000D01*
X110607142Y-69147619D01*
X110511904Y-69290476D01*
X110464285Y-69480952D01*
X110464285Y-69861904D01*
X110511904Y-69957142D01*
X110559523Y-70004761D01*
X110654761Y-70052380D01*
X110845238Y-70052380D01*
X110940476Y-70004761D01*
X110988095Y-69957142D01*
X111035714Y-69861904D01*
X111035714Y-69623809D01*
X110988095Y-69528571D01*
X110940476Y-69480952D01*
X110845238Y-69433333D01*
X110654761Y-69433333D01*
X110559523Y-69480952D01*
X110511904Y-69528571D01*
X110464285Y-69623809D01*
%TO.C,D4*%
X86531904Y-132492380D02*
X86531904Y-131492380D01*
X86770000Y-131492380D01*
X86912857Y-131540000D01*
X87008095Y-131635238D01*
X87055714Y-131730476D01*
X87103333Y-131920952D01*
X87103333Y-132063809D01*
X87055714Y-132254285D01*
X87008095Y-132349523D01*
X86912857Y-132444761D01*
X86770000Y-132492380D01*
X86531904Y-132492380D01*
X87960476Y-131825714D02*
X87960476Y-132492380D01*
X87722380Y-131444761D02*
X87484285Y-132159047D01*
X88103333Y-132159047D01*
%TO.C,C21*%
X147107142Y-63427142D02*
X147059523Y-63474761D01*
X146916666Y-63522380D01*
X146821428Y-63522380D01*
X146678571Y-63474761D01*
X146583333Y-63379523D01*
X146535714Y-63284285D01*
X146488095Y-63093809D01*
X146488095Y-62950952D01*
X146535714Y-62760476D01*
X146583333Y-62665238D01*
X146678571Y-62570000D01*
X146821428Y-62522380D01*
X146916666Y-62522380D01*
X147059523Y-62570000D01*
X147107142Y-62617619D01*
X147488095Y-62617619D02*
X147535714Y-62570000D01*
X147630952Y-62522380D01*
X147869047Y-62522380D01*
X147964285Y-62570000D01*
X148011904Y-62617619D01*
X148059523Y-62712857D01*
X148059523Y-62808095D01*
X148011904Y-62950952D01*
X147440476Y-63522380D01*
X148059523Y-63522380D01*
X149011904Y-63522380D02*
X148440476Y-63522380D01*
X148726190Y-63522380D02*
X148726190Y-62522380D01*
X148630952Y-62665238D01*
X148535714Y-62760476D01*
X148440476Y-62808095D01*
D12*
%TO.C,U5*%
X79440000Y-128500000D02*
X79440000Y-127700000D01*
X82560000Y-128500000D02*
X82560000Y-129300000D01*
X79440000Y-128500000D02*
X79440000Y-129300000D01*
X82560000Y-128500000D02*
X82560000Y-126700000D01*
%TO.C,R27*%
X71265000Y-126477064D02*
X71265000Y-126022936D01*
X72735000Y-126477064D02*
X72735000Y-126022936D01*
%TO.C,C16*%
X113061252Y-97735000D02*
X112538748Y-97735000D01*
X113061252Y-96265000D02*
X112538748Y-96265000D01*
%TO.C,J2*%
X117250000Y-134100000D02*
X116750000Y-134100000D01*
X116750000Y-134100000D02*
X117000000Y-134600000D01*
X117000000Y-134600000D02*
X117250000Y-134100000D01*
%TO.C,R4*%
X133735000Y-119772936D02*
X133735000Y-120227064D01*
X132265000Y-119772936D02*
X132265000Y-120227064D01*
%TO.C,R5*%
X127359165Y-91680282D02*
X127680282Y-91359165D01*
X126319718Y-90640835D02*
X126640835Y-90319718D01*
%TO.C,D7*%
X112502500Y-70290000D02*
X112502500Y-72210000D01*
X112502500Y-72210000D02*
X115187500Y-72210000D01*
X115187500Y-70290000D02*
X112502500Y-70290000D01*
%TO.C,R17*%
X119735000Y-64685436D02*
X119735000Y-65139564D01*
X118265000Y-64685436D02*
X118265000Y-65139564D01*
%TO.C,C1*%
X130795543Y-94665010D02*
X131165010Y-94295543D01*
X131834990Y-95704457D02*
X132204457Y-95334990D01*
%TO.C,R7*%
X114477064Y-74397500D02*
X114022936Y-74397500D01*
X114477064Y-72927500D02*
X114022936Y-72927500D01*
%TO.C,C9*%
X93761252Y-127265000D02*
X93238748Y-127265000D01*
X93761252Y-128735000D02*
X93238748Y-128735000D01*
%TO.C,L1*%
X116440000Y-128600378D02*
X116440000Y-129399622D01*
X117560000Y-128600378D02*
X117560000Y-129399622D01*
%TO.C,C4*%
X115261252Y-112485000D02*
X114738748Y-112485000D01*
X115261252Y-111015000D02*
X114738748Y-111015000D01*
%TO.C,R1*%
X143235000Y-120227064D02*
X143235000Y-119772936D01*
X141765000Y-120227064D02*
X141765000Y-119772936D01*
%TO.C,BT1*%
X83500000Y-120000000D02*
X83500000Y-117000000D01*
X83500000Y-89000000D02*
X83500000Y-103000000D01*
X86500000Y-116000000D02*
X92500000Y-116000000D01*
X93500000Y-77000000D02*
X93500000Y-87000000D01*
X87500000Y-73000000D02*
X87500000Y-72000000D01*
X91500000Y-115000000D02*
X87500000Y-115000000D01*
X95500000Y-103000000D02*
X95500000Y-89000000D01*
X82900000Y-71200000D02*
X82900000Y-121400000D01*
X85500000Y-115000000D02*
X85500000Y-105000000D01*
X95500000Y-72000000D02*
X95500000Y-75000000D01*
X95500000Y-72000000D02*
X83500000Y-72000000D01*
X83500000Y-72000000D02*
X83500000Y-75000000D01*
X82900000Y-121400000D02*
X96100000Y-121400000D01*
X96100000Y-71200000D02*
X82900000Y-71200000D01*
X91500000Y-72000000D02*
X91500000Y-73000000D01*
X93500000Y-117000000D02*
X85500000Y-117000000D01*
X90500000Y-114000000D02*
X88500000Y-114000000D01*
X96100000Y-121400000D02*
X96100000Y-71200000D01*
X85500000Y-77000000D02*
X85500000Y-87000000D01*
X93500000Y-115000000D02*
X93500000Y-105000000D01*
X95500000Y-120000000D02*
X83500000Y-120000000D01*
X95500000Y-120000000D02*
X95500000Y-117000000D01*
X95500000Y-103000000D02*
G75*
G03*
X93500000Y-105000000I-1J-1999999D01*
G01*
X93500000Y-115000000D02*
G75*
G03*
X95500000Y-117000000I1999999J-1D01*
G01*
X85500000Y-105000000D02*
G75*
G03*
X83500000Y-103000000I-1999999J1D01*
G01*
X83500000Y-117000000D02*
G75*
G03*
X85500000Y-115000000I1J1999999D01*
G01*
X83500000Y-89000000D02*
G75*
G03*
X85500000Y-87000000I1J1999999D01*
G01*
X85500000Y-77000000D02*
G75*
G03*
X83500000Y-75000000I-1999999J1D01*
G01*
X93500000Y-87000000D02*
G75*
G03*
X95500000Y-89000000I1999999J-1D01*
G01*
X95500000Y-75000000D02*
G75*
G03*
X93500000Y-77000000I-1J-1999999D01*
G01*
%TO.C,R11*%
X139685436Y-92765000D02*
X140139564Y-92765000D01*
X139685436Y-94235000D02*
X140139564Y-94235000D01*
%TO.C,C18*%
X99265000Y-103738748D02*
X99265000Y-104261252D01*
X100735000Y-103738748D02*
X100735000Y-104261252D01*
%TO.C,U4*%
X96440000Y-128250000D02*
X96440000Y-129050000D01*
X96440000Y-128250000D02*
X96440000Y-127450000D01*
X99560000Y-128250000D02*
X99560000Y-126450000D01*
X99560000Y-128250000D02*
X99560000Y-129050000D01*
%TO.C,C23*%
X109265000Y-65011252D02*
X109265000Y-64488748D01*
X110735000Y-65011252D02*
X110735000Y-64488748D01*
%TO.C,R12*%
X114977064Y-65015000D02*
X114522936Y-65015000D01*
X114977064Y-66485000D02*
X114522936Y-66485000D01*
%TO.C,R19*%
X111772936Y-130765000D02*
X112227064Y-130765000D01*
X111772936Y-132235000D02*
X112227064Y-132235000D01*
%TO.C,BT2*%
X73500000Y-78750000D02*
X75500000Y-78750000D01*
X78500000Y-115750000D02*
X78500000Y-105750000D01*
X70500000Y-115750000D02*
X70500000Y-105750000D01*
X67900000Y-71350000D02*
X67900000Y-121550000D01*
X80500000Y-103750000D02*
X80500000Y-89750000D01*
X78500000Y-77750000D02*
X78500000Y-87750000D01*
X80500000Y-120750000D02*
X80500000Y-117750000D01*
X81100000Y-71350000D02*
X67900000Y-71350000D01*
X68500000Y-72750000D02*
X80500000Y-72750000D01*
X81100000Y-121550000D02*
X81100000Y-71350000D01*
X68500000Y-89750000D02*
X68500000Y-103750000D01*
X68500000Y-120750000D02*
X80500000Y-120750000D01*
X68500000Y-72750000D02*
X68500000Y-75750000D01*
X76500000Y-119750000D02*
X76500000Y-120750000D01*
X68500000Y-120750000D02*
X68500000Y-117750000D01*
X72500000Y-120750000D02*
X72500000Y-119750000D01*
X70500000Y-75750000D02*
X78500000Y-75750000D01*
X72500000Y-77750000D02*
X76500000Y-77750000D01*
X80500000Y-72750000D02*
X80500000Y-75750000D01*
X70500000Y-77750000D02*
X70500000Y-87750000D01*
X77500000Y-76750000D02*
X71500000Y-76750000D01*
X67900000Y-121550000D02*
X81100000Y-121550000D01*
X80500000Y-103750000D02*
G75*
G03*
X78500000Y-105750000I-1J-1999999D01*
G01*
X68500000Y-89750000D02*
G75*
G03*
X70500000Y-87750000I1J1999999D01*
G01*
X70500000Y-105750000D02*
G75*
G03*
X68500000Y-103750000I-1999999J1D01*
G01*
X78500000Y-87750000D02*
G75*
G03*
X80500000Y-89750000I1999999J-1D01*
G01*
X70500000Y-77750000D02*
G75*
G03*
X68500000Y-75750000I-1999999J1D01*
G01*
X68500000Y-117750000D02*
G75*
G03*
X70500000Y-115750000I1J1999999D01*
G01*
X80500000Y-75750000D02*
G75*
G03*
X78500000Y-77750000I-1J-1999999D01*
G01*
X78500000Y-115750000D02*
G75*
G03*
X80500000Y-117750000I1999999J-1D01*
G01*
%TO.C,C10*%
X125485000Y-115438748D02*
X125485000Y-115961252D01*
X124015000Y-115438748D02*
X124015000Y-115961252D01*
%TO.C,R2*%
X138735000Y-119772936D02*
X138735000Y-120227064D01*
X137265000Y-119772936D02*
X137265000Y-120227064D01*
%TO.C,R23*%
X101727064Y-131015000D02*
X101272936Y-131015000D01*
X101727064Y-132485000D02*
X101272936Y-132485000D01*
%TO.C,Q2*%
X122750000Y-66940000D02*
X123400000Y-66940000D01*
X122750000Y-70060000D02*
X123400000Y-70060000D01*
X122750000Y-70060000D02*
X122100000Y-70060000D01*
X122750000Y-66940000D02*
X121075000Y-66940000D01*
%TO.C,R14*%
X128772936Y-136235000D02*
X129227064Y-136235000D01*
X128772936Y-134765000D02*
X129227064Y-134765000D01*
%TO.C,J6*%
X77250000Y-134100000D02*
X76750000Y-134100000D01*
X77000000Y-134600000D02*
X77250000Y-134100000D01*
X76750000Y-134100000D02*
X77000000Y-134600000D01*
%TO.C,U3*%
X104610000Y-75250000D02*
X104610000Y-73250000D01*
X102390000Y-74250000D02*
X102390000Y-73250000D01*
%TO.C,C8*%
X101735000Y-127988748D02*
X101735000Y-128511252D01*
X100265000Y-127988748D02*
X100265000Y-128511252D01*
%TO.C,C22*%
X105765000Y-65011252D02*
X105765000Y-64488748D01*
X107235000Y-65011252D02*
X107235000Y-64488748D01*
%TO.C,D2*%
X108040000Y-135080000D02*
X108040000Y-135210000D01*
X109330000Y-135210000D02*
X109730000Y-135210000D01*
X108040000Y-135210000D02*
X108040000Y-135080000D01*
X105500000Y-135080000D02*
X105500000Y-135210000D01*
X105500000Y-135080000D02*
X105500000Y-135080000D01*
X105500000Y-135210000D02*
X105500000Y-135080000D01*
X105500000Y-135210000D02*
X105500000Y-135210000D01*
X104210000Y-135210000D02*
X109330000Y-135210000D01*
X109330000Y-136330000D02*
X109330000Y-135210000D01*
X108040000Y-135210000D02*
X108040000Y-135210000D01*
X104210000Y-135210000D02*
X104210000Y-141370000D01*
X108040000Y-135080000D02*
X108040000Y-135080000D01*
X109730000Y-135210000D02*
X109730000Y-136330000D01*
X109330000Y-135210000D02*
X109330000Y-141370000D01*
X109730000Y-136330000D02*
X109330000Y-136330000D01*
X104210000Y-141370000D02*
G75*
G03*
X109330000Y-141370000I2560000J0D01*
G01*
%TO.C,TR1*%
X129235000Y-60250000D02*
X115765000Y-60250000D01*
X115765000Y-51750000D02*
X129235000Y-51750000D01*
X116380000Y-51750000D02*
X116880000Y-52150000D01*
X129235000Y-51750000D02*
X129235000Y-60250000D01*
X116880000Y-52150000D02*
X117380000Y-51750000D01*
X115765000Y-60250000D02*
X115765000Y-51750000D01*
%TO.C,C25*%
X110735000Y-108238748D02*
X110735000Y-108761252D01*
X109265000Y-108238748D02*
X109265000Y-108761252D01*
%TO.C,J5*%
X97000000Y-134600000D02*
X97250000Y-134100000D01*
X96750000Y-134100000D02*
X97000000Y-134600000D01*
X97250000Y-134100000D02*
X96750000Y-134100000D01*
%TO.C,Y1*%
X126669060Y-93247487D02*
X129002513Y-95580940D01*
X129002513Y-95580940D02*
X131830940Y-92752513D01*
%TO.C,C19*%
X108015000Y-74488748D02*
X108015000Y-75011252D01*
X109485000Y-74488748D02*
X109485000Y-75011252D01*
%TO.C,R20*%
X100735000Y-95022936D02*
X100735000Y-95477064D01*
X99265000Y-95022936D02*
X99265000Y-95477064D01*
%TO.C,C3*%
X106985000Y-74488748D02*
X106985000Y-75011252D01*
X105515000Y-74488748D02*
X105515000Y-75011252D01*
%TO.C,R3*%
X136235000Y-120227064D02*
X136235000Y-119772936D01*
X134765000Y-120227064D02*
X134765000Y-119772936D01*
%TO.C,R25*%
X93735000Y-131139564D02*
X93735000Y-130685436D01*
X92265000Y-131139564D02*
X92265000Y-130685436D01*
%TO.C,C20*%
X105011252Y-71985000D02*
X104488748Y-71985000D01*
X105011252Y-70515000D02*
X104488748Y-70515000D01*
%TO.C,C7*%
X109985000Y-100761252D02*
X109985000Y-100238748D01*
X108515000Y-100761252D02*
X108515000Y-100238748D01*
%TO.C,J1*%
X148250000Y-132515000D02*
X148250000Y-144915000D01*
X148250000Y-123085000D02*
X148250000Y-129215000D01*
X131550000Y-125005000D02*
X131050000Y-124505000D01*
X131750000Y-144915000D02*
X148250000Y-144915000D01*
X131750000Y-123085000D02*
X131750000Y-129215000D01*
X131050000Y-125505000D02*
X131550000Y-125005000D01*
X131750000Y-132515000D02*
X131750000Y-144915000D01*
X131750000Y-123085000D02*
X148250000Y-123085000D01*
X131050000Y-124505000D02*
X131050000Y-125505000D01*
%TO.C,R9*%
X134227064Y-107735000D02*
X133772936Y-107735000D01*
X134227064Y-106265000D02*
X133772936Y-106265000D01*
%TO.C,D3*%
X86000000Y-132080000D02*
X86000000Y-132080000D01*
X90230000Y-135870000D02*
X89830000Y-135870000D01*
X88540000Y-134750000D02*
X88540000Y-134750000D01*
X90230000Y-134750000D02*
X90230000Y-135870000D01*
X89830000Y-134750000D02*
X90230000Y-134750000D01*
X88540000Y-134750000D02*
X88540000Y-132080000D01*
X86000000Y-134750000D02*
X86000000Y-134750000D01*
X84710000Y-134750000D02*
X89830000Y-134750000D01*
X89830000Y-135870000D02*
X89830000Y-134750000D01*
X84710000Y-134750000D02*
X84710000Y-140910000D01*
X86000000Y-134750000D02*
X86000000Y-132080000D01*
X86000000Y-132080000D02*
X86000000Y-134750000D01*
X89830000Y-134750000D02*
X89830000Y-140910000D01*
X88540000Y-132080000D02*
X88540000Y-134750000D01*
X88540000Y-132080000D02*
X88540000Y-132080000D01*
X84710000Y-140910000D02*
G75*
G03*
X89830000Y-140910000I2560000J0D01*
G01*
%TO.C,SW1*%
X133210000Y-87210000D02*
X133210000Y-86930000D01*
X126790000Y-87210000D02*
X133210000Y-87210000D01*
X126790000Y-80790000D02*
X126790000Y-81200000D01*
X126790000Y-82800000D02*
X126790000Y-85200000D01*
X126790000Y-86800000D02*
X126790000Y-87210000D01*
X133210000Y-85200000D02*
X133210000Y-82800000D01*
X133210000Y-81200000D02*
X133210000Y-80790000D01*
X133210000Y-80790000D02*
X126790000Y-80790000D01*
%TO.C,C5*%
X130235000Y-111688748D02*
X130235000Y-112211252D01*
X128765000Y-111688748D02*
X128765000Y-112211252D01*
%TO.C,C12*%
X124015000Y-120011252D02*
X124015000Y-119488748D01*
X125485000Y-120011252D02*
X125485000Y-119488748D01*
%TO.C,C15*%
X133334990Y-97204457D02*
X133704457Y-96834990D01*
X132295543Y-96165010D02*
X132665010Y-95795543D01*
%TO.C,D6*%
X68540000Y-135080000D02*
X68540000Y-135080000D01*
X69830000Y-136330000D02*
X69830000Y-135210000D01*
X66000000Y-135210000D02*
X66000000Y-135210000D01*
X66000000Y-135080000D02*
X66000000Y-135080000D01*
X68540000Y-135080000D02*
X68540000Y-135210000D01*
X69830000Y-135210000D02*
X69830000Y-141370000D01*
X66000000Y-135210000D02*
X66000000Y-135080000D01*
X64710000Y-135210000D02*
X69830000Y-135210000D01*
X66000000Y-135080000D02*
X66000000Y-135210000D01*
X70230000Y-135210000D02*
X70230000Y-136330000D01*
X70230000Y-136330000D02*
X69830000Y-136330000D01*
X69830000Y-135210000D02*
X70230000Y-135210000D01*
X68540000Y-135210000D02*
X68540000Y-135080000D01*
X68540000Y-135210000D02*
X68540000Y-135210000D01*
X64710000Y-135210000D02*
X64710000Y-141370000D01*
X64710000Y-141370000D02*
G75*
G03*
X69830000Y-141370000I2560000J0D01*
G01*
%TO.C,BT4*%
X58000000Y-59000000D02*
X58000000Y-65000000D01*
X101000000Y-60000000D02*
X102000000Y-60000000D01*
X59000000Y-64000000D02*
X59000000Y-60000000D01*
X102000000Y-68000000D02*
X99000000Y-68000000D01*
X102000000Y-68000000D02*
X102000000Y-56000000D01*
X71000000Y-68000000D02*
X85000000Y-68000000D01*
X57000000Y-66000000D02*
X57000000Y-58000000D01*
X102800000Y-68600000D02*
X102800000Y-55400000D01*
X54000000Y-68000000D02*
X54000000Y-56000000D01*
X59000000Y-58000000D02*
X69000000Y-58000000D01*
X59000000Y-66000000D02*
X69000000Y-66000000D01*
X102000000Y-64000000D02*
X101000000Y-64000000D01*
X54000000Y-56000000D02*
X57000000Y-56000000D01*
X102800000Y-55400000D02*
X52600000Y-55400000D01*
X52600000Y-55400000D02*
X52600000Y-68600000D01*
X54000000Y-68000000D02*
X57000000Y-68000000D01*
X52600000Y-68600000D02*
X102800000Y-68600000D01*
X102000000Y-56000000D02*
X99000000Y-56000000D01*
X85000000Y-56000000D02*
X71000000Y-56000000D01*
X97000000Y-58000000D02*
X87000000Y-58000000D01*
X60000000Y-63000000D02*
X60000000Y-61000000D01*
X97000000Y-66000000D02*
X87000000Y-66000000D01*
X97000000Y-58000000D02*
G75*
G03*
X99000000Y-56000000I1J1999999D01*
G01*
X99000000Y-68000000D02*
G75*
G03*
X97000000Y-66000000I-1999999J1D01*
G01*
X57000000Y-56000000D02*
G75*
G03*
X59000000Y-58000000I1999999J-1D01*
G01*
X59000000Y-66000000D02*
G75*
G03*
X57000000Y-68000000I-1J-1999999D01*
G01*
X71000000Y-68000000D02*
G75*
G03*
X69000000Y-66000000I-1999999J1D01*
G01*
X87000000Y-66000000D02*
G75*
G03*
X85000000Y-68000000I-1J-1999999D01*
G01*
X69000000Y-58000000D02*
G75*
G03*
X71000000Y-56000000I1J1999999D01*
G01*
X85000000Y-56000000D02*
G75*
G03*
X87000000Y-58000000I1999999J-1D01*
G01*
%TO.C,U7*%
X131515000Y-72370000D02*
X137985000Y-72370000D01*
X137985000Y-72370000D02*
X137985000Y-64630000D01*
X137985000Y-64630000D02*
X135750000Y-64630000D01*
X133750000Y-64630000D02*
X131515000Y-64630000D01*
X131515000Y-64630000D02*
X131515000Y-72370000D01*
X133750000Y-64630000D02*
G75*
G03*
X135750000Y-64630000I1000000J0D01*
G01*
%TO.C,C11*%
X124795543Y-89165010D02*
X125165010Y-88795543D01*
X125834990Y-90204457D02*
X126204457Y-89834990D01*
%TO.C,U1*%
X112316173Y-102628769D02*
X111944942Y-103000000D01*
X132055058Y-103000000D02*
X131683827Y-102628769D01*
X121628769Y-93316173D02*
X122000000Y-92944942D01*
X111944942Y-103000000D02*
X112316173Y-103371231D01*
X122000000Y-92944942D02*
X122371231Y-93316173D01*
X112316173Y-103371231D02*
X111404005Y-104283399D01*
X122371231Y-112683827D02*
X122000000Y-113055058D01*
X131683827Y-103371231D02*
X132055058Y-103000000D01*
X122000000Y-113055058D02*
X121628769Y-112683827D01*
%TO.C,R24*%
X89235000Y-126727064D02*
X89235000Y-126272936D01*
X87765000Y-126727064D02*
X87765000Y-126272936D01*
%TO.C,U6*%
X120890000Y-75000000D02*
X120890000Y-73500000D01*
X124110000Y-75000000D02*
X124110000Y-73500000D01*
X120890000Y-75000000D02*
X120890000Y-77925000D01*
X124110000Y-75000000D02*
X124110000Y-76500000D01*
%TO.C,Q1*%
X118250000Y-72810000D02*
X119925000Y-72810000D01*
X118250000Y-69690000D02*
X117600000Y-69690000D01*
X118250000Y-72810000D02*
X117600000Y-72810000D01*
X118250000Y-69690000D02*
X118900000Y-69690000D01*
%TO.C,R26*%
X69235000Y-126477064D02*
X69235000Y-126022936D01*
X67765000Y-126477064D02*
X67765000Y-126022936D01*
%TO.C,D5*%
X69830000Y-134750000D02*
X70230000Y-134750000D01*
X70230000Y-134750000D02*
X70230000Y-135870000D01*
X64710000Y-134750000D02*
X64710000Y-140910000D01*
X66000000Y-134750000D02*
X66000000Y-134750000D01*
X66000000Y-134750000D02*
X66000000Y-132080000D01*
X70230000Y-135870000D02*
X69830000Y-135870000D01*
X66000000Y-132080000D02*
X66000000Y-134750000D01*
X64710000Y-134750000D02*
X69830000Y-134750000D01*
X69830000Y-134750000D02*
X69830000Y-140910000D01*
X68540000Y-132080000D02*
X68540000Y-132080000D01*
X68540000Y-132080000D02*
X68540000Y-134750000D01*
X66000000Y-132080000D02*
X66000000Y-132080000D01*
X69830000Y-135870000D02*
X69830000Y-134750000D01*
X68540000Y-134750000D02*
X68540000Y-134750000D01*
X68540000Y-134750000D02*
X68540000Y-132080000D01*
X64710000Y-140910000D02*
G75*
G03*
X69830000Y-140910000I2560000J0D01*
G01*
%TO.C,J3*%
X122405000Y-88595000D02*
X109585000Y-88595000D01*
X109585000Y-83395000D02*
X109585000Y-88595000D01*
X119805000Y-85995000D02*
X122405000Y-85995000D01*
X122405000Y-83395000D02*
X122405000Y-84725000D01*
X122405000Y-85995000D02*
X122405000Y-88595000D01*
X121075000Y-83395000D02*
X122405000Y-83395000D01*
X119805000Y-83395000D02*
X109585000Y-83395000D01*
X119805000Y-83395000D02*
X119805000Y-85995000D01*
%TO.C,R16*%
X99265000Y-99272936D02*
X99265000Y-99727064D01*
X100735000Y-99272936D02*
X100735000Y-99727064D01*
%TO.C,C24*%
X150261252Y-117515000D02*
X149738748Y-117515000D01*
X150261252Y-118985000D02*
X149738748Y-118985000D01*
%TO.C,U2*%
X103040000Y-118840000D02*
X112960000Y-118840000D01*
X103040000Y-118840000D02*
X103040000Y-118990000D01*
X103040000Y-129160000D02*
X112960000Y-129160000D01*
X112960000Y-129010000D02*
X112960000Y-129160000D01*
X103040000Y-129010000D02*
X103040000Y-129160000D01*
X112960000Y-118840000D02*
X112960000Y-118990000D01*
X102350000Y-118990000D02*
X103040000Y-118990000D01*
%TO.C,D9*%
X108100000Y-54650000D02*
X113500000Y-54650000D01*
X108100000Y-51350000D02*
X113500000Y-51350000D01*
X108100000Y-51350000D02*
X108100000Y-54650000D01*
%TO.C,D1*%
X105500000Y-134750000D02*
X105500000Y-132080000D01*
X105500000Y-134750000D02*
X105500000Y-134750000D01*
X108040000Y-132080000D02*
X108040000Y-134750000D01*
X104210000Y-134750000D02*
X104210000Y-140910000D01*
X109330000Y-135870000D02*
X109330000Y-134750000D01*
X109730000Y-135870000D02*
X109330000Y-135870000D01*
X108040000Y-132080000D02*
X108040000Y-132080000D01*
X104210000Y-134750000D02*
X109330000Y-134750000D01*
X108040000Y-134750000D02*
X108040000Y-134750000D01*
X105500000Y-132080000D02*
X105500000Y-132080000D01*
X105500000Y-132080000D02*
X105500000Y-134750000D01*
X109330000Y-134750000D02*
X109330000Y-140910000D01*
X109730000Y-134750000D02*
X109730000Y-135870000D01*
X109330000Y-134750000D02*
X109730000Y-134750000D01*
X108040000Y-134750000D02*
X108040000Y-132080000D01*
X104210000Y-140910000D02*
G75*
G03*
X109330000Y-140910000I2560000J0D01*
G01*
%TO.C,C17*%
X113061252Y-93765000D02*
X112538748Y-93765000D01*
X113061252Y-95235000D02*
X112538748Y-95235000D01*
%TO.C,R8*%
X153735000Y-125772936D02*
X153735000Y-126227064D01*
X152265000Y-125772936D02*
X152265000Y-126227064D01*
%TO.C,BT3*%
X61500000Y-72000000D02*
X61500000Y-73000000D01*
X65500000Y-120000000D02*
X65500000Y-117000000D01*
X52900000Y-71200000D02*
X52900000Y-121400000D01*
X66100000Y-121400000D02*
X66100000Y-71200000D01*
X60500000Y-114000000D02*
X58500000Y-114000000D01*
X63500000Y-77000000D02*
X63500000Y-87000000D01*
X65500000Y-103000000D02*
X65500000Y-89000000D01*
X57500000Y-73000000D02*
X57500000Y-72000000D01*
X65500000Y-72000000D02*
X53500000Y-72000000D01*
X66100000Y-71200000D02*
X52900000Y-71200000D01*
X53500000Y-72000000D02*
X53500000Y-75000000D01*
X63500000Y-115000000D02*
X63500000Y-105000000D01*
X56500000Y-116000000D02*
X62500000Y-116000000D01*
X52900000Y-121400000D02*
X66100000Y-121400000D01*
X61500000Y-115000000D02*
X57500000Y-115000000D01*
X55500000Y-115000000D02*
X55500000Y-105000000D01*
X53500000Y-89000000D02*
X53500000Y-103000000D01*
X65500000Y-120000000D02*
X53500000Y-120000000D01*
X63500000Y-117000000D02*
X55500000Y-117000000D01*
X53500000Y-120000000D02*
X53500000Y-117000000D01*
X65500000Y-72000000D02*
X65500000Y-75000000D01*
X55500000Y-77000000D02*
X55500000Y-87000000D01*
X55500000Y-77000000D02*
G75*
G03*
X53500000Y-75000000I-1999999J1D01*
G01*
X63500000Y-87000000D02*
G75*
G03*
X65500000Y-89000000I1999999J-1D01*
G01*
X53500000Y-89000000D02*
G75*
G03*
X55500000Y-87000000I1J1999999D01*
G01*
X63500000Y-115000000D02*
G75*
G03*
X65500000Y-117000000I1999999J-1D01*
G01*
X65500000Y-75000000D02*
G75*
G03*
X63500000Y-77000000I-1J-1999999D01*
G01*
X53500000Y-117000000D02*
G75*
G03*
X55500000Y-115000000I1J1999999D01*
G01*
X55500000Y-105000000D02*
G75*
G03*
X53500000Y-103000000I-1999999J1D01*
G01*
X65500000Y-103000000D02*
G75*
G03*
X63500000Y-105000000I-1J-1999999D01*
G01*
%TO.C,C14*%
X121235000Y-128738748D02*
X121235000Y-129261252D01*
X119765000Y-128738748D02*
X119765000Y-129261252D01*
%TO.C,R15*%
X125265000Y-71977064D02*
X125265000Y-71522936D01*
X126735000Y-71977064D02*
X126735000Y-71522936D01*
%TO.C,C2*%
X131165010Y-91204457D02*
X130795543Y-90834990D01*
X132204457Y-90165010D02*
X131834990Y-89795543D01*
%TO.C,C13*%
X151235000Y-126261252D02*
X151235000Y-125738748D01*
X149765000Y-126261252D02*
X149765000Y-125738748D01*
%TO.C,R10*%
X117735000Y-124860436D02*
X117735000Y-125314564D01*
X116265000Y-124860436D02*
X116265000Y-125314564D01*
%TO.C,R6*%
X110022936Y-71985000D02*
X110477064Y-71985000D01*
X110022936Y-70515000D02*
X110477064Y-70515000D01*
%TO.C,D4*%
X84710000Y-135210000D02*
X84710000Y-141370000D01*
X88540000Y-135210000D02*
X88540000Y-135210000D01*
X84710000Y-135210000D02*
X89830000Y-135210000D01*
X89830000Y-135210000D02*
X89830000Y-141370000D01*
X88540000Y-135210000D02*
X88540000Y-135080000D01*
X86000000Y-135080000D02*
X86000000Y-135080000D01*
X86000000Y-135210000D02*
X86000000Y-135080000D01*
X89830000Y-135210000D02*
X90230000Y-135210000D01*
X88540000Y-135080000D02*
X88540000Y-135210000D01*
X86000000Y-135080000D02*
X86000000Y-135210000D01*
X90230000Y-136330000D02*
X89830000Y-136330000D01*
X89830000Y-136330000D02*
X89830000Y-135210000D01*
X88540000Y-135080000D02*
X88540000Y-135080000D01*
X90230000Y-135210000D02*
X90230000Y-136330000D01*
X86000000Y-135210000D02*
X86000000Y-135210000D01*
X84710000Y-141370000D02*
G75*
G03*
X89830000Y-141370000I2560000J0D01*
G01*
%TO.C,C6*%
X74015000Y-129738748D02*
X74015000Y-130261252D01*
X75485000Y-129738748D02*
X75485000Y-130261252D01*
%TO.C,C21*%
X147488748Y-64015000D02*
X148011252Y-64015000D01*
X147488748Y-65485000D02*
X148011252Y-65485000D01*
%TO.C,R13*%
X128772936Y-138735000D02*
X129227064Y-138735000D01*
X128772936Y-137265000D02*
X129227064Y-137265000D01*
%TD*%
M02*
