%TF.GenerationSoftware,KiCad,Pcbnew,6.0.2+dfsg-1*%
%TF.CreationDate,2023-05-24T12:36:41-05:00*%
%TF.ProjectId,ethernet,65746865-726e-4657-942e-6b696361645f,rev?*%
%TF.SameCoordinates,Original*%
%TF.FileFunction,Paste,Top*%
%TF.FilePolarity,Positive*%
%FSLAX46Y46*%
G04 Gerber Fmt 4.6, Leading zero omitted, Abs format (unit mm)*
G04 Created by KiCad (PCBNEW 6.0.2+dfsg-1) date 2023-05-24 12:36:41*
%MOMM*%
%LPD*%
G01*
G04 APERTURE LIST*
G04 Aperture macros list*
%AMRoundRect*
0 Rectangle with rounded corners*
0 $1 Rounding radius*
0 $2 $3 $4 $5 $6 $7 $8 $9 X,Y pos of 4 corners*
0 Add a 4 corners polygon primitive as box body*
4,1,4,$2,$3,$4,$5,$6,$7,$8,$9,$2,$3,0*
0 Add four circle primitives for the rounded corners*
1,1,$1+$1,$2,$3*
1,1,$1+$1,$4,$5*
1,1,$1+$1,$6,$7*
1,1,$1+$1,$8,$9*
0 Add four rect primitives between the rounded corners*
20,1,$1+$1,$2,$3,$4,$5,0*
20,1,$1+$1,$4,$5,$6,$7,0*
20,1,$1+$1,$6,$7,$8,$9,0*
20,1,$1+$1,$8,$9,$2,$3,0*%
%AMRotRect*
0 Rectangle, with rotation*
0 The origin of the aperture is its center*
0 $1 length*
0 $2 width*
0 $3 Rotation angle, in degrees counterclockwise*
0 Add horizontal line*
21,1,$1,$2,0,0,$3*%
G04 Aperture macros list end*
%ADD10RoundRect,0.250000X-0.250000X-0.475000X0.250000X-0.475000X0.250000X0.475000X-0.250000X0.475000X0*%
%ADD11RoundRect,0.150000X-0.150000X0.512500X-0.150000X-0.512500X0.150000X-0.512500X0.150000X0.512500X0*%
%ADD12RoundRect,0.150000X-0.150000X0.587500X-0.150000X-0.587500X0.150000X-0.587500X0.150000X0.587500X0*%
%ADD13RoundRect,0.250000X0.450000X-0.262500X0.450000X0.262500X-0.450000X0.262500X-0.450000X-0.262500X0*%
%ADD14RoundRect,0.250000X0.250000X0.475000X-0.250000X0.475000X-0.250000X-0.475000X0.250000X-0.475000X0*%
%ADD15R,1.780000X4.190000*%
%ADD16R,2.665000X4.190000*%
%ADD17RoundRect,0.250000X-0.450000X0.262500X-0.450000X-0.262500X0.450000X-0.262500X0.450000X0.262500X0*%
%ADD18RoundRect,0.250000X0.132583X-0.503814X0.503814X-0.132583X-0.132583X0.503814X-0.503814X0.132583X0*%
%ADD19R,0.900000X0.800000*%
%ADD20RoundRect,0.243750X0.243750X0.456250X-0.243750X0.456250X-0.243750X-0.456250X0.243750X-0.456250X0*%
%ADD21RoundRect,0.250000X0.159099X-0.512652X0.512652X-0.159099X-0.159099X0.512652X-0.512652X0.159099X0*%
%ADD22RoundRect,0.150000X0.587500X0.150000X-0.587500X0.150000X-0.587500X-0.150000X0.587500X-0.150000X0*%
%ADD23RoundRect,0.250000X-0.262500X-0.450000X0.262500X-0.450000X0.262500X0.450000X-0.262500X0.450000X0*%
%ADD24RoundRect,0.250000X-1.100000X0.325000X-1.100000X-0.325000X1.100000X-0.325000X1.100000X0.325000X0*%
%ADD25RoundRect,0.218750X-0.381250X0.218750X-0.381250X-0.218750X0.381250X-0.218750X0.381250X0.218750X0*%
%ADD26RoundRect,0.250000X0.262500X0.450000X-0.262500X0.450000X-0.262500X-0.450000X0.262500X-0.450000X0*%
%ADD27RoundRect,0.150000X0.150000X-0.587500X0.150000X0.587500X-0.150000X0.587500X-0.150000X-0.587500X0*%
%ADD28RoundRect,0.250000X-0.475000X0.250000X-0.475000X-0.250000X0.475000X-0.250000X0.475000X0.250000X0*%
%ADD29RoundRect,0.160000X-0.160000X0.245000X-0.160000X-0.245000X0.160000X-0.245000X0.160000X0.245000X0*%
%ADD30RoundRect,0.093750X-0.106250X0.093750X-0.106250X-0.093750X0.106250X-0.093750X0.106250X0.093750X0*%
%ADD31R,1.830000X1.090000*%
%ADD32RoundRect,0.054500X0.860500X0.490500X-0.860500X0.490500X-0.860500X-0.490500X0.860500X-0.490500X0*%
%ADD33RotRect,1.400000X1.200000X45.000000*%
%ADD34RoundRect,0.250000X0.475000X-0.250000X0.475000X0.250000X-0.475000X0.250000X-0.475000X-0.250000X0*%
%ADD35R,2.800000X1.000000*%
%ADD36RoundRect,0.250000X0.625000X-0.312500X0.625000X0.312500X-0.625000X0.312500X-0.625000X-0.312500X0*%
%ADD37R,2.000000X1.780000*%
%ADD38RoundRect,0.050000X-0.450781X-0.521491X0.521491X0.450781X0.450781X0.521491X-0.521491X-0.450781X0*%
%ADD39RoundRect,0.050000X0.450781X-0.521491X0.521491X-0.450781X-0.450781X0.521491X-0.521491X0.450781X0*%
%ADD40RoundRect,0.100000X-0.100000X0.712500X-0.100000X-0.712500X0.100000X-0.712500X0.100000X0.712500X0*%
%ADD41RoundRect,0.150000X-0.587500X-0.150000X0.587500X-0.150000X0.587500X0.150000X-0.587500X0.150000X0*%
%ADD42RoundRect,0.175000X-0.725000X-0.175000X0.725000X-0.175000X0.725000X0.175000X-0.725000X0.175000X0*%
%ADD43RoundRect,0.200000X-0.700000X-0.200000X0.700000X-0.200000X0.700000X0.200000X-0.700000X0.200000X0*%
%ADD44R,2.500000X1.800000*%
%ADD45RoundRect,0.250000X0.512652X0.159099X0.159099X0.512652X-0.512652X-0.159099X-0.159099X-0.512652X0*%
%ADD46R,1.500000X1.500000*%
%ADD47R,0.500000X0.750000*%
%ADD48R,0.400000X0.750000*%
G04 APERTURE END LIST*
D10*
%TO.C,C35*%
X123800000Y-75000000D03*
X125700000Y-75000000D03*
%TD*%
D11*
%TO.C,U5*%
X68950000Y-99862500D03*
X68000000Y-99862500D03*
X67050000Y-99862500D03*
X67050000Y-102137500D03*
X68000000Y-102137500D03*
X68950000Y-102137500D03*
%TD*%
D12*
%TO.C,Q13*%
X53700000Y-90812500D03*
X51800000Y-90812500D03*
X52750000Y-92687500D03*
%TD*%
D13*
%TO.C,R27*%
X59000000Y-99662500D03*
X59000000Y-97837500D03*
%TD*%
D14*
%TO.C,C16*%
X100750000Y-69500000D03*
X98850000Y-69500000D03*
%TD*%
D15*
%TO.C,J2*%
X104000000Y-109500000D03*
D16*
X100507500Y-109500000D03*
X107492500Y-109500000D03*
%TD*%
D17*
%TO.C,R4*%
X123000000Y-91587500D03*
X123000000Y-93412500D03*
%TD*%
D18*
%TO.C,R5*%
X113354765Y-64145235D03*
X114645235Y-62854765D03*
%TD*%
D13*
%TO.C,R21*%
X53750000Y-78412500D03*
X53750000Y-76587500D03*
%TD*%
D19*
%TO.C,D8*%
X62750000Y-84800000D03*
X60750000Y-85750000D03*
X62750000Y-86700000D03*
%TD*%
D20*
%TO.C,D7*%
X79000000Y-58500000D03*
X77125000Y-58500000D03*
%TD*%
D13*
%TO.C,R17*%
X73250000Y-65750000D03*
X73250000Y-63925000D03*
%TD*%
D21*
%TO.C,C1*%
X117578249Y-68421751D03*
X118921751Y-67078249D03*
%TD*%
D22*
%TO.C,Q7*%
X58937500Y-86200000D03*
X58937500Y-84300000D03*
X57062500Y-85250000D03*
%TD*%
D23*
%TO.C,R7*%
X77087500Y-56087500D03*
X78912500Y-56087500D03*
%TD*%
D24*
%TO.C,C30*%
X65750000Y-80025000D03*
X65750000Y-82975000D03*
%TD*%
D14*
%TO.C,C9*%
X81450000Y-100500000D03*
X79550000Y-100500000D03*
%TD*%
D25*
%TO.C,L1*%
X104000000Y-100437500D03*
X104000000Y-102562500D03*
%TD*%
D14*
%TO.C,C4*%
X102950000Y-84250000D03*
X101050000Y-84250000D03*
%TD*%
D26*
%TO.C,R1*%
X130662500Y-93250000D03*
X128837500Y-93250000D03*
%TD*%
D23*
%TO.C,R11*%
X123837500Y-66000000D03*
X125662500Y-66000000D03*
%TD*%
D10*
%TO.C,C31*%
X56550000Y-88500000D03*
X58450000Y-88500000D03*
%TD*%
%TO.C,C18*%
X90800000Y-78000000D03*
X92700000Y-78000000D03*
%TD*%
D27*
%TO.C,Q9*%
X68800000Y-86187500D03*
X70700000Y-86187500D03*
X69750000Y-84312500D03*
%TD*%
D11*
%TO.C,U4*%
X85950000Y-99612500D03*
X85000000Y-99612500D03*
X84050000Y-99612500D03*
X84050000Y-101887500D03*
X85000000Y-101887500D03*
X85950000Y-101887500D03*
%TD*%
D17*
%TO.C,R30*%
X68000000Y-90837500D03*
X68000000Y-92662500D03*
%TD*%
D28*
%TO.C,C23*%
X82250000Y-63550000D03*
X82250000Y-65450000D03*
%TD*%
D26*
%TO.C,R12*%
X78412500Y-64000000D03*
X76587500Y-64000000D03*
%TD*%
D12*
%TO.C,Q5*%
X74200000Y-80062500D03*
X72300000Y-80062500D03*
X73250000Y-81937500D03*
%TD*%
D23*
%TO.C,R19*%
X98087500Y-104000000D03*
X99912500Y-104000000D03*
%TD*%
D13*
%TO.C,R33*%
X55500000Y-92662500D03*
X55500000Y-90837500D03*
%TD*%
D27*
%TO.C,Q8*%
X72300000Y-86187500D03*
X74200000Y-86187500D03*
X73250000Y-84312500D03*
%TD*%
D28*
%TO.C,C10*%
X111750000Y-87250000D03*
X111750000Y-89150000D03*
%TD*%
D26*
%TO.C,R2*%
X126912500Y-93250000D03*
X125087500Y-93250000D03*
%TD*%
%TO.C,R23*%
X89412500Y-104250000D03*
X87587500Y-104250000D03*
%TD*%
D22*
%TO.C,Q2*%
X70437500Y-62200000D03*
X70437500Y-60300000D03*
X68562500Y-61250000D03*
%TD*%
D23*
%TO.C,R14*%
X115087500Y-108000000D03*
X116912500Y-108000000D03*
%TD*%
D15*
%TO.C,J6*%
X64000000Y-109500000D03*
D16*
X67492500Y-109500000D03*
X60507500Y-109500000D03*
%TD*%
D29*
%TO.C,U3*%
X88350000Y-55500000D03*
X89150000Y-55500000D03*
D30*
X89400000Y-54612500D03*
X88750000Y-54612500D03*
X88100000Y-54612500D03*
X88100000Y-56387500D03*
X88750000Y-56387500D03*
X89400000Y-56387500D03*
%TD*%
D28*
%TO.C,C8*%
X88000000Y-99800000D03*
X88000000Y-101700000D03*
%TD*%
%TO.C,C22*%
X85750000Y-63550000D03*
X85750000Y-65450000D03*
%TD*%
D31*
%TO.C,TR1*%
X75370000Y-76290000D03*
D32*
X75370000Y-73750000D03*
X75370000Y-71210000D03*
X64130000Y-71210000D03*
X64130000Y-73750000D03*
X64130000Y-76290000D03*
%TD*%
D28*
%TO.C,C25*%
X97000000Y-80050000D03*
X97000000Y-81950000D03*
%TD*%
D15*
%TO.C,J5*%
X84000000Y-109500000D03*
D16*
X87492500Y-109500000D03*
X80507500Y-109500000D03*
%TD*%
D33*
%TO.C,Y1*%
X116073223Y-66878858D03*
X117628858Y-65323223D03*
X116426777Y-64121142D03*
X114871142Y-65676777D03*
%TD*%
D34*
%TO.C,C19*%
X83500000Y-55950000D03*
X83500000Y-54050000D03*
%TD*%
D13*
%TO.C,R22*%
X55000000Y-86162500D03*
X55000000Y-84337500D03*
%TD*%
D23*
%TO.C,R20*%
X82087500Y-78000000D03*
X83912500Y-78000000D03*
%TD*%
D34*
%TO.C,C3*%
X86000000Y-55950000D03*
X86000000Y-54050000D03*
%TD*%
%TO.C,C27*%
X59000000Y-79950000D03*
X59000000Y-78050000D03*
%TD*%
D13*
%TO.C,R3*%
X120750000Y-93412500D03*
X120750000Y-91587500D03*
%TD*%
%TO.C,R25*%
X80000000Y-104325000D03*
X80000000Y-102500000D03*
%TD*%
D10*
%TO.C,C20*%
X86550000Y-58500000D03*
X88450000Y-58500000D03*
%TD*%
D34*
%TO.C,C7*%
X96250000Y-73950000D03*
X96250000Y-72050000D03*
%TD*%
D22*
%TO.C,Q11*%
X65937500Y-92700000D03*
X65937500Y-90800000D03*
X64062500Y-91750000D03*
%TD*%
D26*
%TO.C,R9*%
X121912500Y-79500000D03*
X120087500Y-79500000D03*
%TD*%
%TO.C,R34*%
X64912500Y-88500000D03*
X63087500Y-88500000D03*
%TD*%
D35*
%TO.C,SW1*%
X119900000Y-53500000D03*
X114100000Y-53500000D03*
X119900000Y-57500000D03*
X114100000Y-57500000D03*
%TD*%
D28*
%TO.C,C5*%
X116500000Y-83500000D03*
X116500000Y-85400000D03*
%TD*%
D17*
%TO.C,R32*%
X57750000Y-90837500D03*
X57750000Y-92662500D03*
%TD*%
D36*
%TO.C,R18*%
X56750000Y-80212500D03*
X56750000Y-77287500D03*
%TD*%
D34*
%TO.C,C12*%
X111750000Y-93200000D03*
X111750000Y-91300000D03*
%TD*%
D21*
%TO.C,C15*%
X119078249Y-69921751D03*
X120421751Y-68578249D03*
%TD*%
D23*
%TO.C,R29*%
X66837500Y-88500000D03*
X68662500Y-88500000D03*
%TD*%
D28*
%TO.C,C26*%
X83750000Y-74050000D03*
X83750000Y-75950000D03*
%TD*%
D37*
%TO.C,U7*%
X62265000Y-63790000D03*
X62265000Y-61250000D03*
X62265000Y-58710000D03*
X52735000Y-58710000D03*
X52735000Y-61250000D03*
X52735000Y-63790000D03*
%TD*%
D14*
%TO.C,C33*%
X122950000Y-89000000D03*
X121050000Y-89000000D03*
%TD*%
D21*
%TO.C,C11*%
X111828249Y-62671751D03*
X113171751Y-61328249D03*
%TD*%
D22*
%TO.C,Q4*%
X54437500Y-81950000D03*
X54437500Y-80050000D03*
X52562500Y-81000000D03*
%TD*%
D38*
%TO.C,U1*%
X99197732Y-76534144D03*
X99480575Y-76816986D03*
X99763418Y-77099829D03*
X100046260Y-77382672D03*
X100329103Y-77665515D03*
X100611946Y-77948357D03*
X100894789Y-78231200D03*
X101177631Y-78514043D03*
X101460474Y-78796885D03*
X101743317Y-79079728D03*
X102026159Y-79362571D03*
X102309002Y-79645414D03*
X102591845Y-79928256D03*
X102874688Y-80211099D03*
X103157530Y-80493942D03*
X103440373Y-80776784D03*
X103723216Y-81059627D03*
X104006058Y-81342470D03*
X104288901Y-81625312D03*
X104571744Y-81908155D03*
X104854586Y-82190998D03*
X105137429Y-82473841D03*
X105420272Y-82756683D03*
X105703115Y-83039526D03*
X105985957Y-83322369D03*
X106268800Y-83605211D03*
X106551643Y-83888054D03*
X106834485Y-84170897D03*
X107117328Y-84453740D03*
X107400171Y-84736582D03*
X107683014Y-85019425D03*
X107965856Y-85302268D03*
D39*
X110034144Y-85302268D03*
X110316986Y-85019425D03*
X110599829Y-84736582D03*
X110882672Y-84453740D03*
X111165515Y-84170897D03*
X111448357Y-83888054D03*
X111731200Y-83605211D03*
X112014043Y-83322369D03*
X112296885Y-83039526D03*
X112579728Y-82756683D03*
X112862571Y-82473841D03*
X113145414Y-82190998D03*
X113428256Y-81908155D03*
X113711099Y-81625312D03*
X113993942Y-81342470D03*
X114276784Y-81059627D03*
X114559627Y-80776784D03*
X114842470Y-80493942D03*
X115125312Y-80211099D03*
X115408155Y-79928256D03*
X115690998Y-79645414D03*
X115973841Y-79362571D03*
X116256683Y-79079728D03*
X116539526Y-78796885D03*
X116822369Y-78514043D03*
X117105211Y-78231200D03*
X117388054Y-77948357D03*
X117670897Y-77665515D03*
X117953740Y-77382672D03*
X118236582Y-77099829D03*
X118519425Y-76816986D03*
X118802268Y-76534144D03*
D38*
X118802268Y-74465856D03*
X118519425Y-74183014D03*
X118236582Y-73900171D03*
X117953740Y-73617328D03*
X117670897Y-73334485D03*
X117388054Y-73051643D03*
X117105211Y-72768800D03*
X116822369Y-72485957D03*
X116539526Y-72203115D03*
X116256683Y-71920272D03*
X115973841Y-71637429D03*
X115690998Y-71354586D03*
X115408155Y-71071744D03*
X115125312Y-70788901D03*
X114842470Y-70506058D03*
X114559627Y-70223216D03*
X114276784Y-69940373D03*
X113993942Y-69657530D03*
X113711099Y-69374688D03*
X113428256Y-69091845D03*
X113145414Y-68809002D03*
X112862571Y-68526159D03*
X112579728Y-68243317D03*
X112296885Y-67960474D03*
X112014043Y-67677631D03*
X111731200Y-67394789D03*
X111448357Y-67111946D03*
X111165515Y-66829103D03*
X110882672Y-66546260D03*
X110599829Y-66263418D03*
X110316986Y-65980575D03*
X110034144Y-65697732D03*
D39*
X107965856Y-65697732D03*
X107683014Y-65980575D03*
X107400171Y-66263418D03*
X107117328Y-66546260D03*
X106834485Y-66829103D03*
X106551643Y-67111946D03*
X106268800Y-67394789D03*
X105985957Y-67677631D03*
X105703115Y-67960474D03*
X105420272Y-68243317D03*
X105137429Y-68526159D03*
X104854586Y-68809002D03*
X104571744Y-69091845D03*
X104288901Y-69374688D03*
X104006058Y-69657530D03*
X103723216Y-69940373D03*
X103440373Y-70223216D03*
X103157530Y-70506058D03*
X102874688Y-70788901D03*
X102591845Y-71071744D03*
X102309002Y-71354586D03*
X102026159Y-71637429D03*
X101743317Y-71920272D03*
X101460474Y-72203115D03*
X101177631Y-72485957D03*
X100894789Y-72768800D03*
X100611946Y-73051643D03*
X100329103Y-73334485D03*
X100046260Y-73617328D03*
X99763418Y-73900171D03*
X99480575Y-74183014D03*
X99197732Y-74465856D03*
%TD*%
D13*
%TO.C,R24*%
X75500000Y-99912500D03*
X75500000Y-98087500D03*
%TD*%
D40*
%TO.C,U6*%
X70725000Y-52637500D03*
X70075000Y-52637500D03*
X69425000Y-52637500D03*
X68775000Y-52637500D03*
X68775000Y-56862500D03*
X69425000Y-56862500D03*
X70075000Y-56862500D03*
X70725000Y-56862500D03*
%TD*%
D34*
%TO.C,C28*%
X74000000Y-92950000D03*
X74000000Y-91050000D03*
%TD*%
D41*
%TO.C,Q1*%
X73062500Y-57550000D03*
X73062500Y-59450000D03*
X74937500Y-58500000D03*
%TD*%
D13*
%TO.C,R26*%
X55500000Y-99662500D03*
X55500000Y-97837500D03*
%TD*%
D12*
%TO.C,Q6*%
X70700000Y-80062500D03*
X68800000Y-80062500D03*
X69750000Y-81937500D03*
%TD*%
D23*
%TO.C,R16*%
X86337500Y-78000000D03*
X88162500Y-78000000D03*
%TD*%
D14*
%TO.C,C24*%
X139150000Y-97500000D03*
X137250000Y-97500000D03*
%TD*%
D26*
%TO.C,R31*%
X53662500Y-88250000D03*
X51837500Y-88250000D03*
%TD*%
D42*
%TO.C,U2*%
X90250000Y-92100000D03*
D43*
X90250000Y-93200000D03*
X90250000Y-94300000D03*
X90250000Y-95400000D03*
X90250000Y-96500000D03*
X90250000Y-97600000D03*
X90250000Y-98700000D03*
X90250000Y-99800000D03*
D42*
X90250000Y-100900000D03*
X99750000Y-100900000D03*
D43*
X99750000Y-99800000D03*
X99750000Y-98700000D03*
X99750000Y-97600000D03*
X99750000Y-96500000D03*
X99750000Y-95400000D03*
X99750000Y-94300000D03*
X99750000Y-93200000D03*
D42*
X99750000Y-92100000D03*
%TD*%
D34*
%TO.C,C32*%
X126000000Y-89200000D03*
X126000000Y-87300000D03*
%TD*%
D44*
%TO.C,D9*%
X82750000Y-70250000D03*
X78750000Y-70250000D03*
%TD*%
D14*
%TO.C,C17*%
X100750000Y-67000000D03*
X98850000Y-67000000D03*
%TD*%
D13*
%TO.C,R8*%
X137500000Y-108412500D03*
X137500000Y-106587500D03*
%TD*%
D23*
%TO.C,R28*%
X70587500Y-88500000D03*
X72412500Y-88500000D03*
%TD*%
D41*
%TO.C,Q12*%
X59812500Y-90800000D03*
X59812500Y-92700000D03*
X61687500Y-91750000D03*
%TD*%
D28*
%TO.C,C14*%
X107500000Y-100550000D03*
X107500000Y-102450000D03*
%TD*%
D17*
%TO.C,R15*%
X66250000Y-57087500D03*
X66250000Y-58912500D03*
%TD*%
D45*
%TO.C,C2*%
X119171751Y-63671751D03*
X117828249Y-62328249D03*
%TD*%
D28*
%TO.C,C13*%
X140000000Y-106550000D03*
X140000000Y-108450000D03*
%TD*%
D24*
%TO.C,C29*%
X62250000Y-80025000D03*
X62250000Y-82975000D03*
%TD*%
D17*
%TO.C,R10*%
X104000000Y-96675000D03*
X104000000Y-98500000D03*
%TD*%
D26*
%TO.C,R6*%
X82912500Y-58500000D03*
X81087500Y-58500000D03*
%TD*%
D46*
%TO.C,Q3*%
X59100000Y-70750000D03*
D47*
X56345000Y-69345000D03*
D46*
X59100000Y-72450000D03*
D47*
X57615000Y-69345000D03*
D46*
X57400000Y-72450000D03*
D47*
X58885000Y-69345000D03*
D46*
X57400000Y-70750000D03*
D47*
X60155000Y-69345000D03*
D48*
X56345000Y-75150000D03*
X57615000Y-75150000D03*
X58885000Y-75150000D03*
X60155000Y-75150000D03*
%TD*%
D28*
%TO.C,C6*%
X61750000Y-101550000D03*
X61750000Y-103450000D03*
%TD*%
%TO.C,C21*%
X87250000Y-74050000D03*
X87250000Y-75950000D03*
%TD*%
D27*
%TO.C,Q10*%
X70050000Y-92687500D03*
X71950000Y-92687500D03*
X71000000Y-90812500D03*
%TD*%
D10*
%TO.C,C34*%
X128800000Y-90750000D03*
X130700000Y-90750000D03*
%TD*%
D23*
%TO.C,R13*%
X115087500Y-110500000D03*
X116912500Y-110500000D03*
%TD*%
M02*
