M48
; DRILL file {KiCad 5.1.5+dfsg1-2build2} date Wed 28 Jul 2021 05:04:55 PM CDT
; FORMAT={-:-/ absolute / metric / decimal}
; #@! TF.CreationDate,2021-07-28T17:04:55-05:00
; #@! TF.GenerationSoftware,Kicad,Pcbnew,5.1.5+dfsg1-2build2
; #@! TF.FileFunction,Plated,1,2,PTH
FMAT,2
METRIC
T1C0.254
T2C0.400
T3C0.460
T4C1.000
%
G90
G05
T1
X52.578Y-40.132
X52.578Y-43.18
X60.198Y-41.656
X60.96Y-40.894
X62.484Y-43.434
X63.5Y-41.148
X65.278Y-37.846
X66.548Y-34.544
X66.548Y-42.672
X67.056Y-37.084
X67.056Y-42.164
X68.072Y-43.434
X68.58Y-35.814
X69.342Y-36.068
X69.596Y-47.752
X71.628Y-46.99
X71.628Y-48.006
X72.771Y-46.101
X73.41Y-45.724
X74.168Y-46.99
X74.676Y-46.228
X75.438Y-47.498
X76.454Y-47.498
X76.708Y-51.816
X82.296Y-36.068
X82.296Y-38.608
X83.312Y-36.068
X83.312Y-38.608
T2
X33.02Y-40.64
X33.528Y-38.1
X34.036Y-40.64
X34.036Y-45.212
X35.052Y-45.212
X36.576Y-43.18
X36.576Y-44.196
X37.592Y-43.18
X37.592Y-44.196
X42.672Y-35.052
X42.672Y-36.068
X48.583Y-46.207
X52.07Y-47.244
X53.594Y-36.322
X53.652Y-46.239
X57.15Y-46.99
X57.404Y-36.83
X58.745Y-46.239
X59.436Y-36.576
X60.452Y-36.576
X62.23Y-46.99
X63.3Y-37.911
X65.024Y-28.956
X65.024Y-53.34
X65.532Y-34.544
X66.548Y-28.448
X67.056Y-52.832
X67.564Y-28.448
X68.58Y-51.308
X70.104Y-28.956
X70.104Y-34.544
X70.866Y-44.704
X72.644Y-50.292
X73.152Y-36.576
X73.66Y-50.292
X74.168Y-36.576
X74.676Y-50.292
X75.692Y-44.45
X76.2Y-31.496
X77.216Y-31.496
X77.216Y-53.086
X77.978Y-45.212
X81.788Y-45.72
X84.074Y-44.45
X84.836Y-51.816
X84.836Y-52.832
X87.796Y-41.057
X87.813Y-38.86
X89.408Y-43.18
X92.456Y-33.528
X92.456Y-49.276
X92.456Y-50.292
X93.472Y-33.528
T3
X95.112Y-35.565
X95.112Y-44.325
T4
X91.44Y-27.94
X93.98Y-27.94
X96.52Y-27.94
X99.06Y-27.94
X50.292Y-53.34
X52.832Y-53.34
X55.372Y-53.34
X57.912Y-53.34
X74.422Y-27.94
X76.962Y-27.94
X79.502Y-27.94
X82.042Y-27.94
X50.292Y-27.94
X52.832Y-27.94
X55.372Y-27.94
X57.912Y-27.94
X91.44Y-53.34
X93.98Y-53.34
X96.52Y-53.34
X99.06Y-53.34
T0
M30
