M48
; DRILL file {KiCad 5.1.5+dfsg1-2build2} date Thu 05 Aug 2021 05:03:32 PM CDT
; FORMAT={-:-/ absolute / metric / decimal}
; #@! TF.CreationDate,2021-08-05T17:03:32-05:00
; #@! TF.GenerationSoftware,Kicad,Pcbnew,5.1.5+dfsg1-2build2
; #@! TF.FileFunction,Plated,1,2,PTH
FMAT,2
METRIC
T1C0.254
T2C0.400
T3C0.460
T4C1.000
%
G90
G05
T1
X60.198Y-41.656
X60.96Y-40.894
X63.5Y-42.418
X65.786Y-40.894
X66.548Y-41.656
X68.834Y-40.386
T2
X33.02Y-40.64
X33.528Y-38.1
X34.036Y-40.64
X34.036Y-45.212
X35.052Y-45.212
X36.576Y-43.18
X36.576Y-44.196
X37.592Y-43.18
X37.592Y-44.196
X42.672Y-35.052
X42.672Y-36.068
X57.912Y-38.608
X57.912Y-39.624
X59.944Y-30.988
X63.3Y-37.911
X65.024Y-28.956
X65.786Y-34.544
X66.294Y-47.244
X66.548Y-28.448
X67.564Y-28.448
X68.834Y-49.022
X69.85Y-34.544
X70.104Y-28.956
X73.152Y-36.576
X74.168Y-36.576
X76.2Y-31.496
X76.2Y-46.482
X77.216Y-31.496
X87.796Y-41.057
X87.813Y-38.86
X92.456Y-33.528
X93.472Y-33.528
T3
X95.112Y-35.565
X95.112Y-44.325
T4
X74.422Y-27.94
X76.962Y-27.94
X79.502Y-27.94
X82.042Y-27.94
X91.44Y-53.34
X93.98Y-53.34
X96.52Y-53.34
X99.06Y-53.34
X91.44Y-27.94
X93.98Y-27.94
X96.52Y-27.94
X99.06Y-27.94
X50.292Y-27.94
X52.832Y-27.94
X55.372Y-27.94
X57.912Y-27.94
X50.292Y-53.34
X52.832Y-53.34
X55.372Y-53.34
X57.912Y-53.34
T0
M30
