G04 #@! TF.GenerationSoftware,KiCad,Pcbnew,5.1.5+dfsg1-2build2*
G04 #@! TF.CreationDate,2021-08-05T10:15:14-05:00*
G04 #@! TF.ProjectId,gpsdo,67707364-6f2e-46b6-9963-61645f706362,rev?*
G04 #@! TF.SameCoordinates,Original*
G04 #@! TF.FileFunction,Legend,Top*
G04 #@! TF.FilePolarity,Positive*
%FSLAX46Y46*%
G04 Gerber Fmt 4.6, Leading zero omitted, Abs format (unit mm)*
G04 Created by KiCad (PCBNEW 5.1.5+dfsg1-2build2) date 2021-08-05 10:15:14*
%MOMM*%
%LPD*%
G04 APERTURE LIST*
%ADD10C,0.150000*%
%ADD11C,0.120000*%
G04 APERTURE END LIST*
D10*
X71269000Y-38520000D02*
X71269000Y-33870000D01*
X61269000Y-39595000D02*
X61269000Y-33870000D01*
X71269000Y-38520000D02*
X71161500Y-38520000D01*
X71269000Y-33870000D02*
X71161500Y-33870000D01*
X61319000Y-33870000D02*
X61426500Y-33870000D01*
D11*
X61822779Y-30478000D02*
X61497221Y-30478000D01*
X61822779Y-31498000D02*
X61497221Y-31498000D01*
X68216463Y-27660880D02*
X68216463Y-27986438D01*
X69236463Y-27660880D02*
X69236463Y-27986438D01*
X45992000Y-42586000D02*
X45992000Y-44186000D01*
X29192000Y-42586000D02*
X29192000Y-44186000D01*
X45992000Y-36586000D02*
X45992000Y-38186000D01*
X29192000Y-36586000D02*
X29192000Y-38186000D01*
X39792000Y-48786000D02*
X41392000Y-48786000D01*
X39792000Y-31986000D02*
X41392000Y-31986000D01*
X33792000Y-48786000D02*
X35392000Y-48786000D01*
X33792000Y-31986000D02*
X35392000Y-31986000D01*
X77211422Y-53034000D02*
X77728578Y-53034000D01*
X77211422Y-51614000D02*
X77728578Y-51614000D01*
X97863922Y-31698000D02*
X98381078Y-31698000D01*
X97863922Y-30278000D02*
X98381078Y-30278000D01*
X97863922Y-51002000D02*
X98381078Y-51002000D01*
X97863922Y-49582000D02*
X98381078Y-49582000D01*
X79436279Y-44702000D02*
X79110721Y-44702000D01*
X79436279Y-45722000D02*
X79110721Y-45722000D01*
X74674000Y-43550721D02*
X74674000Y-43876279D01*
X75694000Y-43550721D02*
X75694000Y-43876279D01*
X79736000Y-49784000D02*
X79736000Y-53234000D01*
X79736000Y-49784000D02*
X79736000Y-47834000D01*
X84856000Y-49784000D02*
X84856000Y-51734000D01*
X84856000Y-49784000D02*
X84856000Y-47834000D01*
X63845221Y-27180000D02*
X64170779Y-27180000D01*
X63845221Y-26160000D02*
X64170779Y-26160000D01*
X73092000Y-29270000D02*
X73092000Y-27940000D01*
X74422000Y-29270000D02*
X73092000Y-29270000D01*
X75692000Y-29270000D02*
X75692000Y-26610000D01*
X75692000Y-26610000D02*
X83372000Y-26610000D01*
X75692000Y-29270000D02*
X83372000Y-29270000D01*
X83372000Y-29270000D02*
X83372000Y-26610000D01*
X73290000Y-41824000D02*
X70840000Y-41824000D01*
X71490000Y-45044000D02*
X73290000Y-45044000D01*
X57914000Y-38491279D02*
X57914000Y-38165721D01*
X56894000Y-38491279D02*
X56894000Y-38165721D01*
X52580000Y-48905279D02*
X52580000Y-48579721D01*
X51560000Y-48905279D02*
X51560000Y-48579721D01*
X56286000Y-39000000D02*
X56286000Y-36550000D01*
X53066000Y-37200000D02*
X53066000Y-39000000D01*
X51140000Y-49330000D02*
X51140000Y-46880000D01*
X47920000Y-47530000D02*
X47920000Y-49330000D01*
X59501721Y-45468000D02*
X59827279Y-45468000D01*
X59501721Y-44448000D02*
X59827279Y-44448000D01*
X54421721Y-45468000D02*
X54747279Y-45468000D01*
X54421721Y-44448000D02*
X54747279Y-44448000D01*
X57660000Y-48905279D02*
X57660000Y-48579721D01*
X56640000Y-48905279D02*
X56640000Y-48579721D01*
X62740000Y-48973180D02*
X62740000Y-48647622D01*
X61720000Y-48973180D02*
X61720000Y-48647622D01*
X56220000Y-49330000D02*
X56220000Y-46880000D01*
X53000000Y-47530000D02*
X53000000Y-49330000D01*
X61300000Y-49330000D02*
X61300000Y-46880000D01*
X58080000Y-47530000D02*
X58080000Y-49330000D01*
X74170000Y-38262779D02*
X74170000Y-37937221D01*
X73150000Y-38262779D02*
X73150000Y-37937221D01*
X63162922Y-54050000D02*
X63680078Y-54050000D01*
X63162922Y-52630000D02*
X63680078Y-52630000D01*
X54290279Y-29970000D02*
X53964721Y-29970000D01*
X54290279Y-30990000D02*
X53964721Y-30990000D01*
X65479000Y-46852721D02*
X65479000Y-47178279D01*
X66499000Y-46852721D02*
X66499000Y-47178279D01*
X68074000Y-47178279D02*
X68074000Y-46852721D01*
X67054000Y-47178279D02*
X67054000Y-46852721D01*
X90358279Y-35558000D02*
X90032721Y-35558000D01*
X90358279Y-36578000D02*
X90032721Y-36578000D01*
X92448852Y-38840849D02*
X92448852Y-39166407D01*
X93468852Y-38840849D02*
X93468852Y-39166407D01*
X60678212Y-38511854D02*
X60678212Y-38186296D01*
X59658212Y-38511854D02*
X59658212Y-38186296D01*
X70809428Y-30506434D02*
X70809428Y-30180876D01*
X69789428Y-30506434D02*
X69789428Y-30180876D01*
X33378771Y-44509028D02*
X33704329Y-44509028D01*
X33378771Y-43489028D02*
X33704329Y-43489028D01*
X40756721Y-36070000D02*
X41082279Y-36070000D01*
X40756721Y-35050000D02*
X41082279Y-35050000D01*
X65532853Y-30506434D02*
X65532853Y-30180876D01*
X64512853Y-30506434D02*
X64512853Y-30180876D01*
X92441992Y-35044986D02*
X92441992Y-35370544D01*
X93461992Y-35044986D02*
X93461992Y-35370544D01*
X90110000Y-29270000D02*
X90110000Y-27940000D01*
X91440000Y-29270000D02*
X90110000Y-29270000D01*
X92710000Y-29270000D02*
X92710000Y-26610000D01*
X92710000Y-26610000D02*
X100390000Y-26610000D01*
X92710000Y-29270000D02*
X100390000Y-29270000D01*
X100390000Y-29270000D02*
X100390000Y-26610000D01*
X90110000Y-54670000D02*
X90110000Y-53340000D01*
X91440000Y-54670000D02*
X90110000Y-54670000D01*
X92710000Y-54670000D02*
X92710000Y-52010000D01*
X92710000Y-52010000D02*
X100390000Y-52010000D01*
X92710000Y-54670000D02*
X100390000Y-54670000D01*
X100390000Y-54670000D02*
X100390000Y-52010000D01*
X48962000Y-54670000D02*
X48962000Y-53340000D01*
X50292000Y-54670000D02*
X48962000Y-54670000D01*
X51562000Y-54670000D02*
X51562000Y-52010000D01*
X51562000Y-52010000D02*
X59242000Y-52010000D01*
X51562000Y-54670000D02*
X59242000Y-54670000D01*
X59242000Y-54670000D02*
X59242000Y-52010000D01*
X48962000Y-29270000D02*
X48962000Y-27940000D01*
X50292000Y-29270000D02*
X48962000Y-29270000D01*
X51562000Y-29270000D02*
X51562000Y-26610000D01*
X51562000Y-26610000D02*
X59242000Y-26610000D01*
X51562000Y-29270000D02*
X59242000Y-29270000D01*
X59242000Y-29270000D02*
X59242000Y-26610000D01*
X67639000Y-30406078D02*
X67639000Y-29888922D01*
X66219000Y-30406078D02*
X66219000Y-29888922D01*
X94832000Y-39945000D02*
X94332000Y-40195000D01*
X94332000Y-40195000D02*
X94332000Y-39695000D01*
X94332000Y-39695000D02*
X94832000Y-39945000D01*
X31918000Y-39140000D02*
X31918000Y-42140000D01*
X35138000Y-40640000D02*
X35138000Y-42140000D01*
X86393678Y-31486062D02*
X86393678Y-31826062D01*
X76473678Y-41466062D02*
X76473678Y-41806062D01*
X86393678Y-41466062D02*
X86393678Y-41806062D01*
X76473678Y-41806062D02*
X86393678Y-41806062D01*
X76583678Y-31486062D02*
X86393678Y-31486062D01*
X38248000Y-37040000D02*
X35848000Y-37040000D01*
X36548000Y-44240000D02*
X38248000Y-44240000D01*
X39848000Y-44240000D02*
X41548000Y-44240000D01*
X41548000Y-37040000D02*
X39848000Y-37040000D01*
X41648000Y-37040000D02*
X41648000Y-37140000D01*
X41548000Y-37040000D02*
X41648000Y-37040000D01*
X41648000Y-44240000D02*
X41648000Y-44140000D01*
X41548000Y-44240000D02*
X41648000Y-44240000D01*
X36448000Y-44240000D02*
X36448000Y-44140000D01*
X36548000Y-44240000D02*
X36448000Y-44240000D01*
X36448000Y-37040000D02*
X36448000Y-37140000D01*
D10*
X59846380Y-35305904D02*
X60655904Y-35305904D01*
X60751142Y-35258285D01*
X60798761Y-35210666D01*
X60846380Y-35115428D01*
X60846380Y-34924952D01*
X60798761Y-34829714D01*
X60751142Y-34782095D01*
X60655904Y-34734476D01*
X59846380Y-34734476D01*
X60846380Y-33734476D02*
X60846380Y-34305904D01*
X60846380Y-34020190D02*
X59846380Y-34020190D01*
X59989238Y-34115428D01*
X60084476Y-34210666D01*
X60132095Y-34305904D01*
X36306285Y-31140761D02*
X36449142Y-31188380D01*
X36687238Y-31188380D01*
X36782476Y-31140761D01*
X36830095Y-31093142D01*
X36877714Y-30997904D01*
X36877714Y-30902666D01*
X36830095Y-30807428D01*
X36782476Y-30759809D01*
X36687238Y-30712190D01*
X36496761Y-30664571D01*
X36401523Y-30616952D01*
X36353904Y-30569333D01*
X36306285Y-30474095D01*
X36306285Y-30378857D01*
X36353904Y-30283619D01*
X36401523Y-30236000D01*
X36496761Y-30188380D01*
X36734857Y-30188380D01*
X36877714Y-30236000D01*
X37306285Y-31188380D02*
X37306285Y-30188380D01*
X37306285Y-30664571D02*
X37877714Y-30664571D01*
X37877714Y-31188380D02*
X37877714Y-30188380D01*
X38877714Y-31188380D02*
X38306285Y-31188380D01*
X38592000Y-31188380D02*
X38592000Y-30188380D01*
X38496761Y-30331238D01*
X38401523Y-30426476D01*
X38306285Y-30474095D01*
X71544380Y-28273333D02*
X72258666Y-28273333D01*
X72401523Y-28320952D01*
X72496761Y-28416190D01*
X72544380Y-28559047D01*
X72544380Y-28654285D01*
X71544380Y-27368571D02*
X71544380Y-27559047D01*
X71592000Y-27654285D01*
X71639619Y-27701904D01*
X71782476Y-27797142D01*
X71972952Y-27844761D01*
X72353904Y-27844761D01*
X72449142Y-27797142D01*
X72496761Y-27749523D01*
X72544380Y-27654285D01*
X72544380Y-27463809D01*
X72496761Y-27368571D01*
X72449142Y-27320952D01*
X72353904Y-27273333D01*
X72115809Y-27273333D01*
X72020571Y-27320952D01*
X71972952Y-27368571D01*
X71925333Y-27463809D01*
X71925333Y-27654285D01*
X71972952Y-27749523D01*
X72020571Y-27797142D01*
X72115809Y-27844761D01*
X72587142Y-38742857D02*
X72634761Y-38790476D01*
X72682380Y-38933333D01*
X72682380Y-39028571D01*
X72634761Y-39171428D01*
X72539523Y-39266666D01*
X72444285Y-39314285D01*
X72253809Y-39361904D01*
X72110952Y-39361904D01*
X71920476Y-39314285D01*
X71825238Y-39266666D01*
X71730000Y-39171428D01*
X71682380Y-39028571D01*
X71682380Y-38933333D01*
X71730000Y-38790476D01*
X71777619Y-38742857D01*
X72682380Y-37790476D02*
X72682380Y-38361904D01*
X72682380Y-38076190D02*
X71682380Y-38076190D01*
X71825238Y-38171428D01*
X71920476Y-38266666D01*
X71968095Y-38361904D01*
X72682380Y-36838095D02*
X72682380Y-37409523D01*
X72682380Y-37123809D02*
X71682380Y-37123809D01*
X71825238Y-37219047D01*
X71920476Y-37314285D01*
X71968095Y-37409523D01*
X62778642Y-52047142D02*
X62731023Y-52094761D01*
X62588166Y-52142380D01*
X62492928Y-52142380D01*
X62350071Y-52094761D01*
X62254833Y-51999523D01*
X62207214Y-51904285D01*
X62159595Y-51713809D01*
X62159595Y-51570952D01*
X62207214Y-51380476D01*
X62254833Y-51285238D01*
X62350071Y-51190000D01*
X62492928Y-51142380D01*
X62588166Y-51142380D01*
X62731023Y-51190000D01*
X62778642Y-51237619D01*
X63731023Y-52142380D02*
X63159595Y-52142380D01*
X63445309Y-52142380D02*
X63445309Y-51142380D01*
X63350071Y-51285238D01*
X63254833Y-51380476D01*
X63159595Y-51428095D01*
X64350071Y-51142380D02*
X64445309Y-51142380D01*
X64540547Y-51190000D01*
X64588166Y-51237619D01*
X64635785Y-51332857D01*
X64683404Y-51523333D01*
X64683404Y-51761428D01*
X64635785Y-51951904D01*
X64588166Y-52047142D01*
X64540547Y-52094761D01*
X64445309Y-52142380D01*
X64350071Y-52142380D01*
X64254833Y-52094761D01*
X64207214Y-52047142D01*
X64159595Y-51951904D01*
X64111976Y-51761428D01*
X64111976Y-51523333D01*
X64159595Y-51332857D01*
X64207214Y-51237619D01*
X64254833Y-51190000D01*
X64350071Y-51142380D01*
X53960833Y-32267142D02*
X53913214Y-32314761D01*
X53770357Y-32362380D01*
X53675119Y-32362380D01*
X53532261Y-32314761D01*
X53437023Y-32219523D01*
X53389404Y-32124285D01*
X53341785Y-31933809D01*
X53341785Y-31790952D01*
X53389404Y-31600476D01*
X53437023Y-31505238D01*
X53532261Y-31410000D01*
X53675119Y-31362380D01*
X53770357Y-31362380D01*
X53913214Y-31410000D01*
X53960833Y-31457619D01*
X54437023Y-32362380D02*
X54627500Y-32362380D01*
X54722738Y-32314761D01*
X54770357Y-32267142D01*
X54865595Y-32124285D01*
X54913214Y-31933809D01*
X54913214Y-31552857D01*
X54865595Y-31457619D01*
X54817976Y-31410000D01*
X54722738Y-31362380D01*
X54532261Y-31362380D01*
X54437023Y-31410000D01*
X54389404Y-31457619D01*
X54341785Y-31552857D01*
X54341785Y-31790952D01*
X54389404Y-31886190D01*
X54437023Y-31933809D01*
X54532261Y-31981428D01*
X54722738Y-31981428D01*
X54817976Y-31933809D01*
X54865595Y-31886190D01*
X54913214Y-31790952D01*
X90028833Y-37950380D02*
X89695500Y-37474190D01*
X89457404Y-37950380D02*
X89457404Y-36950380D01*
X89838357Y-36950380D01*
X89933595Y-36998000D01*
X89981214Y-37045619D01*
X90028833Y-37140857D01*
X90028833Y-37283714D01*
X89981214Y-37378952D01*
X89933595Y-37426571D01*
X89838357Y-37474190D01*
X89457404Y-37474190D01*
X90981214Y-37950380D02*
X90409785Y-37950380D01*
X90695500Y-37950380D02*
X90695500Y-36950380D01*
X90600261Y-37093238D01*
X90505023Y-37188476D01*
X90409785Y-37236095D01*
X40752833Y-34487142D02*
X40705214Y-34534761D01*
X40562357Y-34582380D01*
X40467119Y-34582380D01*
X40324261Y-34534761D01*
X40229023Y-34439523D01*
X40181404Y-34344285D01*
X40133785Y-34153809D01*
X40133785Y-34010952D01*
X40181404Y-33820476D01*
X40229023Y-33725238D01*
X40324261Y-33630000D01*
X40467119Y-33582380D01*
X40562357Y-33582380D01*
X40705214Y-33630000D01*
X40752833Y-33677619D01*
X41086166Y-33582380D02*
X41705214Y-33582380D01*
X41371880Y-33963333D01*
X41514738Y-33963333D01*
X41609976Y-34010952D01*
X41657595Y-34058571D01*
X41705214Y-34153809D01*
X41705214Y-34391904D01*
X41657595Y-34487142D01*
X41609976Y-34534761D01*
X41514738Y-34582380D01*
X41229023Y-34582380D01*
X41133785Y-34534761D01*
X41086166Y-34487142D01*
X88562380Y-28273333D02*
X89276666Y-28273333D01*
X89419523Y-28320952D01*
X89514761Y-28416190D01*
X89562380Y-28559047D01*
X89562380Y-28654285D01*
X88562380Y-27320952D02*
X88562380Y-27797142D01*
X89038571Y-27844761D01*
X88990952Y-27797142D01*
X88943333Y-27701904D01*
X88943333Y-27463809D01*
X88990952Y-27368571D01*
X89038571Y-27320952D01*
X89133809Y-27273333D01*
X89371904Y-27273333D01*
X89467142Y-27320952D01*
X89514761Y-27368571D01*
X89562380Y-27463809D01*
X89562380Y-27701904D01*
X89514761Y-27797142D01*
X89467142Y-27844761D01*
X88562380Y-53673333D02*
X89276666Y-53673333D01*
X89419523Y-53720952D01*
X89514761Y-53816190D01*
X89562380Y-53959047D01*
X89562380Y-54054285D01*
X88895714Y-52768571D02*
X89562380Y-52768571D01*
X88514761Y-53006666D02*
X89229047Y-53244761D01*
X89229047Y-52625714D01*
X47414380Y-53673333D02*
X48128666Y-53673333D01*
X48271523Y-53720952D01*
X48366761Y-53816190D01*
X48414380Y-53959047D01*
X48414380Y-54054285D01*
X47414380Y-53292380D02*
X47414380Y-52673333D01*
X47795333Y-53006666D01*
X47795333Y-52863809D01*
X47842952Y-52768571D01*
X47890571Y-52720952D01*
X47985809Y-52673333D01*
X48223904Y-52673333D01*
X48319142Y-52720952D01*
X48366761Y-52768571D01*
X48414380Y-52863809D01*
X48414380Y-53149523D01*
X48366761Y-53244761D01*
X48319142Y-53292380D01*
X47414380Y-28273333D02*
X48128666Y-28273333D01*
X48271523Y-28320952D01*
X48366761Y-28416190D01*
X48414380Y-28559047D01*
X48414380Y-28654285D01*
X47509619Y-27844761D02*
X47462000Y-27797142D01*
X47414380Y-27701904D01*
X47414380Y-27463809D01*
X47462000Y-27368571D01*
X47509619Y-27320952D01*
X47604857Y-27273333D01*
X47700095Y-27273333D01*
X47842952Y-27320952D01*
X48414380Y-27892380D01*
X48414380Y-27273333D01*
X97998666Y-32397380D02*
X97998666Y-33111666D01*
X97951047Y-33254523D01*
X97855809Y-33349761D01*
X97712952Y-33397380D01*
X97617714Y-33397380D01*
X98998666Y-33397380D02*
X98427238Y-33397380D01*
X98712952Y-33397380D02*
X98712952Y-32397380D01*
X98617714Y-32540238D01*
X98522476Y-32635476D01*
X98427238Y-32683095D01*
X32596120Y-37274394D02*
X32596120Y-38083918D01*
X32643739Y-38179156D01*
X32691358Y-38226775D01*
X32786596Y-38274394D01*
X32977072Y-38274394D01*
X33072310Y-38226775D01*
X33119929Y-38179156D01*
X33167548Y-38083918D01*
X33167548Y-37274394D01*
X34072310Y-37607728D02*
X34072310Y-38274394D01*
X33834215Y-37226775D02*
X33596120Y-37941061D01*
X34215167Y-37941061D01*
X80671773Y-30098442D02*
X80671773Y-30907966D01*
X80719392Y-31003204D01*
X80767011Y-31050823D01*
X80862249Y-31098442D01*
X81052725Y-31098442D01*
X81147963Y-31050823D01*
X81195582Y-31003204D01*
X81243201Y-30907966D01*
X81243201Y-30098442D01*
X81671773Y-30193681D02*
X81719392Y-30146062D01*
X81814630Y-30098442D01*
X82052725Y-30098442D01*
X82147963Y-30146062D01*
X82195582Y-30193681D01*
X82243201Y-30288919D01*
X82243201Y-30384157D01*
X82195582Y-30527014D01*
X81624154Y-31098442D01*
X82243201Y-31098442D01*
X36576095Y-35012380D02*
X36576095Y-35821904D01*
X36623714Y-35917142D01*
X36671333Y-35964761D01*
X36766571Y-36012380D01*
X36957047Y-36012380D01*
X37052285Y-35964761D01*
X37099904Y-35917142D01*
X37147523Y-35821904D01*
X37147523Y-35012380D01*
X37528476Y-35012380D02*
X38147523Y-35012380D01*
X37814190Y-35393333D01*
X37957047Y-35393333D01*
X38052285Y-35440952D01*
X38099904Y-35488571D01*
X38147523Y-35583809D01*
X38147523Y-35821904D01*
X38099904Y-35917142D01*
X38052285Y-35964761D01*
X37957047Y-36012380D01*
X37671333Y-36012380D01*
X37576095Y-35964761D01*
X37528476Y-35917142D01*
M02*
