G04 #@! TF.GenerationSoftware,KiCad,Pcbnew,5.1.5+dfsg1-2build2*
G04 #@! TF.CreationDate,2021-07-28T12:54:00-05:00*
G04 #@! TF.ProjectId,gpsdo,67707364-6f2e-46b6-9963-61645f706362,rev?*
G04 #@! TF.SameCoordinates,Original*
G04 #@! TF.FileFunction,Copper,L2,Bot*
G04 #@! TF.FilePolarity,Positive*
%FSLAX46Y46*%
G04 Gerber Fmt 4.6, Leading zero omitted, Abs format (unit mm)*
G04 Created by KiCad (PCBNEW 5.1.5+dfsg1-2build2) date 2021-07-28 12:54:00*
%MOMM*%
%LPD*%
G04 APERTURE LIST*
%ADD10O,1.700000X1.700000*%
%ADD11R,1.700000X1.700000*%
%ADD12R,0.950000X0.460000*%
%ADD13C,0.970000*%
%ADD14R,5.080000X2.420000*%
%ADD15C,0.800000*%
%ADD16C,0.508000*%
%ADD17C,1.016000*%
%ADD18C,0.254000*%
G04 APERTURE END LIST*
D10*
X82042000Y-27940000D03*
X79502000Y-27940000D03*
X76962000Y-27940000D03*
D11*
X74422000Y-27940000D03*
D10*
X99060000Y-27940000D03*
X96520000Y-27940000D03*
X93980000Y-27940000D03*
D11*
X91440000Y-27940000D03*
D10*
X99060000Y-53340000D03*
X96520000Y-53340000D03*
X93980000Y-53340000D03*
D11*
X91440000Y-53340000D03*
D10*
X57912000Y-53340000D03*
X55372000Y-53340000D03*
X52832000Y-53340000D03*
D11*
X50292000Y-53340000D03*
D10*
X57912000Y-27940000D03*
X55372000Y-27940000D03*
X52832000Y-27940000D03*
D11*
X50292000Y-27940000D03*
D12*
X95562000Y-35565000D03*
X95562000Y-44325000D03*
D13*
X95112000Y-35565000D03*
X95112000Y-44325000D03*
D14*
X98552000Y-35565000D03*
X98552000Y-44325000D03*
D15*
X70866000Y-44704000D03*
X72644000Y-50292000D03*
X74676000Y-50292000D03*
X73660000Y-50292000D03*
X36576000Y-44196000D03*
X37592000Y-44196000D03*
X37592000Y-43180000D03*
X36576000Y-43180000D03*
X33020000Y-40640000D03*
X34036000Y-40640000D03*
X34036000Y-45212000D03*
X35052000Y-45212000D03*
X33528000Y-38100000D03*
X42672000Y-35052000D03*
X42672000Y-36068000D03*
X60452000Y-36576000D03*
X59436000Y-36576000D03*
X92456000Y-33528000D03*
X93472000Y-33528000D03*
X76200000Y-31496000D03*
X77216000Y-31496000D03*
X87813229Y-38859633D03*
X87795928Y-41056777D03*
X72136000Y-53340000D03*
X70104000Y-28956000D03*
X66548000Y-28448000D03*
X67564000Y-28448000D03*
X65024000Y-28956000D03*
X70104000Y-34544000D03*
X65532000Y-34544000D03*
X84328000Y-47752000D03*
X73152000Y-36576000D03*
X74168000Y-36576000D03*
X57150000Y-46990000D03*
X62230000Y-46990000D03*
X53652068Y-46238601D03*
X58745200Y-46238601D03*
X63300289Y-37910543D03*
X52070000Y-47244000D03*
X48583396Y-46207299D03*
X53594000Y-36322000D03*
X57404000Y-36830000D03*
X67056000Y-52832000D03*
X68580000Y-51308000D03*
D16*
X66548000Y-34544000D03*
X67056000Y-37084000D03*
X63500000Y-48514000D03*
X74676000Y-44958000D03*
X63500000Y-41148000D03*
X65278000Y-37846000D03*
X52578000Y-43180000D03*
X52578000Y-40132000D03*
X73910000Y-46478000D03*
X66040000Y-48514000D03*
X70104000Y-46736000D03*
X71628000Y-46228000D03*
X82296000Y-36068000D03*
X82296000Y-38608000D03*
X83312000Y-36068000D03*
X83312000Y-38608000D03*
X63500000Y-47244000D03*
X72644000Y-47244000D03*
X60198000Y-41656000D03*
X62992000Y-42672000D03*
X63754000Y-46482000D03*
X72136000Y-46736000D03*
X60960000Y-40894000D03*
X63627000Y-42291000D03*
X68580000Y-35814000D03*
X69088000Y-44450000D03*
X69850000Y-35814000D03*
X76200000Y-46736000D03*
D17*
X67056000Y-52832000D02*
X68580000Y-51308000D01*
D18*
X66548000Y-36576000D02*
X67056000Y-37084000D01*
X66548000Y-34544000D02*
X66548000Y-36576000D01*
X74422000Y-46990000D02*
X74491001Y-46920999D01*
X74399949Y-46990000D02*
X74422000Y-46990000D01*
X72583910Y-48806039D02*
X74399949Y-46990000D01*
X66763961Y-48806039D02*
X72583910Y-48806039D01*
X66474999Y-49095001D02*
X66763961Y-48806039D01*
X65605001Y-49095001D02*
X66474999Y-49095001D01*
X65024000Y-48514000D02*
X65605001Y-49095001D01*
X63500000Y-48514000D02*
X65024000Y-48514000D01*
X74676000Y-46713949D02*
X74676000Y-44958000D01*
X74399949Y-46990000D02*
X74676000Y-46713949D01*
X63500000Y-41148000D02*
X63500000Y-39624000D01*
X63500000Y-39624000D02*
X65278000Y-37846000D01*
X65278000Y-37846000D02*
X65278000Y-37846000D01*
X52578000Y-43180000D02*
X52578000Y-40132000D01*
X52578000Y-40132000D02*
X52578000Y-40132000D01*
X73910000Y-46837882D02*
X72395853Y-48352029D01*
X73910000Y-46478000D02*
X73910000Y-46837882D01*
X72395853Y-48352029D02*
X66201971Y-48352029D01*
X66201971Y-48352029D02*
X66040000Y-48514000D01*
X66040000Y-48514000D02*
X66040000Y-48514000D01*
X70357999Y-46989999D02*
X70866001Y-46989999D01*
X70104000Y-46736000D02*
X70357999Y-46989999D01*
X70866001Y-46989999D02*
X71628000Y-46228000D01*
X71628000Y-46228000D02*
X71628000Y-46228000D01*
X82296000Y-36068000D02*
X82296000Y-38608000D01*
X82296000Y-38608000D02*
X82296000Y-38608000D01*
X83312000Y-36068000D02*
X83312000Y-38608000D01*
X83312000Y-38608000D02*
X83312000Y-38608000D01*
X72644000Y-47244000D02*
X72644000Y-47244000D01*
X71989981Y-47898019D02*
X64154019Y-47898019D01*
X72644000Y-47244000D02*
X71989981Y-47898019D01*
X64154019Y-47898019D02*
X63500000Y-47244000D01*
X61976000Y-41656000D02*
X62484000Y-42164000D01*
X60198000Y-41656000D02*
X61976000Y-41656000D01*
X62484000Y-42164000D02*
X62992000Y-42672000D01*
X72136000Y-46736000D02*
X72136000Y-46736000D01*
X71427991Y-47444009D02*
X64716009Y-47444009D01*
X72136000Y-46736000D02*
X71427991Y-47444009D01*
X64716009Y-47444009D02*
X63754000Y-46482000D01*
X62230000Y-40894000D02*
X62992000Y-41656000D01*
X60960000Y-40894000D02*
X62230000Y-40894000D01*
X62992000Y-41656000D02*
X63627000Y-42291000D01*
X68580000Y-43942000D02*
X69088000Y-44450000D01*
X68580000Y-36576000D02*
X68580000Y-43942000D01*
X68580000Y-36576000D02*
X68580000Y-35814000D01*
X69850000Y-36576000D02*
X69850000Y-35814000D01*
X76200000Y-42926000D02*
X69850000Y-36576000D01*
X76200000Y-46736000D02*
X76200000Y-42926000D01*
G36*
X101194001Y-55474000D02*
G01*
X25806000Y-55474000D01*
X25806000Y-53218757D01*
X54141000Y-53218757D01*
X54141000Y-53461243D01*
X54188307Y-53699069D01*
X54281102Y-53923097D01*
X54415820Y-54124717D01*
X54587283Y-54296180D01*
X54788903Y-54430898D01*
X55012931Y-54523693D01*
X55250757Y-54571000D01*
X55493243Y-54571000D01*
X55731069Y-54523693D01*
X55955097Y-54430898D01*
X56156717Y-54296180D01*
X56328180Y-54124717D01*
X56462898Y-53923097D01*
X56555693Y-53699069D01*
X56603000Y-53461243D01*
X56603000Y-53218757D01*
X56681000Y-53218757D01*
X56681000Y-53461243D01*
X56728307Y-53699069D01*
X56821102Y-53923097D01*
X56955820Y-54124717D01*
X57127283Y-54296180D01*
X57328903Y-54430898D01*
X57552931Y-54523693D01*
X57790757Y-54571000D01*
X58033243Y-54571000D01*
X58271069Y-54523693D01*
X58495097Y-54430898D01*
X58696717Y-54296180D01*
X58868180Y-54124717D01*
X59002898Y-53923097D01*
X59095693Y-53699069D01*
X59143000Y-53461243D01*
X59143000Y-53218757D01*
X59095693Y-52980931D01*
X59034005Y-52832000D01*
X66162700Y-52832000D01*
X66179864Y-53006274D01*
X66230698Y-53173852D01*
X66313248Y-53328291D01*
X66424341Y-53463659D01*
X66559709Y-53574752D01*
X66714148Y-53657302D01*
X66881726Y-53708136D01*
X67056000Y-53725300D01*
X67230274Y-53708136D01*
X67397852Y-53657302D01*
X67552291Y-53574752D01*
X67653740Y-53491495D01*
X68655235Y-52490000D01*
X90207157Y-52490000D01*
X90207157Y-54190000D01*
X90214513Y-54264689D01*
X90236299Y-54336508D01*
X90271678Y-54402696D01*
X90319289Y-54460711D01*
X90377304Y-54508322D01*
X90443492Y-54543701D01*
X90515311Y-54565487D01*
X90590000Y-54572843D01*
X92290000Y-54572843D01*
X92364689Y-54565487D01*
X92436508Y-54543701D01*
X92502696Y-54508322D01*
X92560711Y-54460711D01*
X92608322Y-54402696D01*
X92643701Y-54336508D01*
X92665487Y-54264689D01*
X92672843Y-54190000D01*
X92672843Y-53218757D01*
X92749000Y-53218757D01*
X92749000Y-53461243D01*
X92796307Y-53699069D01*
X92889102Y-53923097D01*
X93023820Y-54124717D01*
X93195283Y-54296180D01*
X93396903Y-54430898D01*
X93620931Y-54523693D01*
X93858757Y-54571000D01*
X94101243Y-54571000D01*
X94339069Y-54523693D01*
X94563097Y-54430898D01*
X94764717Y-54296180D01*
X94936180Y-54124717D01*
X95070898Y-53923097D01*
X95163693Y-53699069D01*
X95211000Y-53461243D01*
X95211000Y-53218757D01*
X95163693Y-52980931D01*
X95070898Y-52756903D01*
X94936180Y-52555283D01*
X94764717Y-52383820D01*
X94563097Y-52249102D01*
X94339069Y-52156307D01*
X94101243Y-52109000D01*
X93858757Y-52109000D01*
X93620931Y-52156307D01*
X93396903Y-52249102D01*
X93195283Y-52383820D01*
X93023820Y-52555283D01*
X92889102Y-52756903D01*
X92796307Y-52980931D01*
X92749000Y-53218757D01*
X92672843Y-53218757D01*
X92672843Y-52490000D01*
X92665487Y-52415311D01*
X92643701Y-52343492D01*
X92608322Y-52277304D01*
X92560711Y-52219289D01*
X92502696Y-52171678D01*
X92436508Y-52136299D01*
X92364689Y-52114513D01*
X92290000Y-52107157D01*
X90590000Y-52107157D01*
X90515311Y-52114513D01*
X90443492Y-52136299D01*
X90377304Y-52171678D01*
X90319289Y-52219289D01*
X90271678Y-52277304D01*
X90236299Y-52343492D01*
X90214513Y-52415311D01*
X90207157Y-52490000D01*
X68655235Y-52490000D01*
X69239494Y-51905742D01*
X69322751Y-51804292D01*
X69405302Y-51649853D01*
X69456136Y-51482276D01*
X69473300Y-51308001D01*
X69456136Y-51133726D01*
X69405302Y-50966149D01*
X69322751Y-50811709D01*
X69211658Y-50676342D01*
X69076291Y-50565249D01*
X68921851Y-50482698D01*
X68754274Y-50431864D01*
X68579999Y-50414700D01*
X68405724Y-50431864D01*
X68238147Y-50482698D01*
X68083708Y-50565249D01*
X67982258Y-50648506D01*
X66396505Y-52234260D01*
X66313248Y-52335709D01*
X66230698Y-52490148D01*
X66179864Y-52657726D01*
X66162700Y-52832000D01*
X59034005Y-52832000D01*
X59002898Y-52756903D01*
X58868180Y-52555283D01*
X58696717Y-52383820D01*
X58495097Y-52249102D01*
X58271069Y-52156307D01*
X58033243Y-52109000D01*
X57790757Y-52109000D01*
X57552931Y-52156307D01*
X57328903Y-52249102D01*
X57127283Y-52383820D01*
X56955820Y-52555283D01*
X56821102Y-52756903D01*
X56728307Y-52980931D01*
X56681000Y-53218757D01*
X56603000Y-53218757D01*
X56555693Y-52980931D01*
X56462898Y-52756903D01*
X56328180Y-52555283D01*
X56156717Y-52383820D01*
X55955097Y-52249102D01*
X55731069Y-52156307D01*
X55493243Y-52109000D01*
X55250757Y-52109000D01*
X55012931Y-52156307D01*
X54788903Y-52249102D01*
X54587283Y-52383820D01*
X54415820Y-52555283D01*
X54281102Y-52756903D01*
X54188307Y-52980931D01*
X54141000Y-53218757D01*
X25806000Y-53218757D01*
X25806000Y-47181458D01*
X62865000Y-47181458D01*
X62865000Y-47306542D01*
X62889403Y-47429223D01*
X62937271Y-47544785D01*
X63006764Y-47648789D01*
X63095211Y-47737236D01*
X63199215Y-47806729D01*
X63314777Y-47854597D01*
X63411396Y-47873816D01*
X63420044Y-47882464D01*
X63314777Y-47903403D01*
X63199215Y-47951271D01*
X63095211Y-48020764D01*
X63006764Y-48109211D01*
X62937271Y-48213215D01*
X62889403Y-48328777D01*
X62865000Y-48451458D01*
X62865000Y-48576542D01*
X62889403Y-48699223D01*
X62937271Y-48814785D01*
X63006764Y-48918789D01*
X63095211Y-49007236D01*
X63199215Y-49076729D01*
X63314777Y-49124597D01*
X63437458Y-49149000D01*
X63562542Y-49149000D01*
X63685223Y-49124597D01*
X63800785Y-49076729D01*
X63882693Y-49022000D01*
X64813580Y-49022000D01*
X65228150Y-49436571D01*
X65244053Y-49455949D01*
X65263430Y-49471851D01*
X65321405Y-49519430D01*
X65409656Y-49566601D01*
X65409658Y-49566602D01*
X65505416Y-49595650D01*
X65580054Y-49603001D01*
X65580056Y-49603001D01*
X65605000Y-49605458D01*
X65629944Y-49603001D01*
X66450055Y-49603001D01*
X66474999Y-49605458D01*
X66499943Y-49603001D01*
X66499946Y-49603001D01*
X66574584Y-49595650D01*
X66670342Y-49566602D01*
X66758594Y-49519430D01*
X66835947Y-49455949D01*
X66851854Y-49436566D01*
X66974381Y-49314039D01*
X72558966Y-49314039D01*
X72583910Y-49316496D01*
X72608854Y-49314039D01*
X72608857Y-49314039D01*
X72683495Y-49306688D01*
X72779253Y-49277640D01*
X72867505Y-49230468D01*
X72944858Y-49166987D01*
X72960765Y-49147604D01*
X74680559Y-47427811D01*
X74705595Y-47414429D01*
X74782948Y-47350948D01*
X74798855Y-47331565D01*
X74867851Y-47262569D01*
X74915430Y-47204594D01*
X74928813Y-47179556D01*
X75017565Y-47090804D01*
X75036948Y-47074897D01*
X75100429Y-46997544D01*
X75147601Y-46909292D01*
X75176649Y-46813534D01*
X75184000Y-46738896D01*
X75184000Y-46738894D01*
X75186457Y-46713950D01*
X75184000Y-46689006D01*
X75184000Y-45340693D01*
X75238729Y-45258785D01*
X75286597Y-45143223D01*
X75311000Y-45020542D01*
X75311000Y-44895458D01*
X75286597Y-44772777D01*
X75238729Y-44657215D01*
X75169236Y-44553211D01*
X75080789Y-44464764D01*
X74976785Y-44395271D01*
X74861223Y-44347403D01*
X74738542Y-44323000D01*
X74613458Y-44323000D01*
X74490777Y-44347403D01*
X74375215Y-44395271D01*
X74271211Y-44464764D01*
X74182764Y-44553211D01*
X74113271Y-44657215D01*
X74065403Y-44772777D01*
X74041000Y-44895458D01*
X74041000Y-45020542D01*
X74065403Y-45143223D01*
X74113271Y-45258785D01*
X74168001Y-45340694D01*
X74168000Y-45897549D01*
X74095223Y-45867403D01*
X73972542Y-45843000D01*
X73847458Y-45843000D01*
X73724777Y-45867403D01*
X73609215Y-45915271D01*
X73505211Y-45984764D01*
X73416764Y-46073211D01*
X73347271Y-46177215D01*
X73299403Y-46292777D01*
X73275000Y-46415458D01*
X73275000Y-46540542D01*
X73299403Y-46663223D01*
X73318979Y-46710482D01*
X73158470Y-46870991D01*
X73137236Y-46839211D01*
X73048789Y-46750764D01*
X72944785Y-46681271D01*
X72829223Y-46633403D01*
X72760306Y-46619694D01*
X72746597Y-46550777D01*
X72698729Y-46435215D01*
X72629236Y-46331211D01*
X72540789Y-46242764D01*
X72436785Y-46173271D01*
X72321223Y-46125403D01*
X72252306Y-46111694D01*
X72238597Y-46042777D01*
X72190729Y-45927215D01*
X72121236Y-45823211D01*
X72032789Y-45734764D01*
X71928785Y-45665271D01*
X71813223Y-45617403D01*
X71690542Y-45593000D01*
X71565458Y-45593000D01*
X71442777Y-45617403D01*
X71327215Y-45665271D01*
X71223211Y-45734764D01*
X71134764Y-45823211D01*
X71065271Y-45927215D01*
X71017403Y-46042777D01*
X70998184Y-46139395D01*
X70677167Y-46460413D01*
X70666729Y-46435215D01*
X70597236Y-46331211D01*
X70508789Y-46242764D01*
X70404785Y-46173271D01*
X70289223Y-46125403D01*
X70166542Y-46101000D01*
X70041458Y-46101000D01*
X69918777Y-46125403D01*
X69803215Y-46173271D01*
X69699211Y-46242764D01*
X69610764Y-46331211D01*
X69541271Y-46435215D01*
X69493403Y-46550777D01*
X69469000Y-46673458D01*
X69469000Y-46798542D01*
X69493403Y-46921223D01*
X69499528Y-46936009D01*
X64926430Y-46936009D01*
X64383816Y-46393396D01*
X64364597Y-46296777D01*
X64316729Y-46181215D01*
X64247236Y-46077211D01*
X64158789Y-45988764D01*
X64054785Y-45919271D01*
X63939223Y-45871403D01*
X63816542Y-45847000D01*
X63691458Y-45847000D01*
X63568777Y-45871403D01*
X63453215Y-45919271D01*
X63349211Y-45988764D01*
X63260764Y-46077211D01*
X63191271Y-46181215D01*
X63143403Y-46296777D01*
X63119000Y-46419458D01*
X63119000Y-46544542D01*
X63143403Y-46667223D01*
X63160059Y-46707434D01*
X63095211Y-46750764D01*
X63006764Y-46839211D01*
X62937271Y-46943215D01*
X62889403Y-47058777D01*
X62865000Y-47181458D01*
X25806000Y-47181458D01*
X25806000Y-40069458D01*
X51943000Y-40069458D01*
X51943000Y-40194542D01*
X51967403Y-40317223D01*
X52015271Y-40432785D01*
X52070001Y-40514694D01*
X52070000Y-42797307D01*
X52015271Y-42879215D01*
X51967403Y-42994777D01*
X51943000Y-43117458D01*
X51943000Y-43242542D01*
X51967403Y-43365223D01*
X52015271Y-43480785D01*
X52084764Y-43584789D01*
X52173211Y-43673236D01*
X52277215Y-43742729D01*
X52392777Y-43790597D01*
X52515458Y-43815000D01*
X52640542Y-43815000D01*
X52763223Y-43790597D01*
X52878785Y-43742729D01*
X52982789Y-43673236D01*
X53071236Y-43584789D01*
X53140729Y-43480785D01*
X53188597Y-43365223D01*
X53213000Y-43242542D01*
X53213000Y-43117458D01*
X53188597Y-42994777D01*
X53140729Y-42879215D01*
X53086000Y-42797307D01*
X53086000Y-41593458D01*
X59563000Y-41593458D01*
X59563000Y-41718542D01*
X59587403Y-41841223D01*
X59635271Y-41956785D01*
X59704764Y-42060789D01*
X59793211Y-42149236D01*
X59897215Y-42218729D01*
X60012777Y-42266597D01*
X60135458Y-42291000D01*
X60260542Y-42291000D01*
X60383223Y-42266597D01*
X60498785Y-42218729D01*
X60580693Y-42164000D01*
X61765580Y-42164000D01*
X62142429Y-42540850D01*
X62142434Y-42540854D01*
X62362184Y-42760605D01*
X62381403Y-42857223D01*
X62429271Y-42972785D01*
X62498764Y-43076789D01*
X62587211Y-43165236D01*
X62691215Y-43234729D01*
X62806777Y-43282597D01*
X62929458Y-43307000D01*
X63054542Y-43307000D01*
X63177223Y-43282597D01*
X63292785Y-43234729D01*
X63396789Y-43165236D01*
X63485236Y-43076789D01*
X63554729Y-42972785D01*
X63574108Y-42926000D01*
X63689542Y-42926000D01*
X63812223Y-42901597D01*
X63927785Y-42853729D01*
X64031789Y-42784236D01*
X64120236Y-42695789D01*
X64189729Y-42591785D01*
X64237597Y-42476223D01*
X64262000Y-42353542D01*
X64262000Y-42228458D01*
X64237597Y-42105777D01*
X64189729Y-41990215D01*
X64120236Y-41886211D01*
X64031789Y-41797764D01*
X63927785Y-41728271D01*
X63833180Y-41689084D01*
X63904789Y-41641236D01*
X63993236Y-41552789D01*
X64062729Y-41448785D01*
X64110597Y-41333223D01*
X64135000Y-41210542D01*
X64135000Y-41085458D01*
X64110597Y-40962777D01*
X64062729Y-40847215D01*
X64008000Y-40765307D01*
X64008000Y-39834420D01*
X65366604Y-38475816D01*
X65463223Y-38456597D01*
X65578785Y-38408729D01*
X65682789Y-38339236D01*
X65771236Y-38250789D01*
X65840729Y-38146785D01*
X65888597Y-38031223D01*
X65913000Y-37908542D01*
X65913000Y-37783458D01*
X65888597Y-37660777D01*
X65840729Y-37545215D01*
X65771236Y-37441211D01*
X65682789Y-37352764D01*
X65578785Y-37283271D01*
X65463223Y-37235403D01*
X65340542Y-37211000D01*
X65215458Y-37211000D01*
X65092777Y-37235403D01*
X64977215Y-37283271D01*
X64873211Y-37352764D01*
X64784764Y-37441211D01*
X64715271Y-37545215D01*
X64667403Y-37660777D01*
X64648184Y-37757396D01*
X63158430Y-39247150D01*
X63139053Y-39263052D01*
X63123151Y-39282429D01*
X63123150Y-39282430D01*
X63075571Y-39340405D01*
X63028400Y-39428657D01*
X63007669Y-39497000D01*
X62999352Y-39524416D01*
X62989543Y-39624000D01*
X62992001Y-39648954D01*
X62992000Y-40765307D01*
X62937271Y-40847215D01*
X62926833Y-40872413D01*
X62606855Y-40552435D01*
X62590948Y-40533052D01*
X62513595Y-40469571D01*
X62425343Y-40422399D01*
X62329585Y-40393351D01*
X62254947Y-40386000D01*
X62254944Y-40386000D01*
X62230000Y-40383543D01*
X62205056Y-40386000D01*
X61342693Y-40386000D01*
X61260785Y-40331271D01*
X61145223Y-40283403D01*
X61022542Y-40259000D01*
X60897458Y-40259000D01*
X60774777Y-40283403D01*
X60659215Y-40331271D01*
X60555211Y-40400764D01*
X60466764Y-40489211D01*
X60397271Y-40593215D01*
X60349403Y-40708777D01*
X60325000Y-40831458D01*
X60325000Y-40956542D01*
X60341005Y-41037005D01*
X60260542Y-41021000D01*
X60135458Y-41021000D01*
X60012777Y-41045403D01*
X59897215Y-41093271D01*
X59793211Y-41162764D01*
X59704764Y-41251211D01*
X59635271Y-41355215D01*
X59587403Y-41470777D01*
X59563000Y-41593458D01*
X53086000Y-41593458D01*
X53086000Y-40514693D01*
X53140729Y-40432785D01*
X53188597Y-40317223D01*
X53213000Y-40194542D01*
X53213000Y-40069458D01*
X53188597Y-39946777D01*
X53140729Y-39831215D01*
X53071236Y-39727211D01*
X52982789Y-39638764D01*
X52878785Y-39569271D01*
X52763223Y-39521403D01*
X52640542Y-39497000D01*
X52515458Y-39497000D01*
X52392777Y-39521403D01*
X52277215Y-39569271D01*
X52173211Y-39638764D01*
X52084764Y-39727211D01*
X52015271Y-39831215D01*
X51967403Y-39946777D01*
X51943000Y-40069458D01*
X25806000Y-40069458D01*
X25806000Y-34481458D01*
X65913000Y-34481458D01*
X65913000Y-34606542D01*
X65937403Y-34729223D01*
X65985271Y-34844785D01*
X66040000Y-34926693D01*
X66040001Y-36551046D01*
X66037543Y-36576000D01*
X66042934Y-36630729D01*
X66047352Y-36675585D01*
X66067629Y-36742429D01*
X66076400Y-36771343D01*
X66123571Y-36859595D01*
X66155727Y-36898777D01*
X66187053Y-36936948D01*
X66206430Y-36952850D01*
X66426184Y-37172605D01*
X66445403Y-37269223D01*
X66493271Y-37384785D01*
X66562764Y-37488789D01*
X66651211Y-37577236D01*
X66755215Y-37646729D01*
X66870777Y-37694597D01*
X66993458Y-37719000D01*
X67118542Y-37719000D01*
X67241223Y-37694597D01*
X67356785Y-37646729D01*
X67460789Y-37577236D01*
X67549236Y-37488789D01*
X67618729Y-37384785D01*
X67666597Y-37269223D01*
X67691000Y-37146542D01*
X67691000Y-37021458D01*
X67666597Y-36898777D01*
X67618729Y-36783215D01*
X67549236Y-36679211D01*
X67460789Y-36590764D01*
X67356785Y-36521271D01*
X67241223Y-36473403D01*
X67144605Y-36454184D01*
X67056000Y-36365580D01*
X67056000Y-35751458D01*
X67945000Y-35751458D01*
X67945000Y-35876542D01*
X67969403Y-35999223D01*
X68017271Y-36114785D01*
X68072000Y-36196694D01*
X68072000Y-36551054D01*
X68072001Y-43917046D01*
X68069543Y-43942000D01*
X68079352Y-44041584D01*
X68108400Y-44137343D01*
X68155571Y-44225595D01*
X68187727Y-44264777D01*
X68219053Y-44302948D01*
X68238430Y-44318850D01*
X68458184Y-44538605D01*
X68477403Y-44635223D01*
X68525271Y-44750785D01*
X68594764Y-44854789D01*
X68683211Y-44943236D01*
X68787215Y-45012729D01*
X68902777Y-45060597D01*
X69025458Y-45085000D01*
X69150542Y-45085000D01*
X69273223Y-45060597D01*
X69388785Y-45012729D01*
X69492789Y-44943236D01*
X69581236Y-44854789D01*
X69650729Y-44750785D01*
X69698597Y-44635223D01*
X69723000Y-44512542D01*
X69723000Y-44387458D01*
X69698597Y-44264777D01*
X69650729Y-44149215D01*
X69581236Y-44045211D01*
X69492789Y-43956764D01*
X69388785Y-43887271D01*
X69273223Y-43839403D01*
X69176605Y-43820184D01*
X69088000Y-43731580D01*
X69088000Y-36196693D01*
X69142729Y-36114785D01*
X69190597Y-35999223D01*
X69215000Y-35876542D01*
X69239403Y-35999223D01*
X69287271Y-36114785D01*
X69342000Y-36196694D01*
X69342000Y-36551053D01*
X69339543Y-36576000D01*
X69342000Y-36600944D01*
X69342000Y-36600946D01*
X69349351Y-36675584D01*
X69378399Y-36771342D01*
X69425571Y-36859595D01*
X69489052Y-36936948D01*
X69508435Y-36952855D01*
X75692001Y-43136422D01*
X75692000Y-46353307D01*
X75637271Y-46435215D01*
X75589403Y-46550777D01*
X75565000Y-46673458D01*
X75565000Y-46798542D01*
X75589403Y-46921223D01*
X75637271Y-47036785D01*
X75706764Y-47140789D01*
X75795211Y-47229236D01*
X75899215Y-47298729D01*
X76014777Y-47346597D01*
X76137458Y-47371000D01*
X76262542Y-47371000D01*
X76385223Y-47346597D01*
X76500785Y-47298729D01*
X76604789Y-47229236D01*
X76693236Y-47140789D01*
X76762729Y-47036785D01*
X76810597Y-46921223D01*
X76835000Y-46798542D01*
X76835000Y-46673458D01*
X76810597Y-46550777D01*
X76762729Y-46435215D01*
X76708000Y-46353307D01*
X76708000Y-42950943D01*
X76710457Y-42925999D01*
X76705849Y-42879215D01*
X76700649Y-42826415D01*
X76671601Y-42730657D01*
X76641561Y-42674457D01*
X76624429Y-42642404D01*
X76576850Y-42584429D01*
X76560948Y-42565052D01*
X76541571Y-42549150D01*
X70358000Y-36365580D01*
X70358000Y-36196693D01*
X70412729Y-36114785D01*
X70458014Y-36005458D01*
X81661000Y-36005458D01*
X81661000Y-36130542D01*
X81685403Y-36253223D01*
X81733271Y-36368785D01*
X81788000Y-36450693D01*
X81788001Y-38225306D01*
X81733271Y-38307215D01*
X81685403Y-38422777D01*
X81661000Y-38545458D01*
X81661000Y-38670542D01*
X81685403Y-38793223D01*
X81733271Y-38908785D01*
X81802764Y-39012789D01*
X81891211Y-39101236D01*
X81995215Y-39170729D01*
X82110777Y-39218597D01*
X82233458Y-39243000D01*
X82358542Y-39243000D01*
X82481223Y-39218597D01*
X82596785Y-39170729D01*
X82700789Y-39101236D01*
X82789236Y-39012789D01*
X82804000Y-38990693D01*
X82818764Y-39012789D01*
X82907211Y-39101236D01*
X83011215Y-39170729D01*
X83126777Y-39218597D01*
X83249458Y-39243000D01*
X83374542Y-39243000D01*
X83497223Y-39218597D01*
X83612785Y-39170729D01*
X83716789Y-39101236D01*
X83805236Y-39012789D01*
X83874729Y-38908785D01*
X83922597Y-38793223D01*
X83947000Y-38670542D01*
X83947000Y-38545458D01*
X83922597Y-38422777D01*
X83874729Y-38307215D01*
X83820000Y-38225307D01*
X83820000Y-36450693D01*
X83874729Y-36368785D01*
X83922597Y-36253223D01*
X83947000Y-36130542D01*
X83947000Y-36005458D01*
X83922597Y-35882777D01*
X83874729Y-35767215D01*
X83805236Y-35663211D01*
X83716789Y-35574764D01*
X83612785Y-35505271D01*
X83497223Y-35457403D01*
X83374542Y-35433000D01*
X83249458Y-35433000D01*
X83126777Y-35457403D01*
X83011215Y-35505271D01*
X82907211Y-35574764D01*
X82818764Y-35663211D01*
X82804000Y-35685307D01*
X82789236Y-35663211D01*
X82700789Y-35574764D01*
X82596785Y-35505271D01*
X82481223Y-35457403D01*
X82358542Y-35433000D01*
X82233458Y-35433000D01*
X82110777Y-35457403D01*
X81995215Y-35505271D01*
X81891211Y-35574764D01*
X81802764Y-35663211D01*
X81733271Y-35767215D01*
X81685403Y-35882777D01*
X81661000Y-36005458D01*
X70458014Y-36005458D01*
X70460597Y-35999223D01*
X70485000Y-35876542D01*
X70485000Y-35751458D01*
X70460597Y-35628777D01*
X70412729Y-35513215D01*
X70343236Y-35409211D01*
X70254789Y-35320764D01*
X70150785Y-35251271D01*
X70035223Y-35203403D01*
X69912542Y-35179000D01*
X69787458Y-35179000D01*
X69664777Y-35203403D01*
X69549215Y-35251271D01*
X69445211Y-35320764D01*
X69356764Y-35409211D01*
X69287271Y-35513215D01*
X69239403Y-35628777D01*
X69215000Y-35751458D01*
X69190597Y-35628777D01*
X69142729Y-35513215D01*
X69073236Y-35409211D01*
X68984789Y-35320764D01*
X68880785Y-35251271D01*
X68765223Y-35203403D01*
X68642542Y-35179000D01*
X68517458Y-35179000D01*
X68394777Y-35203403D01*
X68279215Y-35251271D01*
X68175211Y-35320764D01*
X68086764Y-35409211D01*
X68017271Y-35513215D01*
X67969403Y-35628777D01*
X67945000Y-35751458D01*
X67056000Y-35751458D01*
X67056000Y-34926693D01*
X67110729Y-34844785D01*
X67158597Y-34729223D01*
X67183000Y-34606542D01*
X67183000Y-34481458D01*
X67158597Y-34358777D01*
X67110729Y-34243215D01*
X67041236Y-34139211D01*
X66952789Y-34050764D01*
X66848785Y-33981271D01*
X66733223Y-33933403D01*
X66610542Y-33909000D01*
X66485458Y-33909000D01*
X66362777Y-33933403D01*
X66247215Y-33981271D01*
X66143211Y-34050764D01*
X66054764Y-34139211D01*
X65985271Y-34243215D01*
X65937403Y-34358777D01*
X65913000Y-34481458D01*
X25806000Y-34481458D01*
X25806000Y-27818757D01*
X54141000Y-27818757D01*
X54141000Y-28061243D01*
X54188307Y-28299069D01*
X54281102Y-28523097D01*
X54415820Y-28724717D01*
X54587283Y-28896180D01*
X54788903Y-29030898D01*
X55012931Y-29123693D01*
X55250757Y-29171000D01*
X55493243Y-29171000D01*
X55731069Y-29123693D01*
X55955097Y-29030898D01*
X56156717Y-28896180D01*
X56328180Y-28724717D01*
X56462898Y-28523097D01*
X56555693Y-28299069D01*
X56603000Y-28061243D01*
X56603000Y-27818757D01*
X56681000Y-27818757D01*
X56681000Y-28061243D01*
X56728307Y-28299069D01*
X56821102Y-28523097D01*
X56955820Y-28724717D01*
X57127283Y-28896180D01*
X57328903Y-29030898D01*
X57552931Y-29123693D01*
X57790757Y-29171000D01*
X58033243Y-29171000D01*
X58271069Y-29123693D01*
X58495097Y-29030898D01*
X58696717Y-28896180D01*
X58868180Y-28724717D01*
X59002898Y-28523097D01*
X59095693Y-28299069D01*
X59143000Y-28061243D01*
X59143000Y-27818757D01*
X59095693Y-27580931D01*
X59002898Y-27356903D01*
X58868180Y-27155283D01*
X58802897Y-27090000D01*
X73189157Y-27090000D01*
X73189157Y-28790000D01*
X73196513Y-28864689D01*
X73218299Y-28936508D01*
X73253678Y-29002696D01*
X73301289Y-29060711D01*
X73359304Y-29108322D01*
X73425492Y-29143701D01*
X73497311Y-29165487D01*
X73572000Y-29172843D01*
X75272000Y-29172843D01*
X75346689Y-29165487D01*
X75418508Y-29143701D01*
X75484696Y-29108322D01*
X75542711Y-29060711D01*
X75590322Y-29002696D01*
X75625701Y-28936508D01*
X75647487Y-28864689D01*
X75654843Y-28790000D01*
X75654843Y-27818757D01*
X75731000Y-27818757D01*
X75731000Y-28061243D01*
X75778307Y-28299069D01*
X75871102Y-28523097D01*
X76005820Y-28724717D01*
X76177283Y-28896180D01*
X76378903Y-29030898D01*
X76602931Y-29123693D01*
X76840757Y-29171000D01*
X77083243Y-29171000D01*
X77321069Y-29123693D01*
X77545097Y-29030898D01*
X77746717Y-28896180D01*
X77918180Y-28724717D01*
X78052898Y-28523097D01*
X78145693Y-28299069D01*
X78193000Y-28061243D01*
X78193000Y-27818757D01*
X78271000Y-27818757D01*
X78271000Y-28061243D01*
X78318307Y-28299069D01*
X78411102Y-28523097D01*
X78545820Y-28724717D01*
X78717283Y-28896180D01*
X78918903Y-29030898D01*
X79142931Y-29123693D01*
X79380757Y-29171000D01*
X79623243Y-29171000D01*
X79861069Y-29123693D01*
X80085097Y-29030898D01*
X80286717Y-28896180D01*
X80458180Y-28724717D01*
X80592898Y-28523097D01*
X80685693Y-28299069D01*
X80733000Y-28061243D01*
X80733000Y-27818757D01*
X80685693Y-27580931D01*
X80592898Y-27356903D01*
X80458180Y-27155283D01*
X80392897Y-27090000D01*
X90207157Y-27090000D01*
X90207157Y-28790000D01*
X90214513Y-28864689D01*
X90236299Y-28936508D01*
X90271678Y-29002696D01*
X90319289Y-29060711D01*
X90377304Y-29108322D01*
X90443492Y-29143701D01*
X90515311Y-29165487D01*
X90590000Y-29172843D01*
X92290000Y-29172843D01*
X92364689Y-29165487D01*
X92436508Y-29143701D01*
X92502696Y-29108322D01*
X92560711Y-29060711D01*
X92608322Y-29002696D01*
X92643701Y-28936508D01*
X92665487Y-28864689D01*
X92672843Y-28790000D01*
X92672843Y-27818757D01*
X92749000Y-27818757D01*
X92749000Y-28061243D01*
X92796307Y-28299069D01*
X92889102Y-28523097D01*
X93023820Y-28724717D01*
X93195283Y-28896180D01*
X93396903Y-29030898D01*
X93620931Y-29123693D01*
X93858757Y-29171000D01*
X94101243Y-29171000D01*
X94339069Y-29123693D01*
X94563097Y-29030898D01*
X94764717Y-28896180D01*
X94936180Y-28724717D01*
X95070898Y-28523097D01*
X95163693Y-28299069D01*
X95211000Y-28061243D01*
X95211000Y-27818757D01*
X95163693Y-27580931D01*
X95070898Y-27356903D01*
X94936180Y-27155283D01*
X94764717Y-26983820D01*
X94563097Y-26849102D01*
X94339069Y-26756307D01*
X94101243Y-26709000D01*
X93858757Y-26709000D01*
X93620931Y-26756307D01*
X93396903Y-26849102D01*
X93195283Y-26983820D01*
X93023820Y-27155283D01*
X92889102Y-27356903D01*
X92796307Y-27580931D01*
X92749000Y-27818757D01*
X92672843Y-27818757D01*
X92672843Y-27090000D01*
X92665487Y-27015311D01*
X92643701Y-26943492D01*
X92608322Y-26877304D01*
X92560711Y-26819289D01*
X92502696Y-26771678D01*
X92436508Y-26736299D01*
X92364689Y-26714513D01*
X92290000Y-26707157D01*
X90590000Y-26707157D01*
X90515311Y-26714513D01*
X90443492Y-26736299D01*
X90377304Y-26771678D01*
X90319289Y-26819289D01*
X90271678Y-26877304D01*
X90236299Y-26943492D01*
X90214513Y-27015311D01*
X90207157Y-27090000D01*
X80392897Y-27090000D01*
X80286717Y-26983820D01*
X80085097Y-26849102D01*
X79861069Y-26756307D01*
X79623243Y-26709000D01*
X79380757Y-26709000D01*
X79142931Y-26756307D01*
X78918903Y-26849102D01*
X78717283Y-26983820D01*
X78545820Y-27155283D01*
X78411102Y-27356903D01*
X78318307Y-27580931D01*
X78271000Y-27818757D01*
X78193000Y-27818757D01*
X78145693Y-27580931D01*
X78052898Y-27356903D01*
X77918180Y-27155283D01*
X77746717Y-26983820D01*
X77545097Y-26849102D01*
X77321069Y-26756307D01*
X77083243Y-26709000D01*
X76840757Y-26709000D01*
X76602931Y-26756307D01*
X76378903Y-26849102D01*
X76177283Y-26983820D01*
X76005820Y-27155283D01*
X75871102Y-27356903D01*
X75778307Y-27580931D01*
X75731000Y-27818757D01*
X75654843Y-27818757D01*
X75654843Y-27090000D01*
X75647487Y-27015311D01*
X75625701Y-26943492D01*
X75590322Y-26877304D01*
X75542711Y-26819289D01*
X75484696Y-26771678D01*
X75418508Y-26736299D01*
X75346689Y-26714513D01*
X75272000Y-26707157D01*
X73572000Y-26707157D01*
X73497311Y-26714513D01*
X73425492Y-26736299D01*
X73359304Y-26771678D01*
X73301289Y-26819289D01*
X73253678Y-26877304D01*
X73218299Y-26943492D01*
X73196513Y-27015311D01*
X73189157Y-27090000D01*
X58802897Y-27090000D01*
X58696717Y-26983820D01*
X58495097Y-26849102D01*
X58271069Y-26756307D01*
X58033243Y-26709000D01*
X57790757Y-26709000D01*
X57552931Y-26756307D01*
X57328903Y-26849102D01*
X57127283Y-26983820D01*
X56955820Y-27155283D01*
X56821102Y-27356903D01*
X56728307Y-27580931D01*
X56681000Y-27818757D01*
X56603000Y-27818757D01*
X56555693Y-27580931D01*
X56462898Y-27356903D01*
X56328180Y-27155283D01*
X56156717Y-26983820D01*
X55955097Y-26849102D01*
X55731069Y-26756307D01*
X55493243Y-26709000D01*
X55250757Y-26709000D01*
X55012931Y-26756307D01*
X54788903Y-26849102D01*
X54587283Y-26983820D01*
X54415820Y-27155283D01*
X54281102Y-27356903D01*
X54188307Y-27580931D01*
X54141000Y-27818757D01*
X25806000Y-27818757D01*
X25806000Y-25806000D01*
X101194000Y-25806000D01*
X101194001Y-55474000D01*
G37*
X101194001Y-55474000D02*
X25806000Y-55474000D01*
X25806000Y-53218757D01*
X54141000Y-53218757D01*
X54141000Y-53461243D01*
X54188307Y-53699069D01*
X54281102Y-53923097D01*
X54415820Y-54124717D01*
X54587283Y-54296180D01*
X54788903Y-54430898D01*
X55012931Y-54523693D01*
X55250757Y-54571000D01*
X55493243Y-54571000D01*
X55731069Y-54523693D01*
X55955097Y-54430898D01*
X56156717Y-54296180D01*
X56328180Y-54124717D01*
X56462898Y-53923097D01*
X56555693Y-53699069D01*
X56603000Y-53461243D01*
X56603000Y-53218757D01*
X56681000Y-53218757D01*
X56681000Y-53461243D01*
X56728307Y-53699069D01*
X56821102Y-53923097D01*
X56955820Y-54124717D01*
X57127283Y-54296180D01*
X57328903Y-54430898D01*
X57552931Y-54523693D01*
X57790757Y-54571000D01*
X58033243Y-54571000D01*
X58271069Y-54523693D01*
X58495097Y-54430898D01*
X58696717Y-54296180D01*
X58868180Y-54124717D01*
X59002898Y-53923097D01*
X59095693Y-53699069D01*
X59143000Y-53461243D01*
X59143000Y-53218757D01*
X59095693Y-52980931D01*
X59034005Y-52832000D01*
X66162700Y-52832000D01*
X66179864Y-53006274D01*
X66230698Y-53173852D01*
X66313248Y-53328291D01*
X66424341Y-53463659D01*
X66559709Y-53574752D01*
X66714148Y-53657302D01*
X66881726Y-53708136D01*
X67056000Y-53725300D01*
X67230274Y-53708136D01*
X67397852Y-53657302D01*
X67552291Y-53574752D01*
X67653740Y-53491495D01*
X68655235Y-52490000D01*
X90207157Y-52490000D01*
X90207157Y-54190000D01*
X90214513Y-54264689D01*
X90236299Y-54336508D01*
X90271678Y-54402696D01*
X90319289Y-54460711D01*
X90377304Y-54508322D01*
X90443492Y-54543701D01*
X90515311Y-54565487D01*
X90590000Y-54572843D01*
X92290000Y-54572843D01*
X92364689Y-54565487D01*
X92436508Y-54543701D01*
X92502696Y-54508322D01*
X92560711Y-54460711D01*
X92608322Y-54402696D01*
X92643701Y-54336508D01*
X92665487Y-54264689D01*
X92672843Y-54190000D01*
X92672843Y-53218757D01*
X92749000Y-53218757D01*
X92749000Y-53461243D01*
X92796307Y-53699069D01*
X92889102Y-53923097D01*
X93023820Y-54124717D01*
X93195283Y-54296180D01*
X93396903Y-54430898D01*
X93620931Y-54523693D01*
X93858757Y-54571000D01*
X94101243Y-54571000D01*
X94339069Y-54523693D01*
X94563097Y-54430898D01*
X94764717Y-54296180D01*
X94936180Y-54124717D01*
X95070898Y-53923097D01*
X95163693Y-53699069D01*
X95211000Y-53461243D01*
X95211000Y-53218757D01*
X95163693Y-52980931D01*
X95070898Y-52756903D01*
X94936180Y-52555283D01*
X94764717Y-52383820D01*
X94563097Y-52249102D01*
X94339069Y-52156307D01*
X94101243Y-52109000D01*
X93858757Y-52109000D01*
X93620931Y-52156307D01*
X93396903Y-52249102D01*
X93195283Y-52383820D01*
X93023820Y-52555283D01*
X92889102Y-52756903D01*
X92796307Y-52980931D01*
X92749000Y-53218757D01*
X92672843Y-53218757D01*
X92672843Y-52490000D01*
X92665487Y-52415311D01*
X92643701Y-52343492D01*
X92608322Y-52277304D01*
X92560711Y-52219289D01*
X92502696Y-52171678D01*
X92436508Y-52136299D01*
X92364689Y-52114513D01*
X92290000Y-52107157D01*
X90590000Y-52107157D01*
X90515311Y-52114513D01*
X90443492Y-52136299D01*
X90377304Y-52171678D01*
X90319289Y-52219289D01*
X90271678Y-52277304D01*
X90236299Y-52343492D01*
X90214513Y-52415311D01*
X90207157Y-52490000D01*
X68655235Y-52490000D01*
X69239494Y-51905742D01*
X69322751Y-51804292D01*
X69405302Y-51649853D01*
X69456136Y-51482276D01*
X69473300Y-51308001D01*
X69456136Y-51133726D01*
X69405302Y-50966149D01*
X69322751Y-50811709D01*
X69211658Y-50676342D01*
X69076291Y-50565249D01*
X68921851Y-50482698D01*
X68754274Y-50431864D01*
X68579999Y-50414700D01*
X68405724Y-50431864D01*
X68238147Y-50482698D01*
X68083708Y-50565249D01*
X67982258Y-50648506D01*
X66396505Y-52234260D01*
X66313248Y-52335709D01*
X66230698Y-52490148D01*
X66179864Y-52657726D01*
X66162700Y-52832000D01*
X59034005Y-52832000D01*
X59002898Y-52756903D01*
X58868180Y-52555283D01*
X58696717Y-52383820D01*
X58495097Y-52249102D01*
X58271069Y-52156307D01*
X58033243Y-52109000D01*
X57790757Y-52109000D01*
X57552931Y-52156307D01*
X57328903Y-52249102D01*
X57127283Y-52383820D01*
X56955820Y-52555283D01*
X56821102Y-52756903D01*
X56728307Y-52980931D01*
X56681000Y-53218757D01*
X56603000Y-53218757D01*
X56555693Y-52980931D01*
X56462898Y-52756903D01*
X56328180Y-52555283D01*
X56156717Y-52383820D01*
X55955097Y-52249102D01*
X55731069Y-52156307D01*
X55493243Y-52109000D01*
X55250757Y-52109000D01*
X55012931Y-52156307D01*
X54788903Y-52249102D01*
X54587283Y-52383820D01*
X54415820Y-52555283D01*
X54281102Y-52756903D01*
X54188307Y-52980931D01*
X54141000Y-53218757D01*
X25806000Y-53218757D01*
X25806000Y-47181458D01*
X62865000Y-47181458D01*
X62865000Y-47306542D01*
X62889403Y-47429223D01*
X62937271Y-47544785D01*
X63006764Y-47648789D01*
X63095211Y-47737236D01*
X63199215Y-47806729D01*
X63314777Y-47854597D01*
X63411396Y-47873816D01*
X63420044Y-47882464D01*
X63314777Y-47903403D01*
X63199215Y-47951271D01*
X63095211Y-48020764D01*
X63006764Y-48109211D01*
X62937271Y-48213215D01*
X62889403Y-48328777D01*
X62865000Y-48451458D01*
X62865000Y-48576542D01*
X62889403Y-48699223D01*
X62937271Y-48814785D01*
X63006764Y-48918789D01*
X63095211Y-49007236D01*
X63199215Y-49076729D01*
X63314777Y-49124597D01*
X63437458Y-49149000D01*
X63562542Y-49149000D01*
X63685223Y-49124597D01*
X63800785Y-49076729D01*
X63882693Y-49022000D01*
X64813580Y-49022000D01*
X65228150Y-49436571D01*
X65244053Y-49455949D01*
X65263430Y-49471851D01*
X65321405Y-49519430D01*
X65409656Y-49566601D01*
X65409658Y-49566602D01*
X65505416Y-49595650D01*
X65580054Y-49603001D01*
X65580056Y-49603001D01*
X65605000Y-49605458D01*
X65629944Y-49603001D01*
X66450055Y-49603001D01*
X66474999Y-49605458D01*
X66499943Y-49603001D01*
X66499946Y-49603001D01*
X66574584Y-49595650D01*
X66670342Y-49566602D01*
X66758594Y-49519430D01*
X66835947Y-49455949D01*
X66851854Y-49436566D01*
X66974381Y-49314039D01*
X72558966Y-49314039D01*
X72583910Y-49316496D01*
X72608854Y-49314039D01*
X72608857Y-49314039D01*
X72683495Y-49306688D01*
X72779253Y-49277640D01*
X72867505Y-49230468D01*
X72944858Y-49166987D01*
X72960765Y-49147604D01*
X74680559Y-47427811D01*
X74705595Y-47414429D01*
X74782948Y-47350948D01*
X74798855Y-47331565D01*
X74867851Y-47262569D01*
X74915430Y-47204594D01*
X74928813Y-47179556D01*
X75017565Y-47090804D01*
X75036948Y-47074897D01*
X75100429Y-46997544D01*
X75147601Y-46909292D01*
X75176649Y-46813534D01*
X75184000Y-46738896D01*
X75184000Y-46738894D01*
X75186457Y-46713950D01*
X75184000Y-46689006D01*
X75184000Y-45340693D01*
X75238729Y-45258785D01*
X75286597Y-45143223D01*
X75311000Y-45020542D01*
X75311000Y-44895458D01*
X75286597Y-44772777D01*
X75238729Y-44657215D01*
X75169236Y-44553211D01*
X75080789Y-44464764D01*
X74976785Y-44395271D01*
X74861223Y-44347403D01*
X74738542Y-44323000D01*
X74613458Y-44323000D01*
X74490777Y-44347403D01*
X74375215Y-44395271D01*
X74271211Y-44464764D01*
X74182764Y-44553211D01*
X74113271Y-44657215D01*
X74065403Y-44772777D01*
X74041000Y-44895458D01*
X74041000Y-45020542D01*
X74065403Y-45143223D01*
X74113271Y-45258785D01*
X74168001Y-45340694D01*
X74168000Y-45897549D01*
X74095223Y-45867403D01*
X73972542Y-45843000D01*
X73847458Y-45843000D01*
X73724777Y-45867403D01*
X73609215Y-45915271D01*
X73505211Y-45984764D01*
X73416764Y-46073211D01*
X73347271Y-46177215D01*
X73299403Y-46292777D01*
X73275000Y-46415458D01*
X73275000Y-46540542D01*
X73299403Y-46663223D01*
X73318979Y-46710482D01*
X73158470Y-46870991D01*
X73137236Y-46839211D01*
X73048789Y-46750764D01*
X72944785Y-46681271D01*
X72829223Y-46633403D01*
X72760306Y-46619694D01*
X72746597Y-46550777D01*
X72698729Y-46435215D01*
X72629236Y-46331211D01*
X72540789Y-46242764D01*
X72436785Y-46173271D01*
X72321223Y-46125403D01*
X72252306Y-46111694D01*
X72238597Y-46042777D01*
X72190729Y-45927215D01*
X72121236Y-45823211D01*
X72032789Y-45734764D01*
X71928785Y-45665271D01*
X71813223Y-45617403D01*
X71690542Y-45593000D01*
X71565458Y-45593000D01*
X71442777Y-45617403D01*
X71327215Y-45665271D01*
X71223211Y-45734764D01*
X71134764Y-45823211D01*
X71065271Y-45927215D01*
X71017403Y-46042777D01*
X70998184Y-46139395D01*
X70677167Y-46460413D01*
X70666729Y-46435215D01*
X70597236Y-46331211D01*
X70508789Y-46242764D01*
X70404785Y-46173271D01*
X70289223Y-46125403D01*
X70166542Y-46101000D01*
X70041458Y-46101000D01*
X69918777Y-46125403D01*
X69803215Y-46173271D01*
X69699211Y-46242764D01*
X69610764Y-46331211D01*
X69541271Y-46435215D01*
X69493403Y-46550777D01*
X69469000Y-46673458D01*
X69469000Y-46798542D01*
X69493403Y-46921223D01*
X69499528Y-46936009D01*
X64926430Y-46936009D01*
X64383816Y-46393396D01*
X64364597Y-46296777D01*
X64316729Y-46181215D01*
X64247236Y-46077211D01*
X64158789Y-45988764D01*
X64054785Y-45919271D01*
X63939223Y-45871403D01*
X63816542Y-45847000D01*
X63691458Y-45847000D01*
X63568777Y-45871403D01*
X63453215Y-45919271D01*
X63349211Y-45988764D01*
X63260764Y-46077211D01*
X63191271Y-46181215D01*
X63143403Y-46296777D01*
X63119000Y-46419458D01*
X63119000Y-46544542D01*
X63143403Y-46667223D01*
X63160059Y-46707434D01*
X63095211Y-46750764D01*
X63006764Y-46839211D01*
X62937271Y-46943215D01*
X62889403Y-47058777D01*
X62865000Y-47181458D01*
X25806000Y-47181458D01*
X25806000Y-40069458D01*
X51943000Y-40069458D01*
X51943000Y-40194542D01*
X51967403Y-40317223D01*
X52015271Y-40432785D01*
X52070001Y-40514694D01*
X52070000Y-42797307D01*
X52015271Y-42879215D01*
X51967403Y-42994777D01*
X51943000Y-43117458D01*
X51943000Y-43242542D01*
X51967403Y-43365223D01*
X52015271Y-43480785D01*
X52084764Y-43584789D01*
X52173211Y-43673236D01*
X52277215Y-43742729D01*
X52392777Y-43790597D01*
X52515458Y-43815000D01*
X52640542Y-43815000D01*
X52763223Y-43790597D01*
X52878785Y-43742729D01*
X52982789Y-43673236D01*
X53071236Y-43584789D01*
X53140729Y-43480785D01*
X53188597Y-43365223D01*
X53213000Y-43242542D01*
X53213000Y-43117458D01*
X53188597Y-42994777D01*
X53140729Y-42879215D01*
X53086000Y-42797307D01*
X53086000Y-41593458D01*
X59563000Y-41593458D01*
X59563000Y-41718542D01*
X59587403Y-41841223D01*
X59635271Y-41956785D01*
X59704764Y-42060789D01*
X59793211Y-42149236D01*
X59897215Y-42218729D01*
X60012777Y-42266597D01*
X60135458Y-42291000D01*
X60260542Y-42291000D01*
X60383223Y-42266597D01*
X60498785Y-42218729D01*
X60580693Y-42164000D01*
X61765580Y-42164000D01*
X62142429Y-42540850D01*
X62142434Y-42540854D01*
X62362184Y-42760605D01*
X62381403Y-42857223D01*
X62429271Y-42972785D01*
X62498764Y-43076789D01*
X62587211Y-43165236D01*
X62691215Y-43234729D01*
X62806777Y-43282597D01*
X62929458Y-43307000D01*
X63054542Y-43307000D01*
X63177223Y-43282597D01*
X63292785Y-43234729D01*
X63396789Y-43165236D01*
X63485236Y-43076789D01*
X63554729Y-42972785D01*
X63574108Y-42926000D01*
X63689542Y-42926000D01*
X63812223Y-42901597D01*
X63927785Y-42853729D01*
X64031789Y-42784236D01*
X64120236Y-42695789D01*
X64189729Y-42591785D01*
X64237597Y-42476223D01*
X64262000Y-42353542D01*
X64262000Y-42228458D01*
X64237597Y-42105777D01*
X64189729Y-41990215D01*
X64120236Y-41886211D01*
X64031789Y-41797764D01*
X63927785Y-41728271D01*
X63833180Y-41689084D01*
X63904789Y-41641236D01*
X63993236Y-41552789D01*
X64062729Y-41448785D01*
X64110597Y-41333223D01*
X64135000Y-41210542D01*
X64135000Y-41085458D01*
X64110597Y-40962777D01*
X64062729Y-40847215D01*
X64008000Y-40765307D01*
X64008000Y-39834420D01*
X65366604Y-38475816D01*
X65463223Y-38456597D01*
X65578785Y-38408729D01*
X65682789Y-38339236D01*
X65771236Y-38250789D01*
X65840729Y-38146785D01*
X65888597Y-38031223D01*
X65913000Y-37908542D01*
X65913000Y-37783458D01*
X65888597Y-37660777D01*
X65840729Y-37545215D01*
X65771236Y-37441211D01*
X65682789Y-37352764D01*
X65578785Y-37283271D01*
X65463223Y-37235403D01*
X65340542Y-37211000D01*
X65215458Y-37211000D01*
X65092777Y-37235403D01*
X64977215Y-37283271D01*
X64873211Y-37352764D01*
X64784764Y-37441211D01*
X64715271Y-37545215D01*
X64667403Y-37660777D01*
X64648184Y-37757396D01*
X63158430Y-39247150D01*
X63139053Y-39263052D01*
X63123151Y-39282429D01*
X63123150Y-39282430D01*
X63075571Y-39340405D01*
X63028400Y-39428657D01*
X63007669Y-39497000D01*
X62999352Y-39524416D01*
X62989543Y-39624000D01*
X62992001Y-39648954D01*
X62992000Y-40765307D01*
X62937271Y-40847215D01*
X62926833Y-40872413D01*
X62606855Y-40552435D01*
X62590948Y-40533052D01*
X62513595Y-40469571D01*
X62425343Y-40422399D01*
X62329585Y-40393351D01*
X62254947Y-40386000D01*
X62254944Y-40386000D01*
X62230000Y-40383543D01*
X62205056Y-40386000D01*
X61342693Y-40386000D01*
X61260785Y-40331271D01*
X61145223Y-40283403D01*
X61022542Y-40259000D01*
X60897458Y-40259000D01*
X60774777Y-40283403D01*
X60659215Y-40331271D01*
X60555211Y-40400764D01*
X60466764Y-40489211D01*
X60397271Y-40593215D01*
X60349403Y-40708777D01*
X60325000Y-40831458D01*
X60325000Y-40956542D01*
X60341005Y-41037005D01*
X60260542Y-41021000D01*
X60135458Y-41021000D01*
X60012777Y-41045403D01*
X59897215Y-41093271D01*
X59793211Y-41162764D01*
X59704764Y-41251211D01*
X59635271Y-41355215D01*
X59587403Y-41470777D01*
X59563000Y-41593458D01*
X53086000Y-41593458D01*
X53086000Y-40514693D01*
X53140729Y-40432785D01*
X53188597Y-40317223D01*
X53213000Y-40194542D01*
X53213000Y-40069458D01*
X53188597Y-39946777D01*
X53140729Y-39831215D01*
X53071236Y-39727211D01*
X52982789Y-39638764D01*
X52878785Y-39569271D01*
X52763223Y-39521403D01*
X52640542Y-39497000D01*
X52515458Y-39497000D01*
X52392777Y-39521403D01*
X52277215Y-39569271D01*
X52173211Y-39638764D01*
X52084764Y-39727211D01*
X52015271Y-39831215D01*
X51967403Y-39946777D01*
X51943000Y-40069458D01*
X25806000Y-40069458D01*
X25806000Y-34481458D01*
X65913000Y-34481458D01*
X65913000Y-34606542D01*
X65937403Y-34729223D01*
X65985271Y-34844785D01*
X66040000Y-34926693D01*
X66040001Y-36551046D01*
X66037543Y-36576000D01*
X66042934Y-36630729D01*
X66047352Y-36675585D01*
X66067629Y-36742429D01*
X66076400Y-36771343D01*
X66123571Y-36859595D01*
X66155727Y-36898777D01*
X66187053Y-36936948D01*
X66206430Y-36952850D01*
X66426184Y-37172605D01*
X66445403Y-37269223D01*
X66493271Y-37384785D01*
X66562764Y-37488789D01*
X66651211Y-37577236D01*
X66755215Y-37646729D01*
X66870777Y-37694597D01*
X66993458Y-37719000D01*
X67118542Y-37719000D01*
X67241223Y-37694597D01*
X67356785Y-37646729D01*
X67460789Y-37577236D01*
X67549236Y-37488789D01*
X67618729Y-37384785D01*
X67666597Y-37269223D01*
X67691000Y-37146542D01*
X67691000Y-37021458D01*
X67666597Y-36898777D01*
X67618729Y-36783215D01*
X67549236Y-36679211D01*
X67460789Y-36590764D01*
X67356785Y-36521271D01*
X67241223Y-36473403D01*
X67144605Y-36454184D01*
X67056000Y-36365580D01*
X67056000Y-35751458D01*
X67945000Y-35751458D01*
X67945000Y-35876542D01*
X67969403Y-35999223D01*
X68017271Y-36114785D01*
X68072000Y-36196694D01*
X68072000Y-36551054D01*
X68072001Y-43917046D01*
X68069543Y-43942000D01*
X68079352Y-44041584D01*
X68108400Y-44137343D01*
X68155571Y-44225595D01*
X68187727Y-44264777D01*
X68219053Y-44302948D01*
X68238430Y-44318850D01*
X68458184Y-44538605D01*
X68477403Y-44635223D01*
X68525271Y-44750785D01*
X68594764Y-44854789D01*
X68683211Y-44943236D01*
X68787215Y-45012729D01*
X68902777Y-45060597D01*
X69025458Y-45085000D01*
X69150542Y-45085000D01*
X69273223Y-45060597D01*
X69388785Y-45012729D01*
X69492789Y-44943236D01*
X69581236Y-44854789D01*
X69650729Y-44750785D01*
X69698597Y-44635223D01*
X69723000Y-44512542D01*
X69723000Y-44387458D01*
X69698597Y-44264777D01*
X69650729Y-44149215D01*
X69581236Y-44045211D01*
X69492789Y-43956764D01*
X69388785Y-43887271D01*
X69273223Y-43839403D01*
X69176605Y-43820184D01*
X69088000Y-43731580D01*
X69088000Y-36196693D01*
X69142729Y-36114785D01*
X69190597Y-35999223D01*
X69215000Y-35876542D01*
X69239403Y-35999223D01*
X69287271Y-36114785D01*
X69342000Y-36196694D01*
X69342000Y-36551053D01*
X69339543Y-36576000D01*
X69342000Y-36600944D01*
X69342000Y-36600946D01*
X69349351Y-36675584D01*
X69378399Y-36771342D01*
X69425571Y-36859595D01*
X69489052Y-36936948D01*
X69508435Y-36952855D01*
X75692001Y-43136422D01*
X75692000Y-46353307D01*
X75637271Y-46435215D01*
X75589403Y-46550777D01*
X75565000Y-46673458D01*
X75565000Y-46798542D01*
X75589403Y-46921223D01*
X75637271Y-47036785D01*
X75706764Y-47140789D01*
X75795211Y-47229236D01*
X75899215Y-47298729D01*
X76014777Y-47346597D01*
X76137458Y-47371000D01*
X76262542Y-47371000D01*
X76385223Y-47346597D01*
X76500785Y-47298729D01*
X76604789Y-47229236D01*
X76693236Y-47140789D01*
X76762729Y-47036785D01*
X76810597Y-46921223D01*
X76835000Y-46798542D01*
X76835000Y-46673458D01*
X76810597Y-46550777D01*
X76762729Y-46435215D01*
X76708000Y-46353307D01*
X76708000Y-42950943D01*
X76710457Y-42925999D01*
X76705849Y-42879215D01*
X76700649Y-42826415D01*
X76671601Y-42730657D01*
X76641561Y-42674457D01*
X76624429Y-42642404D01*
X76576850Y-42584429D01*
X76560948Y-42565052D01*
X76541571Y-42549150D01*
X70358000Y-36365580D01*
X70358000Y-36196693D01*
X70412729Y-36114785D01*
X70458014Y-36005458D01*
X81661000Y-36005458D01*
X81661000Y-36130542D01*
X81685403Y-36253223D01*
X81733271Y-36368785D01*
X81788000Y-36450693D01*
X81788001Y-38225306D01*
X81733271Y-38307215D01*
X81685403Y-38422777D01*
X81661000Y-38545458D01*
X81661000Y-38670542D01*
X81685403Y-38793223D01*
X81733271Y-38908785D01*
X81802764Y-39012789D01*
X81891211Y-39101236D01*
X81995215Y-39170729D01*
X82110777Y-39218597D01*
X82233458Y-39243000D01*
X82358542Y-39243000D01*
X82481223Y-39218597D01*
X82596785Y-39170729D01*
X82700789Y-39101236D01*
X82789236Y-39012789D01*
X82804000Y-38990693D01*
X82818764Y-39012789D01*
X82907211Y-39101236D01*
X83011215Y-39170729D01*
X83126777Y-39218597D01*
X83249458Y-39243000D01*
X83374542Y-39243000D01*
X83497223Y-39218597D01*
X83612785Y-39170729D01*
X83716789Y-39101236D01*
X83805236Y-39012789D01*
X83874729Y-38908785D01*
X83922597Y-38793223D01*
X83947000Y-38670542D01*
X83947000Y-38545458D01*
X83922597Y-38422777D01*
X83874729Y-38307215D01*
X83820000Y-38225307D01*
X83820000Y-36450693D01*
X83874729Y-36368785D01*
X83922597Y-36253223D01*
X83947000Y-36130542D01*
X83947000Y-36005458D01*
X83922597Y-35882777D01*
X83874729Y-35767215D01*
X83805236Y-35663211D01*
X83716789Y-35574764D01*
X83612785Y-35505271D01*
X83497223Y-35457403D01*
X83374542Y-35433000D01*
X83249458Y-35433000D01*
X83126777Y-35457403D01*
X83011215Y-35505271D01*
X82907211Y-35574764D01*
X82818764Y-35663211D01*
X82804000Y-35685307D01*
X82789236Y-35663211D01*
X82700789Y-35574764D01*
X82596785Y-35505271D01*
X82481223Y-35457403D01*
X82358542Y-35433000D01*
X82233458Y-35433000D01*
X82110777Y-35457403D01*
X81995215Y-35505271D01*
X81891211Y-35574764D01*
X81802764Y-35663211D01*
X81733271Y-35767215D01*
X81685403Y-35882777D01*
X81661000Y-36005458D01*
X70458014Y-36005458D01*
X70460597Y-35999223D01*
X70485000Y-35876542D01*
X70485000Y-35751458D01*
X70460597Y-35628777D01*
X70412729Y-35513215D01*
X70343236Y-35409211D01*
X70254789Y-35320764D01*
X70150785Y-35251271D01*
X70035223Y-35203403D01*
X69912542Y-35179000D01*
X69787458Y-35179000D01*
X69664777Y-35203403D01*
X69549215Y-35251271D01*
X69445211Y-35320764D01*
X69356764Y-35409211D01*
X69287271Y-35513215D01*
X69239403Y-35628777D01*
X69215000Y-35751458D01*
X69190597Y-35628777D01*
X69142729Y-35513215D01*
X69073236Y-35409211D01*
X68984789Y-35320764D01*
X68880785Y-35251271D01*
X68765223Y-35203403D01*
X68642542Y-35179000D01*
X68517458Y-35179000D01*
X68394777Y-35203403D01*
X68279215Y-35251271D01*
X68175211Y-35320764D01*
X68086764Y-35409211D01*
X68017271Y-35513215D01*
X67969403Y-35628777D01*
X67945000Y-35751458D01*
X67056000Y-35751458D01*
X67056000Y-34926693D01*
X67110729Y-34844785D01*
X67158597Y-34729223D01*
X67183000Y-34606542D01*
X67183000Y-34481458D01*
X67158597Y-34358777D01*
X67110729Y-34243215D01*
X67041236Y-34139211D01*
X66952789Y-34050764D01*
X66848785Y-33981271D01*
X66733223Y-33933403D01*
X66610542Y-33909000D01*
X66485458Y-33909000D01*
X66362777Y-33933403D01*
X66247215Y-33981271D01*
X66143211Y-34050764D01*
X66054764Y-34139211D01*
X65985271Y-34243215D01*
X65937403Y-34358777D01*
X65913000Y-34481458D01*
X25806000Y-34481458D01*
X25806000Y-27818757D01*
X54141000Y-27818757D01*
X54141000Y-28061243D01*
X54188307Y-28299069D01*
X54281102Y-28523097D01*
X54415820Y-28724717D01*
X54587283Y-28896180D01*
X54788903Y-29030898D01*
X55012931Y-29123693D01*
X55250757Y-29171000D01*
X55493243Y-29171000D01*
X55731069Y-29123693D01*
X55955097Y-29030898D01*
X56156717Y-28896180D01*
X56328180Y-28724717D01*
X56462898Y-28523097D01*
X56555693Y-28299069D01*
X56603000Y-28061243D01*
X56603000Y-27818757D01*
X56681000Y-27818757D01*
X56681000Y-28061243D01*
X56728307Y-28299069D01*
X56821102Y-28523097D01*
X56955820Y-28724717D01*
X57127283Y-28896180D01*
X57328903Y-29030898D01*
X57552931Y-29123693D01*
X57790757Y-29171000D01*
X58033243Y-29171000D01*
X58271069Y-29123693D01*
X58495097Y-29030898D01*
X58696717Y-28896180D01*
X58868180Y-28724717D01*
X59002898Y-28523097D01*
X59095693Y-28299069D01*
X59143000Y-28061243D01*
X59143000Y-27818757D01*
X59095693Y-27580931D01*
X59002898Y-27356903D01*
X58868180Y-27155283D01*
X58802897Y-27090000D01*
X73189157Y-27090000D01*
X73189157Y-28790000D01*
X73196513Y-28864689D01*
X73218299Y-28936508D01*
X73253678Y-29002696D01*
X73301289Y-29060711D01*
X73359304Y-29108322D01*
X73425492Y-29143701D01*
X73497311Y-29165487D01*
X73572000Y-29172843D01*
X75272000Y-29172843D01*
X75346689Y-29165487D01*
X75418508Y-29143701D01*
X75484696Y-29108322D01*
X75542711Y-29060711D01*
X75590322Y-29002696D01*
X75625701Y-28936508D01*
X75647487Y-28864689D01*
X75654843Y-28790000D01*
X75654843Y-27818757D01*
X75731000Y-27818757D01*
X75731000Y-28061243D01*
X75778307Y-28299069D01*
X75871102Y-28523097D01*
X76005820Y-28724717D01*
X76177283Y-28896180D01*
X76378903Y-29030898D01*
X76602931Y-29123693D01*
X76840757Y-29171000D01*
X77083243Y-29171000D01*
X77321069Y-29123693D01*
X77545097Y-29030898D01*
X77746717Y-28896180D01*
X77918180Y-28724717D01*
X78052898Y-28523097D01*
X78145693Y-28299069D01*
X78193000Y-28061243D01*
X78193000Y-27818757D01*
X78271000Y-27818757D01*
X78271000Y-28061243D01*
X78318307Y-28299069D01*
X78411102Y-28523097D01*
X78545820Y-28724717D01*
X78717283Y-28896180D01*
X78918903Y-29030898D01*
X79142931Y-29123693D01*
X79380757Y-29171000D01*
X79623243Y-29171000D01*
X79861069Y-29123693D01*
X80085097Y-29030898D01*
X80286717Y-28896180D01*
X80458180Y-28724717D01*
X80592898Y-28523097D01*
X80685693Y-28299069D01*
X80733000Y-28061243D01*
X80733000Y-27818757D01*
X80685693Y-27580931D01*
X80592898Y-27356903D01*
X80458180Y-27155283D01*
X80392897Y-27090000D01*
X90207157Y-27090000D01*
X90207157Y-28790000D01*
X90214513Y-28864689D01*
X90236299Y-28936508D01*
X90271678Y-29002696D01*
X90319289Y-29060711D01*
X90377304Y-29108322D01*
X90443492Y-29143701D01*
X90515311Y-29165487D01*
X90590000Y-29172843D01*
X92290000Y-29172843D01*
X92364689Y-29165487D01*
X92436508Y-29143701D01*
X92502696Y-29108322D01*
X92560711Y-29060711D01*
X92608322Y-29002696D01*
X92643701Y-28936508D01*
X92665487Y-28864689D01*
X92672843Y-28790000D01*
X92672843Y-27818757D01*
X92749000Y-27818757D01*
X92749000Y-28061243D01*
X92796307Y-28299069D01*
X92889102Y-28523097D01*
X93023820Y-28724717D01*
X93195283Y-28896180D01*
X93396903Y-29030898D01*
X93620931Y-29123693D01*
X93858757Y-29171000D01*
X94101243Y-29171000D01*
X94339069Y-29123693D01*
X94563097Y-29030898D01*
X94764717Y-28896180D01*
X94936180Y-28724717D01*
X95070898Y-28523097D01*
X95163693Y-28299069D01*
X95211000Y-28061243D01*
X95211000Y-27818757D01*
X95163693Y-27580931D01*
X95070898Y-27356903D01*
X94936180Y-27155283D01*
X94764717Y-26983820D01*
X94563097Y-26849102D01*
X94339069Y-26756307D01*
X94101243Y-26709000D01*
X93858757Y-26709000D01*
X93620931Y-26756307D01*
X93396903Y-26849102D01*
X93195283Y-26983820D01*
X93023820Y-27155283D01*
X92889102Y-27356903D01*
X92796307Y-27580931D01*
X92749000Y-27818757D01*
X92672843Y-27818757D01*
X92672843Y-27090000D01*
X92665487Y-27015311D01*
X92643701Y-26943492D01*
X92608322Y-26877304D01*
X92560711Y-26819289D01*
X92502696Y-26771678D01*
X92436508Y-26736299D01*
X92364689Y-26714513D01*
X92290000Y-26707157D01*
X90590000Y-26707157D01*
X90515311Y-26714513D01*
X90443492Y-26736299D01*
X90377304Y-26771678D01*
X90319289Y-26819289D01*
X90271678Y-26877304D01*
X90236299Y-26943492D01*
X90214513Y-27015311D01*
X90207157Y-27090000D01*
X80392897Y-27090000D01*
X80286717Y-26983820D01*
X80085097Y-26849102D01*
X79861069Y-26756307D01*
X79623243Y-26709000D01*
X79380757Y-26709000D01*
X79142931Y-26756307D01*
X78918903Y-26849102D01*
X78717283Y-26983820D01*
X78545820Y-27155283D01*
X78411102Y-27356903D01*
X78318307Y-27580931D01*
X78271000Y-27818757D01*
X78193000Y-27818757D01*
X78145693Y-27580931D01*
X78052898Y-27356903D01*
X77918180Y-27155283D01*
X77746717Y-26983820D01*
X77545097Y-26849102D01*
X77321069Y-26756307D01*
X77083243Y-26709000D01*
X76840757Y-26709000D01*
X76602931Y-26756307D01*
X76378903Y-26849102D01*
X76177283Y-26983820D01*
X76005820Y-27155283D01*
X75871102Y-27356903D01*
X75778307Y-27580931D01*
X75731000Y-27818757D01*
X75654843Y-27818757D01*
X75654843Y-27090000D01*
X75647487Y-27015311D01*
X75625701Y-26943492D01*
X75590322Y-26877304D01*
X75542711Y-26819289D01*
X75484696Y-26771678D01*
X75418508Y-26736299D01*
X75346689Y-26714513D01*
X75272000Y-26707157D01*
X73572000Y-26707157D01*
X73497311Y-26714513D01*
X73425492Y-26736299D01*
X73359304Y-26771678D01*
X73301289Y-26819289D01*
X73253678Y-26877304D01*
X73218299Y-26943492D01*
X73196513Y-27015311D01*
X73189157Y-27090000D01*
X58802897Y-27090000D01*
X58696717Y-26983820D01*
X58495097Y-26849102D01*
X58271069Y-26756307D01*
X58033243Y-26709000D01*
X57790757Y-26709000D01*
X57552931Y-26756307D01*
X57328903Y-26849102D01*
X57127283Y-26983820D01*
X56955820Y-27155283D01*
X56821102Y-27356903D01*
X56728307Y-27580931D01*
X56681000Y-27818757D01*
X56603000Y-27818757D01*
X56555693Y-27580931D01*
X56462898Y-27356903D01*
X56328180Y-27155283D01*
X56156717Y-26983820D01*
X55955097Y-26849102D01*
X55731069Y-26756307D01*
X55493243Y-26709000D01*
X55250757Y-26709000D01*
X55012931Y-26756307D01*
X54788903Y-26849102D01*
X54587283Y-26983820D01*
X54415820Y-27155283D01*
X54281102Y-27356903D01*
X54188307Y-27580931D01*
X54141000Y-27818757D01*
X25806000Y-27818757D01*
X25806000Y-25806000D01*
X101194000Y-25806000D01*
X101194001Y-55474000D01*
M02*
