M48
; DRILL file {KiCad 5.1.5+dfsg1-2build2} date Thu 05 Aug 2021 10:15:16 AM CDT
; FORMAT={-:-/ absolute / metric / decimal}
; #@! TF.CreationDate,2021-08-05T10:15:16-05:00
; #@! TF.GenerationSoftware,Kicad,Pcbnew,5.1.5+dfsg1-2build2
; #@! TF.FileFunction,Plated,1,2,PTH
FMAT,2
METRIC
T1C0.254
T2C0.400
T3C0.460
T4C1.000
%
G90
G05
T1
X52.578Y-39.37
X52.578Y-43.942
X60.198Y-41.656
X60.96Y-40.894
X63.5Y-42.418
X63.5Y-43.18
X65.405Y-42.418
X66.04Y-40.894
X66.548Y-34.544
X66.548Y-41.656
X68.834Y-42.926
X69.342Y-37.846
X75.438Y-35.56
X81.788Y-45.974
X83.058Y-45.974
X84.328Y-45.974
X84.582Y-33.528
X84.582Y-34.544
T2
X33.02Y-40.64
X33.528Y-38.1
X34.036Y-40.64
X34.036Y-45.212
X35.052Y-45.212
X36.576Y-43.18
X36.576Y-44.196
X37.592Y-43.18
X37.592Y-44.196
X42.672Y-35.052
X42.672Y-36.068
X48.583Y-46.207
X52.07Y-47.244
X53.594Y-36.322
X53.652Y-46.239
X57.15Y-46.99
X57.404Y-36.83
X58.745Y-46.239
X59.436Y-36.576
X59.944Y-30.988
X60.452Y-36.576
X62.23Y-46.99
X63.3Y-37.911
X65.024Y-28.956
X65.024Y-53.34
X65.532Y-34.544
X66.548Y-28.448
X67.564Y-28.448
X70.104Y-28.956
X70.104Y-34.544
X70.866Y-44.704
X73.152Y-36.576
X74.168Y-36.576
X75.692Y-44.45
X75.692Y-52.324
X76.2Y-31.496
X77.216Y-31.496
X77.978Y-45.212
X84.836Y-52.324
X87.796Y-41.057
X87.813Y-38.86
X92.456Y-33.528
X93.472Y-33.528
T3
X95.112Y-35.565
X95.112Y-44.325
T4
X50.292Y-53.34
X52.832Y-53.34
X55.372Y-53.34
X57.912Y-53.34
X50.292Y-27.94
X52.832Y-27.94
X55.372Y-27.94
X57.912Y-27.94
X74.422Y-27.94
X76.962Y-27.94
X79.502Y-27.94
X82.042Y-27.94
X91.44Y-53.34
X93.98Y-53.34
X96.52Y-53.34
X99.06Y-53.34
X91.44Y-27.94
X93.98Y-27.94
X96.52Y-27.94
X99.06Y-27.94
T0
M30
