G04 #@! TF.GenerationSoftware,KiCad,Pcbnew,5.1.5+dfsg1-2build2*
G04 #@! TF.CreationDate,2021-08-05T10:15:14-05:00*
G04 #@! TF.ProjectId,gpsdo,67707364-6f2e-46b6-9963-61645f706362,rev?*
G04 #@! TF.SameCoordinates,Original*
G04 #@! TF.FileFunction,Copper,L2,Bot*
G04 #@! TF.FilePolarity,Positive*
%FSLAX46Y46*%
G04 Gerber Fmt 4.6, Leading zero omitted, Abs format (unit mm)*
G04 Created by KiCad (PCBNEW 5.1.5+dfsg1-2build2) date 2021-08-05 10:15:14*
%MOMM*%
%LPD*%
G04 APERTURE LIST*
%ADD10O,1.700000X1.700000*%
%ADD11R,1.700000X1.700000*%
%ADD12R,0.950000X0.460000*%
%ADD13C,0.970000*%
%ADD14R,5.080000X2.420000*%
%ADD15C,0.508000*%
%ADD16C,0.800000*%
%ADD17C,1.016000*%
%ADD18C,0.254000*%
G04 APERTURE END LIST*
D10*
X82042000Y-27940000D03*
X79502000Y-27940000D03*
X76962000Y-27940000D03*
D11*
X74422000Y-27940000D03*
D10*
X99060000Y-27940000D03*
X96520000Y-27940000D03*
X93980000Y-27940000D03*
D11*
X91440000Y-27940000D03*
D10*
X99060000Y-53340000D03*
X96520000Y-53340000D03*
X93980000Y-53340000D03*
D11*
X91440000Y-53340000D03*
D10*
X57912000Y-53340000D03*
X55372000Y-53340000D03*
X52832000Y-53340000D03*
D11*
X50292000Y-53340000D03*
D10*
X57912000Y-27940000D03*
X55372000Y-27940000D03*
X52832000Y-27940000D03*
D11*
X50292000Y-27940000D03*
D12*
X95562000Y-35565000D03*
X95562000Y-44325000D03*
D13*
X95112000Y-35565000D03*
X95112000Y-44325000D03*
D14*
X98552000Y-35565000D03*
X98552000Y-44325000D03*
D15*
X83058000Y-45974000D03*
X84328000Y-45974000D03*
D16*
X70866000Y-44704000D03*
X36576000Y-44196000D03*
X37592000Y-44196000D03*
X37592000Y-43180000D03*
X36576000Y-43180000D03*
X33020000Y-40640000D03*
X34036000Y-40640000D03*
X34036000Y-45212000D03*
X35052000Y-45212000D03*
X33528000Y-38100000D03*
X42672000Y-35052000D03*
X42672000Y-36068000D03*
X60452000Y-36576000D03*
X59436000Y-36576000D03*
X92456000Y-33528000D03*
X93472000Y-33528000D03*
X76200000Y-31496000D03*
X77216000Y-31496000D03*
X87813229Y-38859633D03*
X87795928Y-41056777D03*
X75692000Y-52324000D03*
X70104000Y-28956000D03*
X66548000Y-28448000D03*
X67564000Y-28448000D03*
X65024000Y-28956000D03*
X70104000Y-34544000D03*
X65532000Y-34544000D03*
X65024000Y-53340000D03*
X73152000Y-36576000D03*
X74168000Y-36576000D03*
X57150000Y-46990000D03*
X62230000Y-46990000D03*
X53652068Y-46238601D03*
X58745200Y-46238601D03*
X63300289Y-37910543D03*
X52070000Y-47244000D03*
X48583396Y-46207299D03*
X53594000Y-36322000D03*
X57404000Y-36830000D03*
X84836000Y-52324000D03*
X75692000Y-44450000D03*
X77978000Y-45212000D03*
X59944000Y-30988000D03*
D15*
X66548000Y-34544000D03*
X75438000Y-35560000D03*
X63500000Y-43180000D03*
X68834000Y-42926000D03*
X65405000Y-42418000D03*
X63500000Y-42418000D03*
X52578000Y-43942000D03*
X52578000Y-39370000D03*
X60198000Y-41656000D03*
X84582000Y-33528000D03*
X66548000Y-41656000D03*
X60960000Y-40894000D03*
X84582000Y-34544000D03*
X66040000Y-40894000D03*
X81788000Y-45974000D03*
X69342000Y-37846000D03*
D17*
X73406000Y-26924000D02*
X74422000Y-27940000D01*
X72644000Y-26162000D02*
X73406000Y-26924000D01*
X59690000Y-26162000D02*
X72644000Y-26162000D01*
X57912000Y-27940000D02*
X59690000Y-26162000D01*
D18*
X68580001Y-43179999D02*
X68834000Y-42926000D01*
X63500000Y-43180000D02*
X68580001Y-43179999D01*
X65405000Y-42418000D02*
X63500000Y-42418000D01*
X63500000Y-42418000D02*
X63500000Y-42418000D01*
X52578000Y-40132000D02*
X52578000Y-40132000D01*
X52578000Y-40132000D02*
X52578000Y-39370000D01*
X52578000Y-43942000D02*
X52578000Y-40132000D01*
X60198000Y-41656000D02*
X61976000Y-41656000D01*
X84582000Y-33528000D02*
X84582000Y-33528000D01*
X61976000Y-41656000D02*
X66548000Y-41656000D01*
X66548000Y-41656000D02*
X66548000Y-41656000D01*
X60960000Y-40894000D02*
X62230000Y-40894000D01*
X84582000Y-34544000D02*
X84582000Y-34544000D01*
X62230000Y-40894000D02*
X66040000Y-40894000D01*
X66040000Y-40894000D02*
X66040000Y-40894000D01*
X66548000Y-34544000D02*
X67564000Y-35560000D01*
X69596000Y-35560000D02*
X75438000Y-35560000D01*
X69342000Y-37846000D02*
X69342000Y-35560000D01*
X69342000Y-35560000D02*
X69596000Y-35560000D01*
X67564000Y-35560000D02*
X69342000Y-35560000D01*
X83820000Y-45212000D02*
X83058000Y-45974000D01*
X83820000Y-34290000D02*
X83820000Y-45212000D01*
X84582000Y-33528000D02*
X83820000Y-34290000D01*
X84328001Y-34797999D02*
X84582000Y-34544000D01*
X84328000Y-45974000D02*
X84328001Y-34797999D01*
G36*
X57885765Y-26709000D02*
G01*
X57790757Y-26709000D01*
X57552931Y-26756307D01*
X57328903Y-26849102D01*
X57127283Y-26983820D01*
X56955820Y-27155283D01*
X56821102Y-27356903D01*
X56728307Y-27580931D01*
X56681000Y-27818757D01*
X56681000Y-28061243D01*
X56728307Y-28299069D01*
X56821102Y-28523097D01*
X56955820Y-28724717D01*
X57127283Y-28896180D01*
X57328903Y-29030898D01*
X57552931Y-29123693D01*
X57790757Y-29171000D01*
X58033243Y-29171000D01*
X58271069Y-29123693D01*
X58495097Y-29030898D01*
X58696717Y-28896180D01*
X58868180Y-28724717D01*
X59002898Y-28523097D01*
X59095693Y-28299069D01*
X59143000Y-28061243D01*
X59143000Y-27966235D01*
X60058236Y-27051000D01*
X72275765Y-27051000D01*
X72808259Y-27583495D01*
X72808264Y-27583499D01*
X73189157Y-27964392D01*
X73189157Y-28790000D01*
X73196513Y-28864689D01*
X73218299Y-28936508D01*
X73253678Y-29002696D01*
X73301289Y-29060711D01*
X73359304Y-29108322D01*
X73425492Y-29143701D01*
X73497311Y-29165487D01*
X73572000Y-29172843D01*
X75272000Y-29172843D01*
X75346689Y-29165487D01*
X75418508Y-29143701D01*
X75484696Y-29108322D01*
X75542711Y-29060711D01*
X75590322Y-29002696D01*
X75625701Y-28936508D01*
X75647487Y-28864689D01*
X75654843Y-28790000D01*
X75654843Y-27818757D01*
X75731000Y-27818757D01*
X75731000Y-28061243D01*
X75778307Y-28299069D01*
X75871102Y-28523097D01*
X76005820Y-28724717D01*
X76177283Y-28896180D01*
X76378903Y-29030898D01*
X76602931Y-29123693D01*
X76840757Y-29171000D01*
X77083243Y-29171000D01*
X77321069Y-29123693D01*
X77545097Y-29030898D01*
X77746717Y-28896180D01*
X77918180Y-28724717D01*
X78052898Y-28523097D01*
X78145693Y-28299069D01*
X78193000Y-28061243D01*
X78193000Y-27818757D01*
X78271000Y-27818757D01*
X78271000Y-28061243D01*
X78318307Y-28299069D01*
X78411102Y-28523097D01*
X78545820Y-28724717D01*
X78717283Y-28896180D01*
X78918903Y-29030898D01*
X79142931Y-29123693D01*
X79380757Y-29171000D01*
X79623243Y-29171000D01*
X79861069Y-29123693D01*
X80085097Y-29030898D01*
X80286717Y-28896180D01*
X80458180Y-28724717D01*
X80592898Y-28523097D01*
X80685693Y-28299069D01*
X80733000Y-28061243D01*
X80733000Y-27818757D01*
X80685693Y-27580931D01*
X80592898Y-27356903D01*
X80458180Y-27155283D01*
X80392897Y-27090000D01*
X90207157Y-27090000D01*
X90207157Y-28790000D01*
X90214513Y-28864689D01*
X90236299Y-28936508D01*
X90271678Y-29002696D01*
X90319289Y-29060711D01*
X90377304Y-29108322D01*
X90443492Y-29143701D01*
X90515311Y-29165487D01*
X90590000Y-29172843D01*
X92290000Y-29172843D01*
X92364689Y-29165487D01*
X92436508Y-29143701D01*
X92502696Y-29108322D01*
X92560711Y-29060711D01*
X92608322Y-29002696D01*
X92643701Y-28936508D01*
X92665487Y-28864689D01*
X92672843Y-28790000D01*
X92672843Y-27818757D01*
X92749000Y-27818757D01*
X92749000Y-28061243D01*
X92796307Y-28299069D01*
X92889102Y-28523097D01*
X93023820Y-28724717D01*
X93195283Y-28896180D01*
X93396903Y-29030898D01*
X93620931Y-29123693D01*
X93858757Y-29171000D01*
X94101243Y-29171000D01*
X94339069Y-29123693D01*
X94563097Y-29030898D01*
X94764717Y-28896180D01*
X94936180Y-28724717D01*
X95070898Y-28523097D01*
X95163693Y-28299069D01*
X95211000Y-28061243D01*
X95211000Y-27818757D01*
X95163693Y-27580931D01*
X95070898Y-27356903D01*
X94936180Y-27155283D01*
X94764717Y-26983820D01*
X94563097Y-26849102D01*
X94339069Y-26756307D01*
X94101243Y-26709000D01*
X93858757Y-26709000D01*
X93620931Y-26756307D01*
X93396903Y-26849102D01*
X93195283Y-26983820D01*
X93023820Y-27155283D01*
X92889102Y-27356903D01*
X92796307Y-27580931D01*
X92749000Y-27818757D01*
X92672843Y-27818757D01*
X92672843Y-27090000D01*
X92665487Y-27015311D01*
X92643701Y-26943492D01*
X92608322Y-26877304D01*
X92560711Y-26819289D01*
X92502696Y-26771678D01*
X92436508Y-26736299D01*
X92364689Y-26714513D01*
X92290000Y-26707157D01*
X90590000Y-26707157D01*
X90515311Y-26714513D01*
X90443492Y-26736299D01*
X90377304Y-26771678D01*
X90319289Y-26819289D01*
X90271678Y-26877304D01*
X90236299Y-26943492D01*
X90214513Y-27015311D01*
X90207157Y-27090000D01*
X80392897Y-27090000D01*
X80286717Y-26983820D01*
X80085097Y-26849102D01*
X79861069Y-26756307D01*
X79623243Y-26709000D01*
X79380757Y-26709000D01*
X79142931Y-26756307D01*
X78918903Y-26849102D01*
X78717283Y-26983820D01*
X78545820Y-27155283D01*
X78411102Y-27356903D01*
X78318307Y-27580931D01*
X78271000Y-27818757D01*
X78193000Y-27818757D01*
X78145693Y-27580931D01*
X78052898Y-27356903D01*
X77918180Y-27155283D01*
X77746717Y-26983820D01*
X77545097Y-26849102D01*
X77321069Y-26756307D01*
X77083243Y-26709000D01*
X76840757Y-26709000D01*
X76602931Y-26756307D01*
X76378903Y-26849102D01*
X76177283Y-26983820D01*
X76005820Y-27155283D01*
X75871102Y-27356903D01*
X75778307Y-27580931D01*
X75731000Y-27818757D01*
X75654843Y-27818757D01*
X75654843Y-27090000D01*
X75647487Y-27015311D01*
X75625701Y-26943492D01*
X75590322Y-26877304D01*
X75542711Y-26819289D01*
X75484696Y-26771678D01*
X75418508Y-26736299D01*
X75346689Y-26714513D01*
X75272000Y-26707157D01*
X74446392Y-26707157D01*
X74065499Y-26326264D01*
X74065495Y-26326259D01*
X73545235Y-25806000D01*
X101194000Y-25806000D01*
X101194001Y-55474000D01*
X25806000Y-55474000D01*
X25806000Y-53218757D01*
X54141000Y-53218757D01*
X54141000Y-53461243D01*
X54188307Y-53699069D01*
X54281102Y-53923097D01*
X54415820Y-54124717D01*
X54587283Y-54296180D01*
X54788903Y-54430898D01*
X55012931Y-54523693D01*
X55250757Y-54571000D01*
X55493243Y-54571000D01*
X55731069Y-54523693D01*
X55955097Y-54430898D01*
X56156717Y-54296180D01*
X56328180Y-54124717D01*
X56462898Y-53923097D01*
X56555693Y-53699069D01*
X56603000Y-53461243D01*
X56603000Y-53218757D01*
X56681000Y-53218757D01*
X56681000Y-53461243D01*
X56728307Y-53699069D01*
X56821102Y-53923097D01*
X56955820Y-54124717D01*
X57127283Y-54296180D01*
X57328903Y-54430898D01*
X57552931Y-54523693D01*
X57790757Y-54571000D01*
X58033243Y-54571000D01*
X58271069Y-54523693D01*
X58495097Y-54430898D01*
X58696717Y-54296180D01*
X58868180Y-54124717D01*
X59002898Y-53923097D01*
X59095693Y-53699069D01*
X59143000Y-53461243D01*
X59143000Y-53218757D01*
X59095693Y-52980931D01*
X59002898Y-52756903D01*
X58868180Y-52555283D01*
X58802897Y-52490000D01*
X90207157Y-52490000D01*
X90207157Y-54190000D01*
X90214513Y-54264689D01*
X90236299Y-54336508D01*
X90271678Y-54402696D01*
X90319289Y-54460711D01*
X90377304Y-54508322D01*
X90443492Y-54543701D01*
X90515311Y-54565487D01*
X90590000Y-54572843D01*
X92290000Y-54572843D01*
X92364689Y-54565487D01*
X92436508Y-54543701D01*
X92502696Y-54508322D01*
X92560711Y-54460711D01*
X92608322Y-54402696D01*
X92643701Y-54336508D01*
X92665487Y-54264689D01*
X92672843Y-54190000D01*
X92672843Y-53218757D01*
X92749000Y-53218757D01*
X92749000Y-53461243D01*
X92796307Y-53699069D01*
X92889102Y-53923097D01*
X93023820Y-54124717D01*
X93195283Y-54296180D01*
X93396903Y-54430898D01*
X93620931Y-54523693D01*
X93858757Y-54571000D01*
X94101243Y-54571000D01*
X94339069Y-54523693D01*
X94563097Y-54430898D01*
X94764717Y-54296180D01*
X94936180Y-54124717D01*
X95070898Y-53923097D01*
X95163693Y-53699069D01*
X95211000Y-53461243D01*
X95211000Y-53218757D01*
X95163693Y-52980931D01*
X95070898Y-52756903D01*
X94936180Y-52555283D01*
X94764717Y-52383820D01*
X94563097Y-52249102D01*
X94339069Y-52156307D01*
X94101243Y-52109000D01*
X93858757Y-52109000D01*
X93620931Y-52156307D01*
X93396903Y-52249102D01*
X93195283Y-52383820D01*
X93023820Y-52555283D01*
X92889102Y-52756903D01*
X92796307Y-52980931D01*
X92749000Y-53218757D01*
X92672843Y-53218757D01*
X92672843Y-52490000D01*
X92665487Y-52415311D01*
X92643701Y-52343492D01*
X92608322Y-52277304D01*
X92560711Y-52219289D01*
X92502696Y-52171678D01*
X92436508Y-52136299D01*
X92364689Y-52114513D01*
X92290000Y-52107157D01*
X90590000Y-52107157D01*
X90515311Y-52114513D01*
X90443492Y-52136299D01*
X90377304Y-52171678D01*
X90319289Y-52219289D01*
X90271678Y-52277304D01*
X90236299Y-52343492D01*
X90214513Y-52415311D01*
X90207157Y-52490000D01*
X58802897Y-52490000D01*
X58696717Y-52383820D01*
X58495097Y-52249102D01*
X58271069Y-52156307D01*
X58033243Y-52109000D01*
X57790757Y-52109000D01*
X57552931Y-52156307D01*
X57328903Y-52249102D01*
X57127283Y-52383820D01*
X56955820Y-52555283D01*
X56821102Y-52756903D01*
X56728307Y-52980931D01*
X56681000Y-53218757D01*
X56603000Y-53218757D01*
X56555693Y-52980931D01*
X56462898Y-52756903D01*
X56328180Y-52555283D01*
X56156717Y-52383820D01*
X55955097Y-52249102D01*
X55731069Y-52156307D01*
X55493243Y-52109000D01*
X55250757Y-52109000D01*
X55012931Y-52156307D01*
X54788903Y-52249102D01*
X54587283Y-52383820D01*
X54415820Y-52555283D01*
X54281102Y-52756903D01*
X54188307Y-52980931D01*
X54141000Y-53218757D01*
X25806000Y-53218757D01*
X25806000Y-45911458D01*
X82423000Y-45911458D01*
X82423000Y-46036542D01*
X82447403Y-46159223D01*
X82495271Y-46274785D01*
X82564764Y-46378789D01*
X82653211Y-46467236D01*
X82757215Y-46536729D01*
X82872777Y-46584597D01*
X82995458Y-46609000D01*
X83120542Y-46609000D01*
X83243223Y-46584597D01*
X83358785Y-46536729D01*
X83462789Y-46467236D01*
X83551236Y-46378789D01*
X83620729Y-46274785D01*
X83668597Y-46159223D01*
X83687816Y-46062604D01*
X83696464Y-46053956D01*
X83717403Y-46159223D01*
X83765271Y-46274785D01*
X83834764Y-46378789D01*
X83923211Y-46467236D01*
X84027215Y-46536729D01*
X84142777Y-46584597D01*
X84265458Y-46609000D01*
X84390542Y-46609000D01*
X84513223Y-46584597D01*
X84628785Y-46536729D01*
X84732789Y-46467236D01*
X84821236Y-46378789D01*
X84890729Y-46274785D01*
X84938597Y-46159223D01*
X84963000Y-46036542D01*
X84963000Y-45911458D01*
X84938597Y-45788777D01*
X84890729Y-45673215D01*
X84835999Y-45591306D01*
X84836001Y-35126108D01*
X84882785Y-35106729D01*
X84986789Y-35037236D01*
X85075236Y-34948789D01*
X85144729Y-34844785D01*
X85192597Y-34729223D01*
X85217000Y-34606542D01*
X85217000Y-34481458D01*
X85192597Y-34358777D01*
X85144729Y-34243215D01*
X85075236Y-34139211D01*
X84986789Y-34050764D01*
X84964693Y-34036000D01*
X84986789Y-34021236D01*
X85075236Y-33932789D01*
X85144729Y-33828785D01*
X85192597Y-33713223D01*
X85217000Y-33590542D01*
X85217000Y-33465458D01*
X85192597Y-33342777D01*
X85144729Y-33227215D01*
X85075236Y-33123211D01*
X84986789Y-33034764D01*
X84882785Y-32965271D01*
X84767223Y-32917403D01*
X84644542Y-32893000D01*
X84519458Y-32893000D01*
X84396777Y-32917403D01*
X84281215Y-32965271D01*
X84177211Y-33034764D01*
X84088764Y-33123211D01*
X84019271Y-33227215D01*
X83971403Y-33342777D01*
X83952184Y-33439396D01*
X83478435Y-33913145D01*
X83459052Y-33929052D01*
X83395571Y-34006405D01*
X83348399Y-34094658D01*
X83319351Y-34190416D01*
X83314151Y-34243215D01*
X83309543Y-34290000D01*
X83312000Y-34314944D01*
X83312001Y-45001579D01*
X82969396Y-45344184D01*
X82872777Y-45363403D01*
X82757215Y-45411271D01*
X82653211Y-45480764D01*
X82564764Y-45569211D01*
X82495271Y-45673215D01*
X82447403Y-45788777D01*
X82423000Y-45911458D01*
X25806000Y-45911458D01*
X25806000Y-39307458D01*
X51943000Y-39307458D01*
X51943000Y-39432542D01*
X51967403Y-39555223D01*
X52015271Y-39670785D01*
X52070000Y-39752694D01*
X52070000Y-40107052D01*
X52067543Y-40132000D01*
X52070001Y-40156957D01*
X52070000Y-43559307D01*
X52015271Y-43641215D01*
X51967403Y-43756777D01*
X51943000Y-43879458D01*
X51943000Y-44004542D01*
X51967403Y-44127223D01*
X52015271Y-44242785D01*
X52084764Y-44346789D01*
X52173211Y-44435236D01*
X52277215Y-44504729D01*
X52392777Y-44552597D01*
X52515458Y-44577000D01*
X52640542Y-44577000D01*
X52763223Y-44552597D01*
X52878785Y-44504729D01*
X52982789Y-44435236D01*
X53071236Y-44346789D01*
X53140729Y-44242785D01*
X53188597Y-44127223D01*
X53213000Y-44004542D01*
X53213000Y-43879458D01*
X53188597Y-43756777D01*
X53140729Y-43641215D01*
X53086000Y-43559307D01*
X53086000Y-41593458D01*
X59563000Y-41593458D01*
X59563000Y-41718542D01*
X59587403Y-41841223D01*
X59635271Y-41956785D01*
X59704764Y-42060789D01*
X59793211Y-42149236D01*
X59897215Y-42218729D01*
X60012777Y-42266597D01*
X60135458Y-42291000D01*
X60260542Y-42291000D01*
X60383223Y-42266597D01*
X60498785Y-42218729D01*
X60580693Y-42164000D01*
X62917892Y-42164000D01*
X62889403Y-42232777D01*
X62865000Y-42355458D01*
X62865000Y-42480542D01*
X62889403Y-42603223D01*
X62937271Y-42718785D01*
X62990869Y-42799000D01*
X62937271Y-42879215D01*
X62889403Y-42994777D01*
X62865000Y-43117458D01*
X62865000Y-43242542D01*
X62889403Y-43365223D01*
X62937271Y-43480785D01*
X63006764Y-43584789D01*
X63095211Y-43673236D01*
X63199215Y-43742729D01*
X63314777Y-43790597D01*
X63437458Y-43815000D01*
X63562542Y-43815000D01*
X63685223Y-43790597D01*
X63800785Y-43742729D01*
X63882693Y-43688000D01*
X68555047Y-43687998D01*
X68580001Y-43690456D01*
X68670675Y-43681525D01*
X68679586Y-43680647D01*
X68775344Y-43651599D01*
X68794771Y-43641215D01*
X68863596Y-43604428D01*
X68921571Y-43556849D01*
X68921572Y-43556848D01*
X68922902Y-43555757D01*
X69019223Y-43536597D01*
X69134785Y-43488729D01*
X69238789Y-43419236D01*
X69327236Y-43330789D01*
X69396729Y-43226785D01*
X69444597Y-43111223D01*
X69469000Y-42988542D01*
X69469000Y-42863458D01*
X69444597Y-42740777D01*
X69396729Y-42625215D01*
X69327236Y-42521211D01*
X69238789Y-42432764D01*
X69134785Y-42363271D01*
X69019223Y-42315403D01*
X68896542Y-42291000D01*
X68771458Y-42291000D01*
X68648777Y-42315403D01*
X68533215Y-42363271D01*
X68429211Y-42432764D01*
X68340764Y-42521211D01*
X68271271Y-42625215D01*
X68251892Y-42671999D01*
X65987108Y-42672000D01*
X66015597Y-42603223D01*
X66040000Y-42480542D01*
X66040000Y-42355458D01*
X66015597Y-42232777D01*
X65987108Y-42164000D01*
X66165307Y-42164000D01*
X66247215Y-42218729D01*
X66362777Y-42266597D01*
X66485458Y-42291000D01*
X66610542Y-42291000D01*
X66733223Y-42266597D01*
X66848785Y-42218729D01*
X66952789Y-42149236D01*
X67041236Y-42060789D01*
X67110729Y-41956785D01*
X67158597Y-41841223D01*
X67183000Y-41718542D01*
X67183000Y-41593458D01*
X67158597Y-41470777D01*
X67110729Y-41355215D01*
X67041236Y-41251211D01*
X66952789Y-41162764D01*
X66848785Y-41093271D01*
X66733223Y-41045403D01*
X66660213Y-41030880D01*
X66675000Y-40956542D01*
X66675000Y-40831458D01*
X66650597Y-40708777D01*
X66602729Y-40593215D01*
X66533236Y-40489211D01*
X66444789Y-40400764D01*
X66340785Y-40331271D01*
X66225223Y-40283403D01*
X66102542Y-40259000D01*
X65977458Y-40259000D01*
X65854777Y-40283403D01*
X65739215Y-40331271D01*
X65657307Y-40386000D01*
X61342693Y-40386000D01*
X61260785Y-40331271D01*
X61145223Y-40283403D01*
X61022542Y-40259000D01*
X60897458Y-40259000D01*
X60774777Y-40283403D01*
X60659215Y-40331271D01*
X60555211Y-40400764D01*
X60466764Y-40489211D01*
X60397271Y-40593215D01*
X60349403Y-40708777D01*
X60325000Y-40831458D01*
X60325000Y-40956542D01*
X60341005Y-41037005D01*
X60260542Y-41021000D01*
X60135458Y-41021000D01*
X60012777Y-41045403D01*
X59897215Y-41093271D01*
X59793211Y-41162764D01*
X59704764Y-41251211D01*
X59635271Y-41355215D01*
X59587403Y-41470777D01*
X59563000Y-41593458D01*
X53086000Y-41593458D01*
X53086000Y-40156946D01*
X53088457Y-40132000D01*
X53086000Y-40107053D01*
X53086000Y-39752693D01*
X53140729Y-39670785D01*
X53188597Y-39555223D01*
X53213000Y-39432542D01*
X53213000Y-39307458D01*
X53188597Y-39184777D01*
X53140729Y-39069215D01*
X53071236Y-38965211D01*
X52982789Y-38876764D01*
X52878785Y-38807271D01*
X52763223Y-38759403D01*
X52640542Y-38735000D01*
X52515458Y-38735000D01*
X52392777Y-38759403D01*
X52277215Y-38807271D01*
X52173211Y-38876764D01*
X52084764Y-38965211D01*
X52015271Y-39069215D01*
X51967403Y-39184777D01*
X51943000Y-39307458D01*
X25806000Y-39307458D01*
X25806000Y-34481458D01*
X65913000Y-34481458D01*
X65913000Y-34606542D01*
X65937403Y-34729223D01*
X65985271Y-34844785D01*
X66054764Y-34948789D01*
X66143211Y-35037236D01*
X66247215Y-35106729D01*
X66362777Y-35154597D01*
X66459396Y-35173816D01*
X67187150Y-35901571D01*
X67203052Y-35920948D01*
X67222429Y-35936850D01*
X67280404Y-35984429D01*
X67327576Y-36009643D01*
X67368657Y-36031601D01*
X67464415Y-36060649D01*
X67539053Y-36068000D01*
X67539056Y-36068000D01*
X67564000Y-36070457D01*
X67588944Y-36068000D01*
X68834001Y-36068000D01*
X68834000Y-37463307D01*
X68779271Y-37545215D01*
X68731403Y-37660777D01*
X68707000Y-37783458D01*
X68707000Y-37908542D01*
X68731403Y-38031223D01*
X68779271Y-38146785D01*
X68848764Y-38250789D01*
X68937211Y-38339236D01*
X69041215Y-38408729D01*
X69156777Y-38456597D01*
X69279458Y-38481000D01*
X69404542Y-38481000D01*
X69527223Y-38456597D01*
X69642785Y-38408729D01*
X69746789Y-38339236D01*
X69835236Y-38250789D01*
X69904729Y-38146785D01*
X69952597Y-38031223D01*
X69977000Y-37908542D01*
X69977000Y-37783458D01*
X69952597Y-37660777D01*
X69904729Y-37545215D01*
X69850000Y-37463307D01*
X69850000Y-36068000D01*
X75055307Y-36068000D01*
X75137215Y-36122729D01*
X75252777Y-36170597D01*
X75375458Y-36195000D01*
X75500542Y-36195000D01*
X75623223Y-36170597D01*
X75738785Y-36122729D01*
X75842789Y-36053236D01*
X75931236Y-35964789D01*
X76000729Y-35860785D01*
X76048597Y-35745223D01*
X76073000Y-35622542D01*
X76073000Y-35497458D01*
X76048597Y-35374777D01*
X76000729Y-35259215D01*
X75931236Y-35155211D01*
X75842789Y-35066764D01*
X75738785Y-34997271D01*
X75623223Y-34949403D01*
X75500542Y-34925000D01*
X75375458Y-34925000D01*
X75252777Y-34949403D01*
X75137215Y-34997271D01*
X75055307Y-35052000D01*
X69366947Y-35052000D01*
X69342000Y-35049543D01*
X69317053Y-35052000D01*
X67774421Y-35052000D01*
X67177816Y-34455396D01*
X67158597Y-34358777D01*
X67110729Y-34243215D01*
X67041236Y-34139211D01*
X66952789Y-34050764D01*
X66848785Y-33981271D01*
X66733223Y-33933403D01*
X66610542Y-33909000D01*
X66485458Y-33909000D01*
X66362777Y-33933403D01*
X66247215Y-33981271D01*
X66143211Y-34050764D01*
X66054764Y-34139211D01*
X65985271Y-34243215D01*
X65937403Y-34358777D01*
X65913000Y-34481458D01*
X25806000Y-34481458D01*
X25806000Y-27818757D01*
X54141000Y-27818757D01*
X54141000Y-28061243D01*
X54188307Y-28299069D01*
X54281102Y-28523097D01*
X54415820Y-28724717D01*
X54587283Y-28896180D01*
X54788903Y-29030898D01*
X55012931Y-29123693D01*
X55250757Y-29171000D01*
X55493243Y-29171000D01*
X55731069Y-29123693D01*
X55955097Y-29030898D01*
X56156717Y-28896180D01*
X56328180Y-28724717D01*
X56462898Y-28523097D01*
X56555693Y-28299069D01*
X56603000Y-28061243D01*
X56603000Y-27818757D01*
X56555693Y-27580931D01*
X56462898Y-27356903D01*
X56328180Y-27155283D01*
X56156717Y-26983820D01*
X55955097Y-26849102D01*
X55731069Y-26756307D01*
X55493243Y-26709000D01*
X55250757Y-26709000D01*
X55012931Y-26756307D01*
X54788903Y-26849102D01*
X54587283Y-26983820D01*
X54415820Y-27155283D01*
X54281102Y-27356903D01*
X54188307Y-27580931D01*
X54141000Y-27818757D01*
X25806000Y-27818757D01*
X25806000Y-25806000D01*
X58788764Y-25806000D01*
X57885765Y-26709000D01*
G37*
X57885765Y-26709000D02*
X57790757Y-26709000D01*
X57552931Y-26756307D01*
X57328903Y-26849102D01*
X57127283Y-26983820D01*
X56955820Y-27155283D01*
X56821102Y-27356903D01*
X56728307Y-27580931D01*
X56681000Y-27818757D01*
X56681000Y-28061243D01*
X56728307Y-28299069D01*
X56821102Y-28523097D01*
X56955820Y-28724717D01*
X57127283Y-28896180D01*
X57328903Y-29030898D01*
X57552931Y-29123693D01*
X57790757Y-29171000D01*
X58033243Y-29171000D01*
X58271069Y-29123693D01*
X58495097Y-29030898D01*
X58696717Y-28896180D01*
X58868180Y-28724717D01*
X59002898Y-28523097D01*
X59095693Y-28299069D01*
X59143000Y-28061243D01*
X59143000Y-27966235D01*
X60058236Y-27051000D01*
X72275765Y-27051000D01*
X72808259Y-27583495D01*
X72808264Y-27583499D01*
X73189157Y-27964392D01*
X73189157Y-28790000D01*
X73196513Y-28864689D01*
X73218299Y-28936508D01*
X73253678Y-29002696D01*
X73301289Y-29060711D01*
X73359304Y-29108322D01*
X73425492Y-29143701D01*
X73497311Y-29165487D01*
X73572000Y-29172843D01*
X75272000Y-29172843D01*
X75346689Y-29165487D01*
X75418508Y-29143701D01*
X75484696Y-29108322D01*
X75542711Y-29060711D01*
X75590322Y-29002696D01*
X75625701Y-28936508D01*
X75647487Y-28864689D01*
X75654843Y-28790000D01*
X75654843Y-27818757D01*
X75731000Y-27818757D01*
X75731000Y-28061243D01*
X75778307Y-28299069D01*
X75871102Y-28523097D01*
X76005820Y-28724717D01*
X76177283Y-28896180D01*
X76378903Y-29030898D01*
X76602931Y-29123693D01*
X76840757Y-29171000D01*
X77083243Y-29171000D01*
X77321069Y-29123693D01*
X77545097Y-29030898D01*
X77746717Y-28896180D01*
X77918180Y-28724717D01*
X78052898Y-28523097D01*
X78145693Y-28299069D01*
X78193000Y-28061243D01*
X78193000Y-27818757D01*
X78271000Y-27818757D01*
X78271000Y-28061243D01*
X78318307Y-28299069D01*
X78411102Y-28523097D01*
X78545820Y-28724717D01*
X78717283Y-28896180D01*
X78918903Y-29030898D01*
X79142931Y-29123693D01*
X79380757Y-29171000D01*
X79623243Y-29171000D01*
X79861069Y-29123693D01*
X80085097Y-29030898D01*
X80286717Y-28896180D01*
X80458180Y-28724717D01*
X80592898Y-28523097D01*
X80685693Y-28299069D01*
X80733000Y-28061243D01*
X80733000Y-27818757D01*
X80685693Y-27580931D01*
X80592898Y-27356903D01*
X80458180Y-27155283D01*
X80392897Y-27090000D01*
X90207157Y-27090000D01*
X90207157Y-28790000D01*
X90214513Y-28864689D01*
X90236299Y-28936508D01*
X90271678Y-29002696D01*
X90319289Y-29060711D01*
X90377304Y-29108322D01*
X90443492Y-29143701D01*
X90515311Y-29165487D01*
X90590000Y-29172843D01*
X92290000Y-29172843D01*
X92364689Y-29165487D01*
X92436508Y-29143701D01*
X92502696Y-29108322D01*
X92560711Y-29060711D01*
X92608322Y-29002696D01*
X92643701Y-28936508D01*
X92665487Y-28864689D01*
X92672843Y-28790000D01*
X92672843Y-27818757D01*
X92749000Y-27818757D01*
X92749000Y-28061243D01*
X92796307Y-28299069D01*
X92889102Y-28523097D01*
X93023820Y-28724717D01*
X93195283Y-28896180D01*
X93396903Y-29030898D01*
X93620931Y-29123693D01*
X93858757Y-29171000D01*
X94101243Y-29171000D01*
X94339069Y-29123693D01*
X94563097Y-29030898D01*
X94764717Y-28896180D01*
X94936180Y-28724717D01*
X95070898Y-28523097D01*
X95163693Y-28299069D01*
X95211000Y-28061243D01*
X95211000Y-27818757D01*
X95163693Y-27580931D01*
X95070898Y-27356903D01*
X94936180Y-27155283D01*
X94764717Y-26983820D01*
X94563097Y-26849102D01*
X94339069Y-26756307D01*
X94101243Y-26709000D01*
X93858757Y-26709000D01*
X93620931Y-26756307D01*
X93396903Y-26849102D01*
X93195283Y-26983820D01*
X93023820Y-27155283D01*
X92889102Y-27356903D01*
X92796307Y-27580931D01*
X92749000Y-27818757D01*
X92672843Y-27818757D01*
X92672843Y-27090000D01*
X92665487Y-27015311D01*
X92643701Y-26943492D01*
X92608322Y-26877304D01*
X92560711Y-26819289D01*
X92502696Y-26771678D01*
X92436508Y-26736299D01*
X92364689Y-26714513D01*
X92290000Y-26707157D01*
X90590000Y-26707157D01*
X90515311Y-26714513D01*
X90443492Y-26736299D01*
X90377304Y-26771678D01*
X90319289Y-26819289D01*
X90271678Y-26877304D01*
X90236299Y-26943492D01*
X90214513Y-27015311D01*
X90207157Y-27090000D01*
X80392897Y-27090000D01*
X80286717Y-26983820D01*
X80085097Y-26849102D01*
X79861069Y-26756307D01*
X79623243Y-26709000D01*
X79380757Y-26709000D01*
X79142931Y-26756307D01*
X78918903Y-26849102D01*
X78717283Y-26983820D01*
X78545820Y-27155283D01*
X78411102Y-27356903D01*
X78318307Y-27580931D01*
X78271000Y-27818757D01*
X78193000Y-27818757D01*
X78145693Y-27580931D01*
X78052898Y-27356903D01*
X77918180Y-27155283D01*
X77746717Y-26983820D01*
X77545097Y-26849102D01*
X77321069Y-26756307D01*
X77083243Y-26709000D01*
X76840757Y-26709000D01*
X76602931Y-26756307D01*
X76378903Y-26849102D01*
X76177283Y-26983820D01*
X76005820Y-27155283D01*
X75871102Y-27356903D01*
X75778307Y-27580931D01*
X75731000Y-27818757D01*
X75654843Y-27818757D01*
X75654843Y-27090000D01*
X75647487Y-27015311D01*
X75625701Y-26943492D01*
X75590322Y-26877304D01*
X75542711Y-26819289D01*
X75484696Y-26771678D01*
X75418508Y-26736299D01*
X75346689Y-26714513D01*
X75272000Y-26707157D01*
X74446392Y-26707157D01*
X74065499Y-26326264D01*
X74065495Y-26326259D01*
X73545235Y-25806000D01*
X101194000Y-25806000D01*
X101194001Y-55474000D01*
X25806000Y-55474000D01*
X25806000Y-53218757D01*
X54141000Y-53218757D01*
X54141000Y-53461243D01*
X54188307Y-53699069D01*
X54281102Y-53923097D01*
X54415820Y-54124717D01*
X54587283Y-54296180D01*
X54788903Y-54430898D01*
X55012931Y-54523693D01*
X55250757Y-54571000D01*
X55493243Y-54571000D01*
X55731069Y-54523693D01*
X55955097Y-54430898D01*
X56156717Y-54296180D01*
X56328180Y-54124717D01*
X56462898Y-53923097D01*
X56555693Y-53699069D01*
X56603000Y-53461243D01*
X56603000Y-53218757D01*
X56681000Y-53218757D01*
X56681000Y-53461243D01*
X56728307Y-53699069D01*
X56821102Y-53923097D01*
X56955820Y-54124717D01*
X57127283Y-54296180D01*
X57328903Y-54430898D01*
X57552931Y-54523693D01*
X57790757Y-54571000D01*
X58033243Y-54571000D01*
X58271069Y-54523693D01*
X58495097Y-54430898D01*
X58696717Y-54296180D01*
X58868180Y-54124717D01*
X59002898Y-53923097D01*
X59095693Y-53699069D01*
X59143000Y-53461243D01*
X59143000Y-53218757D01*
X59095693Y-52980931D01*
X59002898Y-52756903D01*
X58868180Y-52555283D01*
X58802897Y-52490000D01*
X90207157Y-52490000D01*
X90207157Y-54190000D01*
X90214513Y-54264689D01*
X90236299Y-54336508D01*
X90271678Y-54402696D01*
X90319289Y-54460711D01*
X90377304Y-54508322D01*
X90443492Y-54543701D01*
X90515311Y-54565487D01*
X90590000Y-54572843D01*
X92290000Y-54572843D01*
X92364689Y-54565487D01*
X92436508Y-54543701D01*
X92502696Y-54508322D01*
X92560711Y-54460711D01*
X92608322Y-54402696D01*
X92643701Y-54336508D01*
X92665487Y-54264689D01*
X92672843Y-54190000D01*
X92672843Y-53218757D01*
X92749000Y-53218757D01*
X92749000Y-53461243D01*
X92796307Y-53699069D01*
X92889102Y-53923097D01*
X93023820Y-54124717D01*
X93195283Y-54296180D01*
X93396903Y-54430898D01*
X93620931Y-54523693D01*
X93858757Y-54571000D01*
X94101243Y-54571000D01*
X94339069Y-54523693D01*
X94563097Y-54430898D01*
X94764717Y-54296180D01*
X94936180Y-54124717D01*
X95070898Y-53923097D01*
X95163693Y-53699069D01*
X95211000Y-53461243D01*
X95211000Y-53218757D01*
X95163693Y-52980931D01*
X95070898Y-52756903D01*
X94936180Y-52555283D01*
X94764717Y-52383820D01*
X94563097Y-52249102D01*
X94339069Y-52156307D01*
X94101243Y-52109000D01*
X93858757Y-52109000D01*
X93620931Y-52156307D01*
X93396903Y-52249102D01*
X93195283Y-52383820D01*
X93023820Y-52555283D01*
X92889102Y-52756903D01*
X92796307Y-52980931D01*
X92749000Y-53218757D01*
X92672843Y-53218757D01*
X92672843Y-52490000D01*
X92665487Y-52415311D01*
X92643701Y-52343492D01*
X92608322Y-52277304D01*
X92560711Y-52219289D01*
X92502696Y-52171678D01*
X92436508Y-52136299D01*
X92364689Y-52114513D01*
X92290000Y-52107157D01*
X90590000Y-52107157D01*
X90515311Y-52114513D01*
X90443492Y-52136299D01*
X90377304Y-52171678D01*
X90319289Y-52219289D01*
X90271678Y-52277304D01*
X90236299Y-52343492D01*
X90214513Y-52415311D01*
X90207157Y-52490000D01*
X58802897Y-52490000D01*
X58696717Y-52383820D01*
X58495097Y-52249102D01*
X58271069Y-52156307D01*
X58033243Y-52109000D01*
X57790757Y-52109000D01*
X57552931Y-52156307D01*
X57328903Y-52249102D01*
X57127283Y-52383820D01*
X56955820Y-52555283D01*
X56821102Y-52756903D01*
X56728307Y-52980931D01*
X56681000Y-53218757D01*
X56603000Y-53218757D01*
X56555693Y-52980931D01*
X56462898Y-52756903D01*
X56328180Y-52555283D01*
X56156717Y-52383820D01*
X55955097Y-52249102D01*
X55731069Y-52156307D01*
X55493243Y-52109000D01*
X55250757Y-52109000D01*
X55012931Y-52156307D01*
X54788903Y-52249102D01*
X54587283Y-52383820D01*
X54415820Y-52555283D01*
X54281102Y-52756903D01*
X54188307Y-52980931D01*
X54141000Y-53218757D01*
X25806000Y-53218757D01*
X25806000Y-45911458D01*
X82423000Y-45911458D01*
X82423000Y-46036542D01*
X82447403Y-46159223D01*
X82495271Y-46274785D01*
X82564764Y-46378789D01*
X82653211Y-46467236D01*
X82757215Y-46536729D01*
X82872777Y-46584597D01*
X82995458Y-46609000D01*
X83120542Y-46609000D01*
X83243223Y-46584597D01*
X83358785Y-46536729D01*
X83462789Y-46467236D01*
X83551236Y-46378789D01*
X83620729Y-46274785D01*
X83668597Y-46159223D01*
X83687816Y-46062604D01*
X83696464Y-46053956D01*
X83717403Y-46159223D01*
X83765271Y-46274785D01*
X83834764Y-46378789D01*
X83923211Y-46467236D01*
X84027215Y-46536729D01*
X84142777Y-46584597D01*
X84265458Y-46609000D01*
X84390542Y-46609000D01*
X84513223Y-46584597D01*
X84628785Y-46536729D01*
X84732789Y-46467236D01*
X84821236Y-46378789D01*
X84890729Y-46274785D01*
X84938597Y-46159223D01*
X84963000Y-46036542D01*
X84963000Y-45911458D01*
X84938597Y-45788777D01*
X84890729Y-45673215D01*
X84835999Y-45591306D01*
X84836001Y-35126108D01*
X84882785Y-35106729D01*
X84986789Y-35037236D01*
X85075236Y-34948789D01*
X85144729Y-34844785D01*
X85192597Y-34729223D01*
X85217000Y-34606542D01*
X85217000Y-34481458D01*
X85192597Y-34358777D01*
X85144729Y-34243215D01*
X85075236Y-34139211D01*
X84986789Y-34050764D01*
X84964693Y-34036000D01*
X84986789Y-34021236D01*
X85075236Y-33932789D01*
X85144729Y-33828785D01*
X85192597Y-33713223D01*
X85217000Y-33590542D01*
X85217000Y-33465458D01*
X85192597Y-33342777D01*
X85144729Y-33227215D01*
X85075236Y-33123211D01*
X84986789Y-33034764D01*
X84882785Y-32965271D01*
X84767223Y-32917403D01*
X84644542Y-32893000D01*
X84519458Y-32893000D01*
X84396777Y-32917403D01*
X84281215Y-32965271D01*
X84177211Y-33034764D01*
X84088764Y-33123211D01*
X84019271Y-33227215D01*
X83971403Y-33342777D01*
X83952184Y-33439396D01*
X83478435Y-33913145D01*
X83459052Y-33929052D01*
X83395571Y-34006405D01*
X83348399Y-34094658D01*
X83319351Y-34190416D01*
X83314151Y-34243215D01*
X83309543Y-34290000D01*
X83312000Y-34314944D01*
X83312001Y-45001579D01*
X82969396Y-45344184D01*
X82872777Y-45363403D01*
X82757215Y-45411271D01*
X82653211Y-45480764D01*
X82564764Y-45569211D01*
X82495271Y-45673215D01*
X82447403Y-45788777D01*
X82423000Y-45911458D01*
X25806000Y-45911458D01*
X25806000Y-39307458D01*
X51943000Y-39307458D01*
X51943000Y-39432542D01*
X51967403Y-39555223D01*
X52015271Y-39670785D01*
X52070000Y-39752694D01*
X52070000Y-40107052D01*
X52067543Y-40132000D01*
X52070001Y-40156957D01*
X52070000Y-43559307D01*
X52015271Y-43641215D01*
X51967403Y-43756777D01*
X51943000Y-43879458D01*
X51943000Y-44004542D01*
X51967403Y-44127223D01*
X52015271Y-44242785D01*
X52084764Y-44346789D01*
X52173211Y-44435236D01*
X52277215Y-44504729D01*
X52392777Y-44552597D01*
X52515458Y-44577000D01*
X52640542Y-44577000D01*
X52763223Y-44552597D01*
X52878785Y-44504729D01*
X52982789Y-44435236D01*
X53071236Y-44346789D01*
X53140729Y-44242785D01*
X53188597Y-44127223D01*
X53213000Y-44004542D01*
X53213000Y-43879458D01*
X53188597Y-43756777D01*
X53140729Y-43641215D01*
X53086000Y-43559307D01*
X53086000Y-41593458D01*
X59563000Y-41593458D01*
X59563000Y-41718542D01*
X59587403Y-41841223D01*
X59635271Y-41956785D01*
X59704764Y-42060789D01*
X59793211Y-42149236D01*
X59897215Y-42218729D01*
X60012777Y-42266597D01*
X60135458Y-42291000D01*
X60260542Y-42291000D01*
X60383223Y-42266597D01*
X60498785Y-42218729D01*
X60580693Y-42164000D01*
X62917892Y-42164000D01*
X62889403Y-42232777D01*
X62865000Y-42355458D01*
X62865000Y-42480542D01*
X62889403Y-42603223D01*
X62937271Y-42718785D01*
X62990869Y-42799000D01*
X62937271Y-42879215D01*
X62889403Y-42994777D01*
X62865000Y-43117458D01*
X62865000Y-43242542D01*
X62889403Y-43365223D01*
X62937271Y-43480785D01*
X63006764Y-43584789D01*
X63095211Y-43673236D01*
X63199215Y-43742729D01*
X63314777Y-43790597D01*
X63437458Y-43815000D01*
X63562542Y-43815000D01*
X63685223Y-43790597D01*
X63800785Y-43742729D01*
X63882693Y-43688000D01*
X68555047Y-43687998D01*
X68580001Y-43690456D01*
X68670675Y-43681525D01*
X68679586Y-43680647D01*
X68775344Y-43651599D01*
X68794771Y-43641215D01*
X68863596Y-43604428D01*
X68921571Y-43556849D01*
X68921572Y-43556848D01*
X68922902Y-43555757D01*
X69019223Y-43536597D01*
X69134785Y-43488729D01*
X69238789Y-43419236D01*
X69327236Y-43330789D01*
X69396729Y-43226785D01*
X69444597Y-43111223D01*
X69469000Y-42988542D01*
X69469000Y-42863458D01*
X69444597Y-42740777D01*
X69396729Y-42625215D01*
X69327236Y-42521211D01*
X69238789Y-42432764D01*
X69134785Y-42363271D01*
X69019223Y-42315403D01*
X68896542Y-42291000D01*
X68771458Y-42291000D01*
X68648777Y-42315403D01*
X68533215Y-42363271D01*
X68429211Y-42432764D01*
X68340764Y-42521211D01*
X68271271Y-42625215D01*
X68251892Y-42671999D01*
X65987108Y-42672000D01*
X66015597Y-42603223D01*
X66040000Y-42480542D01*
X66040000Y-42355458D01*
X66015597Y-42232777D01*
X65987108Y-42164000D01*
X66165307Y-42164000D01*
X66247215Y-42218729D01*
X66362777Y-42266597D01*
X66485458Y-42291000D01*
X66610542Y-42291000D01*
X66733223Y-42266597D01*
X66848785Y-42218729D01*
X66952789Y-42149236D01*
X67041236Y-42060789D01*
X67110729Y-41956785D01*
X67158597Y-41841223D01*
X67183000Y-41718542D01*
X67183000Y-41593458D01*
X67158597Y-41470777D01*
X67110729Y-41355215D01*
X67041236Y-41251211D01*
X66952789Y-41162764D01*
X66848785Y-41093271D01*
X66733223Y-41045403D01*
X66660213Y-41030880D01*
X66675000Y-40956542D01*
X66675000Y-40831458D01*
X66650597Y-40708777D01*
X66602729Y-40593215D01*
X66533236Y-40489211D01*
X66444789Y-40400764D01*
X66340785Y-40331271D01*
X66225223Y-40283403D01*
X66102542Y-40259000D01*
X65977458Y-40259000D01*
X65854777Y-40283403D01*
X65739215Y-40331271D01*
X65657307Y-40386000D01*
X61342693Y-40386000D01*
X61260785Y-40331271D01*
X61145223Y-40283403D01*
X61022542Y-40259000D01*
X60897458Y-40259000D01*
X60774777Y-40283403D01*
X60659215Y-40331271D01*
X60555211Y-40400764D01*
X60466764Y-40489211D01*
X60397271Y-40593215D01*
X60349403Y-40708777D01*
X60325000Y-40831458D01*
X60325000Y-40956542D01*
X60341005Y-41037005D01*
X60260542Y-41021000D01*
X60135458Y-41021000D01*
X60012777Y-41045403D01*
X59897215Y-41093271D01*
X59793211Y-41162764D01*
X59704764Y-41251211D01*
X59635271Y-41355215D01*
X59587403Y-41470777D01*
X59563000Y-41593458D01*
X53086000Y-41593458D01*
X53086000Y-40156946D01*
X53088457Y-40132000D01*
X53086000Y-40107053D01*
X53086000Y-39752693D01*
X53140729Y-39670785D01*
X53188597Y-39555223D01*
X53213000Y-39432542D01*
X53213000Y-39307458D01*
X53188597Y-39184777D01*
X53140729Y-39069215D01*
X53071236Y-38965211D01*
X52982789Y-38876764D01*
X52878785Y-38807271D01*
X52763223Y-38759403D01*
X52640542Y-38735000D01*
X52515458Y-38735000D01*
X52392777Y-38759403D01*
X52277215Y-38807271D01*
X52173211Y-38876764D01*
X52084764Y-38965211D01*
X52015271Y-39069215D01*
X51967403Y-39184777D01*
X51943000Y-39307458D01*
X25806000Y-39307458D01*
X25806000Y-34481458D01*
X65913000Y-34481458D01*
X65913000Y-34606542D01*
X65937403Y-34729223D01*
X65985271Y-34844785D01*
X66054764Y-34948789D01*
X66143211Y-35037236D01*
X66247215Y-35106729D01*
X66362777Y-35154597D01*
X66459396Y-35173816D01*
X67187150Y-35901571D01*
X67203052Y-35920948D01*
X67222429Y-35936850D01*
X67280404Y-35984429D01*
X67327576Y-36009643D01*
X67368657Y-36031601D01*
X67464415Y-36060649D01*
X67539053Y-36068000D01*
X67539056Y-36068000D01*
X67564000Y-36070457D01*
X67588944Y-36068000D01*
X68834001Y-36068000D01*
X68834000Y-37463307D01*
X68779271Y-37545215D01*
X68731403Y-37660777D01*
X68707000Y-37783458D01*
X68707000Y-37908542D01*
X68731403Y-38031223D01*
X68779271Y-38146785D01*
X68848764Y-38250789D01*
X68937211Y-38339236D01*
X69041215Y-38408729D01*
X69156777Y-38456597D01*
X69279458Y-38481000D01*
X69404542Y-38481000D01*
X69527223Y-38456597D01*
X69642785Y-38408729D01*
X69746789Y-38339236D01*
X69835236Y-38250789D01*
X69904729Y-38146785D01*
X69952597Y-38031223D01*
X69977000Y-37908542D01*
X69977000Y-37783458D01*
X69952597Y-37660777D01*
X69904729Y-37545215D01*
X69850000Y-37463307D01*
X69850000Y-36068000D01*
X75055307Y-36068000D01*
X75137215Y-36122729D01*
X75252777Y-36170597D01*
X75375458Y-36195000D01*
X75500542Y-36195000D01*
X75623223Y-36170597D01*
X75738785Y-36122729D01*
X75842789Y-36053236D01*
X75931236Y-35964789D01*
X76000729Y-35860785D01*
X76048597Y-35745223D01*
X76073000Y-35622542D01*
X76073000Y-35497458D01*
X76048597Y-35374777D01*
X76000729Y-35259215D01*
X75931236Y-35155211D01*
X75842789Y-35066764D01*
X75738785Y-34997271D01*
X75623223Y-34949403D01*
X75500542Y-34925000D01*
X75375458Y-34925000D01*
X75252777Y-34949403D01*
X75137215Y-34997271D01*
X75055307Y-35052000D01*
X69366947Y-35052000D01*
X69342000Y-35049543D01*
X69317053Y-35052000D01*
X67774421Y-35052000D01*
X67177816Y-34455396D01*
X67158597Y-34358777D01*
X67110729Y-34243215D01*
X67041236Y-34139211D01*
X66952789Y-34050764D01*
X66848785Y-33981271D01*
X66733223Y-33933403D01*
X66610542Y-33909000D01*
X66485458Y-33909000D01*
X66362777Y-33933403D01*
X66247215Y-33981271D01*
X66143211Y-34050764D01*
X66054764Y-34139211D01*
X65985271Y-34243215D01*
X65937403Y-34358777D01*
X65913000Y-34481458D01*
X25806000Y-34481458D01*
X25806000Y-27818757D01*
X54141000Y-27818757D01*
X54141000Y-28061243D01*
X54188307Y-28299069D01*
X54281102Y-28523097D01*
X54415820Y-28724717D01*
X54587283Y-28896180D01*
X54788903Y-29030898D01*
X55012931Y-29123693D01*
X55250757Y-29171000D01*
X55493243Y-29171000D01*
X55731069Y-29123693D01*
X55955097Y-29030898D01*
X56156717Y-28896180D01*
X56328180Y-28724717D01*
X56462898Y-28523097D01*
X56555693Y-28299069D01*
X56603000Y-28061243D01*
X56603000Y-27818757D01*
X56555693Y-27580931D01*
X56462898Y-27356903D01*
X56328180Y-27155283D01*
X56156717Y-26983820D01*
X55955097Y-26849102D01*
X55731069Y-26756307D01*
X55493243Y-26709000D01*
X55250757Y-26709000D01*
X55012931Y-26756307D01*
X54788903Y-26849102D01*
X54587283Y-26983820D01*
X54415820Y-27155283D01*
X54281102Y-27356903D01*
X54188307Y-27580931D01*
X54141000Y-27818757D01*
X25806000Y-27818757D01*
X25806000Y-25806000D01*
X58788764Y-25806000D01*
X57885765Y-26709000D01*
M02*
