G04 #@! TF.GenerationSoftware,KiCad,Pcbnew,5.1.5+dfsg1-2build2*
G04 #@! TF.CreationDate,2021-08-06T11:15:59-05:00*
G04 #@! TF.ProjectId,gpsdo,67707364-6f2e-46b6-9963-61645f706362,rev?*
G04 #@! TF.SameCoordinates,Original*
G04 #@! TF.FileFunction,Soldermask,Top*
G04 #@! TF.FilePolarity,Negative*
%FSLAX46Y46*%
G04 Gerber Fmt 4.6, Leading zero omitted, Abs format (unit mm)*
G04 Created by KiCad (PCBNEW 5.1.5+dfsg1-2build2) date 2021-08-06 11:15:59*
%MOMM*%
%LPD*%
G04 APERTURE LIST*
%ADD10C,0.100000*%
G04 APERTURE END LIST*
D10*
G36*
X99173512Y-52443927D02*
G01*
X99322812Y-52473624D01*
X99486784Y-52541544D01*
X99634354Y-52640147D01*
X99759853Y-52765646D01*
X99858456Y-52913216D01*
X99926376Y-53077188D01*
X99961000Y-53251259D01*
X99961000Y-53428741D01*
X99926376Y-53602812D01*
X99858456Y-53766784D01*
X99759853Y-53914354D01*
X99634354Y-54039853D01*
X99486784Y-54138456D01*
X99322812Y-54206376D01*
X99173512Y-54236073D01*
X99148742Y-54241000D01*
X98971258Y-54241000D01*
X98946488Y-54236073D01*
X98797188Y-54206376D01*
X98633216Y-54138456D01*
X98485646Y-54039853D01*
X98360147Y-53914354D01*
X98261544Y-53766784D01*
X98193624Y-53602812D01*
X98159000Y-53428741D01*
X98159000Y-53251259D01*
X98193624Y-53077188D01*
X98261544Y-52913216D01*
X98360147Y-52765646D01*
X98485646Y-52640147D01*
X98633216Y-52541544D01*
X98797188Y-52473624D01*
X98946488Y-52443927D01*
X98971258Y-52439000D01*
X99148742Y-52439000D01*
X99173512Y-52443927D01*
G37*
G36*
X96633512Y-52443927D02*
G01*
X96782812Y-52473624D01*
X96946784Y-52541544D01*
X97094354Y-52640147D01*
X97219853Y-52765646D01*
X97318456Y-52913216D01*
X97386376Y-53077188D01*
X97421000Y-53251259D01*
X97421000Y-53428741D01*
X97386376Y-53602812D01*
X97318456Y-53766784D01*
X97219853Y-53914354D01*
X97094354Y-54039853D01*
X96946784Y-54138456D01*
X96782812Y-54206376D01*
X96633512Y-54236073D01*
X96608742Y-54241000D01*
X96431258Y-54241000D01*
X96406488Y-54236073D01*
X96257188Y-54206376D01*
X96093216Y-54138456D01*
X95945646Y-54039853D01*
X95820147Y-53914354D01*
X95721544Y-53766784D01*
X95653624Y-53602812D01*
X95619000Y-53428741D01*
X95619000Y-53251259D01*
X95653624Y-53077188D01*
X95721544Y-52913216D01*
X95820147Y-52765646D01*
X95945646Y-52640147D01*
X96093216Y-52541544D01*
X96257188Y-52473624D01*
X96406488Y-52443927D01*
X96431258Y-52439000D01*
X96608742Y-52439000D01*
X96633512Y-52443927D01*
G37*
G36*
X94093512Y-52443927D02*
G01*
X94242812Y-52473624D01*
X94406784Y-52541544D01*
X94554354Y-52640147D01*
X94679853Y-52765646D01*
X94778456Y-52913216D01*
X94846376Y-53077188D01*
X94881000Y-53251259D01*
X94881000Y-53428741D01*
X94846376Y-53602812D01*
X94778456Y-53766784D01*
X94679853Y-53914354D01*
X94554354Y-54039853D01*
X94406784Y-54138456D01*
X94242812Y-54206376D01*
X94093512Y-54236073D01*
X94068742Y-54241000D01*
X93891258Y-54241000D01*
X93866488Y-54236073D01*
X93717188Y-54206376D01*
X93553216Y-54138456D01*
X93405646Y-54039853D01*
X93280147Y-53914354D01*
X93181544Y-53766784D01*
X93113624Y-53602812D01*
X93079000Y-53428741D01*
X93079000Y-53251259D01*
X93113624Y-53077188D01*
X93181544Y-52913216D01*
X93280147Y-52765646D01*
X93405646Y-52640147D01*
X93553216Y-52541544D01*
X93717188Y-52473624D01*
X93866488Y-52443927D01*
X93891258Y-52439000D01*
X94068742Y-52439000D01*
X94093512Y-52443927D01*
G37*
G36*
X92341000Y-54241000D02*
G01*
X90539000Y-54241000D01*
X90539000Y-52439000D01*
X92341000Y-52439000D01*
X92341000Y-54241000D01*
G37*
G36*
X58025512Y-52443927D02*
G01*
X58174812Y-52473624D01*
X58338784Y-52541544D01*
X58486354Y-52640147D01*
X58611853Y-52765646D01*
X58710456Y-52913216D01*
X58778376Y-53077188D01*
X58813000Y-53251259D01*
X58813000Y-53428741D01*
X58778376Y-53602812D01*
X58710456Y-53766784D01*
X58611853Y-53914354D01*
X58486354Y-54039853D01*
X58338784Y-54138456D01*
X58174812Y-54206376D01*
X58025512Y-54236073D01*
X58000742Y-54241000D01*
X57823258Y-54241000D01*
X57798488Y-54236073D01*
X57649188Y-54206376D01*
X57485216Y-54138456D01*
X57337646Y-54039853D01*
X57212147Y-53914354D01*
X57113544Y-53766784D01*
X57045624Y-53602812D01*
X57011000Y-53428741D01*
X57011000Y-53251259D01*
X57045624Y-53077188D01*
X57113544Y-52913216D01*
X57212147Y-52765646D01*
X57337646Y-52640147D01*
X57485216Y-52541544D01*
X57649188Y-52473624D01*
X57798488Y-52443927D01*
X57823258Y-52439000D01*
X58000742Y-52439000D01*
X58025512Y-52443927D01*
G37*
G36*
X52945512Y-52443927D02*
G01*
X53094812Y-52473624D01*
X53258784Y-52541544D01*
X53406354Y-52640147D01*
X53531853Y-52765646D01*
X53630456Y-52913216D01*
X53698376Y-53077188D01*
X53733000Y-53251259D01*
X53733000Y-53428741D01*
X53698376Y-53602812D01*
X53630456Y-53766784D01*
X53531853Y-53914354D01*
X53406354Y-54039853D01*
X53258784Y-54138456D01*
X53094812Y-54206376D01*
X52945512Y-54236073D01*
X52920742Y-54241000D01*
X52743258Y-54241000D01*
X52718488Y-54236073D01*
X52569188Y-54206376D01*
X52405216Y-54138456D01*
X52257646Y-54039853D01*
X52132147Y-53914354D01*
X52033544Y-53766784D01*
X51965624Y-53602812D01*
X51931000Y-53428741D01*
X51931000Y-53251259D01*
X51965624Y-53077188D01*
X52033544Y-52913216D01*
X52132147Y-52765646D01*
X52257646Y-52640147D01*
X52405216Y-52541544D01*
X52569188Y-52473624D01*
X52718488Y-52443927D01*
X52743258Y-52439000D01*
X52920742Y-52439000D01*
X52945512Y-52443927D01*
G37*
G36*
X55485512Y-52443927D02*
G01*
X55634812Y-52473624D01*
X55798784Y-52541544D01*
X55946354Y-52640147D01*
X56071853Y-52765646D01*
X56170456Y-52913216D01*
X56238376Y-53077188D01*
X56273000Y-53251259D01*
X56273000Y-53428741D01*
X56238376Y-53602812D01*
X56170456Y-53766784D01*
X56071853Y-53914354D01*
X55946354Y-54039853D01*
X55798784Y-54138456D01*
X55634812Y-54206376D01*
X55485512Y-54236073D01*
X55460742Y-54241000D01*
X55283258Y-54241000D01*
X55258488Y-54236073D01*
X55109188Y-54206376D01*
X54945216Y-54138456D01*
X54797646Y-54039853D01*
X54672147Y-53914354D01*
X54573544Y-53766784D01*
X54505624Y-53602812D01*
X54471000Y-53428741D01*
X54471000Y-53251259D01*
X54505624Y-53077188D01*
X54573544Y-52913216D01*
X54672147Y-52765646D01*
X54797646Y-52640147D01*
X54945216Y-52541544D01*
X55109188Y-52473624D01*
X55258488Y-52443927D01*
X55283258Y-52439000D01*
X55460742Y-52439000D01*
X55485512Y-52443927D01*
G37*
G36*
X51193000Y-54241000D02*
G01*
X49391000Y-54241000D01*
X49391000Y-52439000D01*
X51193000Y-52439000D01*
X51193000Y-54241000D01*
G37*
G36*
X97556968Y-49545565D02*
G01*
X97595638Y-49557296D01*
X97631277Y-49576346D01*
X97662517Y-49601983D01*
X97688154Y-49633223D01*
X97707204Y-49668862D01*
X97718935Y-49707532D01*
X97723500Y-49753888D01*
X97723500Y-50830112D01*
X97718935Y-50876468D01*
X97707204Y-50915138D01*
X97688154Y-50950777D01*
X97662517Y-50982017D01*
X97631277Y-51007654D01*
X97595638Y-51026704D01*
X97556968Y-51038435D01*
X97510612Y-51043000D01*
X96859388Y-51043000D01*
X96813032Y-51038435D01*
X96774362Y-51026704D01*
X96738723Y-51007654D01*
X96707483Y-50982017D01*
X96681846Y-50950777D01*
X96662796Y-50915138D01*
X96651065Y-50876468D01*
X96646500Y-50830112D01*
X96646500Y-49753888D01*
X96651065Y-49707532D01*
X96662796Y-49668862D01*
X96681846Y-49633223D01*
X96707483Y-49601983D01*
X96738723Y-49576346D01*
X96774362Y-49557296D01*
X96813032Y-49545565D01*
X96859388Y-49541000D01*
X97510612Y-49541000D01*
X97556968Y-49545565D01*
G37*
G36*
X99431968Y-49545565D02*
G01*
X99470638Y-49557296D01*
X99506277Y-49576346D01*
X99537517Y-49601983D01*
X99563154Y-49633223D01*
X99582204Y-49668862D01*
X99593935Y-49707532D01*
X99598500Y-49753888D01*
X99598500Y-50830112D01*
X99593935Y-50876468D01*
X99582204Y-50915138D01*
X99563154Y-50950777D01*
X99537517Y-50982017D01*
X99506277Y-51007654D01*
X99470638Y-51026704D01*
X99431968Y-51038435D01*
X99385612Y-51043000D01*
X98734388Y-51043000D01*
X98688032Y-51038435D01*
X98649362Y-51026704D01*
X98613723Y-51007654D01*
X98582483Y-50982017D01*
X98556846Y-50950777D01*
X98537796Y-50915138D01*
X98526065Y-50876468D01*
X98521500Y-50830112D01*
X98521500Y-49753888D01*
X98526065Y-49707532D01*
X98537796Y-49668862D01*
X98556846Y-49633223D01*
X98582483Y-49601983D01*
X98613723Y-49576346D01*
X98649362Y-49557296D01*
X98688032Y-49545565D01*
X98734388Y-49541000D01*
X99385612Y-49541000D01*
X99431968Y-49545565D01*
G37*
G36*
X78611591Y-49604585D02*
G01*
X78645569Y-49614893D01*
X78676890Y-49631634D01*
X78704339Y-49654161D01*
X78726866Y-49681610D01*
X78743607Y-49712931D01*
X78753915Y-49746909D01*
X78758000Y-49788390D01*
X78758000Y-50389610D01*
X78753915Y-50431091D01*
X78743607Y-50465069D01*
X78726866Y-50496390D01*
X78704339Y-50523839D01*
X78676890Y-50546366D01*
X78645569Y-50563107D01*
X78611591Y-50573415D01*
X78570110Y-50577500D01*
X77893890Y-50577500D01*
X77852409Y-50573415D01*
X77818431Y-50563107D01*
X77787110Y-50546366D01*
X77759661Y-50523839D01*
X77737134Y-50496390D01*
X77720393Y-50465069D01*
X77710085Y-50431091D01*
X77706000Y-50389610D01*
X77706000Y-49788390D01*
X77710085Y-49746909D01*
X77720393Y-49712931D01*
X77737134Y-49681610D01*
X77759661Y-49654161D01*
X77787110Y-49631634D01*
X77818431Y-49614893D01*
X77852409Y-49604585D01*
X77893890Y-49600500D01*
X78570110Y-49600500D01*
X78611591Y-49604585D01*
G37*
G36*
X46293000Y-49087000D02*
G01*
X41641000Y-49087000D01*
X41641000Y-47985000D01*
X45066001Y-47985000D01*
X45090387Y-47982598D01*
X45113836Y-47975485D01*
X45135447Y-47963934D01*
X45154389Y-47948389D01*
X45169934Y-47929447D01*
X45181485Y-47907836D01*
X45188598Y-47884387D01*
X45191000Y-47860001D01*
X45191000Y-44435000D01*
X46293000Y-44435000D01*
X46293000Y-49087000D01*
G37*
G36*
X29993000Y-47860001D02*
G01*
X29995402Y-47884387D01*
X30002515Y-47907836D01*
X30014066Y-47929447D01*
X30029611Y-47948389D01*
X30048553Y-47963934D01*
X30070164Y-47975485D01*
X30093613Y-47982598D01*
X30117999Y-47985000D01*
X33543000Y-47985000D01*
X33543000Y-49087000D01*
X28891000Y-49087000D01*
X28891000Y-44435000D01*
X29993000Y-44435000D01*
X29993000Y-47860001D01*
G37*
G36*
X39543000Y-49087000D02*
G01*
X35641000Y-49087000D01*
X35641000Y-47985000D01*
X39543000Y-47985000D01*
X39543000Y-49087000D01*
G37*
G36*
X78611591Y-48029585D02*
G01*
X78645569Y-48039893D01*
X78676890Y-48056634D01*
X78704339Y-48079161D01*
X78726866Y-48106610D01*
X78743607Y-48137931D01*
X78753915Y-48171909D01*
X78758000Y-48213390D01*
X78758000Y-48814610D01*
X78753915Y-48856091D01*
X78743607Y-48890069D01*
X78726866Y-48921390D01*
X78704339Y-48948839D01*
X78676890Y-48971366D01*
X78645569Y-48988107D01*
X78611591Y-48998415D01*
X78570110Y-49002500D01*
X77893890Y-49002500D01*
X77852409Y-48998415D01*
X77818431Y-48988107D01*
X77787110Y-48971366D01*
X77759661Y-48948839D01*
X77737134Y-48921390D01*
X77720393Y-48890069D01*
X77710085Y-48856091D01*
X77706000Y-48814610D01*
X77706000Y-48213390D01*
X77710085Y-48171909D01*
X77720393Y-48137931D01*
X77737134Y-48106610D01*
X77759661Y-48079161D01*
X77787110Y-48056634D01*
X77818431Y-48039893D01*
X77852409Y-48029585D01*
X77893890Y-48025500D01*
X78570110Y-48025500D01*
X78611591Y-48029585D01*
G37*
G36*
X69833928Y-48038764D02*
G01*
X69855009Y-48045160D01*
X69874445Y-48055548D01*
X69891476Y-48069524D01*
X69905452Y-48086555D01*
X69915840Y-48105991D01*
X69922236Y-48127072D01*
X69925000Y-48155140D01*
X69925000Y-48618860D01*
X69922236Y-48646928D01*
X69915840Y-48668009D01*
X69905452Y-48687445D01*
X69891476Y-48704476D01*
X69874445Y-48718452D01*
X69855009Y-48728840D01*
X69833928Y-48735236D01*
X69805860Y-48738000D01*
X67992140Y-48738000D01*
X67964072Y-48735236D01*
X67942991Y-48728840D01*
X67923555Y-48718452D01*
X67906524Y-48704476D01*
X67892548Y-48687445D01*
X67882160Y-48668009D01*
X67875764Y-48646928D01*
X67873000Y-48618860D01*
X67873000Y-48155140D01*
X67875764Y-48127072D01*
X67882160Y-48105991D01*
X67892548Y-48086555D01*
X67906524Y-48069524D01*
X67923555Y-48055548D01*
X67942991Y-48045160D01*
X67964072Y-48038764D01*
X67992140Y-48036000D01*
X69805860Y-48036000D01*
X69833928Y-48038764D01*
G37*
G36*
X74783928Y-48038764D02*
G01*
X74805009Y-48045160D01*
X74824445Y-48055548D01*
X74841476Y-48069524D01*
X74855452Y-48086555D01*
X74865840Y-48105991D01*
X74872236Y-48127072D01*
X74875000Y-48155140D01*
X74875000Y-48618860D01*
X74872236Y-48646928D01*
X74865840Y-48668009D01*
X74855452Y-48687445D01*
X74841476Y-48704476D01*
X74824445Y-48718452D01*
X74805009Y-48728840D01*
X74783928Y-48735236D01*
X74755860Y-48738000D01*
X72942140Y-48738000D01*
X72914072Y-48735236D01*
X72892991Y-48728840D01*
X72873555Y-48718452D01*
X72856524Y-48704476D01*
X72842548Y-48687445D01*
X72832160Y-48668009D01*
X72825764Y-48646928D01*
X72823000Y-48618860D01*
X72823000Y-48155140D01*
X72825764Y-48127072D01*
X72832160Y-48105991D01*
X72842548Y-48086555D01*
X72856524Y-48069524D01*
X72873555Y-48055548D01*
X72892991Y-48045160D01*
X72914072Y-48038764D01*
X72942140Y-48036000D01*
X74755860Y-48036000D01*
X74783928Y-48038764D01*
G37*
G36*
X78611591Y-46556585D02*
G01*
X78645569Y-46566893D01*
X78676890Y-46583634D01*
X78704339Y-46606161D01*
X78726866Y-46633610D01*
X78743607Y-46664931D01*
X78753915Y-46698909D01*
X78758000Y-46740390D01*
X78758000Y-47341610D01*
X78753915Y-47383091D01*
X78743607Y-47417069D01*
X78726866Y-47448390D01*
X78704339Y-47475839D01*
X78676890Y-47498366D01*
X78645569Y-47515107D01*
X78611591Y-47525415D01*
X78570110Y-47529500D01*
X77893890Y-47529500D01*
X77852409Y-47525415D01*
X77818431Y-47515107D01*
X77787110Y-47498366D01*
X77759661Y-47475839D01*
X77737134Y-47448390D01*
X77720393Y-47417069D01*
X77710085Y-47383091D01*
X77706000Y-47341610D01*
X77706000Y-46740390D01*
X77710085Y-46698909D01*
X77720393Y-46664931D01*
X77737134Y-46633610D01*
X77759661Y-46606161D01*
X77787110Y-46583634D01*
X77818431Y-46566893D01*
X77852409Y-46556585D01*
X77893890Y-46552500D01*
X78570110Y-46552500D01*
X78611591Y-46556585D01*
G37*
G36*
X74783928Y-46768764D02*
G01*
X74805009Y-46775160D01*
X74824445Y-46785548D01*
X74841476Y-46799524D01*
X74855452Y-46816555D01*
X74865840Y-46835991D01*
X74872236Y-46857072D01*
X74875000Y-46885140D01*
X74875000Y-47348860D01*
X74872236Y-47376928D01*
X74865840Y-47398009D01*
X74855452Y-47417445D01*
X74841476Y-47434476D01*
X74824445Y-47448452D01*
X74805009Y-47458840D01*
X74783928Y-47465236D01*
X74755860Y-47468000D01*
X72942140Y-47468000D01*
X72914072Y-47465236D01*
X72892991Y-47458840D01*
X72873555Y-47448452D01*
X72856524Y-47434476D01*
X72842548Y-47417445D01*
X72832160Y-47398009D01*
X72825764Y-47376928D01*
X72823000Y-47348860D01*
X72823000Y-46885140D01*
X72825764Y-46857072D01*
X72832160Y-46835991D01*
X72842548Y-46816555D01*
X72856524Y-46799524D01*
X72873555Y-46785548D01*
X72892991Y-46775160D01*
X72914072Y-46768764D01*
X72942140Y-46766000D01*
X74755860Y-46766000D01*
X74783928Y-46768764D01*
G37*
G36*
X69833928Y-46768764D02*
G01*
X69855009Y-46775160D01*
X69874445Y-46785548D01*
X69891476Y-46799524D01*
X69905452Y-46816555D01*
X69915840Y-46835991D01*
X69922236Y-46857072D01*
X69925000Y-46885140D01*
X69925000Y-47348860D01*
X69922236Y-47376928D01*
X69915840Y-47398009D01*
X69905452Y-47417445D01*
X69891476Y-47434476D01*
X69874445Y-47448452D01*
X69855009Y-47458840D01*
X69833928Y-47465236D01*
X69805860Y-47468000D01*
X67992140Y-47468000D01*
X67964072Y-47465236D01*
X67942991Y-47458840D01*
X67923555Y-47448452D01*
X67906524Y-47434476D01*
X67892548Y-47417445D01*
X67882160Y-47398009D01*
X67875764Y-47376928D01*
X67873000Y-47348860D01*
X67873000Y-46885140D01*
X67875764Y-46857072D01*
X67882160Y-46835991D01*
X67892548Y-46816555D01*
X67906524Y-46799524D01*
X67923555Y-46785548D01*
X67942991Y-46775160D01*
X67964072Y-46768764D01*
X67992140Y-46766000D01*
X69805860Y-46766000D01*
X69833928Y-46768764D01*
G37*
G36*
X66878468Y-45869565D02*
G01*
X66917138Y-45881296D01*
X66952777Y-45900346D01*
X66984017Y-45925983D01*
X67009654Y-45957223D01*
X67028704Y-45992862D01*
X67040435Y-46031532D01*
X67045000Y-46077888D01*
X67045000Y-46729112D01*
X67040435Y-46775468D01*
X67028704Y-46814138D01*
X67009654Y-46849777D01*
X66984017Y-46881017D01*
X66952777Y-46906654D01*
X66917138Y-46925704D01*
X66878468Y-46937435D01*
X66832112Y-46942000D01*
X65755888Y-46942000D01*
X65709532Y-46937435D01*
X65670862Y-46925704D01*
X65635223Y-46906654D01*
X65603983Y-46881017D01*
X65578346Y-46849777D01*
X65559296Y-46814138D01*
X65547565Y-46775468D01*
X65543000Y-46729112D01*
X65543000Y-46077888D01*
X65547565Y-46031532D01*
X65559296Y-45992862D01*
X65578346Y-45957223D01*
X65603983Y-45925983D01*
X65635223Y-45900346D01*
X65670862Y-45881296D01*
X65709532Y-45869565D01*
X65755888Y-45865000D01*
X66832112Y-45865000D01*
X66878468Y-45869565D01*
G37*
G36*
X76579591Y-45489585D02*
G01*
X76613569Y-45499893D01*
X76644890Y-45516634D01*
X76672339Y-45539161D01*
X76694866Y-45566610D01*
X76711607Y-45597931D01*
X76721915Y-45631909D01*
X76726000Y-45673390D01*
X76726000Y-46274610D01*
X76721915Y-46316091D01*
X76711607Y-46350069D01*
X76694866Y-46381390D01*
X76672339Y-46408839D01*
X76644890Y-46431366D01*
X76613569Y-46448107D01*
X76579591Y-46458415D01*
X76538110Y-46462500D01*
X75861890Y-46462500D01*
X75820409Y-46458415D01*
X75786431Y-46448107D01*
X75755110Y-46431366D01*
X75727661Y-46408839D01*
X75705134Y-46381390D01*
X75688393Y-46350069D01*
X75678085Y-46316091D01*
X75674000Y-46274610D01*
X75674000Y-45673390D01*
X75678085Y-45631909D01*
X75688393Y-45597931D01*
X75705134Y-45566610D01*
X75727661Y-45539161D01*
X75755110Y-45516634D01*
X75786431Y-45499893D01*
X75820409Y-45489585D01*
X75861890Y-45485500D01*
X76538110Y-45485500D01*
X76579591Y-45489585D01*
G37*
G36*
X69833928Y-45498764D02*
G01*
X69855009Y-45505160D01*
X69874445Y-45515548D01*
X69891476Y-45529524D01*
X69905452Y-45546555D01*
X69915840Y-45565991D01*
X69922236Y-45587072D01*
X69925000Y-45615140D01*
X69925000Y-46078860D01*
X69922236Y-46106928D01*
X69915840Y-46128009D01*
X69905452Y-46147445D01*
X69891476Y-46164476D01*
X69874445Y-46178452D01*
X69855009Y-46188840D01*
X69833928Y-46195236D01*
X69805860Y-46198000D01*
X67992140Y-46198000D01*
X67964072Y-46195236D01*
X67942991Y-46188840D01*
X67923555Y-46178452D01*
X67906524Y-46164476D01*
X67892548Y-46147445D01*
X67882160Y-46128009D01*
X67875764Y-46106928D01*
X67873000Y-46078860D01*
X67873000Y-45615140D01*
X67875764Y-45587072D01*
X67882160Y-45565991D01*
X67892548Y-45546555D01*
X67906524Y-45529524D01*
X67923555Y-45515548D01*
X67942991Y-45505160D01*
X67964072Y-45498764D01*
X67992140Y-45496000D01*
X69805860Y-45496000D01*
X69833928Y-45498764D01*
G37*
G36*
X74783928Y-45498764D02*
G01*
X74805009Y-45505160D01*
X74824445Y-45515548D01*
X74841476Y-45529524D01*
X74855452Y-45546555D01*
X74865840Y-45565991D01*
X74872236Y-45587072D01*
X74875000Y-45615140D01*
X74875000Y-46078860D01*
X74872236Y-46106928D01*
X74865840Y-46128009D01*
X74855452Y-46147445D01*
X74841476Y-46164476D01*
X74824445Y-46178452D01*
X74805009Y-46188840D01*
X74783928Y-46195236D01*
X74755860Y-46198000D01*
X72942140Y-46198000D01*
X72914072Y-46195236D01*
X72892991Y-46188840D01*
X72873555Y-46178452D01*
X72856524Y-46164476D01*
X72842548Y-46147445D01*
X72832160Y-46128009D01*
X72825764Y-46106928D01*
X72823000Y-46078860D01*
X72823000Y-45615140D01*
X72825764Y-45587072D01*
X72832160Y-45565991D01*
X72842548Y-45546555D01*
X72856524Y-45529524D01*
X72873555Y-45515548D01*
X72892991Y-45505160D01*
X72914072Y-45498764D01*
X72942140Y-45496000D01*
X74755860Y-45496000D01*
X74783928Y-45498764D01*
G37*
G36*
X78611591Y-44981585D02*
G01*
X78645569Y-44991893D01*
X78676890Y-45008634D01*
X78704339Y-45031161D01*
X78726866Y-45058610D01*
X78743607Y-45089931D01*
X78753915Y-45123909D01*
X78758000Y-45165390D01*
X78758000Y-45766610D01*
X78753915Y-45808091D01*
X78743607Y-45842069D01*
X78726866Y-45873390D01*
X78704339Y-45900839D01*
X78676890Y-45923366D01*
X78645569Y-45940107D01*
X78611591Y-45950415D01*
X78570110Y-45954500D01*
X77893890Y-45954500D01*
X77852409Y-45950415D01*
X77818431Y-45940107D01*
X77787110Y-45923366D01*
X77759661Y-45900839D01*
X77737134Y-45873390D01*
X77720393Y-45842069D01*
X77710085Y-45808091D01*
X77706000Y-45766610D01*
X77706000Y-45165390D01*
X77710085Y-45123909D01*
X77720393Y-45089931D01*
X77737134Y-45058610D01*
X77759661Y-45031161D01*
X77787110Y-45008634D01*
X77818431Y-44991893D01*
X77852409Y-44981585D01*
X77893890Y-44977500D01*
X78570110Y-44977500D01*
X78611591Y-44981585D01*
G37*
G36*
X101143000Y-45586000D02*
G01*
X95961000Y-45586000D01*
X95961000Y-43064000D01*
X101143000Y-43064000D01*
X101143000Y-45586000D01*
G37*
G36*
X66878468Y-43994565D02*
G01*
X66917138Y-44006296D01*
X66952777Y-44025346D01*
X66984017Y-44050983D01*
X67009654Y-44082223D01*
X67028704Y-44117862D01*
X67040435Y-44156532D01*
X67045000Y-44202888D01*
X67045000Y-44854112D01*
X67040435Y-44900468D01*
X67028704Y-44939138D01*
X67009654Y-44974777D01*
X66984017Y-45006017D01*
X66952777Y-45031654D01*
X66917138Y-45050704D01*
X66878468Y-45062435D01*
X66832112Y-45067000D01*
X65755888Y-45067000D01*
X65709532Y-45062435D01*
X65670862Y-45050704D01*
X65635223Y-45031654D01*
X65603983Y-45006017D01*
X65578346Y-44974777D01*
X65559296Y-44939138D01*
X65547565Y-44900468D01*
X65543000Y-44854112D01*
X65543000Y-44202888D01*
X65547565Y-44156532D01*
X65559296Y-44117862D01*
X65578346Y-44082223D01*
X65603983Y-44050983D01*
X65635223Y-44025346D01*
X65670862Y-44006296D01*
X65709532Y-43994565D01*
X65755888Y-43990000D01*
X66832112Y-43990000D01*
X66878468Y-43994565D01*
G37*
G36*
X74783928Y-44228764D02*
G01*
X74805009Y-44235160D01*
X74824445Y-44245548D01*
X74841476Y-44259524D01*
X74855452Y-44276555D01*
X74865840Y-44295991D01*
X74872236Y-44317072D01*
X74875000Y-44345140D01*
X74875000Y-44808860D01*
X74872236Y-44836928D01*
X74865840Y-44858009D01*
X74855452Y-44877445D01*
X74841476Y-44894476D01*
X74824445Y-44908452D01*
X74805009Y-44918840D01*
X74783928Y-44925236D01*
X74755860Y-44928000D01*
X72942140Y-44928000D01*
X72914072Y-44925236D01*
X72892991Y-44918840D01*
X72873555Y-44908452D01*
X72856524Y-44894476D01*
X72842548Y-44877445D01*
X72832160Y-44858009D01*
X72825764Y-44836928D01*
X72823000Y-44808860D01*
X72823000Y-44345140D01*
X72825764Y-44317072D01*
X72832160Y-44295991D01*
X72842548Y-44276555D01*
X72856524Y-44259524D01*
X72873555Y-44245548D01*
X72892991Y-44235160D01*
X72914072Y-44228764D01*
X72942140Y-44226000D01*
X74755860Y-44226000D01*
X74783928Y-44228764D01*
G37*
G36*
X69833928Y-44228764D02*
G01*
X69855009Y-44235160D01*
X69874445Y-44245548D01*
X69891476Y-44259524D01*
X69905452Y-44276555D01*
X69915840Y-44295991D01*
X69922236Y-44317072D01*
X69925000Y-44345140D01*
X69925000Y-44808860D01*
X69922236Y-44836928D01*
X69915840Y-44858009D01*
X69905452Y-44877445D01*
X69891476Y-44894476D01*
X69874445Y-44908452D01*
X69855009Y-44918840D01*
X69833928Y-44925236D01*
X69805860Y-44928000D01*
X67992140Y-44928000D01*
X67964072Y-44925236D01*
X67942991Y-44918840D01*
X67923555Y-44908452D01*
X67906524Y-44894476D01*
X67892548Y-44877445D01*
X67882160Y-44858009D01*
X67875764Y-44836928D01*
X67873000Y-44808860D01*
X67873000Y-44345140D01*
X67875764Y-44317072D01*
X67882160Y-44295991D01*
X67892548Y-44276555D01*
X67906524Y-44259524D01*
X67923555Y-44245548D01*
X67942991Y-44235160D01*
X67964072Y-44228764D01*
X67992140Y-44226000D01*
X69805860Y-44226000D01*
X69833928Y-44228764D01*
G37*
G36*
X76579591Y-43914585D02*
G01*
X76613569Y-43924893D01*
X76644890Y-43941634D01*
X76672339Y-43964161D01*
X76694866Y-43991610D01*
X76711607Y-44022931D01*
X76721915Y-44056909D01*
X76726000Y-44098390D01*
X76726000Y-44699610D01*
X76721915Y-44741091D01*
X76711607Y-44775069D01*
X76694866Y-44806390D01*
X76672339Y-44833839D01*
X76644890Y-44856366D01*
X76613569Y-44873107D01*
X76579591Y-44883415D01*
X76538110Y-44887500D01*
X75861890Y-44887500D01*
X75820409Y-44883415D01*
X75786431Y-44873107D01*
X75755110Y-44856366D01*
X75727661Y-44833839D01*
X75705134Y-44806390D01*
X75688393Y-44775069D01*
X75678085Y-44741091D01*
X75674000Y-44699610D01*
X75674000Y-44098390D01*
X75678085Y-44056909D01*
X75688393Y-44022931D01*
X75705134Y-43991610D01*
X75727661Y-43964161D01*
X75755110Y-43941634D01*
X75786431Y-43924893D01*
X75820409Y-43914585D01*
X75861890Y-43910500D01*
X76538110Y-43910500D01*
X76579591Y-43914585D01*
G37*
G36*
X34671141Y-43477113D02*
G01*
X34705119Y-43487421D01*
X34736440Y-43504162D01*
X34763889Y-43526689D01*
X34786416Y-43554138D01*
X34803157Y-43585459D01*
X34813465Y-43619437D01*
X34817550Y-43660918D01*
X34817550Y-44337138D01*
X34813465Y-44378619D01*
X34803157Y-44412597D01*
X34786416Y-44443918D01*
X34763889Y-44471367D01*
X34736440Y-44493894D01*
X34705119Y-44510635D01*
X34671141Y-44520943D01*
X34629660Y-44525028D01*
X34028440Y-44525028D01*
X33986959Y-44520943D01*
X33952981Y-44510635D01*
X33921660Y-44493894D01*
X33894211Y-44471367D01*
X33871684Y-44443918D01*
X33854943Y-44412597D01*
X33844635Y-44378619D01*
X33840550Y-44337138D01*
X33840550Y-43660918D01*
X33844635Y-43619437D01*
X33854943Y-43585459D01*
X33871684Y-43554138D01*
X33894211Y-43526689D01*
X33921660Y-43504162D01*
X33952981Y-43487421D01*
X33986959Y-43477113D01*
X34028440Y-43473028D01*
X34629660Y-43473028D01*
X34671141Y-43477113D01*
G37*
G36*
X33096141Y-43477113D02*
G01*
X33130119Y-43487421D01*
X33161440Y-43504162D01*
X33188889Y-43526689D01*
X33211416Y-43554138D01*
X33228157Y-43585459D01*
X33238465Y-43619437D01*
X33242550Y-43660918D01*
X33242550Y-44337138D01*
X33238465Y-44378619D01*
X33228157Y-44412597D01*
X33211416Y-44443918D01*
X33188889Y-44471367D01*
X33161440Y-44493894D01*
X33130119Y-44510635D01*
X33096141Y-44520943D01*
X33054660Y-44525028D01*
X32453440Y-44525028D01*
X32411959Y-44520943D01*
X32377981Y-44510635D01*
X32346660Y-44493894D01*
X32319211Y-44471367D01*
X32296684Y-44443918D01*
X32279943Y-44412597D01*
X32269635Y-44378619D01*
X32265550Y-44337138D01*
X32265550Y-43660918D01*
X32269635Y-43619437D01*
X32279943Y-43585459D01*
X32296684Y-43554138D01*
X32319211Y-43526689D01*
X32346660Y-43504162D01*
X32377981Y-43487421D01*
X32411959Y-43477113D01*
X32453440Y-43473028D01*
X33054660Y-43473028D01*
X33096141Y-43477113D01*
G37*
G36*
X39749000Y-44316000D02*
G01*
X38347000Y-44316000D01*
X38347000Y-42664000D01*
X39749000Y-42664000D01*
X39749000Y-44316000D01*
G37*
G36*
X42274000Y-44041000D02*
G01*
X40022000Y-44041000D01*
X40022000Y-42239000D01*
X42274000Y-42239000D01*
X42274000Y-44041000D01*
G37*
G36*
X38074000Y-44041000D02*
G01*
X35822000Y-44041000D01*
X35822000Y-42239000D01*
X38074000Y-42239000D01*
X38074000Y-44041000D01*
G37*
G36*
X32728170Y-38740803D02*
G01*
X32739875Y-38744354D01*
X32750665Y-38750121D01*
X32760119Y-38757881D01*
X32767879Y-38767335D01*
X32773646Y-38778125D01*
X32777197Y-38789830D01*
X32779000Y-38808138D01*
X32779000Y-39571862D01*
X32777197Y-39590170D01*
X32773646Y-39601875D01*
X32767879Y-39612665D01*
X32755372Y-39627904D01*
X32748574Y-39634702D01*
X32734960Y-39655076D01*
X32725583Y-39677715D01*
X32720802Y-39701748D01*
X32720802Y-39726252D01*
X32725582Y-39750285D01*
X32734959Y-39772924D01*
X32748573Y-39793299D01*
X32765900Y-39810626D01*
X32786274Y-39824240D01*
X32808913Y-39833617D01*
X32832946Y-39838398D01*
X32845199Y-39839000D01*
X33210801Y-39839000D01*
X33235187Y-39836598D01*
X33258636Y-39829485D01*
X33280247Y-39817934D01*
X33299189Y-39802389D01*
X33314734Y-39783447D01*
X33326285Y-39761836D01*
X33333398Y-39738387D01*
X33335800Y-39714001D01*
X33333398Y-39689615D01*
X33326285Y-39666166D01*
X33314734Y-39644555D01*
X33299189Y-39625613D01*
X33297467Y-39624052D01*
X33288121Y-39612665D01*
X33282354Y-39601875D01*
X33278803Y-39590170D01*
X33277000Y-39571862D01*
X33277000Y-38808138D01*
X33278803Y-38789830D01*
X33282354Y-38778125D01*
X33288121Y-38767335D01*
X33295881Y-38757881D01*
X33305335Y-38750121D01*
X33316125Y-38744354D01*
X33327830Y-38740803D01*
X33346138Y-38739000D01*
X33709862Y-38739000D01*
X33728170Y-38740803D01*
X33739875Y-38744354D01*
X33750665Y-38750121D01*
X33760119Y-38757881D01*
X33767879Y-38767335D01*
X33773646Y-38778125D01*
X33777197Y-38789830D01*
X33779000Y-38808138D01*
X33779000Y-39571862D01*
X33777197Y-39590170D01*
X33773646Y-39601875D01*
X33767879Y-39612665D01*
X33755372Y-39627904D01*
X33748574Y-39634702D01*
X33734960Y-39655076D01*
X33725583Y-39677715D01*
X33720802Y-39701748D01*
X33720802Y-39726252D01*
X33725582Y-39750285D01*
X33734959Y-39772924D01*
X33748573Y-39793299D01*
X33765900Y-39810626D01*
X33786274Y-39824240D01*
X33808913Y-39833617D01*
X33832946Y-39838398D01*
X33845199Y-39839000D01*
X34210801Y-39839000D01*
X34235187Y-39836598D01*
X34258636Y-39829485D01*
X34280247Y-39817934D01*
X34299189Y-39802389D01*
X34314734Y-39783447D01*
X34326285Y-39761836D01*
X34333398Y-39738387D01*
X34335800Y-39714001D01*
X34333398Y-39689615D01*
X34326285Y-39666166D01*
X34314734Y-39644555D01*
X34299189Y-39625613D01*
X34297467Y-39624052D01*
X34288121Y-39612665D01*
X34282354Y-39601875D01*
X34278803Y-39590170D01*
X34277000Y-39571862D01*
X34277000Y-38808138D01*
X34278803Y-38789830D01*
X34282354Y-38778125D01*
X34288121Y-38767335D01*
X34295881Y-38757881D01*
X34305335Y-38750121D01*
X34316125Y-38744354D01*
X34327830Y-38740803D01*
X34346138Y-38739000D01*
X34709862Y-38739000D01*
X34728170Y-38740803D01*
X34739875Y-38744354D01*
X34750665Y-38750121D01*
X34760119Y-38757881D01*
X34767879Y-38767335D01*
X34773646Y-38778125D01*
X34777197Y-38789830D01*
X34779000Y-38808138D01*
X34779000Y-39571862D01*
X34777197Y-39590170D01*
X34773646Y-39601875D01*
X34767879Y-39612665D01*
X34755372Y-39627904D01*
X34748574Y-39634702D01*
X34734960Y-39655076D01*
X34725583Y-39677715D01*
X34720802Y-39701748D01*
X34720802Y-39726252D01*
X34725582Y-39750285D01*
X34734959Y-39772924D01*
X34748573Y-39793299D01*
X34765900Y-39810626D01*
X34779000Y-39819379D01*
X34779000Y-41460330D01*
X34775753Y-41462066D01*
X34756811Y-41477611D01*
X34741266Y-41496553D01*
X34729715Y-41518164D01*
X34722602Y-41541613D01*
X34720200Y-41565999D01*
X34722602Y-41590385D01*
X34729715Y-41613834D01*
X34741266Y-41635445D01*
X34756811Y-41654387D01*
X34758533Y-41655948D01*
X34767879Y-41667335D01*
X34773646Y-41678125D01*
X34777197Y-41689830D01*
X34779000Y-41708138D01*
X34779000Y-42471862D01*
X34777197Y-42490170D01*
X34773646Y-42501875D01*
X34767879Y-42512665D01*
X34760119Y-42522119D01*
X34750665Y-42529879D01*
X34739875Y-42535646D01*
X34728170Y-42539197D01*
X34709862Y-42541000D01*
X34346138Y-42541000D01*
X34327830Y-42539197D01*
X34316125Y-42535646D01*
X34305335Y-42529879D01*
X34295881Y-42522119D01*
X34288121Y-42512665D01*
X34282354Y-42501875D01*
X34278803Y-42490170D01*
X34277000Y-42471862D01*
X34277000Y-41708138D01*
X34278803Y-41689830D01*
X34282354Y-41678125D01*
X34288121Y-41667335D01*
X34300628Y-41652096D01*
X34307426Y-41645298D01*
X34321040Y-41624924D01*
X34330417Y-41602285D01*
X34335198Y-41578252D01*
X34335198Y-41553748D01*
X34330418Y-41529715D01*
X34321041Y-41507076D01*
X34307427Y-41486701D01*
X34290100Y-41469374D01*
X34269726Y-41455760D01*
X34247087Y-41446383D01*
X34223054Y-41441602D01*
X34210801Y-41441000D01*
X33845199Y-41441000D01*
X33820813Y-41443402D01*
X33797364Y-41450515D01*
X33775753Y-41462066D01*
X33756811Y-41477611D01*
X33741266Y-41496553D01*
X33729715Y-41518164D01*
X33722602Y-41541613D01*
X33720200Y-41565999D01*
X33722602Y-41590385D01*
X33729715Y-41613834D01*
X33741266Y-41635445D01*
X33756811Y-41654387D01*
X33758533Y-41655948D01*
X33767879Y-41667335D01*
X33773646Y-41678125D01*
X33777197Y-41689830D01*
X33779000Y-41708138D01*
X33779000Y-42471862D01*
X33777197Y-42490170D01*
X33773646Y-42501875D01*
X33767879Y-42512665D01*
X33760119Y-42522119D01*
X33750665Y-42529879D01*
X33739875Y-42535646D01*
X33728170Y-42539197D01*
X33709862Y-42541000D01*
X33346138Y-42541000D01*
X33327830Y-42539197D01*
X33316125Y-42535646D01*
X33305335Y-42529879D01*
X33295881Y-42522119D01*
X33288121Y-42512665D01*
X33282354Y-42501875D01*
X33278803Y-42490170D01*
X33277000Y-42471862D01*
X33277000Y-41708138D01*
X33278803Y-41689830D01*
X33282354Y-41678125D01*
X33288121Y-41667335D01*
X33300628Y-41652096D01*
X33307426Y-41645298D01*
X33321040Y-41624924D01*
X33330417Y-41602285D01*
X33335198Y-41578252D01*
X33335198Y-41553748D01*
X33330418Y-41529715D01*
X33321041Y-41507076D01*
X33307427Y-41486701D01*
X33290100Y-41469374D01*
X33269726Y-41455760D01*
X33247087Y-41446383D01*
X33223054Y-41441602D01*
X33210801Y-41441000D01*
X32845199Y-41441000D01*
X32820813Y-41443402D01*
X32797364Y-41450515D01*
X32775753Y-41462066D01*
X32756811Y-41477611D01*
X32741266Y-41496553D01*
X32729715Y-41518164D01*
X32722602Y-41541613D01*
X32720200Y-41565999D01*
X32722602Y-41590385D01*
X32729715Y-41613834D01*
X32741266Y-41635445D01*
X32756811Y-41654387D01*
X32758533Y-41655948D01*
X32767879Y-41667335D01*
X32773646Y-41678125D01*
X32777197Y-41689830D01*
X32779000Y-41708138D01*
X32779000Y-42471862D01*
X32777197Y-42490170D01*
X32773646Y-42501875D01*
X32767879Y-42512665D01*
X32760119Y-42522119D01*
X32750665Y-42529879D01*
X32739875Y-42535646D01*
X32728170Y-42539197D01*
X32709862Y-42541000D01*
X32346138Y-42541000D01*
X32327830Y-42539197D01*
X32316125Y-42535646D01*
X32305335Y-42529879D01*
X32295881Y-42522119D01*
X32288121Y-42512665D01*
X32282354Y-42501875D01*
X32278803Y-42490170D01*
X32277000Y-42471862D01*
X32277000Y-41708138D01*
X32278803Y-41689830D01*
X32282354Y-41678125D01*
X32288121Y-41667335D01*
X32300628Y-41652096D01*
X32307426Y-41645298D01*
X32321040Y-41624924D01*
X32330417Y-41602285D01*
X32335198Y-41578252D01*
X32335198Y-41553748D01*
X32330418Y-41529715D01*
X32321041Y-41507076D01*
X32307427Y-41486701D01*
X32290100Y-41469374D01*
X32277000Y-41460621D01*
X32277000Y-39819670D01*
X32280247Y-39817934D01*
X32299189Y-39802389D01*
X32314734Y-39783447D01*
X32326285Y-39761836D01*
X32333398Y-39738387D01*
X32335800Y-39714001D01*
X32333398Y-39689615D01*
X32326285Y-39666166D01*
X32314734Y-39644555D01*
X32299189Y-39625613D01*
X32297467Y-39624052D01*
X32288121Y-39612665D01*
X32282354Y-39601875D01*
X32278803Y-39590170D01*
X32277000Y-39571862D01*
X32277000Y-38808138D01*
X32278803Y-38789830D01*
X32282354Y-38778125D01*
X32288121Y-38767335D01*
X32295881Y-38757881D01*
X32305335Y-38750121D01*
X32316125Y-38744354D01*
X32327830Y-38740803D01*
X32346138Y-38739000D01*
X32709862Y-38739000D01*
X32728170Y-38740803D01*
G37*
G36*
X29993000Y-42337000D02*
G01*
X28891000Y-42337000D01*
X28891000Y-38435000D01*
X29993000Y-38435000D01*
X29993000Y-42337000D01*
G37*
G36*
X46293000Y-42337000D02*
G01*
X45191000Y-42337000D01*
X45191000Y-38435000D01*
X46293000Y-38435000D01*
X46293000Y-42337000D01*
G37*
G36*
X38074000Y-41541000D02*
G01*
X35822000Y-41541000D01*
X35822000Y-39739000D01*
X38074000Y-39739000D01*
X38074000Y-41541000D01*
G37*
G36*
X42274000Y-41541000D02*
G01*
X40022000Y-41541000D01*
X40022000Y-39739000D01*
X42274000Y-39739000D01*
X42274000Y-41541000D01*
G37*
G36*
X77634678Y-41447062D02*
G01*
X75732678Y-41447062D01*
X75732678Y-31845062D01*
X77634678Y-31845062D01*
X77634678Y-41447062D01*
G37*
G36*
X87134678Y-41447062D02*
G01*
X85232678Y-41447062D01*
X85232678Y-31845062D01*
X87134678Y-31845062D01*
X87134678Y-41447062D01*
G37*
G36*
X101143000Y-41141000D02*
G01*
X95961000Y-41141000D01*
X95961000Y-38749000D01*
X101143000Y-38749000D01*
X101143000Y-41141000D01*
G37*
G36*
X93338443Y-39306713D02*
G01*
X93372421Y-39317021D01*
X93403742Y-39333762D01*
X93431191Y-39356289D01*
X93453718Y-39383738D01*
X93470459Y-39415059D01*
X93480767Y-39449037D01*
X93484852Y-39490518D01*
X93484852Y-40091738D01*
X93480767Y-40133219D01*
X93470459Y-40167197D01*
X93453718Y-40198518D01*
X93431191Y-40225967D01*
X93403742Y-40248494D01*
X93372421Y-40265235D01*
X93338443Y-40275543D01*
X93296962Y-40279628D01*
X92620742Y-40279628D01*
X92579261Y-40275543D01*
X92545283Y-40265235D01*
X92513962Y-40248494D01*
X92486513Y-40225967D01*
X92463986Y-40198518D01*
X92447245Y-40167197D01*
X92436937Y-40133219D01*
X92432852Y-40091738D01*
X92432852Y-39490518D01*
X92436937Y-39449037D01*
X92447245Y-39415059D01*
X92463986Y-39383738D01*
X92486513Y-39356289D01*
X92513962Y-39333762D01*
X92545283Y-39317021D01*
X92579261Y-39306713D01*
X92620742Y-39302628D01*
X93296962Y-39302628D01*
X93338443Y-39306713D01*
G37*
G36*
X60510303Y-38614660D02*
G01*
X60544281Y-38624968D01*
X60575602Y-38641709D01*
X60603051Y-38664236D01*
X60625578Y-38691685D01*
X60642319Y-38723006D01*
X60652627Y-38756984D01*
X60656712Y-38798465D01*
X60656712Y-39474685D01*
X60652627Y-39516166D01*
X60642319Y-39550144D01*
X60625578Y-39581465D01*
X60603051Y-39608914D01*
X60575602Y-39631441D01*
X60544281Y-39648182D01*
X60510303Y-39658490D01*
X60468822Y-39662575D01*
X59867602Y-39662575D01*
X59826121Y-39658490D01*
X59792143Y-39648182D01*
X59760822Y-39631441D01*
X59733373Y-39608914D01*
X59710846Y-39581465D01*
X59694105Y-39550144D01*
X59683797Y-39516166D01*
X59679712Y-39474685D01*
X59679712Y-38798465D01*
X59683797Y-38756984D01*
X59694105Y-38723006D01*
X59710846Y-38691685D01*
X59733373Y-38664236D01*
X59760822Y-38641709D01*
X59792143Y-38624968D01*
X59826121Y-38614660D01*
X59867602Y-38610575D01*
X60468822Y-38610575D01*
X60510303Y-38614660D01*
G37*
G36*
X58935303Y-38614660D02*
G01*
X58969281Y-38624968D01*
X59000602Y-38641709D01*
X59028051Y-38664236D01*
X59050578Y-38691685D01*
X59067319Y-38723006D01*
X59077627Y-38756984D01*
X59081712Y-38798465D01*
X59081712Y-39474685D01*
X59077627Y-39516166D01*
X59067319Y-39550144D01*
X59050578Y-39581465D01*
X59028051Y-39608914D01*
X59000602Y-39631441D01*
X58969281Y-39648182D01*
X58935303Y-39658490D01*
X58893822Y-39662575D01*
X58292602Y-39662575D01*
X58251121Y-39658490D01*
X58217143Y-39648182D01*
X58185822Y-39631441D01*
X58158373Y-39608914D01*
X58135846Y-39581465D01*
X58119105Y-39550144D01*
X58108797Y-39516166D01*
X58104712Y-39474685D01*
X58104712Y-38798465D01*
X58108797Y-38756984D01*
X58119105Y-38723006D01*
X58135846Y-38691685D01*
X58158373Y-38664236D01*
X58185822Y-38641709D01*
X58217143Y-38624968D01*
X58251121Y-38614660D01*
X58292602Y-38610575D01*
X58893822Y-38610575D01*
X58935303Y-38614660D01*
G37*
G36*
X70987500Y-39646000D02*
G01*
X61600500Y-39646000D01*
X61600500Y-38444000D01*
X70987500Y-38444000D01*
X70987500Y-39646000D01*
G37*
G36*
X74039591Y-38403085D02*
G01*
X74073569Y-38413393D01*
X74104890Y-38430134D01*
X74132339Y-38452661D01*
X74154866Y-38480110D01*
X74171607Y-38511431D01*
X74181915Y-38545409D01*
X74186000Y-38586890D01*
X74186000Y-39188110D01*
X74181915Y-39229591D01*
X74171607Y-39263569D01*
X74154866Y-39294890D01*
X74132339Y-39322339D01*
X74104890Y-39344866D01*
X74073569Y-39361607D01*
X74039591Y-39371915D01*
X73998110Y-39376000D01*
X73321890Y-39376000D01*
X73280409Y-39371915D01*
X73246431Y-39361607D01*
X73215110Y-39344866D01*
X73187661Y-39322339D01*
X73165134Y-39294890D01*
X73148393Y-39263569D01*
X73138085Y-39229591D01*
X73134000Y-39188110D01*
X73134000Y-38586890D01*
X73138085Y-38545409D01*
X73148393Y-38511431D01*
X73165134Y-38480110D01*
X73187661Y-38452661D01*
X73215110Y-38430134D01*
X73246431Y-38413393D01*
X73280409Y-38403085D01*
X73321890Y-38399000D01*
X73998110Y-38399000D01*
X74039591Y-38403085D01*
G37*
G36*
X38074000Y-39041000D02*
G01*
X35822000Y-39041000D01*
X35822000Y-37239000D01*
X38074000Y-37239000D01*
X38074000Y-39041000D01*
G37*
G36*
X42274000Y-39041000D02*
G01*
X40022000Y-39041000D01*
X40022000Y-37239000D01*
X42274000Y-37239000D01*
X42274000Y-39041000D01*
G37*
G36*
X93338443Y-37731713D02*
G01*
X93372421Y-37742021D01*
X93403742Y-37758762D01*
X93431191Y-37781289D01*
X93453718Y-37808738D01*
X93470459Y-37840059D01*
X93480767Y-37874037D01*
X93484852Y-37915518D01*
X93484852Y-38516738D01*
X93480767Y-38558219D01*
X93470459Y-38592197D01*
X93453718Y-38623518D01*
X93431191Y-38650967D01*
X93403742Y-38673494D01*
X93372421Y-38690235D01*
X93338443Y-38700543D01*
X93296962Y-38704628D01*
X92620742Y-38704628D01*
X92579261Y-38700543D01*
X92545283Y-38690235D01*
X92513962Y-38673494D01*
X92486513Y-38650967D01*
X92463986Y-38623518D01*
X92447245Y-38592197D01*
X92436937Y-38558219D01*
X92432852Y-38516738D01*
X92432852Y-37915518D01*
X92436937Y-37874037D01*
X92447245Y-37840059D01*
X92463986Y-37808738D01*
X92486513Y-37781289D01*
X92513962Y-37758762D01*
X92545283Y-37742021D01*
X92579261Y-37731713D01*
X92620742Y-37727628D01*
X93296962Y-37727628D01*
X93338443Y-37731713D01*
G37*
G36*
X39749000Y-38616000D02*
G01*
X38347000Y-38616000D01*
X38347000Y-36964000D01*
X39749000Y-36964000D01*
X39749000Y-38616000D01*
G37*
G36*
X74039591Y-36828085D02*
G01*
X74073569Y-36838393D01*
X74104890Y-36855134D01*
X74132339Y-36877661D01*
X74154866Y-36905110D01*
X74171607Y-36936431D01*
X74181915Y-36970409D01*
X74186000Y-37011890D01*
X74186000Y-37613110D01*
X74181915Y-37654591D01*
X74171607Y-37688569D01*
X74154866Y-37719890D01*
X74132339Y-37747339D01*
X74104890Y-37769866D01*
X74073569Y-37786607D01*
X74039591Y-37796915D01*
X73998110Y-37801000D01*
X73321890Y-37801000D01*
X73280409Y-37796915D01*
X73246431Y-37786607D01*
X73215110Y-37769866D01*
X73187661Y-37747339D01*
X73165134Y-37719890D01*
X73148393Y-37688569D01*
X73138085Y-37654591D01*
X73134000Y-37613110D01*
X73134000Y-37011890D01*
X73138085Y-36970409D01*
X73148393Y-36936431D01*
X73165134Y-36905110D01*
X73187661Y-36877661D01*
X73215110Y-36855134D01*
X73246431Y-36838393D01*
X73280409Y-36828085D01*
X73321890Y-36824000D01*
X73998110Y-36824000D01*
X74039591Y-36828085D01*
G37*
G36*
X101143000Y-36826000D02*
G01*
X95961000Y-36826000D01*
X95961000Y-34304000D01*
X101143000Y-34304000D01*
X101143000Y-36826000D01*
G37*
G36*
X89750091Y-35546085D02*
G01*
X89784069Y-35556393D01*
X89815390Y-35573134D01*
X89842839Y-35595661D01*
X89865366Y-35623110D01*
X89882107Y-35654431D01*
X89892415Y-35688409D01*
X89896500Y-35729890D01*
X89896500Y-36406110D01*
X89892415Y-36447591D01*
X89882107Y-36481569D01*
X89865366Y-36512890D01*
X89842839Y-36540339D01*
X89815390Y-36562866D01*
X89784069Y-36579607D01*
X89750091Y-36589915D01*
X89708610Y-36594000D01*
X89107390Y-36594000D01*
X89065909Y-36589915D01*
X89031931Y-36579607D01*
X89000610Y-36562866D01*
X88973161Y-36540339D01*
X88950634Y-36512890D01*
X88933893Y-36481569D01*
X88923585Y-36447591D01*
X88919500Y-36406110D01*
X88919500Y-35729890D01*
X88923585Y-35688409D01*
X88933893Y-35654431D01*
X88950634Y-35623110D01*
X88973161Y-35595661D01*
X89000610Y-35573134D01*
X89031931Y-35556393D01*
X89065909Y-35546085D01*
X89107390Y-35542000D01*
X89708610Y-35542000D01*
X89750091Y-35546085D01*
G37*
G36*
X91325091Y-35546085D02*
G01*
X91359069Y-35556393D01*
X91390390Y-35573134D01*
X91417839Y-35595661D01*
X91440366Y-35623110D01*
X91457107Y-35654431D01*
X91467415Y-35688409D01*
X91471500Y-35729890D01*
X91471500Y-36406110D01*
X91467415Y-36447591D01*
X91457107Y-36481569D01*
X91440366Y-36512890D01*
X91417839Y-36540339D01*
X91390390Y-36562866D01*
X91359069Y-36579607D01*
X91325091Y-36589915D01*
X91283610Y-36594000D01*
X90682390Y-36594000D01*
X90640909Y-36589915D01*
X90606931Y-36579607D01*
X90575610Y-36562866D01*
X90548161Y-36540339D01*
X90525634Y-36512890D01*
X90508893Y-36481569D01*
X90498585Y-36447591D01*
X90494500Y-36406110D01*
X90494500Y-35729890D01*
X90498585Y-35688409D01*
X90508893Y-35654431D01*
X90525634Y-35623110D01*
X90548161Y-35595661D01*
X90575610Y-35573134D01*
X90606931Y-35556393D01*
X90640909Y-35546085D01*
X90682390Y-35542000D01*
X91283610Y-35542000D01*
X91325091Y-35546085D01*
G37*
G36*
X93331583Y-35510850D02*
G01*
X93365561Y-35521158D01*
X93396882Y-35537899D01*
X93424331Y-35560426D01*
X93446858Y-35587875D01*
X93463599Y-35619196D01*
X93473907Y-35653174D01*
X93477992Y-35694655D01*
X93477992Y-36295875D01*
X93473907Y-36337356D01*
X93463599Y-36371334D01*
X93446858Y-36402655D01*
X93424331Y-36430104D01*
X93396882Y-36452631D01*
X93365561Y-36469372D01*
X93331583Y-36479680D01*
X93290102Y-36483765D01*
X92613882Y-36483765D01*
X92572401Y-36479680D01*
X92538423Y-36469372D01*
X92507102Y-36452631D01*
X92479653Y-36430104D01*
X92457126Y-36402655D01*
X92440385Y-36371334D01*
X92430077Y-36337356D01*
X92425992Y-36295875D01*
X92425992Y-35694655D01*
X92430077Y-35653174D01*
X92440385Y-35619196D01*
X92457126Y-35587875D01*
X92479653Y-35560426D01*
X92507102Y-35537899D01*
X92538423Y-35521158D01*
X92572401Y-35510850D01*
X92613882Y-35506765D01*
X93290102Y-35506765D01*
X93331583Y-35510850D01*
G37*
G36*
X33543000Y-32787000D02*
G01*
X30117999Y-32787000D01*
X30093613Y-32789402D01*
X30070164Y-32796515D01*
X30048553Y-32808066D01*
X30029611Y-32823611D01*
X30014066Y-32842553D01*
X30002515Y-32864164D01*
X29995402Y-32887613D01*
X29993000Y-32911999D01*
X29993000Y-36337000D01*
X28891000Y-36337000D01*
X28891000Y-31685000D01*
X33543000Y-31685000D01*
X33543000Y-32787000D01*
G37*
G36*
X46293000Y-36337000D02*
G01*
X45191000Y-36337000D01*
X45191000Y-32911999D01*
X45188598Y-32887613D01*
X45181485Y-32864164D01*
X45169934Y-32842553D01*
X45154389Y-32823611D01*
X45135447Y-32808066D01*
X45113836Y-32796515D01*
X45090387Y-32789402D01*
X45066001Y-32787000D01*
X41641000Y-32787000D01*
X41641000Y-31685000D01*
X46293000Y-31685000D01*
X46293000Y-36337000D01*
G37*
G36*
X41998091Y-35038085D02*
G01*
X42032069Y-35048393D01*
X42063390Y-35065134D01*
X42090839Y-35087661D01*
X42113366Y-35115110D01*
X42130107Y-35146431D01*
X42140415Y-35180409D01*
X42144500Y-35221890D01*
X42144500Y-35898110D01*
X42140415Y-35939591D01*
X42130107Y-35973569D01*
X42113366Y-36004890D01*
X42090839Y-36032339D01*
X42063390Y-36054866D01*
X42032069Y-36071607D01*
X41998091Y-36081915D01*
X41956610Y-36086000D01*
X41355390Y-36086000D01*
X41313909Y-36081915D01*
X41279931Y-36071607D01*
X41248610Y-36054866D01*
X41221161Y-36032339D01*
X41198634Y-36004890D01*
X41181893Y-35973569D01*
X41171585Y-35939591D01*
X41167500Y-35898110D01*
X41167500Y-35221890D01*
X41171585Y-35180409D01*
X41181893Y-35146431D01*
X41198634Y-35115110D01*
X41221161Y-35087661D01*
X41248610Y-35065134D01*
X41279931Y-35048393D01*
X41313909Y-35038085D01*
X41355390Y-35034000D01*
X41956610Y-35034000D01*
X41998091Y-35038085D01*
G37*
G36*
X43573091Y-35038085D02*
G01*
X43607069Y-35048393D01*
X43638390Y-35065134D01*
X43665839Y-35087661D01*
X43688366Y-35115110D01*
X43705107Y-35146431D01*
X43715415Y-35180409D01*
X43719500Y-35221890D01*
X43719500Y-35898110D01*
X43715415Y-35939591D01*
X43705107Y-35973569D01*
X43688366Y-36004890D01*
X43665839Y-36032339D01*
X43638390Y-36054866D01*
X43607069Y-36071607D01*
X43573091Y-36081915D01*
X43531610Y-36086000D01*
X42930390Y-36086000D01*
X42888909Y-36081915D01*
X42854931Y-36071607D01*
X42823610Y-36054866D01*
X42796161Y-36032339D01*
X42773634Y-36004890D01*
X42756893Y-35973569D01*
X42746585Y-35939591D01*
X42742500Y-35898110D01*
X42742500Y-35221890D01*
X42746585Y-35180409D01*
X42756893Y-35146431D01*
X42773634Y-35115110D01*
X42796161Y-35087661D01*
X42823610Y-35065134D01*
X42854931Y-35048393D01*
X42888909Y-35038085D01*
X42930390Y-35034000D01*
X43531610Y-35034000D01*
X43573091Y-35038085D01*
G37*
G36*
X37451591Y-34784085D02*
G01*
X37485569Y-34794393D01*
X37516890Y-34811134D01*
X37544339Y-34833661D01*
X37566866Y-34861110D01*
X37583607Y-34892431D01*
X37593915Y-34926409D01*
X37598000Y-34967890D01*
X37598000Y-35644110D01*
X37593915Y-35685591D01*
X37583607Y-35719569D01*
X37566866Y-35750890D01*
X37544339Y-35778339D01*
X37516890Y-35800866D01*
X37485569Y-35817607D01*
X37451591Y-35827915D01*
X37410110Y-35832000D01*
X36808890Y-35832000D01*
X36767409Y-35827915D01*
X36733431Y-35817607D01*
X36702110Y-35800866D01*
X36674661Y-35778339D01*
X36652134Y-35750890D01*
X36635393Y-35719569D01*
X36625085Y-35685591D01*
X36621000Y-35644110D01*
X36621000Y-34967890D01*
X36625085Y-34926409D01*
X36635393Y-34892431D01*
X36652134Y-34861110D01*
X36674661Y-34833661D01*
X36702110Y-34811134D01*
X36733431Y-34794393D01*
X36767409Y-34784085D01*
X36808890Y-34780000D01*
X37410110Y-34780000D01*
X37451591Y-34784085D01*
G37*
G36*
X35876591Y-34784085D02*
G01*
X35910569Y-34794393D01*
X35941890Y-34811134D01*
X35969339Y-34833661D01*
X35991866Y-34861110D01*
X36008607Y-34892431D01*
X36018915Y-34926409D01*
X36023000Y-34967890D01*
X36023000Y-35644110D01*
X36018915Y-35685591D01*
X36008607Y-35719569D01*
X35991866Y-35750890D01*
X35969339Y-35778339D01*
X35941890Y-35800866D01*
X35910569Y-35817607D01*
X35876591Y-35827915D01*
X35835110Y-35832000D01*
X35233890Y-35832000D01*
X35192409Y-35827915D01*
X35158431Y-35817607D01*
X35127110Y-35800866D01*
X35099661Y-35778339D01*
X35077134Y-35750890D01*
X35060393Y-35719569D01*
X35050085Y-35685591D01*
X35046000Y-35644110D01*
X35046000Y-34967890D01*
X35050085Y-34926409D01*
X35060393Y-34892431D01*
X35077134Y-34861110D01*
X35099661Y-34833661D01*
X35127110Y-34811134D01*
X35158431Y-34794393D01*
X35192409Y-34784085D01*
X35233890Y-34780000D01*
X35835110Y-34780000D01*
X35876591Y-34784085D01*
G37*
G36*
X93331583Y-33935850D02*
G01*
X93365561Y-33946158D01*
X93396882Y-33962899D01*
X93424331Y-33985426D01*
X93446858Y-34012875D01*
X93463599Y-34044196D01*
X93473907Y-34078174D01*
X93477992Y-34119655D01*
X93477992Y-34720875D01*
X93473907Y-34762356D01*
X93463599Y-34796334D01*
X93446858Y-34827655D01*
X93424331Y-34855104D01*
X93396882Y-34877631D01*
X93365561Y-34894372D01*
X93331583Y-34904680D01*
X93290102Y-34908765D01*
X92613882Y-34908765D01*
X92572401Y-34904680D01*
X92538423Y-34894372D01*
X92507102Y-34877631D01*
X92479653Y-34855104D01*
X92457126Y-34827655D01*
X92440385Y-34796334D01*
X92430077Y-34762356D01*
X92425992Y-34720875D01*
X92425992Y-34119655D01*
X92430077Y-34078174D01*
X92440385Y-34044196D01*
X92457126Y-34012875D01*
X92479653Y-33985426D01*
X92507102Y-33962899D01*
X92538423Y-33946158D01*
X92572401Y-33935850D01*
X92613882Y-33931765D01*
X93290102Y-33931765D01*
X93331583Y-33935850D01*
G37*
G36*
X70987500Y-33946000D02*
G01*
X61600500Y-33946000D01*
X61600500Y-32744000D01*
X70987500Y-32744000D01*
X70987500Y-33946000D01*
G37*
G36*
X39543000Y-32787000D02*
G01*
X35641000Y-32787000D01*
X35641000Y-31685000D01*
X39543000Y-31685000D01*
X39543000Y-32787000D01*
G37*
G36*
X53360968Y-30241565D02*
G01*
X53399638Y-30253296D01*
X53435277Y-30272346D01*
X53466517Y-30297983D01*
X53492154Y-30329223D01*
X53511204Y-30364862D01*
X53522935Y-30403532D01*
X53527500Y-30449888D01*
X53527500Y-31526112D01*
X53522935Y-31572468D01*
X53511204Y-31611138D01*
X53492154Y-31646777D01*
X53466517Y-31678017D01*
X53435277Y-31703654D01*
X53399638Y-31722704D01*
X53360968Y-31734435D01*
X53314612Y-31739000D01*
X52663388Y-31739000D01*
X52617032Y-31734435D01*
X52578362Y-31722704D01*
X52542723Y-31703654D01*
X52511483Y-31678017D01*
X52485846Y-31646777D01*
X52466796Y-31611138D01*
X52455065Y-31572468D01*
X52450500Y-31526112D01*
X52450500Y-30449888D01*
X52455065Y-30403532D01*
X52466796Y-30364862D01*
X52485846Y-30329223D01*
X52511483Y-30297983D01*
X52542723Y-30272346D01*
X52578362Y-30253296D01*
X52617032Y-30241565D01*
X52663388Y-30237000D01*
X53314612Y-30237000D01*
X53360968Y-30241565D01*
G37*
G36*
X97556968Y-30241565D02*
G01*
X97595638Y-30253296D01*
X97631277Y-30272346D01*
X97662517Y-30297983D01*
X97688154Y-30329223D01*
X97707204Y-30364862D01*
X97718935Y-30403532D01*
X97723500Y-30449888D01*
X97723500Y-31526112D01*
X97718935Y-31572468D01*
X97707204Y-31611138D01*
X97688154Y-31646777D01*
X97662517Y-31678017D01*
X97631277Y-31703654D01*
X97595638Y-31722704D01*
X97556968Y-31734435D01*
X97510612Y-31739000D01*
X96859388Y-31739000D01*
X96813032Y-31734435D01*
X96774362Y-31722704D01*
X96738723Y-31703654D01*
X96707483Y-31678017D01*
X96681846Y-31646777D01*
X96662796Y-31611138D01*
X96651065Y-31572468D01*
X96646500Y-31526112D01*
X96646500Y-30449888D01*
X96651065Y-30403532D01*
X96662796Y-30364862D01*
X96681846Y-30329223D01*
X96707483Y-30297983D01*
X96738723Y-30272346D01*
X96774362Y-30253296D01*
X96813032Y-30241565D01*
X96859388Y-30237000D01*
X97510612Y-30237000D01*
X97556968Y-30241565D01*
G37*
G36*
X99431968Y-30241565D02*
G01*
X99470638Y-30253296D01*
X99506277Y-30272346D01*
X99537517Y-30297983D01*
X99563154Y-30329223D01*
X99582204Y-30364862D01*
X99593935Y-30403532D01*
X99598500Y-30449888D01*
X99598500Y-31526112D01*
X99593935Y-31572468D01*
X99582204Y-31611138D01*
X99563154Y-31646777D01*
X99537517Y-31678017D01*
X99506277Y-31703654D01*
X99470638Y-31722704D01*
X99431968Y-31734435D01*
X99385612Y-31739000D01*
X98734388Y-31739000D01*
X98688032Y-31734435D01*
X98649362Y-31722704D01*
X98613723Y-31703654D01*
X98582483Y-31678017D01*
X98556846Y-31646777D01*
X98537796Y-31611138D01*
X98526065Y-31572468D01*
X98521500Y-31526112D01*
X98521500Y-30449888D01*
X98526065Y-30403532D01*
X98537796Y-30364862D01*
X98556846Y-30329223D01*
X98582483Y-30297983D01*
X98613723Y-30272346D01*
X98649362Y-30253296D01*
X98688032Y-30241565D01*
X98734388Y-30237000D01*
X99385612Y-30237000D01*
X99431968Y-30241565D01*
G37*
G36*
X55235968Y-30241565D02*
G01*
X55274638Y-30253296D01*
X55310277Y-30272346D01*
X55341517Y-30297983D01*
X55367154Y-30329223D01*
X55386204Y-30364862D01*
X55397935Y-30403532D01*
X55402500Y-30449888D01*
X55402500Y-31526112D01*
X55397935Y-31572468D01*
X55386204Y-31611138D01*
X55367154Y-31646777D01*
X55341517Y-31678017D01*
X55310277Y-31703654D01*
X55274638Y-31722704D01*
X55235968Y-31734435D01*
X55189612Y-31739000D01*
X54538388Y-31739000D01*
X54492032Y-31734435D01*
X54453362Y-31722704D01*
X54417723Y-31703654D01*
X54386483Y-31678017D01*
X54360846Y-31646777D01*
X54341796Y-31611138D01*
X54330065Y-31572468D01*
X54325500Y-31526112D01*
X54325500Y-30449888D01*
X54330065Y-30403532D01*
X54341796Y-30364862D01*
X54360846Y-30329223D01*
X54386483Y-30297983D01*
X54417723Y-30272346D01*
X54453362Y-30253296D01*
X54492032Y-30241565D01*
X54538388Y-30237000D01*
X55189612Y-30237000D01*
X55235968Y-30241565D01*
G37*
G36*
X67513468Y-30551065D02*
G01*
X67552138Y-30562796D01*
X67587777Y-30581846D01*
X67619017Y-30607483D01*
X67644654Y-30638723D01*
X67663704Y-30674362D01*
X67675435Y-30713032D01*
X67680000Y-30759388D01*
X67680000Y-31410612D01*
X67675435Y-31456968D01*
X67663704Y-31495638D01*
X67644654Y-31531277D01*
X67619017Y-31562517D01*
X67587777Y-31588154D01*
X67552138Y-31607204D01*
X67513468Y-31618935D01*
X67467112Y-31623500D01*
X66390888Y-31623500D01*
X66344532Y-31618935D01*
X66305862Y-31607204D01*
X66270223Y-31588154D01*
X66238983Y-31562517D01*
X66213346Y-31531277D01*
X66194296Y-31495638D01*
X66182565Y-31456968D01*
X66178000Y-31410612D01*
X66178000Y-30759388D01*
X66182565Y-30713032D01*
X66194296Y-30674362D01*
X66213346Y-30638723D01*
X66238983Y-30607483D01*
X66270223Y-30581846D01*
X66305862Y-30562796D01*
X66344532Y-30551065D01*
X66390888Y-30546500D01*
X67467112Y-30546500D01*
X67513468Y-30551065D01*
G37*
G36*
X65402444Y-30646740D02*
G01*
X65436422Y-30657048D01*
X65467743Y-30673789D01*
X65495192Y-30696316D01*
X65517719Y-30723765D01*
X65534460Y-30755086D01*
X65544768Y-30789064D01*
X65548853Y-30830545D01*
X65548853Y-31431765D01*
X65544768Y-31473246D01*
X65534460Y-31507224D01*
X65517719Y-31538545D01*
X65495192Y-31565994D01*
X65467743Y-31588521D01*
X65436422Y-31605262D01*
X65402444Y-31615570D01*
X65360963Y-31619655D01*
X64684743Y-31619655D01*
X64643262Y-31615570D01*
X64609284Y-31605262D01*
X64577963Y-31588521D01*
X64550514Y-31565994D01*
X64527987Y-31538545D01*
X64511246Y-31507224D01*
X64500938Y-31473246D01*
X64496853Y-31431765D01*
X64496853Y-30830545D01*
X64500938Y-30789064D01*
X64511246Y-30755086D01*
X64527987Y-30723765D01*
X64550514Y-30696316D01*
X64577963Y-30673789D01*
X64609284Y-30657048D01*
X64643262Y-30646740D01*
X64684743Y-30642655D01*
X65360963Y-30642655D01*
X65402444Y-30646740D01*
G37*
G36*
X70679019Y-30646740D02*
G01*
X70712997Y-30657048D01*
X70744318Y-30673789D01*
X70771767Y-30696316D01*
X70794294Y-30723765D01*
X70811035Y-30755086D01*
X70821343Y-30789064D01*
X70825428Y-30830545D01*
X70825428Y-31431765D01*
X70821343Y-31473246D01*
X70811035Y-31507224D01*
X70794294Y-31538545D01*
X70771767Y-31565994D01*
X70744318Y-31588521D01*
X70712997Y-31605262D01*
X70679019Y-31615570D01*
X70637538Y-31619655D01*
X69961318Y-31619655D01*
X69919837Y-31615570D01*
X69885859Y-31605262D01*
X69854538Y-31588521D01*
X69827089Y-31565994D01*
X69804562Y-31538545D01*
X69787821Y-31507224D01*
X69777513Y-31473246D01*
X69773428Y-31431765D01*
X69773428Y-30830545D01*
X69777513Y-30789064D01*
X69787821Y-30755086D01*
X69804562Y-30723765D01*
X69827089Y-30696316D01*
X69854538Y-30673789D01*
X69885859Y-30657048D01*
X69919837Y-30646740D01*
X69961318Y-30642655D01*
X70637538Y-30642655D01*
X70679019Y-30646740D01*
G37*
G36*
X61214591Y-30466085D02*
G01*
X61248569Y-30476393D01*
X61279890Y-30493134D01*
X61307339Y-30515661D01*
X61329866Y-30543110D01*
X61346607Y-30574431D01*
X61356915Y-30608409D01*
X61361000Y-30649890D01*
X61361000Y-31326110D01*
X61356915Y-31367591D01*
X61346607Y-31401569D01*
X61329866Y-31432890D01*
X61307339Y-31460339D01*
X61279890Y-31482866D01*
X61248569Y-31499607D01*
X61214591Y-31509915D01*
X61173110Y-31514000D01*
X60571890Y-31514000D01*
X60530409Y-31509915D01*
X60496431Y-31499607D01*
X60465110Y-31482866D01*
X60437661Y-31460339D01*
X60415134Y-31432890D01*
X60398393Y-31401569D01*
X60388085Y-31367591D01*
X60384000Y-31326110D01*
X60384000Y-30649890D01*
X60388085Y-30608409D01*
X60398393Y-30574431D01*
X60415134Y-30543110D01*
X60437661Y-30515661D01*
X60465110Y-30493134D01*
X60496431Y-30476393D01*
X60530409Y-30466085D01*
X60571890Y-30462000D01*
X61173110Y-30462000D01*
X61214591Y-30466085D01*
G37*
G36*
X62789591Y-30466085D02*
G01*
X62823569Y-30476393D01*
X62854890Y-30493134D01*
X62882339Y-30515661D01*
X62904866Y-30543110D01*
X62921607Y-30574431D01*
X62931915Y-30608409D01*
X62936000Y-30649890D01*
X62936000Y-31326110D01*
X62931915Y-31367591D01*
X62921607Y-31401569D01*
X62904866Y-31432890D01*
X62882339Y-31460339D01*
X62854890Y-31482866D01*
X62823569Y-31499607D01*
X62789591Y-31509915D01*
X62748110Y-31514000D01*
X62146890Y-31514000D01*
X62105409Y-31509915D01*
X62071431Y-31499607D01*
X62040110Y-31482866D01*
X62012661Y-31460339D01*
X61990134Y-31432890D01*
X61973393Y-31401569D01*
X61963085Y-31367591D01*
X61959000Y-31326110D01*
X61959000Y-30649890D01*
X61963085Y-30608409D01*
X61973393Y-30574431D01*
X61990134Y-30543110D01*
X62012661Y-30515661D01*
X62040110Y-30493134D01*
X62071431Y-30476393D01*
X62105409Y-30466085D01*
X62146890Y-30462000D01*
X62748110Y-30462000D01*
X62789591Y-30466085D01*
G37*
G36*
X65402444Y-29071740D02*
G01*
X65436422Y-29082048D01*
X65467743Y-29098789D01*
X65495192Y-29121316D01*
X65517719Y-29148765D01*
X65534460Y-29180086D01*
X65544768Y-29214064D01*
X65548853Y-29255545D01*
X65548853Y-29856765D01*
X65544768Y-29898246D01*
X65534460Y-29932224D01*
X65517719Y-29963545D01*
X65495192Y-29990994D01*
X65467743Y-30013521D01*
X65436422Y-30030262D01*
X65402444Y-30040570D01*
X65360963Y-30044655D01*
X64684743Y-30044655D01*
X64643262Y-30040570D01*
X64609284Y-30030262D01*
X64577963Y-30013521D01*
X64550514Y-29990994D01*
X64527987Y-29963545D01*
X64511246Y-29932224D01*
X64500938Y-29898246D01*
X64496853Y-29856765D01*
X64496853Y-29255545D01*
X64500938Y-29214064D01*
X64511246Y-29180086D01*
X64527987Y-29148765D01*
X64550514Y-29121316D01*
X64577963Y-29098789D01*
X64609284Y-29082048D01*
X64643262Y-29071740D01*
X64684743Y-29067655D01*
X65360963Y-29067655D01*
X65402444Y-29071740D01*
G37*
G36*
X70679019Y-29071740D02*
G01*
X70712997Y-29082048D01*
X70744318Y-29098789D01*
X70771767Y-29121316D01*
X70794294Y-29148765D01*
X70811035Y-29180086D01*
X70821343Y-29214064D01*
X70825428Y-29255545D01*
X70825428Y-29856765D01*
X70821343Y-29898246D01*
X70811035Y-29932224D01*
X70794294Y-29963545D01*
X70771767Y-29990994D01*
X70744318Y-30013521D01*
X70712997Y-30030262D01*
X70679019Y-30040570D01*
X70637538Y-30044655D01*
X69961318Y-30044655D01*
X69919837Y-30040570D01*
X69885859Y-30030262D01*
X69854538Y-30013521D01*
X69827089Y-29990994D01*
X69804562Y-29963545D01*
X69787821Y-29932224D01*
X69777513Y-29898246D01*
X69773428Y-29856765D01*
X69773428Y-29255545D01*
X69777513Y-29214064D01*
X69787821Y-29180086D01*
X69804562Y-29148765D01*
X69827089Y-29121316D01*
X69854538Y-29098789D01*
X69885859Y-29082048D01*
X69919837Y-29071740D01*
X69961318Y-29067655D01*
X70637538Y-29067655D01*
X70679019Y-29071740D01*
G37*
G36*
X67513468Y-28676065D02*
G01*
X67552138Y-28687796D01*
X67587777Y-28706846D01*
X67619017Y-28732483D01*
X67644654Y-28763723D01*
X67663704Y-28799362D01*
X67675435Y-28838032D01*
X67680000Y-28884388D01*
X67680000Y-29535612D01*
X67675435Y-29581968D01*
X67663704Y-29620638D01*
X67644654Y-29656277D01*
X67619017Y-29687517D01*
X67587777Y-29713154D01*
X67552138Y-29732204D01*
X67513468Y-29743935D01*
X67467112Y-29748500D01*
X66390888Y-29748500D01*
X66344532Y-29743935D01*
X66305862Y-29732204D01*
X66270223Y-29713154D01*
X66238983Y-29687517D01*
X66213346Y-29656277D01*
X66194296Y-29620638D01*
X66182565Y-29581968D01*
X66178000Y-29535612D01*
X66178000Y-28884388D01*
X66182565Y-28838032D01*
X66194296Y-28799362D01*
X66213346Y-28763723D01*
X66238983Y-28732483D01*
X66270223Y-28706846D01*
X66305862Y-28687796D01*
X66344532Y-28676065D01*
X66390888Y-28671500D01*
X67467112Y-28671500D01*
X67513468Y-28676065D01*
G37*
G36*
X69106054Y-28126744D02*
G01*
X69140032Y-28137052D01*
X69171353Y-28153793D01*
X69198802Y-28176320D01*
X69221329Y-28203769D01*
X69238070Y-28235090D01*
X69248378Y-28269068D01*
X69252463Y-28310549D01*
X69252463Y-28911769D01*
X69248378Y-28953250D01*
X69238070Y-28987228D01*
X69221329Y-29018549D01*
X69198802Y-29045998D01*
X69171353Y-29068525D01*
X69140032Y-29085266D01*
X69106054Y-29095574D01*
X69064573Y-29099659D01*
X68388353Y-29099659D01*
X68346872Y-29095574D01*
X68312894Y-29085266D01*
X68281573Y-29068525D01*
X68254124Y-29045998D01*
X68231597Y-29018549D01*
X68214856Y-28987228D01*
X68204548Y-28953250D01*
X68200463Y-28911769D01*
X68200463Y-28310549D01*
X68204548Y-28269068D01*
X68214856Y-28235090D01*
X68231597Y-28203769D01*
X68254124Y-28176320D01*
X68281573Y-28153793D01*
X68312894Y-28137052D01*
X68346872Y-28126744D01*
X68388353Y-28122659D01*
X69064573Y-28122659D01*
X69106054Y-28126744D01*
G37*
G36*
X77075512Y-27043927D02*
G01*
X77224812Y-27073624D01*
X77388784Y-27141544D01*
X77536354Y-27240147D01*
X77661853Y-27365646D01*
X77760456Y-27513216D01*
X77828376Y-27677188D01*
X77863000Y-27851259D01*
X77863000Y-28028741D01*
X77828376Y-28202812D01*
X77760456Y-28366784D01*
X77661853Y-28514354D01*
X77536354Y-28639853D01*
X77388784Y-28738456D01*
X77224812Y-28806376D01*
X77075512Y-28836073D01*
X77050742Y-28841000D01*
X76873258Y-28841000D01*
X76848488Y-28836073D01*
X76699188Y-28806376D01*
X76535216Y-28738456D01*
X76387646Y-28639853D01*
X76262147Y-28514354D01*
X76163544Y-28366784D01*
X76095624Y-28202812D01*
X76061000Y-28028741D01*
X76061000Y-27851259D01*
X76095624Y-27677188D01*
X76163544Y-27513216D01*
X76262147Y-27365646D01*
X76387646Y-27240147D01*
X76535216Y-27141544D01*
X76699188Y-27073624D01*
X76848488Y-27043927D01*
X76873258Y-27039000D01*
X77050742Y-27039000D01*
X77075512Y-27043927D01*
G37*
G36*
X94093512Y-27043927D02*
G01*
X94242812Y-27073624D01*
X94406784Y-27141544D01*
X94554354Y-27240147D01*
X94679853Y-27365646D01*
X94778456Y-27513216D01*
X94846376Y-27677188D01*
X94881000Y-27851259D01*
X94881000Y-28028741D01*
X94846376Y-28202812D01*
X94778456Y-28366784D01*
X94679853Y-28514354D01*
X94554354Y-28639853D01*
X94406784Y-28738456D01*
X94242812Y-28806376D01*
X94093512Y-28836073D01*
X94068742Y-28841000D01*
X93891258Y-28841000D01*
X93866488Y-28836073D01*
X93717188Y-28806376D01*
X93553216Y-28738456D01*
X93405646Y-28639853D01*
X93280147Y-28514354D01*
X93181544Y-28366784D01*
X93113624Y-28202812D01*
X93079000Y-28028741D01*
X93079000Y-27851259D01*
X93113624Y-27677188D01*
X93181544Y-27513216D01*
X93280147Y-27365646D01*
X93405646Y-27240147D01*
X93553216Y-27141544D01*
X93717188Y-27073624D01*
X93866488Y-27043927D01*
X93891258Y-27039000D01*
X94068742Y-27039000D01*
X94093512Y-27043927D01*
G37*
G36*
X96633512Y-27043927D02*
G01*
X96782812Y-27073624D01*
X96946784Y-27141544D01*
X97094354Y-27240147D01*
X97219853Y-27365646D01*
X97318456Y-27513216D01*
X97386376Y-27677188D01*
X97421000Y-27851259D01*
X97421000Y-28028741D01*
X97386376Y-28202812D01*
X97318456Y-28366784D01*
X97219853Y-28514354D01*
X97094354Y-28639853D01*
X96946784Y-28738456D01*
X96782812Y-28806376D01*
X96633512Y-28836073D01*
X96608742Y-28841000D01*
X96431258Y-28841000D01*
X96406488Y-28836073D01*
X96257188Y-28806376D01*
X96093216Y-28738456D01*
X95945646Y-28639853D01*
X95820147Y-28514354D01*
X95721544Y-28366784D01*
X95653624Y-28202812D01*
X95619000Y-28028741D01*
X95619000Y-27851259D01*
X95653624Y-27677188D01*
X95721544Y-27513216D01*
X95820147Y-27365646D01*
X95945646Y-27240147D01*
X96093216Y-27141544D01*
X96257188Y-27073624D01*
X96406488Y-27043927D01*
X96431258Y-27039000D01*
X96608742Y-27039000D01*
X96633512Y-27043927D01*
G37*
G36*
X55485512Y-27043927D02*
G01*
X55634812Y-27073624D01*
X55798784Y-27141544D01*
X55946354Y-27240147D01*
X56071853Y-27365646D01*
X56170456Y-27513216D01*
X56238376Y-27677188D01*
X56273000Y-27851259D01*
X56273000Y-28028741D01*
X56238376Y-28202812D01*
X56170456Y-28366784D01*
X56071853Y-28514354D01*
X55946354Y-28639853D01*
X55798784Y-28738456D01*
X55634812Y-28806376D01*
X55485512Y-28836073D01*
X55460742Y-28841000D01*
X55283258Y-28841000D01*
X55258488Y-28836073D01*
X55109188Y-28806376D01*
X54945216Y-28738456D01*
X54797646Y-28639853D01*
X54672147Y-28514354D01*
X54573544Y-28366784D01*
X54505624Y-28202812D01*
X54471000Y-28028741D01*
X54471000Y-27851259D01*
X54505624Y-27677188D01*
X54573544Y-27513216D01*
X54672147Y-27365646D01*
X54797646Y-27240147D01*
X54945216Y-27141544D01*
X55109188Y-27073624D01*
X55258488Y-27043927D01*
X55283258Y-27039000D01*
X55460742Y-27039000D01*
X55485512Y-27043927D01*
G37*
G36*
X58025512Y-27043927D02*
G01*
X58174812Y-27073624D01*
X58338784Y-27141544D01*
X58486354Y-27240147D01*
X58611853Y-27365646D01*
X58710456Y-27513216D01*
X58778376Y-27677188D01*
X58813000Y-27851259D01*
X58813000Y-28028741D01*
X58778376Y-28202812D01*
X58710456Y-28366784D01*
X58611853Y-28514354D01*
X58486354Y-28639853D01*
X58338784Y-28738456D01*
X58174812Y-28806376D01*
X58025512Y-28836073D01*
X58000742Y-28841000D01*
X57823258Y-28841000D01*
X57798488Y-28836073D01*
X57649188Y-28806376D01*
X57485216Y-28738456D01*
X57337646Y-28639853D01*
X57212147Y-28514354D01*
X57113544Y-28366784D01*
X57045624Y-28202812D01*
X57011000Y-28028741D01*
X57011000Y-27851259D01*
X57045624Y-27677188D01*
X57113544Y-27513216D01*
X57212147Y-27365646D01*
X57337646Y-27240147D01*
X57485216Y-27141544D01*
X57649188Y-27073624D01*
X57798488Y-27043927D01*
X57823258Y-27039000D01*
X58000742Y-27039000D01*
X58025512Y-27043927D01*
G37*
G36*
X82155512Y-27043927D02*
G01*
X82304812Y-27073624D01*
X82468784Y-27141544D01*
X82616354Y-27240147D01*
X82741853Y-27365646D01*
X82840456Y-27513216D01*
X82908376Y-27677188D01*
X82943000Y-27851259D01*
X82943000Y-28028741D01*
X82908376Y-28202812D01*
X82840456Y-28366784D01*
X82741853Y-28514354D01*
X82616354Y-28639853D01*
X82468784Y-28738456D01*
X82304812Y-28806376D01*
X82155512Y-28836073D01*
X82130742Y-28841000D01*
X81953258Y-28841000D01*
X81928488Y-28836073D01*
X81779188Y-28806376D01*
X81615216Y-28738456D01*
X81467646Y-28639853D01*
X81342147Y-28514354D01*
X81243544Y-28366784D01*
X81175624Y-28202812D01*
X81141000Y-28028741D01*
X81141000Y-27851259D01*
X81175624Y-27677188D01*
X81243544Y-27513216D01*
X81342147Y-27365646D01*
X81467646Y-27240147D01*
X81615216Y-27141544D01*
X81779188Y-27073624D01*
X81928488Y-27043927D01*
X81953258Y-27039000D01*
X82130742Y-27039000D01*
X82155512Y-27043927D01*
G37*
G36*
X92341000Y-28841000D02*
G01*
X90539000Y-28841000D01*
X90539000Y-27039000D01*
X92341000Y-27039000D01*
X92341000Y-28841000D01*
G37*
G36*
X99173512Y-27043927D02*
G01*
X99322812Y-27073624D01*
X99486784Y-27141544D01*
X99634354Y-27240147D01*
X99759853Y-27365646D01*
X99858456Y-27513216D01*
X99926376Y-27677188D01*
X99961000Y-27851259D01*
X99961000Y-28028741D01*
X99926376Y-28202812D01*
X99858456Y-28366784D01*
X99759853Y-28514354D01*
X99634354Y-28639853D01*
X99486784Y-28738456D01*
X99322812Y-28806376D01*
X99173512Y-28836073D01*
X99148742Y-28841000D01*
X98971258Y-28841000D01*
X98946488Y-28836073D01*
X98797188Y-28806376D01*
X98633216Y-28738456D01*
X98485646Y-28639853D01*
X98360147Y-28514354D01*
X98261544Y-28366784D01*
X98193624Y-28202812D01*
X98159000Y-28028741D01*
X98159000Y-27851259D01*
X98193624Y-27677188D01*
X98261544Y-27513216D01*
X98360147Y-27365646D01*
X98485646Y-27240147D01*
X98633216Y-27141544D01*
X98797188Y-27073624D01*
X98946488Y-27043927D01*
X98971258Y-27039000D01*
X99148742Y-27039000D01*
X99173512Y-27043927D01*
G37*
G36*
X79615512Y-27043927D02*
G01*
X79764812Y-27073624D01*
X79928784Y-27141544D01*
X80076354Y-27240147D01*
X80201853Y-27365646D01*
X80300456Y-27513216D01*
X80368376Y-27677188D01*
X80403000Y-27851259D01*
X80403000Y-28028741D01*
X80368376Y-28202812D01*
X80300456Y-28366784D01*
X80201853Y-28514354D01*
X80076354Y-28639853D01*
X79928784Y-28738456D01*
X79764812Y-28806376D01*
X79615512Y-28836073D01*
X79590742Y-28841000D01*
X79413258Y-28841000D01*
X79388488Y-28836073D01*
X79239188Y-28806376D01*
X79075216Y-28738456D01*
X78927646Y-28639853D01*
X78802147Y-28514354D01*
X78703544Y-28366784D01*
X78635624Y-28202812D01*
X78601000Y-28028741D01*
X78601000Y-27851259D01*
X78635624Y-27677188D01*
X78703544Y-27513216D01*
X78802147Y-27365646D01*
X78927646Y-27240147D01*
X79075216Y-27141544D01*
X79239188Y-27073624D01*
X79388488Y-27043927D01*
X79413258Y-27039000D01*
X79590742Y-27039000D01*
X79615512Y-27043927D01*
G37*
G36*
X51193000Y-28841000D02*
G01*
X49391000Y-28841000D01*
X49391000Y-27039000D01*
X51193000Y-27039000D01*
X51193000Y-28841000D01*
G37*
G36*
X52945512Y-27043927D02*
G01*
X53094812Y-27073624D01*
X53258784Y-27141544D01*
X53406354Y-27240147D01*
X53531853Y-27365646D01*
X53630456Y-27513216D01*
X53698376Y-27677188D01*
X53733000Y-27851259D01*
X53733000Y-28028741D01*
X53698376Y-28202812D01*
X53630456Y-28366784D01*
X53531853Y-28514354D01*
X53406354Y-28639853D01*
X53258784Y-28738456D01*
X53094812Y-28806376D01*
X52945512Y-28836073D01*
X52920742Y-28841000D01*
X52743258Y-28841000D01*
X52718488Y-28836073D01*
X52569188Y-28806376D01*
X52405216Y-28738456D01*
X52257646Y-28639853D01*
X52132147Y-28514354D01*
X52033544Y-28366784D01*
X51965624Y-28202812D01*
X51931000Y-28028741D01*
X51931000Y-27851259D01*
X51965624Y-27677188D01*
X52033544Y-27513216D01*
X52132147Y-27365646D01*
X52257646Y-27240147D01*
X52405216Y-27141544D01*
X52569188Y-27073624D01*
X52718488Y-27043927D01*
X52743258Y-27039000D01*
X52920742Y-27039000D01*
X52945512Y-27043927D01*
G37*
G36*
X75323000Y-28841000D02*
G01*
X73521000Y-28841000D01*
X73521000Y-27039000D01*
X75323000Y-27039000D01*
X75323000Y-28841000D01*
G37*
G36*
X69106054Y-26551744D02*
G01*
X69140032Y-26562052D01*
X69171353Y-26578793D01*
X69198802Y-26601320D01*
X69221329Y-26628769D01*
X69238070Y-26660090D01*
X69248378Y-26694068D01*
X69252463Y-26735549D01*
X69252463Y-27336769D01*
X69248378Y-27378250D01*
X69238070Y-27412228D01*
X69221329Y-27443549D01*
X69198802Y-27470998D01*
X69171353Y-27493525D01*
X69140032Y-27510266D01*
X69106054Y-27520574D01*
X69064573Y-27524659D01*
X68388353Y-27524659D01*
X68346872Y-27520574D01*
X68312894Y-27510266D01*
X68281573Y-27493525D01*
X68254124Y-27470998D01*
X68231597Y-27443549D01*
X68214856Y-27412228D01*
X68204548Y-27378250D01*
X68200463Y-27336769D01*
X68200463Y-26735549D01*
X68204548Y-26694068D01*
X68214856Y-26660090D01*
X68231597Y-26628769D01*
X68254124Y-26601320D01*
X68281573Y-26578793D01*
X68312894Y-26562052D01*
X68346872Y-26551744D01*
X68388353Y-26547659D01*
X69064573Y-26547659D01*
X69106054Y-26551744D01*
G37*
G36*
X63562591Y-26148085D02*
G01*
X63596569Y-26158393D01*
X63627890Y-26175134D01*
X63655339Y-26197661D01*
X63677866Y-26225110D01*
X63694607Y-26256431D01*
X63704915Y-26290409D01*
X63709000Y-26331890D01*
X63709000Y-27008110D01*
X63704915Y-27049591D01*
X63694607Y-27083569D01*
X63677866Y-27114890D01*
X63655339Y-27142339D01*
X63627890Y-27164866D01*
X63596569Y-27181607D01*
X63562591Y-27191915D01*
X63521110Y-27196000D01*
X62919890Y-27196000D01*
X62878409Y-27191915D01*
X62844431Y-27181607D01*
X62813110Y-27164866D01*
X62785661Y-27142339D01*
X62763134Y-27114890D01*
X62746393Y-27083569D01*
X62736085Y-27049591D01*
X62732000Y-27008110D01*
X62732000Y-26331890D01*
X62736085Y-26290409D01*
X62746393Y-26256431D01*
X62763134Y-26225110D01*
X62785661Y-26197661D01*
X62813110Y-26175134D01*
X62844431Y-26158393D01*
X62878409Y-26148085D01*
X62919890Y-26144000D01*
X63521110Y-26144000D01*
X63562591Y-26148085D01*
G37*
G36*
X65137591Y-26148085D02*
G01*
X65171569Y-26158393D01*
X65202890Y-26175134D01*
X65230339Y-26197661D01*
X65252866Y-26225110D01*
X65269607Y-26256431D01*
X65279915Y-26290409D01*
X65284000Y-26331890D01*
X65284000Y-27008110D01*
X65279915Y-27049591D01*
X65269607Y-27083569D01*
X65252866Y-27114890D01*
X65230339Y-27142339D01*
X65202890Y-27164866D01*
X65171569Y-27181607D01*
X65137591Y-27191915D01*
X65096110Y-27196000D01*
X64494890Y-27196000D01*
X64453409Y-27191915D01*
X64419431Y-27181607D01*
X64388110Y-27164866D01*
X64360661Y-27142339D01*
X64338134Y-27114890D01*
X64321393Y-27083569D01*
X64311085Y-27049591D01*
X64307000Y-27008110D01*
X64307000Y-26331890D01*
X64311085Y-26290409D01*
X64321393Y-26256431D01*
X64338134Y-26225110D01*
X64360661Y-26197661D01*
X64388110Y-26175134D01*
X64419431Y-26158393D01*
X64453409Y-26148085D01*
X64494890Y-26144000D01*
X65096110Y-26144000D01*
X65137591Y-26148085D01*
G37*
M02*
