M48
; DRILL file {KiCad 5.1.5+dfsg1-2build2} date Thu 05 Aug 2021 10:23:14 PM CDT
; FORMAT={-:-/ absolute / inch / decimal}
; #@! TF.CreationDate,2021-08-05T22:23:14-05:00
; #@! TF.GenerationSoftware,Kicad,Pcbnew,5.1.5+dfsg1-2build2
; #@! TF.FileFunction,Plated,1,2,PTH
FMAT,2
INCH
T1C0.0100
T2C0.0157
T3C0.0181
T4C0.0394
%
G90
G05
T1
X2.37Y-1.64
X2.4Y-1.61
X2.5Y-1.67
X2.59Y-1.61
X2.62Y-1.64
X2.72Y-1.59
T2
X1.3Y-1.6
X1.32Y-1.5
X1.34Y-1.6
X1.34Y-1.78
X1.38Y-1.78
X1.44Y-1.7
X1.44Y-1.74
X1.48Y-1.7
X1.48Y-1.74
X1.68Y-1.38
X1.68Y-1.42
X2.28Y-1.52
X2.28Y-1.56
X2.36Y-1.22
X2.4921Y-1.4925
X2.56Y-1.14
X2.59Y-1.36
X2.61Y-1.86
X2.62Y-1.12
X2.66Y-1.12
X2.71Y-1.93
X2.75Y-1.36
X2.76Y-1.14
X2.88Y-1.44
X2.92Y-1.44
X3.0Y-1.24
X3.0Y-1.83
X3.04Y-1.24
X3.4565Y-1.6164
X3.4572Y-1.5299
X3.64Y-1.32
X3.68Y-1.32
T3
X3.7446Y-1.4002
X3.7446Y-1.7451
T4
X1.98Y-1.1
X2.08Y-1.1
X2.18Y-1.1
X2.28Y-1.1
X3.6Y-1.1
X3.7Y-1.1
X3.8Y-1.1
X3.9Y-1.1
X3.6Y-2.1
X3.7Y-2.1
X3.8Y-2.1
X3.9Y-2.1
X2.93Y-1.1
X3.03Y-1.1
X3.13Y-1.1
X3.23Y-1.1
X1.98Y-2.1
X2.08Y-2.1
X2.18Y-2.1
X2.28Y-2.1
T0
M30
