G04 #@! TF.GenerationSoftware,KiCad,Pcbnew,5.1.5+dfsg1-2build2*
G04 #@! TF.CreationDate,2021-07-28T17:04:51-05:00*
G04 #@! TF.ProjectId,gpsdo,67707364-6f2e-46b6-9963-61645f706362,rev?*
G04 #@! TF.SameCoordinates,Original*
G04 #@! TF.FileFunction,Copper,L2,Bot*
G04 #@! TF.FilePolarity,Positive*
%FSLAX46Y46*%
G04 Gerber Fmt 4.6, Leading zero omitted, Abs format (unit mm)*
G04 Created by KiCad (PCBNEW 5.1.5+dfsg1-2build2) date 2021-07-28 17:04:51*
%MOMM*%
%LPD*%
G04 APERTURE LIST*
%ADD10O,1.700000X1.700000*%
%ADD11R,1.700000X1.700000*%
%ADD12R,0.950000X0.460000*%
%ADD13C,0.970000*%
%ADD14R,5.080000X2.420000*%
%ADD15C,0.800000*%
%ADD16C,0.508000*%
%ADD17C,1.016000*%
%ADD18C,0.254000*%
%ADD19C,0.250000*%
G04 APERTURE END LIST*
D10*
X82042000Y-27940000D03*
X79502000Y-27940000D03*
X76962000Y-27940000D03*
D11*
X74422000Y-27940000D03*
D10*
X99060000Y-27940000D03*
X96520000Y-27940000D03*
X93980000Y-27940000D03*
D11*
X91440000Y-27940000D03*
D10*
X99060000Y-53340000D03*
X96520000Y-53340000D03*
X93980000Y-53340000D03*
D11*
X91440000Y-53340000D03*
D10*
X57912000Y-53340000D03*
X55372000Y-53340000D03*
X52832000Y-53340000D03*
D11*
X50292000Y-53340000D03*
D10*
X57912000Y-27940000D03*
X55372000Y-27940000D03*
X52832000Y-27940000D03*
D11*
X50292000Y-27940000D03*
D12*
X95562000Y-35565000D03*
X95562000Y-44325000D03*
D13*
X95112000Y-35565000D03*
X95112000Y-44325000D03*
D14*
X98552000Y-35565000D03*
X98552000Y-44325000D03*
D15*
X70866000Y-44704000D03*
X72644000Y-50292000D03*
X74676000Y-50292000D03*
X73660000Y-50292000D03*
X36576000Y-44196000D03*
X37592000Y-44196000D03*
X37592000Y-43180000D03*
X36576000Y-43180000D03*
X33020000Y-40640000D03*
X34036000Y-40640000D03*
X34036000Y-45212000D03*
X35052000Y-45212000D03*
X33528000Y-38100000D03*
X42672000Y-35052000D03*
X42672000Y-36068000D03*
X60452000Y-36576000D03*
X59436000Y-36576000D03*
X92456000Y-33528000D03*
X93472000Y-33528000D03*
X76200000Y-31496000D03*
X77216000Y-31496000D03*
X87813229Y-38859633D03*
X87795928Y-41056777D03*
X77216000Y-53086000D03*
X70104000Y-28956000D03*
X66548000Y-28448000D03*
X67564000Y-28448000D03*
X65024000Y-28956000D03*
X70104000Y-34544000D03*
X65532000Y-34544000D03*
X65024000Y-53340000D03*
X73152000Y-36576000D03*
X74168000Y-36576000D03*
X57150000Y-46990000D03*
X62230000Y-46990000D03*
X53652068Y-46238601D03*
X58745200Y-46238601D03*
X63300289Y-37910543D03*
X52070000Y-47244000D03*
X48583396Y-46207299D03*
X53594000Y-36322000D03*
X57404000Y-36830000D03*
X84836000Y-52832000D03*
X84836000Y-51816000D03*
X92456000Y-49276000D03*
X92456000Y-50292000D03*
X67056000Y-52832000D03*
X68580000Y-51308000D03*
X89408000Y-43180000D03*
X81788000Y-45720000D03*
X75692000Y-44450000D03*
X77978000Y-45212000D03*
X84074000Y-44450000D03*
D16*
X66548000Y-34544000D03*
X67056000Y-37084000D03*
X62484000Y-43434000D03*
X68072000Y-43434000D03*
X63500000Y-41148000D03*
X65278000Y-37846000D03*
X52578000Y-43180000D03*
X52578000Y-40132000D03*
X71628000Y-46990000D03*
X74168000Y-46990000D03*
X82296000Y-36068000D03*
X82296000Y-38608000D03*
X71628000Y-48006000D03*
X74676000Y-46228000D03*
X83312000Y-36068000D03*
X83312000Y-38608000D03*
X60198000Y-41656000D03*
X66548000Y-42672000D03*
X72771000Y-46101000D03*
X75438000Y-47498000D03*
X67056000Y-42164000D03*
X60960000Y-40894000D03*
X73410000Y-45724000D03*
X76454000Y-47498000D03*
X68580000Y-35814000D03*
X69596000Y-47752000D03*
X69342000Y-36068000D03*
X76708000Y-51816000D03*
D17*
X67056000Y-52832000D02*
X68580000Y-51308000D01*
X73406000Y-26924000D02*
X74422000Y-27940000D01*
X72644000Y-26162000D02*
X73406000Y-26924000D01*
X59690000Y-26162000D02*
X72644000Y-26162000D01*
X57912000Y-27940000D02*
X59690000Y-26162000D01*
D18*
X66548000Y-36576000D02*
X67056000Y-37084000D01*
X66548000Y-34544000D02*
X66548000Y-36576000D01*
X67056000Y-43434000D02*
X67056000Y-43434000D01*
X67056000Y-43434000D02*
X67056000Y-43434000D01*
X62738000Y-43434000D02*
X67564000Y-43434000D01*
X67564000Y-43434000D02*
X68072000Y-43434000D01*
X63500000Y-41148000D02*
X63500000Y-39624000D01*
X63500000Y-39624000D02*
X65278000Y-37846000D01*
X65278000Y-37846000D02*
X65278000Y-37846000D01*
X52578000Y-43180000D02*
X52578000Y-40132000D01*
X52578000Y-40132000D02*
X52578000Y-40132000D01*
X71628000Y-46990000D02*
X73660000Y-46990000D01*
X73660000Y-46990000D02*
X73660000Y-46990000D01*
X73660000Y-46990000D02*
X74168000Y-46990000D01*
X82296000Y-36068000D02*
X82296000Y-38608000D01*
X82296000Y-38608000D02*
X82296000Y-38608000D01*
X74676000Y-46638118D02*
X74676000Y-46228000D01*
X74749001Y-46711119D02*
X74676000Y-46638118D01*
X74749001Y-47268881D02*
X74749001Y-46711119D01*
X74446881Y-47571001D02*
X74749001Y-47268881D01*
X72062999Y-47571001D02*
X74446881Y-47571001D01*
X71628000Y-48006000D02*
X72062999Y-47571001D01*
X83312000Y-36068000D02*
X83312000Y-38608000D01*
X83312000Y-38608000D02*
X83312000Y-38608000D01*
X61976000Y-41656000D02*
X62484000Y-42164000D01*
X60198000Y-41656000D02*
X61976000Y-41656000D01*
D19*
X62484000Y-42164000D02*
X62738000Y-42418000D01*
X66294001Y-42418001D02*
X66548000Y-42672000D01*
X62738000Y-42418000D02*
X66294001Y-42418001D01*
D18*
X74397119Y-45646999D02*
X74954881Y-45646999D01*
X73739117Y-46305001D02*
X74397119Y-45646999D01*
X72975001Y-46305001D02*
X73739117Y-46305001D01*
X72771000Y-46101000D02*
X72975001Y-46305001D01*
X74954881Y-45646999D02*
X75105941Y-45798059D01*
X75105941Y-45798059D02*
X75257001Y-45949119D01*
X75257001Y-45949119D02*
X75257001Y-46228000D01*
X75257001Y-46228000D02*
X75257001Y-47063001D01*
X75257001Y-47063001D02*
X75257001Y-47317001D01*
X75257001Y-47317001D02*
X75438000Y-47498000D01*
X75438000Y-47498000D02*
X75438000Y-47498000D01*
X62230000Y-40894000D02*
X62992000Y-41656000D01*
X60960000Y-40894000D02*
X62230000Y-40894000D01*
D19*
X62992000Y-41656000D02*
X63246000Y-41910000D01*
D18*
X66802001Y-41910001D02*
X67056000Y-42164000D01*
D19*
X63246000Y-41910000D02*
X66802001Y-41910001D01*
D18*
X73410000Y-45724000D02*
X73656000Y-45724000D01*
X75142938Y-45192989D02*
X75408891Y-45458942D01*
X74187011Y-45192989D02*
X75142938Y-45192989D01*
X73656000Y-45724000D02*
X74187011Y-45192989D01*
X75408891Y-45458942D02*
X75711011Y-45761062D01*
X75711011Y-45761062D02*
X75711011Y-46228000D01*
X75711011Y-46228000D02*
X75711011Y-46755011D01*
X75711011Y-46755011D02*
X75946000Y-46990000D01*
X75946000Y-46990000D02*
X75946000Y-46990000D01*
X75946000Y-46990000D02*
X76454000Y-47498000D01*
X69596000Y-40894000D02*
X69596000Y-47752000D01*
X68580000Y-39878000D02*
X69596000Y-40894000D01*
X68580000Y-35814000D02*
X68580000Y-39878000D01*
X69342000Y-36068000D02*
X69088000Y-36322000D01*
X69088000Y-36322000D02*
X69088000Y-39624000D01*
X69088000Y-39624000D02*
X70104000Y-40640000D01*
X70104000Y-47400118D02*
X70358000Y-47654118D01*
X70104000Y-40640000D02*
X70104000Y-47400118D01*
X70358000Y-47654118D02*
X70358000Y-51054000D01*
X71120000Y-51816000D02*
X76708000Y-51816000D01*
X70358000Y-51054000D02*
X71120000Y-51816000D01*
G36*
X57885765Y-26709000D02*
G01*
X57790757Y-26709000D01*
X57552931Y-26756307D01*
X57328903Y-26849102D01*
X57127283Y-26983820D01*
X56955820Y-27155283D01*
X56821102Y-27356903D01*
X56728307Y-27580931D01*
X56681000Y-27818757D01*
X56681000Y-28061243D01*
X56728307Y-28299069D01*
X56821102Y-28523097D01*
X56955820Y-28724717D01*
X57127283Y-28896180D01*
X57328903Y-29030898D01*
X57552931Y-29123693D01*
X57790757Y-29171000D01*
X58033243Y-29171000D01*
X58271069Y-29123693D01*
X58495097Y-29030898D01*
X58696717Y-28896180D01*
X58868180Y-28724717D01*
X59002898Y-28523097D01*
X59095693Y-28299069D01*
X59143000Y-28061243D01*
X59143000Y-27966235D01*
X60058236Y-27051000D01*
X72275765Y-27051000D01*
X72808259Y-27583495D01*
X72808264Y-27583499D01*
X73189157Y-27964392D01*
X73189157Y-28790000D01*
X73196513Y-28864689D01*
X73218299Y-28936508D01*
X73253678Y-29002696D01*
X73301289Y-29060711D01*
X73359304Y-29108322D01*
X73425492Y-29143701D01*
X73497311Y-29165487D01*
X73572000Y-29172843D01*
X75272000Y-29172843D01*
X75346689Y-29165487D01*
X75418508Y-29143701D01*
X75484696Y-29108322D01*
X75542711Y-29060711D01*
X75590322Y-29002696D01*
X75625701Y-28936508D01*
X75647487Y-28864689D01*
X75654843Y-28790000D01*
X75654843Y-27818757D01*
X75731000Y-27818757D01*
X75731000Y-28061243D01*
X75778307Y-28299069D01*
X75871102Y-28523097D01*
X76005820Y-28724717D01*
X76177283Y-28896180D01*
X76378903Y-29030898D01*
X76602931Y-29123693D01*
X76840757Y-29171000D01*
X77083243Y-29171000D01*
X77321069Y-29123693D01*
X77545097Y-29030898D01*
X77746717Y-28896180D01*
X77918180Y-28724717D01*
X78052898Y-28523097D01*
X78145693Y-28299069D01*
X78193000Y-28061243D01*
X78193000Y-27818757D01*
X78271000Y-27818757D01*
X78271000Y-28061243D01*
X78318307Y-28299069D01*
X78411102Y-28523097D01*
X78545820Y-28724717D01*
X78717283Y-28896180D01*
X78918903Y-29030898D01*
X79142931Y-29123693D01*
X79380757Y-29171000D01*
X79623243Y-29171000D01*
X79861069Y-29123693D01*
X80085097Y-29030898D01*
X80286717Y-28896180D01*
X80458180Y-28724717D01*
X80592898Y-28523097D01*
X80685693Y-28299069D01*
X80733000Y-28061243D01*
X80733000Y-27818757D01*
X80685693Y-27580931D01*
X80592898Y-27356903D01*
X80458180Y-27155283D01*
X80392897Y-27090000D01*
X90207157Y-27090000D01*
X90207157Y-28790000D01*
X90214513Y-28864689D01*
X90236299Y-28936508D01*
X90271678Y-29002696D01*
X90319289Y-29060711D01*
X90377304Y-29108322D01*
X90443492Y-29143701D01*
X90515311Y-29165487D01*
X90590000Y-29172843D01*
X92290000Y-29172843D01*
X92364689Y-29165487D01*
X92436508Y-29143701D01*
X92502696Y-29108322D01*
X92560711Y-29060711D01*
X92608322Y-29002696D01*
X92643701Y-28936508D01*
X92665487Y-28864689D01*
X92672843Y-28790000D01*
X92672843Y-27818757D01*
X92749000Y-27818757D01*
X92749000Y-28061243D01*
X92796307Y-28299069D01*
X92889102Y-28523097D01*
X93023820Y-28724717D01*
X93195283Y-28896180D01*
X93396903Y-29030898D01*
X93620931Y-29123693D01*
X93858757Y-29171000D01*
X94101243Y-29171000D01*
X94339069Y-29123693D01*
X94563097Y-29030898D01*
X94764717Y-28896180D01*
X94936180Y-28724717D01*
X95070898Y-28523097D01*
X95163693Y-28299069D01*
X95211000Y-28061243D01*
X95211000Y-27818757D01*
X95163693Y-27580931D01*
X95070898Y-27356903D01*
X94936180Y-27155283D01*
X94764717Y-26983820D01*
X94563097Y-26849102D01*
X94339069Y-26756307D01*
X94101243Y-26709000D01*
X93858757Y-26709000D01*
X93620931Y-26756307D01*
X93396903Y-26849102D01*
X93195283Y-26983820D01*
X93023820Y-27155283D01*
X92889102Y-27356903D01*
X92796307Y-27580931D01*
X92749000Y-27818757D01*
X92672843Y-27818757D01*
X92672843Y-27090000D01*
X92665487Y-27015311D01*
X92643701Y-26943492D01*
X92608322Y-26877304D01*
X92560711Y-26819289D01*
X92502696Y-26771678D01*
X92436508Y-26736299D01*
X92364689Y-26714513D01*
X92290000Y-26707157D01*
X90590000Y-26707157D01*
X90515311Y-26714513D01*
X90443492Y-26736299D01*
X90377304Y-26771678D01*
X90319289Y-26819289D01*
X90271678Y-26877304D01*
X90236299Y-26943492D01*
X90214513Y-27015311D01*
X90207157Y-27090000D01*
X80392897Y-27090000D01*
X80286717Y-26983820D01*
X80085097Y-26849102D01*
X79861069Y-26756307D01*
X79623243Y-26709000D01*
X79380757Y-26709000D01*
X79142931Y-26756307D01*
X78918903Y-26849102D01*
X78717283Y-26983820D01*
X78545820Y-27155283D01*
X78411102Y-27356903D01*
X78318307Y-27580931D01*
X78271000Y-27818757D01*
X78193000Y-27818757D01*
X78145693Y-27580931D01*
X78052898Y-27356903D01*
X77918180Y-27155283D01*
X77746717Y-26983820D01*
X77545097Y-26849102D01*
X77321069Y-26756307D01*
X77083243Y-26709000D01*
X76840757Y-26709000D01*
X76602931Y-26756307D01*
X76378903Y-26849102D01*
X76177283Y-26983820D01*
X76005820Y-27155283D01*
X75871102Y-27356903D01*
X75778307Y-27580931D01*
X75731000Y-27818757D01*
X75654843Y-27818757D01*
X75654843Y-27090000D01*
X75647487Y-27015311D01*
X75625701Y-26943492D01*
X75590322Y-26877304D01*
X75542711Y-26819289D01*
X75484696Y-26771678D01*
X75418508Y-26736299D01*
X75346689Y-26714513D01*
X75272000Y-26707157D01*
X74446392Y-26707157D01*
X74065499Y-26326264D01*
X74065495Y-26326259D01*
X73545235Y-25806000D01*
X101194000Y-25806000D01*
X101194001Y-55474000D01*
X25806000Y-55474000D01*
X25806000Y-53218757D01*
X54141000Y-53218757D01*
X54141000Y-53461243D01*
X54188307Y-53699069D01*
X54281102Y-53923097D01*
X54415820Y-54124717D01*
X54587283Y-54296180D01*
X54788903Y-54430898D01*
X55012931Y-54523693D01*
X55250757Y-54571000D01*
X55493243Y-54571000D01*
X55731069Y-54523693D01*
X55955097Y-54430898D01*
X56156717Y-54296180D01*
X56328180Y-54124717D01*
X56462898Y-53923097D01*
X56555693Y-53699069D01*
X56603000Y-53461243D01*
X56603000Y-53218757D01*
X56681000Y-53218757D01*
X56681000Y-53461243D01*
X56728307Y-53699069D01*
X56821102Y-53923097D01*
X56955820Y-54124717D01*
X57127283Y-54296180D01*
X57328903Y-54430898D01*
X57552931Y-54523693D01*
X57790757Y-54571000D01*
X58033243Y-54571000D01*
X58271069Y-54523693D01*
X58495097Y-54430898D01*
X58696717Y-54296180D01*
X58868180Y-54124717D01*
X59002898Y-53923097D01*
X59095693Y-53699069D01*
X59143000Y-53461243D01*
X59143000Y-53218757D01*
X59095693Y-52980931D01*
X59034005Y-52832000D01*
X66162700Y-52832000D01*
X66179864Y-53006274D01*
X66230698Y-53173852D01*
X66313248Y-53328291D01*
X66424341Y-53463659D01*
X66559709Y-53574752D01*
X66714148Y-53657302D01*
X66881726Y-53708136D01*
X67056000Y-53725300D01*
X67230274Y-53708136D01*
X67397852Y-53657302D01*
X67552291Y-53574752D01*
X67653740Y-53491495D01*
X68655235Y-52490000D01*
X90207157Y-52490000D01*
X90207157Y-54190000D01*
X90214513Y-54264689D01*
X90236299Y-54336508D01*
X90271678Y-54402696D01*
X90319289Y-54460711D01*
X90377304Y-54508322D01*
X90443492Y-54543701D01*
X90515311Y-54565487D01*
X90590000Y-54572843D01*
X92290000Y-54572843D01*
X92364689Y-54565487D01*
X92436508Y-54543701D01*
X92502696Y-54508322D01*
X92560711Y-54460711D01*
X92608322Y-54402696D01*
X92643701Y-54336508D01*
X92665487Y-54264689D01*
X92672843Y-54190000D01*
X92672843Y-53218757D01*
X92749000Y-53218757D01*
X92749000Y-53461243D01*
X92796307Y-53699069D01*
X92889102Y-53923097D01*
X93023820Y-54124717D01*
X93195283Y-54296180D01*
X93396903Y-54430898D01*
X93620931Y-54523693D01*
X93858757Y-54571000D01*
X94101243Y-54571000D01*
X94339069Y-54523693D01*
X94563097Y-54430898D01*
X94764717Y-54296180D01*
X94936180Y-54124717D01*
X95070898Y-53923097D01*
X95163693Y-53699069D01*
X95211000Y-53461243D01*
X95211000Y-53218757D01*
X95163693Y-52980931D01*
X95070898Y-52756903D01*
X94936180Y-52555283D01*
X94764717Y-52383820D01*
X94563097Y-52249102D01*
X94339069Y-52156307D01*
X94101243Y-52109000D01*
X93858757Y-52109000D01*
X93620931Y-52156307D01*
X93396903Y-52249102D01*
X93195283Y-52383820D01*
X93023820Y-52555283D01*
X92889102Y-52756903D01*
X92796307Y-52980931D01*
X92749000Y-53218757D01*
X92672843Y-53218757D01*
X92672843Y-52490000D01*
X92665487Y-52415311D01*
X92643701Y-52343492D01*
X92608322Y-52277304D01*
X92560711Y-52219289D01*
X92502696Y-52171678D01*
X92436508Y-52136299D01*
X92364689Y-52114513D01*
X92290000Y-52107157D01*
X90590000Y-52107157D01*
X90515311Y-52114513D01*
X90443492Y-52136299D01*
X90377304Y-52171678D01*
X90319289Y-52219289D01*
X90271678Y-52277304D01*
X90236299Y-52343492D01*
X90214513Y-52415311D01*
X90207157Y-52490000D01*
X68655235Y-52490000D01*
X69239494Y-51905742D01*
X69322751Y-51804292D01*
X69405302Y-51649853D01*
X69456136Y-51482276D01*
X69473300Y-51308001D01*
X69456136Y-51133726D01*
X69405302Y-50966149D01*
X69322751Y-50811709D01*
X69211658Y-50676342D01*
X69076291Y-50565249D01*
X68921851Y-50482698D01*
X68754274Y-50431864D01*
X68579999Y-50414700D01*
X68405724Y-50431864D01*
X68238147Y-50482698D01*
X68083708Y-50565249D01*
X67982258Y-50648506D01*
X66396505Y-52234260D01*
X66313248Y-52335709D01*
X66230698Y-52490148D01*
X66179864Y-52657726D01*
X66162700Y-52832000D01*
X59034005Y-52832000D01*
X59002898Y-52756903D01*
X58868180Y-52555283D01*
X58696717Y-52383820D01*
X58495097Y-52249102D01*
X58271069Y-52156307D01*
X58033243Y-52109000D01*
X57790757Y-52109000D01*
X57552931Y-52156307D01*
X57328903Y-52249102D01*
X57127283Y-52383820D01*
X56955820Y-52555283D01*
X56821102Y-52756903D01*
X56728307Y-52980931D01*
X56681000Y-53218757D01*
X56603000Y-53218757D01*
X56555693Y-52980931D01*
X56462898Y-52756903D01*
X56328180Y-52555283D01*
X56156717Y-52383820D01*
X55955097Y-52249102D01*
X55731069Y-52156307D01*
X55493243Y-52109000D01*
X55250757Y-52109000D01*
X55012931Y-52156307D01*
X54788903Y-52249102D01*
X54587283Y-52383820D01*
X54415820Y-52555283D01*
X54281102Y-52756903D01*
X54188307Y-52980931D01*
X54141000Y-53218757D01*
X25806000Y-53218757D01*
X25806000Y-40069458D01*
X51943000Y-40069458D01*
X51943000Y-40194542D01*
X51967403Y-40317223D01*
X52015271Y-40432785D01*
X52070001Y-40514694D01*
X52070000Y-42797307D01*
X52015271Y-42879215D01*
X51967403Y-42994777D01*
X51943000Y-43117458D01*
X51943000Y-43242542D01*
X51967403Y-43365223D01*
X52015271Y-43480785D01*
X52084764Y-43584789D01*
X52173211Y-43673236D01*
X52277215Y-43742729D01*
X52392777Y-43790597D01*
X52515458Y-43815000D01*
X52640542Y-43815000D01*
X52763223Y-43790597D01*
X52878785Y-43742729D01*
X52982789Y-43673236D01*
X53071236Y-43584789D01*
X53140729Y-43480785D01*
X53188597Y-43365223D01*
X53213000Y-43242542D01*
X53213000Y-43117458D01*
X53188597Y-42994777D01*
X53140729Y-42879215D01*
X53086000Y-42797307D01*
X53086000Y-41593458D01*
X59563000Y-41593458D01*
X59563000Y-41718542D01*
X59587403Y-41841223D01*
X59635271Y-41956785D01*
X59704764Y-42060789D01*
X59793211Y-42149236D01*
X59897215Y-42218729D01*
X60012777Y-42266597D01*
X60135458Y-42291000D01*
X60260542Y-42291000D01*
X60383223Y-42266597D01*
X60498785Y-42218729D01*
X60580693Y-42164000D01*
X61765580Y-42164000D01*
X62142429Y-42540850D01*
X62158211Y-42553802D01*
X62362628Y-42758219D01*
X62378473Y-42777526D01*
X62407920Y-42801693D01*
X62298777Y-42823403D01*
X62183215Y-42871271D01*
X62079211Y-42940764D01*
X61990764Y-43029211D01*
X61921271Y-43133215D01*
X61873403Y-43248777D01*
X61849000Y-43371458D01*
X61849000Y-43496542D01*
X61873403Y-43619223D01*
X61921271Y-43734785D01*
X61990764Y-43838789D01*
X62079211Y-43927236D01*
X62183215Y-43996729D01*
X62298777Y-44044597D01*
X62421458Y-44069000D01*
X62546542Y-44069000D01*
X62669223Y-44044597D01*
X62784785Y-43996729D01*
X62866693Y-43942000D01*
X67689307Y-43942000D01*
X67771215Y-43996729D01*
X67886777Y-44044597D01*
X68009458Y-44069000D01*
X68134542Y-44069000D01*
X68257223Y-44044597D01*
X68372785Y-43996729D01*
X68476789Y-43927236D01*
X68565236Y-43838789D01*
X68634729Y-43734785D01*
X68682597Y-43619223D01*
X68707000Y-43496542D01*
X68707000Y-43371458D01*
X68682597Y-43248777D01*
X68634729Y-43133215D01*
X68565236Y-43029211D01*
X68476789Y-42940764D01*
X68372785Y-42871271D01*
X68257223Y-42823403D01*
X68134542Y-42799000D01*
X68009458Y-42799000D01*
X67886777Y-42823403D01*
X67771215Y-42871271D01*
X67689307Y-42926000D01*
X67130108Y-42926000D01*
X67158597Y-42857223D01*
X67172306Y-42788306D01*
X67241223Y-42774597D01*
X67356785Y-42726729D01*
X67460789Y-42657236D01*
X67549236Y-42568789D01*
X67618729Y-42464785D01*
X67666597Y-42349223D01*
X67691000Y-42226542D01*
X67691000Y-42101458D01*
X67666597Y-41978777D01*
X67618729Y-41863215D01*
X67549236Y-41759211D01*
X67460789Y-41670764D01*
X67356785Y-41601271D01*
X67241223Y-41553403D01*
X67144604Y-41534184D01*
X67143571Y-41533151D01*
X67085596Y-41485572D01*
X66997344Y-41438401D01*
X66901585Y-41409353D01*
X66802001Y-41399544D01*
X66756742Y-41404002D01*
X64081280Y-41404000D01*
X64110597Y-41333223D01*
X64135000Y-41210542D01*
X64135000Y-41085458D01*
X64110597Y-40962777D01*
X64062729Y-40847215D01*
X64008000Y-40765307D01*
X64008000Y-39834420D01*
X65366604Y-38475816D01*
X65463223Y-38456597D01*
X65578785Y-38408729D01*
X65682789Y-38339236D01*
X65771236Y-38250789D01*
X65840729Y-38146785D01*
X65888597Y-38031223D01*
X65913000Y-37908542D01*
X65913000Y-37783458D01*
X65888597Y-37660777D01*
X65840729Y-37545215D01*
X65771236Y-37441211D01*
X65682789Y-37352764D01*
X65578785Y-37283271D01*
X65463223Y-37235403D01*
X65340542Y-37211000D01*
X65215458Y-37211000D01*
X65092777Y-37235403D01*
X64977215Y-37283271D01*
X64873211Y-37352764D01*
X64784764Y-37441211D01*
X64715271Y-37545215D01*
X64667403Y-37660777D01*
X64648184Y-37757396D01*
X63158430Y-39247150D01*
X63139053Y-39263052D01*
X63123151Y-39282429D01*
X63123150Y-39282430D01*
X63075571Y-39340405D01*
X63028400Y-39428657D01*
X63001586Y-39517053D01*
X62999352Y-39524416D01*
X62989543Y-39624000D01*
X62992001Y-39648954D01*
X62992000Y-40765307D01*
X62937271Y-40847215D01*
X62926833Y-40872413D01*
X62606855Y-40552435D01*
X62590948Y-40533052D01*
X62513595Y-40469571D01*
X62425343Y-40422399D01*
X62329585Y-40393351D01*
X62254947Y-40386000D01*
X62254944Y-40386000D01*
X62230000Y-40383543D01*
X62205056Y-40386000D01*
X61342693Y-40386000D01*
X61260785Y-40331271D01*
X61145223Y-40283403D01*
X61022542Y-40259000D01*
X60897458Y-40259000D01*
X60774777Y-40283403D01*
X60659215Y-40331271D01*
X60555211Y-40400764D01*
X60466764Y-40489211D01*
X60397271Y-40593215D01*
X60349403Y-40708777D01*
X60325000Y-40831458D01*
X60325000Y-40956542D01*
X60341005Y-41037005D01*
X60260542Y-41021000D01*
X60135458Y-41021000D01*
X60012777Y-41045403D01*
X59897215Y-41093271D01*
X59793211Y-41162764D01*
X59704764Y-41251211D01*
X59635271Y-41355215D01*
X59587403Y-41470777D01*
X59563000Y-41593458D01*
X53086000Y-41593458D01*
X53086000Y-40514693D01*
X53140729Y-40432785D01*
X53188597Y-40317223D01*
X53213000Y-40194542D01*
X53213000Y-40069458D01*
X53188597Y-39946777D01*
X53140729Y-39831215D01*
X53071236Y-39727211D01*
X52982789Y-39638764D01*
X52878785Y-39569271D01*
X52763223Y-39521403D01*
X52640542Y-39497000D01*
X52515458Y-39497000D01*
X52392777Y-39521403D01*
X52277215Y-39569271D01*
X52173211Y-39638764D01*
X52084764Y-39727211D01*
X52015271Y-39831215D01*
X51967403Y-39946777D01*
X51943000Y-40069458D01*
X25806000Y-40069458D01*
X25806000Y-34481458D01*
X65913000Y-34481458D01*
X65913000Y-34606542D01*
X65937403Y-34729223D01*
X65985271Y-34844785D01*
X66040000Y-34926693D01*
X66040001Y-36551046D01*
X66037543Y-36576000D01*
X66042934Y-36630729D01*
X66047352Y-36675585D01*
X66067629Y-36742429D01*
X66076400Y-36771343D01*
X66123571Y-36859595D01*
X66155727Y-36898777D01*
X66187053Y-36936948D01*
X66206430Y-36952850D01*
X66426184Y-37172605D01*
X66445403Y-37269223D01*
X66493271Y-37384785D01*
X66562764Y-37488789D01*
X66651211Y-37577236D01*
X66755215Y-37646729D01*
X66870777Y-37694597D01*
X66993458Y-37719000D01*
X67118542Y-37719000D01*
X67241223Y-37694597D01*
X67356785Y-37646729D01*
X67460789Y-37577236D01*
X67549236Y-37488789D01*
X67618729Y-37384785D01*
X67666597Y-37269223D01*
X67691000Y-37146542D01*
X67691000Y-37021458D01*
X67666597Y-36898777D01*
X67618729Y-36783215D01*
X67549236Y-36679211D01*
X67460789Y-36590764D01*
X67356785Y-36521271D01*
X67241223Y-36473403D01*
X67144605Y-36454184D01*
X67056000Y-36365580D01*
X67056000Y-35751458D01*
X67945000Y-35751458D01*
X67945000Y-35876542D01*
X67969403Y-35999223D01*
X68017271Y-36114785D01*
X68072000Y-36196693D01*
X68072001Y-39853046D01*
X68069543Y-39878000D01*
X68075321Y-39936657D01*
X68079352Y-39977585D01*
X68108400Y-40073343D01*
X68155571Y-40161595D01*
X68182610Y-40194542D01*
X68219053Y-40238948D01*
X68238430Y-40254850D01*
X69088000Y-41104421D01*
X69088001Y-47369306D01*
X69033271Y-47451215D01*
X68985403Y-47566777D01*
X68961000Y-47689458D01*
X68961000Y-47814542D01*
X68985403Y-47937223D01*
X69033271Y-48052785D01*
X69102764Y-48156789D01*
X69191211Y-48245236D01*
X69295215Y-48314729D01*
X69410777Y-48362597D01*
X69533458Y-48387000D01*
X69658542Y-48387000D01*
X69781223Y-48362597D01*
X69850000Y-48334108D01*
X69850001Y-51029046D01*
X69847543Y-51054000D01*
X69855396Y-51133726D01*
X69857352Y-51153585D01*
X69873071Y-51205403D01*
X69886400Y-51249343D01*
X69933571Y-51337595D01*
X69977868Y-51391571D01*
X69997053Y-51414948D01*
X70016430Y-51430850D01*
X70743145Y-52157565D01*
X70759052Y-52176948D01*
X70836405Y-52240429D01*
X70924657Y-52287601D01*
X71020415Y-52316649D01*
X71095053Y-52324000D01*
X71095056Y-52324000D01*
X71120000Y-52326457D01*
X71144944Y-52324000D01*
X76325307Y-52324000D01*
X76407215Y-52378729D01*
X76522777Y-52426597D01*
X76645458Y-52451000D01*
X76770542Y-52451000D01*
X76893223Y-52426597D01*
X77008785Y-52378729D01*
X77112789Y-52309236D01*
X77201236Y-52220789D01*
X77270729Y-52116785D01*
X77318597Y-52001223D01*
X77343000Y-51878542D01*
X77343000Y-51753458D01*
X77318597Y-51630777D01*
X77270729Y-51515215D01*
X77201236Y-51411211D01*
X77112789Y-51322764D01*
X77008785Y-51253271D01*
X76893223Y-51205403D01*
X76770542Y-51181000D01*
X76645458Y-51181000D01*
X76522777Y-51205403D01*
X76407215Y-51253271D01*
X76325307Y-51308000D01*
X71330420Y-51308000D01*
X70866000Y-50843580D01*
X70866000Y-47679061D01*
X70868457Y-47654117D01*
X70863246Y-47601211D01*
X70858649Y-47554533D01*
X70829601Y-47458775D01*
X70782429Y-47370523D01*
X70718948Y-47293170D01*
X70699565Y-47277263D01*
X70612000Y-47189698D01*
X70612000Y-46927458D01*
X70993000Y-46927458D01*
X70993000Y-47052542D01*
X71017403Y-47175223D01*
X71065271Y-47290785D01*
X71134764Y-47394789D01*
X71223211Y-47483236D01*
X71245307Y-47498000D01*
X71223211Y-47512764D01*
X71134764Y-47601211D01*
X71065271Y-47705215D01*
X71017403Y-47820777D01*
X70993000Y-47943458D01*
X70993000Y-48068542D01*
X71017403Y-48191223D01*
X71065271Y-48306785D01*
X71134764Y-48410789D01*
X71223211Y-48499236D01*
X71327215Y-48568729D01*
X71442777Y-48616597D01*
X71565458Y-48641000D01*
X71690542Y-48641000D01*
X71813223Y-48616597D01*
X71928785Y-48568729D01*
X72032789Y-48499236D01*
X72121236Y-48410789D01*
X72190729Y-48306785D01*
X72238597Y-48191223D01*
X72257816Y-48094605D01*
X72273420Y-48079001D01*
X74421937Y-48079001D01*
X74446881Y-48081458D01*
X74471825Y-48079001D01*
X74471828Y-48079001D01*
X74546466Y-48071650D01*
X74642224Y-48042602D01*
X74730476Y-47995430D01*
X74807829Y-47931949D01*
X74823736Y-47912566D01*
X74900203Y-47836099D01*
X74944764Y-47902789D01*
X75033211Y-47991236D01*
X75137215Y-48060729D01*
X75252777Y-48108597D01*
X75375458Y-48133000D01*
X75500542Y-48133000D01*
X75623223Y-48108597D01*
X75738785Y-48060729D01*
X75842789Y-47991236D01*
X75931236Y-47902789D01*
X75946000Y-47880693D01*
X75960764Y-47902789D01*
X76049211Y-47991236D01*
X76153215Y-48060729D01*
X76268777Y-48108597D01*
X76391458Y-48133000D01*
X76516542Y-48133000D01*
X76639223Y-48108597D01*
X76754785Y-48060729D01*
X76858789Y-47991236D01*
X76947236Y-47902789D01*
X77016729Y-47798785D01*
X77064597Y-47683223D01*
X77089000Y-47560542D01*
X77089000Y-47435458D01*
X77064597Y-47312777D01*
X77016729Y-47197215D01*
X76947236Y-47093211D01*
X76858789Y-47004764D01*
X76754785Y-46935271D01*
X76639223Y-46887403D01*
X76542605Y-46868184D01*
X76322855Y-46648434D01*
X76306948Y-46629052D01*
X76287560Y-46613141D01*
X76219011Y-46544592D01*
X76219011Y-45786005D01*
X76221468Y-45761061D01*
X76218148Y-45727351D01*
X76211660Y-45661477D01*
X76182612Y-45565719D01*
X76162802Y-45528657D01*
X76135440Y-45477466D01*
X76102322Y-45437112D01*
X76071959Y-45400114D01*
X76052576Y-45384207D01*
X75519793Y-44851424D01*
X75503886Y-44832041D01*
X75426533Y-44768560D01*
X75338281Y-44721388D01*
X75242523Y-44692340D01*
X75167885Y-44684989D01*
X75167882Y-44684989D01*
X75142938Y-44682532D01*
X75117994Y-44684989D01*
X74211955Y-44684989D01*
X74187011Y-44682532D01*
X74162067Y-44684989D01*
X74162064Y-44684989D01*
X74087426Y-44692340D01*
X73991668Y-44721388D01*
X73950587Y-44743346D01*
X73903415Y-44768560D01*
X73848821Y-44813365D01*
X73826063Y-44832041D01*
X73810160Y-44851419D01*
X73555982Y-45105597D01*
X73472542Y-45089000D01*
X73347458Y-45089000D01*
X73224777Y-45113403D01*
X73109215Y-45161271D01*
X73005211Y-45230764D01*
X72916764Y-45319211D01*
X72847271Y-45423215D01*
X72829549Y-45466000D01*
X72708458Y-45466000D01*
X72585777Y-45490403D01*
X72470215Y-45538271D01*
X72366211Y-45607764D01*
X72277764Y-45696211D01*
X72208271Y-45800215D01*
X72160403Y-45915777D01*
X72136000Y-46038458D01*
X72136000Y-46163542D01*
X72160403Y-46286223D01*
X72208271Y-46401785D01*
X72261869Y-46482000D01*
X72010693Y-46482000D01*
X71928785Y-46427271D01*
X71813223Y-46379403D01*
X71690542Y-46355000D01*
X71565458Y-46355000D01*
X71442777Y-46379403D01*
X71327215Y-46427271D01*
X71223211Y-46496764D01*
X71134764Y-46585211D01*
X71065271Y-46689215D01*
X71017403Y-46804777D01*
X70993000Y-46927458D01*
X70612000Y-46927458D01*
X70612000Y-40664944D01*
X70614457Y-40640000D01*
X70609849Y-40593215D01*
X70604649Y-40540415D01*
X70575601Y-40444657D01*
X70540319Y-40378649D01*
X70528429Y-40356404D01*
X70480850Y-40298429D01*
X70464948Y-40279052D01*
X70445571Y-40263150D01*
X69596000Y-39413580D01*
X69596000Y-36650108D01*
X69642785Y-36630729D01*
X69746789Y-36561236D01*
X69835236Y-36472789D01*
X69904729Y-36368785D01*
X69952597Y-36253223D01*
X69977000Y-36130542D01*
X69977000Y-36005458D01*
X81661000Y-36005458D01*
X81661000Y-36130542D01*
X81685403Y-36253223D01*
X81733271Y-36368785D01*
X81788000Y-36450693D01*
X81788001Y-38225306D01*
X81733271Y-38307215D01*
X81685403Y-38422777D01*
X81661000Y-38545458D01*
X81661000Y-38670542D01*
X81685403Y-38793223D01*
X81733271Y-38908785D01*
X81802764Y-39012789D01*
X81891211Y-39101236D01*
X81995215Y-39170729D01*
X82110777Y-39218597D01*
X82233458Y-39243000D01*
X82358542Y-39243000D01*
X82481223Y-39218597D01*
X82596785Y-39170729D01*
X82700789Y-39101236D01*
X82789236Y-39012789D01*
X82804000Y-38990693D01*
X82818764Y-39012789D01*
X82907211Y-39101236D01*
X83011215Y-39170729D01*
X83126777Y-39218597D01*
X83249458Y-39243000D01*
X83374542Y-39243000D01*
X83497223Y-39218597D01*
X83612785Y-39170729D01*
X83716789Y-39101236D01*
X83805236Y-39012789D01*
X83874729Y-38908785D01*
X83922597Y-38793223D01*
X83947000Y-38670542D01*
X83947000Y-38545458D01*
X83922597Y-38422777D01*
X83874729Y-38307215D01*
X83820000Y-38225307D01*
X83820000Y-36450693D01*
X83874729Y-36368785D01*
X83922597Y-36253223D01*
X83947000Y-36130542D01*
X83947000Y-36005458D01*
X83922597Y-35882777D01*
X83874729Y-35767215D01*
X83805236Y-35663211D01*
X83716789Y-35574764D01*
X83612785Y-35505271D01*
X83497223Y-35457403D01*
X83374542Y-35433000D01*
X83249458Y-35433000D01*
X83126777Y-35457403D01*
X83011215Y-35505271D01*
X82907211Y-35574764D01*
X82818764Y-35663211D01*
X82804000Y-35685307D01*
X82789236Y-35663211D01*
X82700789Y-35574764D01*
X82596785Y-35505271D01*
X82481223Y-35457403D01*
X82358542Y-35433000D01*
X82233458Y-35433000D01*
X82110777Y-35457403D01*
X81995215Y-35505271D01*
X81891211Y-35574764D01*
X81802764Y-35663211D01*
X81733271Y-35767215D01*
X81685403Y-35882777D01*
X81661000Y-36005458D01*
X69977000Y-36005458D01*
X69952597Y-35882777D01*
X69904729Y-35767215D01*
X69835236Y-35663211D01*
X69746789Y-35574764D01*
X69642785Y-35505271D01*
X69527223Y-35457403D01*
X69404542Y-35433000D01*
X69279458Y-35433000D01*
X69156777Y-35457403D01*
X69116566Y-35474059D01*
X69073236Y-35409211D01*
X68984789Y-35320764D01*
X68880785Y-35251271D01*
X68765223Y-35203403D01*
X68642542Y-35179000D01*
X68517458Y-35179000D01*
X68394777Y-35203403D01*
X68279215Y-35251271D01*
X68175211Y-35320764D01*
X68086764Y-35409211D01*
X68017271Y-35513215D01*
X67969403Y-35628777D01*
X67945000Y-35751458D01*
X67056000Y-35751458D01*
X67056000Y-34926693D01*
X67110729Y-34844785D01*
X67158597Y-34729223D01*
X67183000Y-34606542D01*
X67183000Y-34481458D01*
X67158597Y-34358777D01*
X67110729Y-34243215D01*
X67041236Y-34139211D01*
X66952789Y-34050764D01*
X66848785Y-33981271D01*
X66733223Y-33933403D01*
X66610542Y-33909000D01*
X66485458Y-33909000D01*
X66362777Y-33933403D01*
X66247215Y-33981271D01*
X66143211Y-34050764D01*
X66054764Y-34139211D01*
X65985271Y-34243215D01*
X65937403Y-34358777D01*
X65913000Y-34481458D01*
X25806000Y-34481458D01*
X25806000Y-27818757D01*
X54141000Y-27818757D01*
X54141000Y-28061243D01*
X54188307Y-28299069D01*
X54281102Y-28523097D01*
X54415820Y-28724717D01*
X54587283Y-28896180D01*
X54788903Y-29030898D01*
X55012931Y-29123693D01*
X55250757Y-29171000D01*
X55493243Y-29171000D01*
X55731069Y-29123693D01*
X55955097Y-29030898D01*
X56156717Y-28896180D01*
X56328180Y-28724717D01*
X56462898Y-28523097D01*
X56555693Y-28299069D01*
X56603000Y-28061243D01*
X56603000Y-27818757D01*
X56555693Y-27580931D01*
X56462898Y-27356903D01*
X56328180Y-27155283D01*
X56156717Y-26983820D01*
X55955097Y-26849102D01*
X55731069Y-26756307D01*
X55493243Y-26709000D01*
X55250757Y-26709000D01*
X55012931Y-26756307D01*
X54788903Y-26849102D01*
X54587283Y-26983820D01*
X54415820Y-27155283D01*
X54281102Y-27356903D01*
X54188307Y-27580931D01*
X54141000Y-27818757D01*
X25806000Y-27818757D01*
X25806000Y-25806000D01*
X58788764Y-25806000D01*
X57885765Y-26709000D01*
G37*
X57885765Y-26709000D02*
X57790757Y-26709000D01*
X57552931Y-26756307D01*
X57328903Y-26849102D01*
X57127283Y-26983820D01*
X56955820Y-27155283D01*
X56821102Y-27356903D01*
X56728307Y-27580931D01*
X56681000Y-27818757D01*
X56681000Y-28061243D01*
X56728307Y-28299069D01*
X56821102Y-28523097D01*
X56955820Y-28724717D01*
X57127283Y-28896180D01*
X57328903Y-29030898D01*
X57552931Y-29123693D01*
X57790757Y-29171000D01*
X58033243Y-29171000D01*
X58271069Y-29123693D01*
X58495097Y-29030898D01*
X58696717Y-28896180D01*
X58868180Y-28724717D01*
X59002898Y-28523097D01*
X59095693Y-28299069D01*
X59143000Y-28061243D01*
X59143000Y-27966235D01*
X60058236Y-27051000D01*
X72275765Y-27051000D01*
X72808259Y-27583495D01*
X72808264Y-27583499D01*
X73189157Y-27964392D01*
X73189157Y-28790000D01*
X73196513Y-28864689D01*
X73218299Y-28936508D01*
X73253678Y-29002696D01*
X73301289Y-29060711D01*
X73359304Y-29108322D01*
X73425492Y-29143701D01*
X73497311Y-29165487D01*
X73572000Y-29172843D01*
X75272000Y-29172843D01*
X75346689Y-29165487D01*
X75418508Y-29143701D01*
X75484696Y-29108322D01*
X75542711Y-29060711D01*
X75590322Y-29002696D01*
X75625701Y-28936508D01*
X75647487Y-28864689D01*
X75654843Y-28790000D01*
X75654843Y-27818757D01*
X75731000Y-27818757D01*
X75731000Y-28061243D01*
X75778307Y-28299069D01*
X75871102Y-28523097D01*
X76005820Y-28724717D01*
X76177283Y-28896180D01*
X76378903Y-29030898D01*
X76602931Y-29123693D01*
X76840757Y-29171000D01*
X77083243Y-29171000D01*
X77321069Y-29123693D01*
X77545097Y-29030898D01*
X77746717Y-28896180D01*
X77918180Y-28724717D01*
X78052898Y-28523097D01*
X78145693Y-28299069D01*
X78193000Y-28061243D01*
X78193000Y-27818757D01*
X78271000Y-27818757D01*
X78271000Y-28061243D01*
X78318307Y-28299069D01*
X78411102Y-28523097D01*
X78545820Y-28724717D01*
X78717283Y-28896180D01*
X78918903Y-29030898D01*
X79142931Y-29123693D01*
X79380757Y-29171000D01*
X79623243Y-29171000D01*
X79861069Y-29123693D01*
X80085097Y-29030898D01*
X80286717Y-28896180D01*
X80458180Y-28724717D01*
X80592898Y-28523097D01*
X80685693Y-28299069D01*
X80733000Y-28061243D01*
X80733000Y-27818757D01*
X80685693Y-27580931D01*
X80592898Y-27356903D01*
X80458180Y-27155283D01*
X80392897Y-27090000D01*
X90207157Y-27090000D01*
X90207157Y-28790000D01*
X90214513Y-28864689D01*
X90236299Y-28936508D01*
X90271678Y-29002696D01*
X90319289Y-29060711D01*
X90377304Y-29108322D01*
X90443492Y-29143701D01*
X90515311Y-29165487D01*
X90590000Y-29172843D01*
X92290000Y-29172843D01*
X92364689Y-29165487D01*
X92436508Y-29143701D01*
X92502696Y-29108322D01*
X92560711Y-29060711D01*
X92608322Y-29002696D01*
X92643701Y-28936508D01*
X92665487Y-28864689D01*
X92672843Y-28790000D01*
X92672843Y-27818757D01*
X92749000Y-27818757D01*
X92749000Y-28061243D01*
X92796307Y-28299069D01*
X92889102Y-28523097D01*
X93023820Y-28724717D01*
X93195283Y-28896180D01*
X93396903Y-29030898D01*
X93620931Y-29123693D01*
X93858757Y-29171000D01*
X94101243Y-29171000D01*
X94339069Y-29123693D01*
X94563097Y-29030898D01*
X94764717Y-28896180D01*
X94936180Y-28724717D01*
X95070898Y-28523097D01*
X95163693Y-28299069D01*
X95211000Y-28061243D01*
X95211000Y-27818757D01*
X95163693Y-27580931D01*
X95070898Y-27356903D01*
X94936180Y-27155283D01*
X94764717Y-26983820D01*
X94563097Y-26849102D01*
X94339069Y-26756307D01*
X94101243Y-26709000D01*
X93858757Y-26709000D01*
X93620931Y-26756307D01*
X93396903Y-26849102D01*
X93195283Y-26983820D01*
X93023820Y-27155283D01*
X92889102Y-27356903D01*
X92796307Y-27580931D01*
X92749000Y-27818757D01*
X92672843Y-27818757D01*
X92672843Y-27090000D01*
X92665487Y-27015311D01*
X92643701Y-26943492D01*
X92608322Y-26877304D01*
X92560711Y-26819289D01*
X92502696Y-26771678D01*
X92436508Y-26736299D01*
X92364689Y-26714513D01*
X92290000Y-26707157D01*
X90590000Y-26707157D01*
X90515311Y-26714513D01*
X90443492Y-26736299D01*
X90377304Y-26771678D01*
X90319289Y-26819289D01*
X90271678Y-26877304D01*
X90236299Y-26943492D01*
X90214513Y-27015311D01*
X90207157Y-27090000D01*
X80392897Y-27090000D01*
X80286717Y-26983820D01*
X80085097Y-26849102D01*
X79861069Y-26756307D01*
X79623243Y-26709000D01*
X79380757Y-26709000D01*
X79142931Y-26756307D01*
X78918903Y-26849102D01*
X78717283Y-26983820D01*
X78545820Y-27155283D01*
X78411102Y-27356903D01*
X78318307Y-27580931D01*
X78271000Y-27818757D01*
X78193000Y-27818757D01*
X78145693Y-27580931D01*
X78052898Y-27356903D01*
X77918180Y-27155283D01*
X77746717Y-26983820D01*
X77545097Y-26849102D01*
X77321069Y-26756307D01*
X77083243Y-26709000D01*
X76840757Y-26709000D01*
X76602931Y-26756307D01*
X76378903Y-26849102D01*
X76177283Y-26983820D01*
X76005820Y-27155283D01*
X75871102Y-27356903D01*
X75778307Y-27580931D01*
X75731000Y-27818757D01*
X75654843Y-27818757D01*
X75654843Y-27090000D01*
X75647487Y-27015311D01*
X75625701Y-26943492D01*
X75590322Y-26877304D01*
X75542711Y-26819289D01*
X75484696Y-26771678D01*
X75418508Y-26736299D01*
X75346689Y-26714513D01*
X75272000Y-26707157D01*
X74446392Y-26707157D01*
X74065499Y-26326264D01*
X74065495Y-26326259D01*
X73545235Y-25806000D01*
X101194000Y-25806000D01*
X101194001Y-55474000D01*
X25806000Y-55474000D01*
X25806000Y-53218757D01*
X54141000Y-53218757D01*
X54141000Y-53461243D01*
X54188307Y-53699069D01*
X54281102Y-53923097D01*
X54415820Y-54124717D01*
X54587283Y-54296180D01*
X54788903Y-54430898D01*
X55012931Y-54523693D01*
X55250757Y-54571000D01*
X55493243Y-54571000D01*
X55731069Y-54523693D01*
X55955097Y-54430898D01*
X56156717Y-54296180D01*
X56328180Y-54124717D01*
X56462898Y-53923097D01*
X56555693Y-53699069D01*
X56603000Y-53461243D01*
X56603000Y-53218757D01*
X56681000Y-53218757D01*
X56681000Y-53461243D01*
X56728307Y-53699069D01*
X56821102Y-53923097D01*
X56955820Y-54124717D01*
X57127283Y-54296180D01*
X57328903Y-54430898D01*
X57552931Y-54523693D01*
X57790757Y-54571000D01*
X58033243Y-54571000D01*
X58271069Y-54523693D01*
X58495097Y-54430898D01*
X58696717Y-54296180D01*
X58868180Y-54124717D01*
X59002898Y-53923097D01*
X59095693Y-53699069D01*
X59143000Y-53461243D01*
X59143000Y-53218757D01*
X59095693Y-52980931D01*
X59034005Y-52832000D01*
X66162700Y-52832000D01*
X66179864Y-53006274D01*
X66230698Y-53173852D01*
X66313248Y-53328291D01*
X66424341Y-53463659D01*
X66559709Y-53574752D01*
X66714148Y-53657302D01*
X66881726Y-53708136D01*
X67056000Y-53725300D01*
X67230274Y-53708136D01*
X67397852Y-53657302D01*
X67552291Y-53574752D01*
X67653740Y-53491495D01*
X68655235Y-52490000D01*
X90207157Y-52490000D01*
X90207157Y-54190000D01*
X90214513Y-54264689D01*
X90236299Y-54336508D01*
X90271678Y-54402696D01*
X90319289Y-54460711D01*
X90377304Y-54508322D01*
X90443492Y-54543701D01*
X90515311Y-54565487D01*
X90590000Y-54572843D01*
X92290000Y-54572843D01*
X92364689Y-54565487D01*
X92436508Y-54543701D01*
X92502696Y-54508322D01*
X92560711Y-54460711D01*
X92608322Y-54402696D01*
X92643701Y-54336508D01*
X92665487Y-54264689D01*
X92672843Y-54190000D01*
X92672843Y-53218757D01*
X92749000Y-53218757D01*
X92749000Y-53461243D01*
X92796307Y-53699069D01*
X92889102Y-53923097D01*
X93023820Y-54124717D01*
X93195283Y-54296180D01*
X93396903Y-54430898D01*
X93620931Y-54523693D01*
X93858757Y-54571000D01*
X94101243Y-54571000D01*
X94339069Y-54523693D01*
X94563097Y-54430898D01*
X94764717Y-54296180D01*
X94936180Y-54124717D01*
X95070898Y-53923097D01*
X95163693Y-53699069D01*
X95211000Y-53461243D01*
X95211000Y-53218757D01*
X95163693Y-52980931D01*
X95070898Y-52756903D01*
X94936180Y-52555283D01*
X94764717Y-52383820D01*
X94563097Y-52249102D01*
X94339069Y-52156307D01*
X94101243Y-52109000D01*
X93858757Y-52109000D01*
X93620931Y-52156307D01*
X93396903Y-52249102D01*
X93195283Y-52383820D01*
X93023820Y-52555283D01*
X92889102Y-52756903D01*
X92796307Y-52980931D01*
X92749000Y-53218757D01*
X92672843Y-53218757D01*
X92672843Y-52490000D01*
X92665487Y-52415311D01*
X92643701Y-52343492D01*
X92608322Y-52277304D01*
X92560711Y-52219289D01*
X92502696Y-52171678D01*
X92436508Y-52136299D01*
X92364689Y-52114513D01*
X92290000Y-52107157D01*
X90590000Y-52107157D01*
X90515311Y-52114513D01*
X90443492Y-52136299D01*
X90377304Y-52171678D01*
X90319289Y-52219289D01*
X90271678Y-52277304D01*
X90236299Y-52343492D01*
X90214513Y-52415311D01*
X90207157Y-52490000D01*
X68655235Y-52490000D01*
X69239494Y-51905742D01*
X69322751Y-51804292D01*
X69405302Y-51649853D01*
X69456136Y-51482276D01*
X69473300Y-51308001D01*
X69456136Y-51133726D01*
X69405302Y-50966149D01*
X69322751Y-50811709D01*
X69211658Y-50676342D01*
X69076291Y-50565249D01*
X68921851Y-50482698D01*
X68754274Y-50431864D01*
X68579999Y-50414700D01*
X68405724Y-50431864D01*
X68238147Y-50482698D01*
X68083708Y-50565249D01*
X67982258Y-50648506D01*
X66396505Y-52234260D01*
X66313248Y-52335709D01*
X66230698Y-52490148D01*
X66179864Y-52657726D01*
X66162700Y-52832000D01*
X59034005Y-52832000D01*
X59002898Y-52756903D01*
X58868180Y-52555283D01*
X58696717Y-52383820D01*
X58495097Y-52249102D01*
X58271069Y-52156307D01*
X58033243Y-52109000D01*
X57790757Y-52109000D01*
X57552931Y-52156307D01*
X57328903Y-52249102D01*
X57127283Y-52383820D01*
X56955820Y-52555283D01*
X56821102Y-52756903D01*
X56728307Y-52980931D01*
X56681000Y-53218757D01*
X56603000Y-53218757D01*
X56555693Y-52980931D01*
X56462898Y-52756903D01*
X56328180Y-52555283D01*
X56156717Y-52383820D01*
X55955097Y-52249102D01*
X55731069Y-52156307D01*
X55493243Y-52109000D01*
X55250757Y-52109000D01*
X55012931Y-52156307D01*
X54788903Y-52249102D01*
X54587283Y-52383820D01*
X54415820Y-52555283D01*
X54281102Y-52756903D01*
X54188307Y-52980931D01*
X54141000Y-53218757D01*
X25806000Y-53218757D01*
X25806000Y-40069458D01*
X51943000Y-40069458D01*
X51943000Y-40194542D01*
X51967403Y-40317223D01*
X52015271Y-40432785D01*
X52070001Y-40514694D01*
X52070000Y-42797307D01*
X52015271Y-42879215D01*
X51967403Y-42994777D01*
X51943000Y-43117458D01*
X51943000Y-43242542D01*
X51967403Y-43365223D01*
X52015271Y-43480785D01*
X52084764Y-43584789D01*
X52173211Y-43673236D01*
X52277215Y-43742729D01*
X52392777Y-43790597D01*
X52515458Y-43815000D01*
X52640542Y-43815000D01*
X52763223Y-43790597D01*
X52878785Y-43742729D01*
X52982789Y-43673236D01*
X53071236Y-43584789D01*
X53140729Y-43480785D01*
X53188597Y-43365223D01*
X53213000Y-43242542D01*
X53213000Y-43117458D01*
X53188597Y-42994777D01*
X53140729Y-42879215D01*
X53086000Y-42797307D01*
X53086000Y-41593458D01*
X59563000Y-41593458D01*
X59563000Y-41718542D01*
X59587403Y-41841223D01*
X59635271Y-41956785D01*
X59704764Y-42060789D01*
X59793211Y-42149236D01*
X59897215Y-42218729D01*
X60012777Y-42266597D01*
X60135458Y-42291000D01*
X60260542Y-42291000D01*
X60383223Y-42266597D01*
X60498785Y-42218729D01*
X60580693Y-42164000D01*
X61765580Y-42164000D01*
X62142429Y-42540850D01*
X62158211Y-42553802D01*
X62362628Y-42758219D01*
X62378473Y-42777526D01*
X62407920Y-42801693D01*
X62298777Y-42823403D01*
X62183215Y-42871271D01*
X62079211Y-42940764D01*
X61990764Y-43029211D01*
X61921271Y-43133215D01*
X61873403Y-43248777D01*
X61849000Y-43371458D01*
X61849000Y-43496542D01*
X61873403Y-43619223D01*
X61921271Y-43734785D01*
X61990764Y-43838789D01*
X62079211Y-43927236D01*
X62183215Y-43996729D01*
X62298777Y-44044597D01*
X62421458Y-44069000D01*
X62546542Y-44069000D01*
X62669223Y-44044597D01*
X62784785Y-43996729D01*
X62866693Y-43942000D01*
X67689307Y-43942000D01*
X67771215Y-43996729D01*
X67886777Y-44044597D01*
X68009458Y-44069000D01*
X68134542Y-44069000D01*
X68257223Y-44044597D01*
X68372785Y-43996729D01*
X68476789Y-43927236D01*
X68565236Y-43838789D01*
X68634729Y-43734785D01*
X68682597Y-43619223D01*
X68707000Y-43496542D01*
X68707000Y-43371458D01*
X68682597Y-43248777D01*
X68634729Y-43133215D01*
X68565236Y-43029211D01*
X68476789Y-42940764D01*
X68372785Y-42871271D01*
X68257223Y-42823403D01*
X68134542Y-42799000D01*
X68009458Y-42799000D01*
X67886777Y-42823403D01*
X67771215Y-42871271D01*
X67689307Y-42926000D01*
X67130108Y-42926000D01*
X67158597Y-42857223D01*
X67172306Y-42788306D01*
X67241223Y-42774597D01*
X67356785Y-42726729D01*
X67460789Y-42657236D01*
X67549236Y-42568789D01*
X67618729Y-42464785D01*
X67666597Y-42349223D01*
X67691000Y-42226542D01*
X67691000Y-42101458D01*
X67666597Y-41978777D01*
X67618729Y-41863215D01*
X67549236Y-41759211D01*
X67460789Y-41670764D01*
X67356785Y-41601271D01*
X67241223Y-41553403D01*
X67144604Y-41534184D01*
X67143571Y-41533151D01*
X67085596Y-41485572D01*
X66997344Y-41438401D01*
X66901585Y-41409353D01*
X66802001Y-41399544D01*
X66756742Y-41404002D01*
X64081280Y-41404000D01*
X64110597Y-41333223D01*
X64135000Y-41210542D01*
X64135000Y-41085458D01*
X64110597Y-40962777D01*
X64062729Y-40847215D01*
X64008000Y-40765307D01*
X64008000Y-39834420D01*
X65366604Y-38475816D01*
X65463223Y-38456597D01*
X65578785Y-38408729D01*
X65682789Y-38339236D01*
X65771236Y-38250789D01*
X65840729Y-38146785D01*
X65888597Y-38031223D01*
X65913000Y-37908542D01*
X65913000Y-37783458D01*
X65888597Y-37660777D01*
X65840729Y-37545215D01*
X65771236Y-37441211D01*
X65682789Y-37352764D01*
X65578785Y-37283271D01*
X65463223Y-37235403D01*
X65340542Y-37211000D01*
X65215458Y-37211000D01*
X65092777Y-37235403D01*
X64977215Y-37283271D01*
X64873211Y-37352764D01*
X64784764Y-37441211D01*
X64715271Y-37545215D01*
X64667403Y-37660777D01*
X64648184Y-37757396D01*
X63158430Y-39247150D01*
X63139053Y-39263052D01*
X63123151Y-39282429D01*
X63123150Y-39282430D01*
X63075571Y-39340405D01*
X63028400Y-39428657D01*
X63001586Y-39517053D01*
X62999352Y-39524416D01*
X62989543Y-39624000D01*
X62992001Y-39648954D01*
X62992000Y-40765307D01*
X62937271Y-40847215D01*
X62926833Y-40872413D01*
X62606855Y-40552435D01*
X62590948Y-40533052D01*
X62513595Y-40469571D01*
X62425343Y-40422399D01*
X62329585Y-40393351D01*
X62254947Y-40386000D01*
X62254944Y-40386000D01*
X62230000Y-40383543D01*
X62205056Y-40386000D01*
X61342693Y-40386000D01*
X61260785Y-40331271D01*
X61145223Y-40283403D01*
X61022542Y-40259000D01*
X60897458Y-40259000D01*
X60774777Y-40283403D01*
X60659215Y-40331271D01*
X60555211Y-40400764D01*
X60466764Y-40489211D01*
X60397271Y-40593215D01*
X60349403Y-40708777D01*
X60325000Y-40831458D01*
X60325000Y-40956542D01*
X60341005Y-41037005D01*
X60260542Y-41021000D01*
X60135458Y-41021000D01*
X60012777Y-41045403D01*
X59897215Y-41093271D01*
X59793211Y-41162764D01*
X59704764Y-41251211D01*
X59635271Y-41355215D01*
X59587403Y-41470777D01*
X59563000Y-41593458D01*
X53086000Y-41593458D01*
X53086000Y-40514693D01*
X53140729Y-40432785D01*
X53188597Y-40317223D01*
X53213000Y-40194542D01*
X53213000Y-40069458D01*
X53188597Y-39946777D01*
X53140729Y-39831215D01*
X53071236Y-39727211D01*
X52982789Y-39638764D01*
X52878785Y-39569271D01*
X52763223Y-39521403D01*
X52640542Y-39497000D01*
X52515458Y-39497000D01*
X52392777Y-39521403D01*
X52277215Y-39569271D01*
X52173211Y-39638764D01*
X52084764Y-39727211D01*
X52015271Y-39831215D01*
X51967403Y-39946777D01*
X51943000Y-40069458D01*
X25806000Y-40069458D01*
X25806000Y-34481458D01*
X65913000Y-34481458D01*
X65913000Y-34606542D01*
X65937403Y-34729223D01*
X65985271Y-34844785D01*
X66040000Y-34926693D01*
X66040001Y-36551046D01*
X66037543Y-36576000D01*
X66042934Y-36630729D01*
X66047352Y-36675585D01*
X66067629Y-36742429D01*
X66076400Y-36771343D01*
X66123571Y-36859595D01*
X66155727Y-36898777D01*
X66187053Y-36936948D01*
X66206430Y-36952850D01*
X66426184Y-37172605D01*
X66445403Y-37269223D01*
X66493271Y-37384785D01*
X66562764Y-37488789D01*
X66651211Y-37577236D01*
X66755215Y-37646729D01*
X66870777Y-37694597D01*
X66993458Y-37719000D01*
X67118542Y-37719000D01*
X67241223Y-37694597D01*
X67356785Y-37646729D01*
X67460789Y-37577236D01*
X67549236Y-37488789D01*
X67618729Y-37384785D01*
X67666597Y-37269223D01*
X67691000Y-37146542D01*
X67691000Y-37021458D01*
X67666597Y-36898777D01*
X67618729Y-36783215D01*
X67549236Y-36679211D01*
X67460789Y-36590764D01*
X67356785Y-36521271D01*
X67241223Y-36473403D01*
X67144605Y-36454184D01*
X67056000Y-36365580D01*
X67056000Y-35751458D01*
X67945000Y-35751458D01*
X67945000Y-35876542D01*
X67969403Y-35999223D01*
X68017271Y-36114785D01*
X68072000Y-36196693D01*
X68072001Y-39853046D01*
X68069543Y-39878000D01*
X68075321Y-39936657D01*
X68079352Y-39977585D01*
X68108400Y-40073343D01*
X68155571Y-40161595D01*
X68182610Y-40194542D01*
X68219053Y-40238948D01*
X68238430Y-40254850D01*
X69088000Y-41104421D01*
X69088001Y-47369306D01*
X69033271Y-47451215D01*
X68985403Y-47566777D01*
X68961000Y-47689458D01*
X68961000Y-47814542D01*
X68985403Y-47937223D01*
X69033271Y-48052785D01*
X69102764Y-48156789D01*
X69191211Y-48245236D01*
X69295215Y-48314729D01*
X69410777Y-48362597D01*
X69533458Y-48387000D01*
X69658542Y-48387000D01*
X69781223Y-48362597D01*
X69850000Y-48334108D01*
X69850001Y-51029046D01*
X69847543Y-51054000D01*
X69855396Y-51133726D01*
X69857352Y-51153585D01*
X69873071Y-51205403D01*
X69886400Y-51249343D01*
X69933571Y-51337595D01*
X69977868Y-51391571D01*
X69997053Y-51414948D01*
X70016430Y-51430850D01*
X70743145Y-52157565D01*
X70759052Y-52176948D01*
X70836405Y-52240429D01*
X70924657Y-52287601D01*
X71020415Y-52316649D01*
X71095053Y-52324000D01*
X71095056Y-52324000D01*
X71120000Y-52326457D01*
X71144944Y-52324000D01*
X76325307Y-52324000D01*
X76407215Y-52378729D01*
X76522777Y-52426597D01*
X76645458Y-52451000D01*
X76770542Y-52451000D01*
X76893223Y-52426597D01*
X77008785Y-52378729D01*
X77112789Y-52309236D01*
X77201236Y-52220789D01*
X77270729Y-52116785D01*
X77318597Y-52001223D01*
X77343000Y-51878542D01*
X77343000Y-51753458D01*
X77318597Y-51630777D01*
X77270729Y-51515215D01*
X77201236Y-51411211D01*
X77112789Y-51322764D01*
X77008785Y-51253271D01*
X76893223Y-51205403D01*
X76770542Y-51181000D01*
X76645458Y-51181000D01*
X76522777Y-51205403D01*
X76407215Y-51253271D01*
X76325307Y-51308000D01*
X71330420Y-51308000D01*
X70866000Y-50843580D01*
X70866000Y-47679061D01*
X70868457Y-47654117D01*
X70863246Y-47601211D01*
X70858649Y-47554533D01*
X70829601Y-47458775D01*
X70782429Y-47370523D01*
X70718948Y-47293170D01*
X70699565Y-47277263D01*
X70612000Y-47189698D01*
X70612000Y-46927458D01*
X70993000Y-46927458D01*
X70993000Y-47052542D01*
X71017403Y-47175223D01*
X71065271Y-47290785D01*
X71134764Y-47394789D01*
X71223211Y-47483236D01*
X71245307Y-47498000D01*
X71223211Y-47512764D01*
X71134764Y-47601211D01*
X71065271Y-47705215D01*
X71017403Y-47820777D01*
X70993000Y-47943458D01*
X70993000Y-48068542D01*
X71017403Y-48191223D01*
X71065271Y-48306785D01*
X71134764Y-48410789D01*
X71223211Y-48499236D01*
X71327215Y-48568729D01*
X71442777Y-48616597D01*
X71565458Y-48641000D01*
X71690542Y-48641000D01*
X71813223Y-48616597D01*
X71928785Y-48568729D01*
X72032789Y-48499236D01*
X72121236Y-48410789D01*
X72190729Y-48306785D01*
X72238597Y-48191223D01*
X72257816Y-48094605D01*
X72273420Y-48079001D01*
X74421937Y-48079001D01*
X74446881Y-48081458D01*
X74471825Y-48079001D01*
X74471828Y-48079001D01*
X74546466Y-48071650D01*
X74642224Y-48042602D01*
X74730476Y-47995430D01*
X74807829Y-47931949D01*
X74823736Y-47912566D01*
X74900203Y-47836099D01*
X74944764Y-47902789D01*
X75033211Y-47991236D01*
X75137215Y-48060729D01*
X75252777Y-48108597D01*
X75375458Y-48133000D01*
X75500542Y-48133000D01*
X75623223Y-48108597D01*
X75738785Y-48060729D01*
X75842789Y-47991236D01*
X75931236Y-47902789D01*
X75946000Y-47880693D01*
X75960764Y-47902789D01*
X76049211Y-47991236D01*
X76153215Y-48060729D01*
X76268777Y-48108597D01*
X76391458Y-48133000D01*
X76516542Y-48133000D01*
X76639223Y-48108597D01*
X76754785Y-48060729D01*
X76858789Y-47991236D01*
X76947236Y-47902789D01*
X77016729Y-47798785D01*
X77064597Y-47683223D01*
X77089000Y-47560542D01*
X77089000Y-47435458D01*
X77064597Y-47312777D01*
X77016729Y-47197215D01*
X76947236Y-47093211D01*
X76858789Y-47004764D01*
X76754785Y-46935271D01*
X76639223Y-46887403D01*
X76542605Y-46868184D01*
X76322855Y-46648434D01*
X76306948Y-46629052D01*
X76287560Y-46613141D01*
X76219011Y-46544592D01*
X76219011Y-45786005D01*
X76221468Y-45761061D01*
X76218148Y-45727351D01*
X76211660Y-45661477D01*
X76182612Y-45565719D01*
X76162802Y-45528657D01*
X76135440Y-45477466D01*
X76102322Y-45437112D01*
X76071959Y-45400114D01*
X76052576Y-45384207D01*
X75519793Y-44851424D01*
X75503886Y-44832041D01*
X75426533Y-44768560D01*
X75338281Y-44721388D01*
X75242523Y-44692340D01*
X75167885Y-44684989D01*
X75167882Y-44684989D01*
X75142938Y-44682532D01*
X75117994Y-44684989D01*
X74211955Y-44684989D01*
X74187011Y-44682532D01*
X74162067Y-44684989D01*
X74162064Y-44684989D01*
X74087426Y-44692340D01*
X73991668Y-44721388D01*
X73950587Y-44743346D01*
X73903415Y-44768560D01*
X73848821Y-44813365D01*
X73826063Y-44832041D01*
X73810160Y-44851419D01*
X73555982Y-45105597D01*
X73472542Y-45089000D01*
X73347458Y-45089000D01*
X73224777Y-45113403D01*
X73109215Y-45161271D01*
X73005211Y-45230764D01*
X72916764Y-45319211D01*
X72847271Y-45423215D01*
X72829549Y-45466000D01*
X72708458Y-45466000D01*
X72585777Y-45490403D01*
X72470215Y-45538271D01*
X72366211Y-45607764D01*
X72277764Y-45696211D01*
X72208271Y-45800215D01*
X72160403Y-45915777D01*
X72136000Y-46038458D01*
X72136000Y-46163542D01*
X72160403Y-46286223D01*
X72208271Y-46401785D01*
X72261869Y-46482000D01*
X72010693Y-46482000D01*
X71928785Y-46427271D01*
X71813223Y-46379403D01*
X71690542Y-46355000D01*
X71565458Y-46355000D01*
X71442777Y-46379403D01*
X71327215Y-46427271D01*
X71223211Y-46496764D01*
X71134764Y-46585211D01*
X71065271Y-46689215D01*
X71017403Y-46804777D01*
X70993000Y-46927458D01*
X70612000Y-46927458D01*
X70612000Y-40664944D01*
X70614457Y-40640000D01*
X70609849Y-40593215D01*
X70604649Y-40540415D01*
X70575601Y-40444657D01*
X70540319Y-40378649D01*
X70528429Y-40356404D01*
X70480850Y-40298429D01*
X70464948Y-40279052D01*
X70445571Y-40263150D01*
X69596000Y-39413580D01*
X69596000Y-36650108D01*
X69642785Y-36630729D01*
X69746789Y-36561236D01*
X69835236Y-36472789D01*
X69904729Y-36368785D01*
X69952597Y-36253223D01*
X69977000Y-36130542D01*
X69977000Y-36005458D01*
X81661000Y-36005458D01*
X81661000Y-36130542D01*
X81685403Y-36253223D01*
X81733271Y-36368785D01*
X81788000Y-36450693D01*
X81788001Y-38225306D01*
X81733271Y-38307215D01*
X81685403Y-38422777D01*
X81661000Y-38545458D01*
X81661000Y-38670542D01*
X81685403Y-38793223D01*
X81733271Y-38908785D01*
X81802764Y-39012789D01*
X81891211Y-39101236D01*
X81995215Y-39170729D01*
X82110777Y-39218597D01*
X82233458Y-39243000D01*
X82358542Y-39243000D01*
X82481223Y-39218597D01*
X82596785Y-39170729D01*
X82700789Y-39101236D01*
X82789236Y-39012789D01*
X82804000Y-38990693D01*
X82818764Y-39012789D01*
X82907211Y-39101236D01*
X83011215Y-39170729D01*
X83126777Y-39218597D01*
X83249458Y-39243000D01*
X83374542Y-39243000D01*
X83497223Y-39218597D01*
X83612785Y-39170729D01*
X83716789Y-39101236D01*
X83805236Y-39012789D01*
X83874729Y-38908785D01*
X83922597Y-38793223D01*
X83947000Y-38670542D01*
X83947000Y-38545458D01*
X83922597Y-38422777D01*
X83874729Y-38307215D01*
X83820000Y-38225307D01*
X83820000Y-36450693D01*
X83874729Y-36368785D01*
X83922597Y-36253223D01*
X83947000Y-36130542D01*
X83947000Y-36005458D01*
X83922597Y-35882777D01*
X83874729Y-35767215D01*
X83805236Y-35663211D01*
X83716789Y-35574764D01*
X83612785Y-35505271D01*
X83497223Y-35457403D01*
X83374542Y-35433000D01*
X83249458Y-35433000D01*
X83126777Y-35457403D01*
X83011215Y-35505271D01*
X82907211Y-35574764D01*
X82818764Y-35663211D01*
X82804000Y-35685307D01*
X82789236Y-35663211D01*
X82700789Y-35574764D01*
X82596785Y-35505271D01*
X82481223Y-35457403D01*
X82358542Y-35433000D01*
X82233458Y-35433000D01*
X82110777Y-35457403D01*
X81995215Y-35505271D01*
X81891211Y-35574764D01*
X81802764Y-35663211D01*
X81733271Y-35767215D01*
X81685403Y-35882777D01*
X81661000Y-36005458D01*
X69977000Y-36005458D01*
X69952597Y-35882777D01*
X69904729Y-35767215D01*
X69835236Y-35663211D01*
X69746789Y-35574764D01*
X69642785Y-35505271D01*
X69527223Y-35457403D01*
X69404542Y-35433000D01*
X69279458Y-35433000D01*
X69156777Y-35457403D01*
X69116566Y-35474059D01*
X69073236Y-35409211D01*
X68984789Y-35320764D01*
X68880785Y-35251271D01*
X68765223Y-35203403D01*
X68642542Y-35179000D01*
X68517458Y-35179000D01*
X68394777Y-35203403D01*
X68279215Y-35251271D01*
X68175211Y-35320764D01*
X68086764Y-35409211D01*
X68017271Y-35513215D01*
X67969403Y-35628777D01*
X67945000Y-35751458D01*
X67056000Y-35751458D01*
X67056000Y-34926693D01*
X67110729Y-34844785D01*
X67158597Y-34729223D01*
X67183000Y-34606542D01*
X67183000Y-34481458D01*
X67158597Y-34358777D01*
X67110729Y-34243215D01*
X67041236Y-34139211D01*
X66952789Y-34050764D01*
X66848785Y-33981271D01*
X66733223Y-33933403D01*
X66610542Y-33909000D01*
X66485458Y-33909000D01*
X66362777Y-33933403D01*
X66247215Y-33981271D01*
X66143211Y-34050764D01*
X66054764Y-34139211D01*
X65985271Y-34243215D01*
X65937403Y-34358777D01*
X65913000Y-34481458D01*
X25806000Y-34481458D01*
X25806000Y-27818757D01*
X54141000Y-27818757D01*
X54141000Y-28061243D01*
X54188307Y-28299069D01*
X54281102Y-28523097D01*
X54415820Y-28724717D01*
X54587283Y-28896180D01*
X54788903Y-29030898D01*
X55012931Y-29123693D01*
X55250757Y-29171000D01*
X55493243Y-29171000D01*
X55731069Y-29123693D01*
X55955097Y-29030898D01*
X56156717Y-28896180D01*
X56328180Y-28724717D01*
X56462898Y-28523097D01*
X56555693Y-28299069D01*
X56603000Y-28061243D01*
X56603000Y-27818757D01*
X56555693Y-27580931D01*
X56462898Y-27356903D01*
X56328180Y-27155283D01*
X56156717Y-26983820D01*
X55955097Y-26849102D01*
X55731069Y-26756307D01*
X55493243Y-26709000D01*
X55250757Y-26709000D01*
X55012931Y-26756307D01*
X54788903Y-26849102D01*
X54587283Y-26983820D01*
X54415820Y-27155283D01*
X54281102Y-27356903D01*
X54188307Y-27580931D01*
X54141000Y-27818757D01*
X25806000Y-27818757D01*
X25806000Y-25806000D01*
X58788764Y-25806000D01*
X57885765Y-26709000D01*
M02*
